%TF.GenerationSoftware,KiCad,Pcbnew,(6.0.1-0)*%
%TF.CreationDate,2022-04-07T21:47:18+00:00*%
%TF.ProjectId,fjol,666a6f6c-2e6b-4696-9361-645f70636258,rev?*%
%TF.SameCoordinates,Original*%
%TF.FileFunction,Legend,Top*%
%TF.FilePolarity,Positive*%
%FSLAX46Y46*%
G04 Gerber Fmt 4.6, Leading zero omitted, Abs format (unit mm)*
G04 Created by KiCad (PCBNEW (6.0.1-0)) date 2022-04-07 21:47:18*
%MOMM*%
%LPD*%
G01*
G04 APERTURE LIST*
%ADD10C,0.120000*%
%ADD11C,0.200000*%
%ADD12C,0.300000*%
%ADD13C,0.150000*%
%ADD14C,0.120650*%
%ADD15C,0.152400*%
G04 APERTURE END LIST*
D10*
X-27787600Y127050800D02*
X-26822400Y126085600D01*
D11*
X119625438Y-112772180D02*
G75*
G03*
X119625438Y-112772180I-100000J0D01*
G01*
X163440438Y-113153180D02*
G75*
G03*
X163440438Y-113153180I-100000J0D01*
G01*
X243940000Y-78359000D02*
G75*
G03*
X243940000Y-78359000I-100000J0D01*
G01*
X190473000Y-126111000D02*
G75*
G03*
X190473000Y-126111000I-100000J0D01*
G01*
X251864800Y-104444800D02*
G75*
G03*
X251864800Y-104444800I-100000J0D01*
G01*
X131944438Y-87372180D02*
G75*
G03*
X131944438Y-87372180I-100000J0D01*
G01*
X202157000Y-80645000D02*
G75*
G03*
X202157000Y-80645000I-100000J0D01*
G01*
D12*
X191732742Y-130345571D02*
X191732742Y-128845571D01*
X192589885Y-130345571D02*
X191947028Y-129488428D01*
X192589885Y-128845571D02*
X191732742Y-129702714D01*
X239916542Y-145153771D02*
X239916542Y-143653771D01*
X240773685Y-145153771D02*
X240130828Y-144296628D01*
X240773685Y-143653771D02*
X239916542Y-144510914D01*
X207531542Y-158768171D02*
X207531542Y-157268171D01*
X208388685Y-158768171D02*
X207745828Y-157911028D01*
X208388685Y-157268171D02*
X207531542Y-158125314D01*
D13*
%TO.C,L1*%
X243266933Y-148505980D02*
X242790742Y-148505980D01*
X242790742Y-147505980D01*
X244124076Y-148505980D02*
X243552647Y-148505980D01*
X243838361Y-148505980D02*
X243838361Y-147505980D01*
X243743123Y-147648838D01*
X243647885Y-147744076D01*
X243552647Y-147791695D01*
%TO.C,L2*%
X259957033Y-131337580D02*
X259480842Y-131337580D01*
X259480842Y-130337580D01*
X260242747Y-130432819D02*
X260290366Y-130385200D01*
X260385604Y-130337580D01*
X260623700Y-130337580D01*
X260718938Y-130385200D01*
X260766557Y-130432819D01*
X260814176Y-130528057D01*
X260814176Y-130623295D01*
X260766557Y-130766152D01*
X260195128Y-131337580D01*
X260814176Y-131337580D01*
%TO.C,U6*%
X252055380Y-97662904D02*
X252864904Y-97662904D01*
X252960142Y-97615285D01*
X253007761Y-97567666D01*
X253055380Y-97472428D01*
X253055380Y-97281952D01*
X253007761Y-97186714D01*
X252960142Y-97139095D01*
X252864904Y-97091476D01*
X252055380Y-97091476D01*
X252055380Y-96186714D02*
X252055380Y-96377190D01*
X252103000Y-96472428D01*
X252150619Y-96520047D01*
X252293476Y-96615285D01*
X252483952Y-96662904D01*
X252864904Y-96662904D01*
X252960142Y-96615285D01*
X253007761Y-96567666D01*
X253055380Y-96472428D01*
X253055380Y-96281952D01*
X253007761Y-96186714D01*
X252960142Y-96139095D01*
X252864904Y-96091476D01*
X252626809Y-96091476D01*
X252531571Y-96139095D01*
X252483952Y-96186714D01*
X252436333Y-96281952D01*
X252436333Y-96472428D01*
X252483952Y-96567666D01*
X252531571Y-96615285D01*
X252626809Y-96662904D01*
%TO.C,U8*%
X204063695Y-79309980D02*
X204063695Y-80119504D01*
X204111314Y-80214742D01*
X204158933Y-80262361D01*
X204254171Y-80309980D01*
X204444647Y-80309980D01*
X204539885Y-80262361D01*
X204587504Y-80214742D01*
X204635123Y-80119504D01*
X204635123Y-79309980D01*
X205254171Y-79738552D02*
X205158933Y-79690933D01*
X205111314Y-79643314D01*
X205063695Y-79548076D01*
X205063695Y-79500457D01*
X205111314Y-79405219D01*
X205158933Y-79357600D01*
X205254171Y-79309980D01*
X205444647Y-79309980D01*
X205539885Y-79357600D01*
X205587504Y-79405219D01*
X205635123Y-79500457D01*
X205635123Y-79548076D01*
X205587504Y-79643314D01*
X205539885Y-79690933D01*
X205444647Y-79738552D01*
X205254171Y-79738552D01*
X205158933Y-79786171D01*
X205111314Y-79833790D01*
X205063695Y-79929028D01*
X205063695Y-80119504D01*
X205111314Y-80214742D01*
X205158933Y-80262361D01*
X205254171Y-80309980D01*
X205444647Y-80309980D01*
X205539885Y-80262361D01*
X205587504Y-80214742D01*
X205635123Y-80119504D01*
X205635123Y-79929028D01*
X205587504Y-79833790D01*
X205539885Y-79786171D01*
X205444647Y-79738552D01*
%TO.C,R44*%
X241498380Y-83675457D02*
X241022190Y-84008790D01*
X241498380Y-84246885D02*
X240498380Y-84246885D01*
X240498380Y-83865933D01*
X240546000Y-83770695D01*
X240593619Y-83723076D01*
X240688857Y-83675457D01*
X240831714Y-83675457D01*
X240926952Y-83723076D01*
X240974571Y-83770695D01*
X241022190Y-83865933D01*
X241022190Y-84246885D01*
X240831714Y-82818314D02*
X241498380Y-82818314D01*
X240450761Y-83056409D02*
X241165047Y-83294504D01*
X241165047Y-82675457D01*
X240831714Y-81865933D02*
X241498380Y-81865933D01*
X240450761Y-82104028D02*
X241165047Y-82342123D01*
X241165047Y-81723076D01*
%TO.C,R45*%
X231970342Y-77211180D02*
X231637009Y-76734990D01*
X231398914Y-77211180D02*
X231398914Y-76211180D01*
X231779866Y-76211180D01*
X231875104Y-76258800D01*
X231922723Y-76306419D01*
X231970342Y-76401657D01*
X231970342Y-76544514D01*
X231922723Y-76639752D01*
X231875104Y-76687371D01*
X231779866Y-76734990D01*
X231398914Y-76734990D01*
X232827485Y-76544514D02*
X232827485Y-77211180D01*
X232589390Y-76163561D02*
X232351295Y-76877847D01*
X232970342Y-76877847D01*
X233827485Y-76211180D02*
X233351295Y-76211180D01*
X233303676Y-76687371D01*
X233351295Y-76639752D01*
X233446533Y-76592133D01*
X233684628Y-76592133D01*
X233779866Y-76639752D01*
X233827485Y-76687371D01*
X233875104Y-76782609D01*
X233875104Y-77020704D01*
X233827485Y-77115942D01*
X233779866Y-77163561D01*
X233684628Y-77211180D01*
X233446533Y-77211180D01*
X233351295Y-77163561D01*
X233303676Y-77115942D01*
%TO.C,R58*%
X252572780Y-91168457D02*
X252096590Y-91501790D01*
X252572780Y-91739885D02*
X251572780Y-91739885D01*
X251572780Y-91358933D01*
X251620400Y-91263695D01*
X251668019Y-91216076D01*
X251763257Y-91168457D01*
X251906114Y-91168457D01*
X252001352Y-91216076D01*
X252048971Y-91263695D01*
X252096590Y-91358933D01*
X252096590Y-91739885D01*
X251572780Y-90263695D02*
X251572780Y-90739885D01*
X252048971Y-90787504D01*
X252001352Y-90739885D01*
X251953733Y-90644647D01*
X251953733Y-90406552D01*
X252001352Y-90311314D01*
X252048971Y-90263695D01*
X252144209Y-90216076D01*
X252382304Y-90216076D01*
X252477542Y-90263695D01*
X252525161Y-90311314D01*
X252572780Y-90406552D01*
X252572780Y-90644647D01*
X252525161Y-90739885D01*
X252477542Y-90787504D01*
X252001352Y-89644647D02*
X251953733Y-89739885D01*
X251906114Y-89787504D01*
X251810876Y-89835123D01*
X251763257Y-89835123D01*
X251668019Y-89787504D01*
X251620400Y-89739885D01*
X251572780Y-89644647D01*
X251572780Y-89454171D01*
X251620400Y-89358933D01*
X251668019Y-89311314D01*
X251763257Y-89263695D01*
X251810876Y-89263695D01*
X251906114Y-89311314D01*
X251953733Y-89358933D01*
X252001352Y-89454171D01*
X252001352Y-89644647D01*
X252048971Y-89739885D01*
X252096590Y-89787504D01*
X252191828Y-89835123D01*
X252382304Y-89835123D01*
X252477542Y-89787504D01*
X252525161Y-89739885D01*
X252572780Y-89644647D01*
X252572780Y-89454171D01*
X252525161Y-89358933D01*
X252477542Y-89311314D01*
X252382304Y-89263695D01*
X252191828Y-89263695D01*
X252096590Y-89311314D01*
X252048971Y-89358933D01*
X252001352Y-89454171D01*
%TO.C,U10*%
X154015818Y-109884275D02*
X154825342Y-109884275D01*
X154920580Y-109836656D01*
X154968199Y-109789037D01*
X155015818Y-109693799D01*
X155015818Y-109503322D01*
X154968199Y-109408084D01*
X154920580Y-109360465D01*
X154825342Y-109312846D01*
X154015818Y-109312846D01*
X155015818Y-108312846D02*
X155015818Y-108884275D01*
X155015818Y-108598560D02*
X154015818Y-108598560D01*
X154158676Y-108693799D01*
X154253914Y-108789037D01*
X154301533Y-108884275D01*
X154015818Y-107693799D02*
X154015818Y-107598560D01*
X154063438Y-107503322D01*
X154111057Y-107455703D01*
X154206295Y-107408084D01*
X154396771Y-107360465D01*
X154634866Y-107360465D01*
X154825342Y-107408084D01*
X154920580Y-107455703D01*
X154968199Y-107503322D01*
X155015818Y-107598560D01*
X155015818Y-107693799D01*
X154968199Y-107789037D01*
X154920580Y-107836656D01*
X154825342Y-107884275D01*
X154634866Y-107931894D01*
X154396771Y-107931894D01*
X154206295Y-107884275D01*
X154111057Y-107836656D01*
X154063438Y-107789037D01*
X154015818Y-107693799D01*
%TO.C,C1*%
X274041142Y-122493066D02*
X274088761Y-122540685D01*
X274136380Y-122683542D01*
X274136380Y-122778780D01*
X274088761Y-122921638D01*
X273993523Y-123016876D01*
X273898285Y-123064495D01*
X273707809Y-123112114D01*
X273564952Y-123112114D01*
X273374476Y-123064495D01*
X273279238Y-123016876D01*
X273184000Y-122921638D01*
X273136380Y-122778780D01*
X273136380Y-122683542D01*
X273184000Y-122540685D01*
X273231619Y-122493066D01*
X274136380Y-121540685D02*
X274136380Y-122112114D01*
X274136380Y-121826400D02*
X273136380Y-121826400D01*
X273279238Y-121921638D01*
X273374476Y-122016876D01*
X273422095Y-122112114D01*
%TO.C,C2*%
X263363433Y-129757442D02*
X263315814Y-129805061D01*
X263172957Y-129852680D01*
X263077719Y-129852680D01*
X262934861Y-129805061D01*
X262839623Y-129709823D01*
X262792004Y-129614585D01*
X262744385Y-129424109D01*
X262744385Y-129281252D01*
X262792004Y-129090776D01*
X262839623Y-128995538D01*
X262934861Y-128900300D01*
X263077719Y-128852680D01*
X263172957Y-128852680D01*
X263315814Y-128900300D01*
X263363433Y-128947919D01*
X263744385Y-128947919D02*
X263792004Y-128900300D01*
X263887242Y-128852680D01*
X264125338Y-128852680D01*
X264220576Y-128900300D01*
X264268195Y-128947919D01*
X264315814Y-129043157D01*
X264315814Y-129138395D01*
X264268195Y-129281252D01*
X263696766Y-129852680D01*
X264315814Y-129852680D01*
%TO.C,C4*%
X245768042Y-121033366D02*
X245815661Y-121080985D01*
X245863280Y-121223842D01*
X245863280Y-121319080D01*
X245815661Y-121461938D01*
X245720423Y-121557176D01*
X245625185Y-121604795D01*
X245434709Y-121652414D01*
X245291852Y-121652414D01*
X245101376Y-121604795D01*
X245006138Y-121557176D01*
X244910900Y-121461938D01*
X244863280Y-121319080D01*
X244863280Y-121223842D01*
X244910900Y-121080985D01*
X244958519Y-121033366D01*
X245196614Y-120176223D02*
X245863280Y-120176223D01*
X244815661Y-120414319D02*
X245529947Y-120652414D01*
X245529947Y-120033366D01*
%TO.C,C6*%
X252198142Y-154090666D02*
X252245761Y-154138285D01*
X252293380Y-154281142D01*
X252293380Y-154376380D01*
X252245761Y-154519238D01*
X252150523Y-154614476D01*
X252055285Y-154662095D01*
X251864809Y-154709714D01*
X251721952Y-154709714D01*
X251531476Y-154662095D01*
X251436238Y-154614476D01*
X251341000Y-154519238D01*
X251293380Y-154376380D01*
X251293380Y-154281142D01*
X251341000Y-154138285D01*
X251388619Y-154090666D01*
X251293380Y-153233523D02*
X251293380Y-153424000D01*
X251341000Y-153519238D01*
X251388619Y-153566857D01*
X251531476Y-153662095D01*
X251721952Y-153709714D01*
X252102904Y-153709714D01*
X252198142Y-153662095D01*
X252245761Y-153614476D01*
X252293380Y-153519238D01*
X252293380Y-153328761D01*
X252245761Y-153233523D01*
X252198142Y-153185904D01*
X252102904Y-153138285D01*
X251864809Y-153138285D01*
X251769571Y-153185904D01*
X251721952Y-153233523D01*
X251674333Y-153328761D01*
X251674333Y-153519238D01*
X251721952Y-153614476D01*
X251769571Y-153662095D01*
X251864809Y-153709714D01*
%TO.C,C7*%
X201257442Y-148494466D02*
X201305061Y-148542085D01*
X201352680Y-148684942D01*
X201352680Y-148780180D01*
X201305061Y-148923038D01*
X201209823Y-149018276D01*
X201114585Y-149065895D01*
X200924109Y-149113514D01*
X200781252Y-149113514D01*
X200590776Y-149065895D01*
X200495538Y-149018276D01*
X200400300Y-148923038D01*
X200352680Y-148780180D01*
X200352680Y-148684942D01*
X200400300Y-148542085D01*
X200447919Y-148494466D01*
X200352680Y-148161133D02*
X200352680Y-147494466D01*
X201352680Y-147923038D01*
%TO.C,C8*%
X108960580Y-124622846D02*
X109008199Y-124670465D01*
X109055818Y-124813322D01*
X109055818Y-124908560D01*
X109008199Y-125051418D01*
X108912961Y-125146656D01*
X108817723Y-125194275D01*
X108627247Y-125241894D01*
X108484390Y-125241894D01*
X108293914Y-125194275D01*
X108198676Y-125146656D01*
X108103438Y-125051418D01*
X108055818Y-124908560D01*
X108055818Y-124813322D01*
X108103438Y-124670465D01*
X108151057Y-124622846D01*
X108484390Y-124051418D02*
X108436771Y-124146656D01*
X108389152Y-124194275D01*
X108293914Y-124241894D01*
X108246295Y-124241894D01*
X108151057Y-124194275D01*
X108103438Y-124146656D01*
X108055818Y-124051418D01*
X108055818Y-123860941D01*
X108103438Y-123765703D01*
X108151057Y-123718084D01*
X108246295Y-123670465D01*
X108293914Y-123670465D01*
X108389152Y-123718084D01*
X108436771Y-123765703D01*
X108484390Y-123860941D01*
X108484390Y-124051418D01*
X108532009Y-124146656D01*
X108579628Y-124194275D01*
X108674866Y-124241894D01*
X108865342Y-124241894D01*
X108960580Y-124194275D01*
X109008199Y-124146656D01*
X109055818Y-124051418D01*
X109055818Y-123860941D01*
X109008199Y-123765703D01*
X108960580Y-123718084D01*
X108865342Y-123670465D01*
X108674866Y-123670465D01*
X108579628Y-123718084D01*
X108532009Y-123765703D01*
X108484390Y-123860941D01*
%TO.C,C9*%
X120933080Y-125025346D02*
X120980699Y-125072965D01*
X121028318Y-125215822D01*
X121028318Y-125311060D01*
X120980699Y-125453918D01*
X120885461Y-125549156D01*
X120790223Y-125596775D01*
X120599747Y-125644394D01*
X120456890Y-125644394D01*
X120266414Y-125596775D01*
X120171176Y-125549156D01*
X120075938Y-125453918D01*
X120028318Y-125311060D01*
X120028318Y-125215822D01*
X120075938Y-125072965D01*
X120123557Y-125025346D01*
X121028318Y-124549156D02*
X121028318Y-124358680D01*
X120980699Y-124263441D01*
X120933080Y-124215822D01*
X120790223Y-124120584D01*
X120599747Y-124072965D01*
X120218795Y-124072965D01*
X120123557Y-124120584D01*
X120075938Y-124168203D01*
X120028318Y-124263441D01*
X120028318Y-124453918D01*
X120075938Y-124549156D01*
X120123557Y-124596775D01*
X120218795Y-124644394D01*
X120456890Y-124644394D01*
X120552128Y-124596775D01*
X120599747Y-124549156D01*
X120647366Y-124453918D01*
X120647366Y-124263441D01*
X120599747Y-124168203D01*
X120552128Y-124120584D01*
X120456890Y-124072965D01*
%TO.C,C14*%
X169336380Y-73232237D02*
X169383999Y-73279856D01*
X169431618Y-73422713D01*
X169431618Y-73517951D01*
X169383999Y-73660808D01*
X169288761Y-73756046D01*
X169193523Y-73803665D01*
X169003047Y-73851284D01*
X168860190Y-73851284D01*
X168669714Y-73803665D01*
X168574476Y-73756046D01*
X168479238Y-73660808D01*
X168431618Y-73517951D01*
X168431618Y-73422713D01*
X168479238Y-73279856D01*
X168526857Y-73232237D01*
X169431618Y-72279856D02*
X169431618Y-72851284D01*
X169431618Y-72565570D02*
X168431618Y-72565570D01*
X168574476Y-72660808D01*
X168669714Y-72756046D01*
X168717333Y-72851284D01*
X168764952Y-71422713D02*
X169431618Y-71422713D01*
X168383999Y-71660808D02*
X169098285Y-71898903D01*
X169098285Y-71279856D01*
%TO.C,C15*%
X261087142Y-102623857D02*
X261134761Y-102671476D01*
X261182380Y-102814333D01*
X261182380Y-102909571D01*
X261134761Y-103052428D01*
X261039523Y-103147666D01*
X260944285Y-103195285D01*
X260753809Y-103242904D01*
X260610952Y-103242904D01*
X260420476Y-103195285D01*
X260325238Y-103147666D01*
X260230000Y-103052428D01*
X260182380Y-102909571D01*
X260182380Y-102814333D01*
X260230000Y-102671476D01*
X260277619Y-102623857D01*
X261182380Y-101671476D02*
X261182380Y-102242904D01*
X261182380Y-101957190D02*
X260182380Y-101957190D01*
X260325238Y-102052428D01*
X260420476Y-102147666D01*
X260468095Y-102242904D01*
X260182380Y-100766714D02*
X260182380Y-101242904D01*
X260658571Y-101290523D01*
X260610952Y-101242904D01*
X260563333Y-101147666D01*
X260563333Y-100909571D01*
X260610952Y-100814333D01*
X260658571Y-100766714D01*
X260753809Y-100719095D01*
X260991904Y-100719095D01*
X261087142Y-100766714D01*
X261134761Y-100814333D01*
X261182380Y-100909571D01*
X261182380Y-101147666D01*
X261134761Y-101242904D01*
X261087142Y-101290523D01*
%TO.C,C16*%
X248896142Y-103004857D02*
X248943761Y-103052476D01*
X248991380Y-103195333D01*
X248991380Y-103290571D01*
X248943761Y-103433428D01*
X248848523Y-103528666D01*
X248753285Y-103576285D01*
X248562809Y-103623904D01*
X248419952Y-103623904D01*
X248229476Y-103576285D01*
X248134238Y-103528666D01*
X248039000Y-103433428D01*
X247991380Y-103290571D01*
X247991380Y-103195333D01*
X248039000Y-103052476D01*
X248086619Y-103004857D01*
X248991380Y-102052476D02*
X248991380Y-102623904D01*
X248991380Y-102338190D02*
X247991380Y-102338190D01*
X248134238Y-102433428D01*
X248229476Y-102528666D01*
X248277095Y-102623904D01*
X247991380Y-101195333D02*
X247991380Y-101385809D01*
X248039000Y-101481047D01*
X248086619Y-101528666D01*
X248229476Y-101623904D01*
X248419952Y-101671523D01*
X248800904Y-101671523D01*
X248896142Y-101623904D01*
X248943761Y-101576285D01*
X248991380Y-101481047D01*
X248991380Y-101290571D01*
X248943761Y-101195333D01*
X248896142Y-101147714D01*
X248800904Y-101100095D01*
X248562809Y-101100095D01*
X248467571Y-101147714D01*
X248419952Y-101195333D01*
X248372333Y-101290571D01*
X248372333Y-101481047D01*
X248419952Y-101576285D01*
X248467571Y-101623904D01*
X248562809Y-101671523D01*
%TO.C,C18*%
X170720580Y-63401537D02*
X170768199Y-63449156D01*
X170815818Y-63592013D01*
X170815818Y-63687251D01*
X170768199Y-63830108D01*
X170672961Y-63925346D01*
X170577723Y-63972965D01*
X170387247Y-64020584D01*
X170244390Y-64020584D01*
X170053914Y-63972965D01*
X169958676Y-63925346D01*
X169863438Y-63830108D01*
X169815818Y-63687251D01*
X169815818Y-63592013D01*
X169863438Y-63449156D01*
X169911057Y-63401537D01*
X170815818Y-62449156D02*
X170815818Y-63020584D01*
X170815818Y-62734870D02*
X169815818Y-62734870D01*
X169958676Y-62830108D01*
X170053914Y-62925346D01*
X170101533Y-63020584D01*
X170244390Y-61877727D02*
X170196771Y-61972965D01*
X170149152Y-62020584D01*
X170053914Y-62068203D01*
X170006295Y-62068203D01*
X169911057Y-62020584D01*
X169863438Y-61972965D01*
X169815818Y-61877727D01*
X169815818Y-61687251D01*
X169863438Y-61592013D01*
X169911057Y-61544394D01*
X170006295Y-61496775D01*
X170053914Y-61496775D01*
X170149152Y-61544394D01*
X170196771Y-61592013D01*
X170244390Y-61687251D01*
X170244390Y-61877727D01*
X170292009Y-61972965D01*
X170339628Y-62020584D01*
X170434866Y-62068203D01*
X170625342Y-62068203D01*
X170720580Y-62020584D01*
X170768199Y-61972965D01*
X170815818Y-61877727D01*
X170815818Y-61687251D01*
X170768199Y-61592013D01*
X170720580Y-61544394D01*
X170625342Y-61496775D01*
X170434866Y-61496775D01*
X170339628Y-61544394D01*
X170292009Y-61592013D01*
X170244390Y-61687251D01*
%TO.C,C19*%
X241784142Y-154439857D02*
X241831761Y-154487476D01*
X241879380Y-154630333D01*
X241879380Y-154725571D01*
X241831761Y-154868428D01*
X241736523Y-154963666D01*
X241641285Y-155011285D01*
X241450809Y-155058904D01*
X241307952Y-155058904D01*
X241117476Y-155011285D01*
X241022238Y-154963666D01*
X240927000Y-154868428D01*
X240879380Y-154725571D01*
X240879380Y-154630333D01*
X240927000Y-154487476D01*
X240974619Y-154439857D01*
X241879380Y-153487476D02*
X241879380Y-154058904D01*
X241879380Y-153773190D02*
X240879380Y-153773190D01*
X241022238Y-153868428D01*
X241117476Y-153963666D01*
X241165095Y-154058904D01*
X241879380Y-153011285D02*
X241879380Y-152820809D01*
X241831761Y-152725571D01*
X241784142Y-152677952D01*
X241641285Y-152582714D01*
X241450809Y-152535095D01*
X241069857Y-152535095D01*
X240974619Y-152582714D01*
X240927000Y-152630333D01*
X240879380Y-152725571D01*
X240879380Y-152916047D01*
X240927000Y-153011285D01*
X240974619Y-153058904D01*
X241069857Y-153106523D01*
X241307952Y-153106523D01*
X241403190Y-153058904D01*
X241450809Y-153011285D01*
X241498428Y-152916047D01*
X241498428Y-152725571D01*
X241450809Y-152630333D01*
X241403190Y-152582714D01*
X241307952Y-152535095D01*
%TO.C,C20*%
X197233542Y-80472757D02*
X197281161Y-80520376D01*
X197328780Y-80663233D01*
X197328780Y-80758471D01*
X197281161Y-80901328D01*
X197185923Y-80996566D01*
X197090685Y-81044185D01*
X196900209Y-81091804D01*
X196757352Y-81091804D01*
X196566876Y-81044185D01*
X196471638Y-80996566D01*
X196376400Y-80901328D01*
X196328780Y-80758471D01*
X196328780Y-80663233D01*
X196376400Y-80520376D01*
X196424019Y-80472757D01*
X196424019Y-80091804D02*
X196376400Y-80044185D01*
X196328780Y-79948947D01*
X196328780Y-79710852D01*
X196376400Y-79615614D01*
X196424019Y-79567995D01*
X196519257Y-79520376D01*
X196614495Y-79520376D01*
X196757352Y-79567995D01*
X197328780Y-80139423D01*
X197328780Y-79520376D01*
X196328780Y-78901328D02*
X196328780Y-78806090D01*
X196376400Y-78710852D01*
X196424019Y-78663233D01*
X196519257Y-78615614D01*
X196709733Y-78567995D01*
X196947828Y-78567995D01*
X197138304Y-78615614D01*
X197233542Y-78663233D01*
X197281161Y-78710852D01*
X197328780Y-78806090D01*
X197328780Y-78901328D01*
X197281161Y-78996566D01*
X197233542Y-79044185D01*
X197138304Y-79091804D01*
X196947828Y-79139423D01*
X196709733Y-79139423D01*
X196519257Y-79091804D01*
X196424019Y-79044185D01*
X196376400Y-78996566D01*
X196328780Y-78901328D01*
%TO.C,C21*%
X189384342Y-79159357D02*
X189431961Y-79206976D01*
X189479580Y-79349833D01*
X189479580Y-79445071D01*
X189431961Y-79587928D01*
X189336723Y-79683166D01*
X189241485Y-79730785D01*
X189051009Y-79778404D01*
X188908152Y-79778404D01*
X188717676Y-79730785D01*
X188622438Y-79683166D01*
X188527200Y-79587928D01*
X188479580Y-79445071D01*
X188479580Y-79349833D01*
X188527200Y-79206976D01*
X188574819Y-79159357D01*
X188574819Y-78778404D02*
X188527200Y-78730785D01*
X188479580Y-78635547D01*
X188479580Y-78397452D01*
X188527200Y-78302214D01*
X188574819Y-78254595D01*
X188670057Y-78206976D01*
X188765295Y-78206976D01*
X188908152Y-78254595D01*
X189479580Y-78826023D01*
X189479580Y-78206976D01*
X189479580Y-77254595D02*
X189479580Y-77826023D01*
X189479580Y-77540309D02*
X188479580Y-77540309D01*
X188622438Y-77635547D01*
X188717676Y-77730785D01*
X188765295Y-77826023D01*
%TO.C,C22*%
X203957142Y-99907142D02*
X203909523Y-99954761D01*
X203766666Y-100002380D01*
X203671428Y-100002380D01*
X203528571Y-99954761D01*
X203433333Y-99859523D01*
X203385714Y-99764285D01*
X203338095Y-99573809D01*
X203338095Y-99430952D01*
X203385714Y-99240476D01*
X203433333Y-99145238D01*
X203528571Y-99050000D01*
X203671428Y-99002380D01*
X203766666Y-99002380D01*
X203909523Y-99050000D01*
X203957142Y-99097619D01*
X204338095Y-99097619D02*
X204385714Y-99050000D01*
X204480952Y-99002380D01*
X204719047Y-99002380D01*
X204814285Y-99050000D01*
X204861904Y-99097619D01*
X204909523Y-99192857D01*
X204909523Y-99288095D01*
X204861904Y-99430952D01*
X204290476Y-100002380D01*
X204909523Y-100002380D01*
X205290476Y-99097619D02*
X205338095Y-99050000D01*
X205433333Y-99002380D01*
X205671428Y-99002380D01*
X205766666Y-99050000D01*
X205814285Y-99097619D01*
X205861904Y-99192857D01*
X205861904Y-99288095D01*
X205814285Y-99430952D01*
X205242857Y-100002380D01*
X205861904Y-100002380D01*
%TO.C,C23*%
X191721142Y-90203257D02*
X191768761Y-90250876D01*
X191816380Y-90393733D01*
X191816380Y-90488971D01*
X191768761Y-90631828D01*
X191673523Y-90727066D01*
X191578285Y-90774685D01*
X191387809Y-90822304D01*
X191244952Y-90822304D01*
X191054476Y-90774685D01*
X190959238Y-90727066D01*
X190864000Y-90631828D01*
X190816380Y-90488971D01*
X190816380Y-90393733D01*
X190864000Y-90250876D01*
X190911619Y-90203257D01*
X190911619Y-89822304D02*
X190864000Y-89774685D01*
X190816380Y-89679447D01*
X190816380Y-89441352D01*
X190864000Y-89346114D01*
X190911619Y-89298495D01*
X191006857Y-89250876D01*
X191102095Y-89250876D01*
X191244952Y-89298495D01*
X191816380Y-89869923D01*
X191816380Y-89250876D01*
X190816380Y-88917542D02*
X190816380Y-88298495D01*
X191197333Y-88631828D01*
X191197333Y-88488971D01*
X191244952Y-88393733D01*
X191292571Y-88346114D01*
X191387809Y-88298495D01*
X191625904Y-88298495D01*
X191721142Y-88346114D01*
X191768761Y-88393733D01*
X191816380Y-88488971D01*
X191816380Y-88774685D01*
X191768761Y-88869923D01*
X191721142Y-88917542D01*
%TO.C,C24*%
X186386742Y-82532457D02*
X186434361Y-82580076D01*
X186481980Y-82722933D01*
X186481980Y-82818171D01*
X186434361Y-82961028D01*
X186339123Y-83056266D01*
X186243885Y-83103885D01*
X186053409Y-83151504D01*
X185910552Y-83151504D01*
X185720076Y-83103885D01*
X185624838Y-83056266D01*
X185529600Y-82961028D01*
X185481980Y-82818171D01*
X185481980Y-82722933D01*
X185529600Y-82580076D01*
X185577219Y-82532457D01*
X185577219Y-82151504D02*
X185529600Y-82103885D01*
X185481980Y-82008647D01*
X185481980Y-81770552D01*
X185529600Y-81675314D01*
X185577219Y-81627695D01*
X185672457Y-81580076D01*
X185767695Y-81580076D01*
X185910552Y-81627695D01*
X186481980Y-82199123D01*
X186481980Y-81580076D01*
X185815314Y-80722933D02*
X186481980Y-80722933D01*
X185434361Y-80961028D02*
X186148647Y-81199123D01*
X186148647Y-80580076D01*
%TO.C,C25*%
X201947542Y-76353942D02*
X201899923Y-76401561D01*
X201757066Y-76449180D01*
X201661828Y-76449180D01*
X201518971Y-76401561D01*
X201423733Y-76306323D01*
X201376114Y-76211085D01*
X201328495Y-76020609D01*
X201328495Y-75877752D01*
X201376114Y-75687276D01*
X201423733Y-75592038D01*
X201518971Y-75496800D01*
X201661828Y-75449180D01*
X201757066Y-75449180D01*
X201899923Y-75496800D01*
X201947542Y-75544419D01*
X202328495Y-75544419D02*
X202376114Y-75496800D01*
X202471352Y-75449180D01*
X202709447Y-75449180D01*
X202804685Y-75496800D01*
X202852304Y-75544419D01*
X202899923Y-75639657D01*
X202899923Y-75734895D01*
X202852304Y-75877752D01*
X202280876Y-76449180D01*
X202899923Y-76449180D01*
X203804685Y-75449180D02*
X203328495Y-75449180D01*
X203280876Y-75925371D01*
X203328495Y-75877752D01*
X203423733Y-75830133D01*
X203661828Y-75830133D01*
X203757066Y-75877752D01*
X203804685Y-75925371D01*
X203852304Y-76020609D01*
X203852304Y-76258704D01*
X203804685Y-76353942D01*
X203757066Y-76401561D01*
X203661828Y-76449180D01*
X203423733Y-76449180D01*
X203328495Y-76401561D01*
X203280876Y-76353942D01*
%TO.C,C26*%
X199289942Y-92133657D02*
X199337561Y-92181276D01*
X199385180Y-92324133D01*
X199385180Y-92419371D01*
X199337561Y-92562228D01*
X199242323Y-92657466D01*
X199147085Y-92705085D01*
X198956609Y-92752704D01*
X198813752Y-92752704D01*
X198623276Y-92705085D01*
X198528038Y-92657466D01*
X198432800Y-92562228D01*
X198385180Y-92419371D01*
X198385180Y-92324133D01*
X198432800Y-92181276D01*
X198480419Y-92133657D01*
X198480419Y-91752704D02*
X198432800Y-91705085D01*
X198385180Y-91609847D01*
X198385180Y-91371752D01*
X198432800Y-91276514D01*
X198480419Y-91228895D01*
X198575657Y-91181276D01*
X198670895Y-91181276D01*
X198813752Y-91228895D01*
X199385180Y-91800323D01*
X199385180Y-91181276D01*
X198385180Y-90324133D02*
X198385180Y-90514609D01*
X198432800Y-90609847D01*
X198480419Y-90657466D01*
X198623276Y-90752704D01*
X198813752Y-90800323D01*
X199194704Y-90800323D01*
X199289942Y-90752704D01*
X199337561Y-90705085D01*
X199385180Y-90609847D01*
X199385180Y-90419371D01*
X199337561Y-90324133D01*
X199289942Y-90276514D01*
X199194704Y-90228895D01*
X198956609Y-90228895D01*
X198861371Y-90276514D01*
X198813752Y-90324133D01*
X198766133Y-90419371D01*
X198766133Y-90609847D01*
X198813752Y-90705085D01*
X198861371Y-90752704D01*
X198956609Y-90800323D01*
%TO.C,C27*%
X255157242Y-126728457D02*
X255204861Y-126776076D01*
X255252480Y-126918933D01*
X255252480Y-127014171D01*
X255204861Y-127157028D01*
X255109623Y-127252266D01*
X255014385Y-127299885D01*
X254823909Y-127347504D01*
X254681052Y-127347504D01*
X254490576Y-127299885D01*
X254395338Y-127252266D01*
X254300100Y-127157028D01*
X254252480Y-127014171D01*
X254252480Y-126918933D01*
X254300100Y-126776076D01*
X254347719Y-126728457D01*
X254347719Y-126347504D02*
X254300100Y-126299885D01*
X254252480Y-126204647D01*
X254252480Y-125966552D01*
X254300100Y-125871314D01*
X254347719Y-125823695D01*
X254442957Y-125776076D01*
X254538195Y-125776076D01*
X254681052Y-125823695D01*
X255252480Y-126395123D01*
X255252480Y-125776076D01*
X254252480Y-125442742D02*
X254252480Y-124776076D01*
X255252480Y-125204647D01*
%TO.C,C28*%
X245340142Y-104909857D02*
X245387761Y-104957476D01*
X245435380Y-105100333D01*
X245435380Y-105195571D01*
X245387761Y-105338428D01*
X245292523Y-105433666D01*
X245197285Y-105481285D01*
X245006809Y-105528904D01*
X244863952Y-105528904D01*
X244673476Y-105481285D01*
X244578238Y-105433666D01*
X244483000Y-105338428D01*
X244435380Y-105195571D01*
X244435380Y-105100333D01*
X244483000Y-104957476D01*
X244530619Y-104909857D01*
X244530619Y-104528904D02*
X244483000Y-104481285D01*
X244435380Y-104386047D01*
X244435380Y-104147952D01*
X244483000Y-104052714D01*
X244530619Y-104005095D01*
X244625857Y-103957476D01*
X244721095Y-103957476D01*
X244863952Y-104005095D01*
X245435380Y-104576523D01*
X245435380Y-103957476D01*
X244863952Y-103386047D02*
X244816333Y-103481285D01*
X244768714Y-103528904D01*
X244673476Y-103576523D01*
X244625857Y-103576523D01*
X244530619Y-103528904D01*
X244483000Y-103481285D01*
X244435380Y-103386047D01*
X244435380Y-103195571D01*
X244483000Y-103100333D01*
X244530619Y-103052714D01*
X244625857Y-103005095D01*
X244673476Y-103005095D01*
X244768714Y-103052714D01*
X244816333Y-103100333D01*
X244863952Y-103195571D01*
X244863952Y-103386047D01*
X244911571Y-103481285D01*
X244959190Y-103528904D01*
X245054428Y-103576523D01*
X245244904Y-103576523D01*
X245340142Y-103528904D01*
X245387761Y-103481285D01*
X245435380Y-103386047D01*
X245435380Y-103195571D01*
X245387761Y-103100333D01*
X245340142Y-103052714D01*
X245244904Y-103005095D01*
X245054428Y-103005095D01*
X244959190Y-103052714D01*
X244911571Y-103100333D01*
X244863952Y-103195571D01*
%TO.C,C29*%
X245213142Y-100972857D02*
X245260761Y-101020476D01*
X245308380Y-101163333D01*
X245308380Y-101258571D01*
X245260761Y-101401428D01*
X245165523Y-101496666D01*
X245070285Y-101544285D01*
X244879809Y-101591904D01*
X244736952Y-101591904D01*
X244546476Y-101544285D01*
X244451238Y-101496666D01*
X244356000Y-101401428D01*
X244308380Y-101258571D01*
X244308380Y-101163333D01*
X244356000Y-101020476D01*
X244403619Y-100972857D01*
X244403619Y-100591904D02*
X244356000Y-100544285D01*
X244308380Y-100449047D01*
X244308380Y-100210952D01*
X244356000Y-100115714D01*
X244403619Y-100068095D01*
X244498857Y-100020476D01*
X244594095Y-100020476D01*
X244736952Y-100068095D01*
X245308380Y-100639523D01*
X245308380Y-100020476D01*
X245308380Y-99544285D02*
X245308380Y-99353809D01*
X245260761Y-99258571D01*
X245213142Y-99210952D01*
X245070285Y-99115714D01*
X244879809Y-99068095D01*
X244498857Y-99068095D01*
X244403619Y-99115714D01*
X244356000Y-99163333D01*
X244308380Y-99258571D01*
X244308380Y-99449047D01*
X244356000Y-99544285D01*
X244403619Y-99591904D01*
X244498857Y-99639523D01*
X244736952Y-99639523D01*
X244832190Y-99591904D01*
X244879809Y-99544285D01*
X244927428Y-99449047D01*
X244927428Y-99258571D01*
X244879809Y-99163333D01*
X244832190Y-99115714D01*
X244736952Y-99068095D01*
%TO.C,C30*%
X264075942Y-103430342D02*
X264028323Y-103477961D01*
X263885466Y-103525580D01*
X263790228Y-103525580D01*
X263647371Y-103477961D01*
X263552133Y-103382723D01*
X263504514Y-103287485D01*
X263456895Y-103097009D01*
X263456895Y-102954152D01*
X263504514Y-102763676D01*
X263552133Y-102668438D01*
X263647371Y-102573200D01*
X263790228Y-102525580D01*
X263885466Y-102525580D01*
X264028323Y-102573200D01*
X264075942Y-102620819D01*
X264409276Y-102525580D02*
X265028323Y-102525580D01*
X264694990Y-102906533D01*
X264837847Y-102906533D01*
X264933085Y-102954152D01*
X264980704Y-103001771D01*
X265028323Y-103097009D01*
X265028323Y-103335104D01*
X264980704Y-103430342D01*
X264933085Y-103477961D01*
X264837847Y-103525580D01*
X264552133Y-103525580D01*
X264456895Y-103477961D01*
X264409276Y-103430342D01*
X265647371Y-102525580D02*
X265742609Y-102525580D01*
X265837847Y-102573200D01*
X265885466Y-102620819D01*
X265933085Y-102716057D01*
X265980704Y-102906533D01*
X265980704Y-103144628D01*
X265933085Y-103335104D01*
X265885466Y-103430342D01*
X265837847Y-103477961D01*
X265742609Y-103525580D01*
X265647371Y-103525580D01*
X265552133Y-103477961D01*
X265504514Y-103430342D01*
X265456895Y-103335104D01*
X265409276Y-103144628D01*
X265409276Y-102906533D01*
X265456895Y-102716057D01*
X265504514Y-102620819D01*
X265552133Y-102573200D01*
X265647371Y-102525580D01*
%TO.C,C32*%
X116605980Y-119104636D02*
X116653599Y-119152255D01*
X116701218Y-119295112D01*
X116701218Y-119390350D01*
X116653599Y-119533207D01*
X116558361Y-119628445D01*
X116463123Y-119676064D01*
X116272647Y-119723683D01*
X116129790Y-119723683D01*
X115939314Y-119676064D01*
X115844076Y-119628445D01*
X115748838Y-119533207D01*
X115701218Y-119390350D01*
X115701218Y-119295112D01*
X115748838Y-119152255D01*
X115796457Y-119104636D01*
X115701218Y-118771302D02*
X115701218Y-118152255D01*
X116082171Y-118485588D01*
X116082171Y-118342731D01*
X116129790Y-118247493D01*
X116177409Y-118199874D01*
X116272647Y-118152255D01*
X116510742Y-118152255D01*
X116605980Y-118199874D01*
X116653599Y-118247493D01*
X116701218Y-118342731D01*
X116701218Y-118628445D01*
X116653599Y-118723683D01*
X116605980Y-118771302D01*
X115796457Y-117771302D02*
X115748838Y-117723683D01*
X115701218Y-117628445D01*
X115701218Y-117390350D01*
X115748838Y-117295112D01*
X115796457Y-117247493D01*
X115891695Y-117199874D01*
X115986933Y-117199874D01*
X116129790Y-117247493D01*
X116701218Y-117818921D01*
X116701218Y-117199874D01*
%TO.C,C33*%
X114269180Y-119003037D02*
X114316799Y-119050656D01*
X114364418Y-119193513D01*
X114364418Y-119288751D01*
X114316799Y-119431608D01*
X114221561Y-119526846D01*
X114126323Y-119574465D01*
X113935847Y-119622084D01*
X113792990Y-119622084D01*
X113602514Y-119574465D01*
X113507276Y-119526846D01*
X113412038Y-119431608D01*
X113364418Y-119288751D01*
X113364418Y-119193513D01*
X113412038Y-119050656D01*
X113459657Y-119003037D01*
X113364418Y-118669703D02*
X113364418Y-118050656D01*
X113745371Y-118383989D01*
X113745371Y-118241132D01*
X113792990Y-118145894D01*
X113840609Y-118098275D01*
X113935847Y-118050656D01*
X114173942Y-118050656D01*
X114269180Y-118098275D01*
X114316799Y-118145894D01*
X114364418Y-118241132D01*
X114364418Y-118526846D01*
X114316799Y-118622084D01*
X114269180Y-118669703D01*
X113364418Y-117717322D02*
X113364418Y-117098275D01*
X113745371Y-117431608D01*
X113745371Y-117288751D01*
X113792990Y-117193513D01*
X113840609Y-117145894D01*
X113935847Y-117098275D01*
X114173942Y-117098275D01*
X114269180Y-117145894D01*
X114316799Y-117193513D01*
X114364418Y-117288751D01*
X114364418Y-117574465D01*
X114316799Y-117669703D01*
X114269180Y-117717322D01*
%TO.C,C42*%
X158177314Y-97937970D02*
X158224933Y-97985589D01*
X158272552Y-98128446D01*
X158272552Y-98223684D01*
X158224933Y-98366541D01*
X158129695Y-98461779D01*
X158034457Y-98509398D01*
X157843981Y-98557017D01*
X157701124Y-98557017D01*
X157510648Y-98509398D01*
X157415410Y-98461779D01*
X157320172Y-98366541D01*
X157272552Y-98223684D01*
X157272552Y-98128446D01*
X157320172Y-97985589D01*
X157367791Y-97937970D01*
X157605886Y-97080827D02*
X158272552Y-97080827D01*
X157224933Y-97318922D02*
X157939219Y-97557017D01*
X157939219Y-96937970D01*
X157367791Y-96604636D02*
X157320172Y-96557017D01*
X157272552Y-96461779D01*
X157272552Y-96223684D01*
X157320172Y-96128446D01*
X157367791Y-96080827D01*
X157463029Y-96033208D01*
X157558267Y-96033208D01*
X157701124Y-96080827D01*
X158272552Y-96652255D01*
X158272552Y-96033208D01*
%TO.C,C35*%
X114472380Y-97768637D02*
X114519999Y-97816256D01*
X114567618Y-97959113D01*
X114567618Y-98054351D01*
X114519999Y-98197208D01*
X114424761Y-98292446D01*
X114329523Y-98340065D01*
X114139047Y-98387684D01*
X113996190Y-98387684D01*
X113805714Y-98340065D01*
X113710476Y-98292446D01*
X113615238Y-98197208D01*
X113567618Y-98054351D01*
X113567618Y-97959113D01*
X113615238Y-97816256D01*
X113662857Y-97768637D01*
X113567618Y-97435303D02*
X113567618Y-96816256D01*
X113948571Y-97149589D01*
X113948571Y-97006732D01*
X113996190Y-96911494D01*
X114043809Y-96863875D01*
X114139047Y-96816256D01*
X114377142Y-96816256D01*
X114472380Y-96863875D01*
X114519999Y-96911494D01*
X114567618Y-97006732D01*
X114567618Y-97292446D01*
X114519999Y-97387684D01*
X114472380Y-97435303D01*
X113567618Y-95911494D02*
X113567618Y-96387684D01*
X114043809Y-96435303D01*
X113996190Y-96387684D01*
X113948571Y-96292446D01*
X113948571Y-96054351D01*
X113996190Y-95959113D01*
X114043809Y-95911494D01*
X114139047Y-95863875D01*
X114377142Y-95863875D01*
X114472380Y-95911494D01*
X114519999Y-95959113D01*
X114567618Y-96054351D01*
X114567618Y-96292446D01*
X114519999Y-96387684D01*
X114472380Y-96435303D01*
%TO.C,C36*%
X123695580Y-107701537D02*
X123743199Y-107749156D01*
X123790818Y-107892013D01*
X123790818Y-107987251D01*
X123743199Y-108130108D01*
X123647961Y-108225346D01*
X123552723Y-108272965D01*
X123362247Y-108320584D01*
X123219390Y-108320584D01*
X123028914Y-108272965D01*
X122933676Y-108225346D01*
X122838438Y-108130108D01*
X122790818Y-107987251D01*
X122790818Y-107892013D01*
X122838438Y-107749156D01*
X122886057Y-107701537D01*
X122790818Y-107368203D02*
X122790818Y-106749156D01*
X123171771Y-107082489D01*
X123171771Y-106939632D01*
X123219390Y-106844394D01*
X123267009Y-106796775D01*
X123362247Y-106749156D01*
X123600342Y-106749156D01*
X123695580Y-106796775D01*
X123743199Y-106844394D01*
X123790818Y-106939632D01*
X123790818Y-107225346D01*
X123743199Y-107320584D01*
X123695580Y-107368203D01*
X122790818Y-105892013D02*
X122790818Y-106082489D01*
X122838438Y-106177727D01*
X122886057Y-106225346D01*
X123028914Y-106320584D01*
X123219390Y-106368203D01*
X123600342Y-106368203D01*
X123695580Y-106320584D01*
X123743199Y-106272965D01*
X123790818Y-106177727D01*
X123790818Y-105987251D01*
X123743199Y-105892013D01*
X123695580Y-105844394D01*
X123600342Y-105796775D01*
X123362247Y-105796775D01*
X123267009Y-105844394D01*
X123219390Y-105892013D01*
X123171771Y-105987251D01*
X123171771Y-106177727D01*
X123219390Y-106272965D01*
X123267009Y-106320584D01*
X123362247Y-106368203D01*
%TO.C,C37*%
X165083080Y-110303322D02*
X165035461Y-110350941D01*
X164892604Y-110398560D01*
X164797366Y-110398560D01*
X164654509Y-110350941D01*
X164559271Y-110255703D01*
X164511652Y-110160465D01*
X164464033Y-109969989D01*
X164464033Y-109827132D01*
X164511652Y-109636656D01*
X164559271Y-109541418D01*
X164654509Y-109446180D01*
X164797366Y-109398560D01*
X164892604Y-109398560D01*
X165035461Y-109446180D01*
X165083080Y-109493799D01*
X165416414Y-109398560D02*
X166035461Y-109398560D01*
X165702128Y-109779513D01*
X165844985Y-109779513D01*
X165940223Y-109827132D01*
X165987842Y-109874751D01*
X166035461Y-109969989D01*
X166035461Y-110208084D01*
X165987842Y-110303322D01*
X165940223Y-110350941D01*
X165844985Y-110398560D01*
X165559271Y-110398560D01*
X165464033Y-110350941D01*
X165416414Y-110303322D01*
X166368795Y-109398560D02*
X167035461Y-109398560D01*
X166606890Y-110398560D01*
%TO.C,C38*%
X158414380Y-119358637D02*
X158461999Y-119406256D01*
X158509618Y-119549113D01*
X158509618Y-119644351D01*
X158461999Y-119787208D01*
X158366761Y-119882446D01*
X158271523Y-119930065D01*
X158081047Y-119977684D01*
X157938190Y-119977684D01*
X157747714Y-119930065D01*
X157652476Y-119882446D01*
X157557238Y-119787208D01*
X157509618Y-119644351D01*
X157509618Y-119549113D01*
X157557238Y-119406256D01*
X157604857Y-119358637D01*
X157509618Y-119025303D02*
X157509618Y-118406256D01*
X157890571Y-118739589D01*
X157890571Y-118596732D01*
X157938190Y-118501494D01*
X157985809Y-118453875D01*
X158081047Y-118406256D01*
X158319142Y-118406256D01*
X158414380Y-118453875D01*
X158461999Y-118501494D01*
X158509618Y-118596732D01*
X158509618Y-118882446D01*
X158461999Y-118977684D01*
X158414380Y-119025303D01*
X157938190Y-117834827D02*
X157890571Y-117930065D01*
X157842952Y-117977684D01*
X157747714Y-118025303D01*
X157700095Y-118025303D01*
X157604857Y-117977684D01*
X157557238Y-117930065D01*
X157509618Y-117834827D01*
X157509618Y-117644351D01*
X157557238Y-117549113D01*
X157604857Y-117501494D01*
X157700095Y-117453875D01*
X157747714Y-117453875D01*
X157842952Y-117501494D01*
X157890571Y-117549113D01*
X157938190Y-117644351D01*
X157938190Y-117834827D01*
X157985809Y-117930065D01*
X158033428Y-117977684D01*
X158128666Y-118025303D01*
X158319142Y-118025303D01*
X158414380Y-117977684D01*
X158461999Y-117930065D01*
X158509618Y-117834827D01*
X158509618Y-117644351D01*
X158461999Y-117549113D01*
X158414380Y-117501494D01*
X158319142Y-117453875D01*
X158128666Y-117453875D01*
X158033428Y-117501494D01*
X157985809Y-117549113D01*
X157938190Y-117644351D01*
%TO.C,C40*%
X160683447Y-119257035D02*
X160731066Y-119304654D01*
X160778685Y-119447511D01*
X160778685Y-119542749D01*
X160731066Y-119685606D01*
X160635828Y-119780844D01*
X160540590Y-119828463D01*
X160350114Y-119876082D01*
X160207257Y-119876082D01*
X160016781Y-119828463D01*
X159921543Y-119780844D01*
X159826305Y-119685606D01*
X159778685Y-119542749D01*
X159778685Y-119447511D01*
X159826305Y-119304654D01*
X159873924Y-119257035D01*
X160112019Y-118399892D02*
X160778685Y-118399892D01*
X159731066Y-118637987D02*
X160445352Y-118876082D01*
X160445352Y-118257035D01*
X159778685Y-117685606D02*
X159778685Y-117590368D01*
X159826305Y-117495130D01*
X159873924Y-117447511D01*
X159969162Y-117399892D01*
X160159638Y-117352273D01*
X160397733Y-117352273D01*
X160588209Y-117399892D01*
X160683447Y-117447511D01*
X160731066Y-117495130D01*
X160778685Y-117590368D01*
X160778685Y-117685606D01*
X160731066Y-117780844D01*
X160683447Y-117828463D01*
X160588209Y-117876082D01*
X160397733Y-117923701D01*
X160159638Y-117923701D01*
X159969162Y-117876082D01*
X159873924Y-117828463D01*
X159826305Y-117780844D01*
X159778685Y-117685606D01*
%TO.C,C41*%
X160988247Y-98005703D02*
X161035866Y-98053322D01*
X161083485Y-98196179D01*
X161083485Y-98291417D01*
X161035866Y-98434274D01*
X160940628Y-98529512D01*
X160845390Y-98577131D01*
X160654914Y-98624750D01*
X160512057Y-98624750D01*
X160321581Y-98577131D01*
X160226343Y-98529512D01*
X160131105Y-98434274D01*
X160083485Y-98291417D01*
X160083485Y-98196179D01*
X160131105Y-98053322D01*
X160178724Y-98005703D01*
X160416819Y-97148560D02*
X161083485Y-97148560D01*
X160035866Y-97386655D02*
X160750152Y-97624750D01*
X160750152Y-97005703D01*
X161083485Y-96100941D02*
X161083485Y-96672369D01*
X161083485Y-96386655D02*
X160083485Y-96386655D01*
X160226343Y-96481893D01*
X160321581Y-96577131D01*
X160369200Y-96672369D01*
%TO.C,C34*%
X119450780Y-97616237D02*
X119498399Y-97663856D01*
X119546018Y-97806713D01*
X119546018Y-97901951D01*
X119498399Y-98044808D01*
X119403161Y-98140046D01*
X119307923Y-98187665D01*
X119117447Y-98235284D01*
X118974590Y-98235284D01*
X118784114Y-98187665D01*
X118688876Y-98140046D01*
X118593638Y-98044808D01*
X118546018Y-97901951D01*
X118546018Y-97806713D01*
X118593638Y-97663856D01*
X118641257Y-97616237D01*
X118546018Y-97282903D02*
X118546018Y-96663856D01*
X118926971Y-96997189D01*
X118926971Y-96854332D01*
X118974590Y-96759094D01*
X119022209Y-96711475D01*
X119117447Y-96663856D01*
X119355542Y-96663856D01*
X119450780Y-96711475D01*
X119498399Y-96759094D01*
X119546018Y-96854332D01*
X119546018Y-97140046D01*
X119498399Y-97235284D01*
X119450780Y-97282903D01*
X118879352Y-95806713D02*
X119546018Y-95806713D01*
X118498399Y-96044808D02*
X119212685Y-96282903D01*
X119212685Y-95663856D01*
%TO.C,C46*%
X171358980Y-144537422D02*
X171311361Y-144585041D01*
X171168504Y-144632660D01*
X171073266Y-144632660D01*
X170930409Y-144585041D01*
X170835171Y-144489803D01*
X170787552Y-144394565D01*
X170739933Y-144204089D01*
X170739933Y-144061232D01*
X170787552Y-143870756D01*
X170835171Y-143775518D01*
X170930409Y-143680280D01*
X171073266Y-143632660D01*
X171168504Y-143632660D01*
X171311361Y-143680280D01*
X171358980Y-143727899D01*
X172216123Y-143965994D02*
X172216123Y-144632660D01*
X171978028Y-143585041D02*
X171739933Y-144299327D01*
X172358980Y-144299327D01*
X173168504Y-143632660D02*
X172978028Y-143632660D01*
X172882790Y-143680280D01*
X172835171Y-143727899D01*
X172739933Y-143870756D01*
X172692314Y-144061232D01*
X172692314Y-144442184D01*
X172739933Y-144537422D01*
X172787552Y-144585041D01*
X172882790Y-144632660D01*
X173073266Y-144632660D01*
X173168504Y-144585041D01*
X173216123Y-144537422D01*
X173263742Y-144442184D01*
X173263742Y-144204089D01*
X173216123Y-144108851D01*
X173168504Y-144061232D01*
X173073266Y-144013613D01*
X172882790Y-144013613D01*
X172787552Y-144061232D01*
X172739933Y-144108851D01*
X172692314Y-144204089D01*
%TO.C,C44*%
X237135942Y-76230957D02*
X237183561Y-76278576D01*
X237231180Y-76421433D01*
X237231180Y-76516671D01*
X237183561Y-76659528D01*
X237088323Y-76754766D01*
X236993085Y-76802385D01*
X236802609Y-76850004D01*
X236659752Y-76850004D01*
X236469276Y-76802385D01*
X236374038Y-76754766D01*
X236278800Y-76659528D01*
X236231180Y-76516671D01*
X236231180Y-76421433D01*
X236278800Y-76278576D01*
X236326419Y-76230957D01*
X236564514Y-75373814D02*
X237231180Y-75373814D01*
X236183561Y-75611909D02*
X236897847Y-75850004D01*
X236897847Y-75230957D01*
X236564514Y-74421433D02*
X237231180Y-74421433D01*
X236183561Y-74659528D02*
X236897847Y-74897623D01*
X236897847Y-74278576D01*
%TO.C,C45*%
X236831142Y-91640657D02*
X236878761Y-91688276D01*
X236926380Y-91831133D01*
X236926380Y-91926371D01*
X236878761Y-92069228D01*
X236783523Y-92164466D01*
X236688285Y-92212085D01*
X236497809Y-92259704D01*
X236354952Y-92259704D01*
X236164476Y-92212085D01*
X236069238Y-92164466D01*
X235974000Y-92069228D01*
X235926380Y-91926371D01*
X235926380Y-91831133D01*
X235974000Y-91688276D01*
X236021619Y-91640657D01*
X236259714Y-90783514D02*
X236926380Y-90783514D01*
X235878761Y-91021609D02*
X236593047Y-91259704D01*
X236593047Y-90640657D01*
X235926380Y-89783514D02*
X235926380Y-90259704D01*
X236402571Y-90307323D01*
X236354952Y-90259704D01*
X236307333Y-90164466D01*
X236307333Y-89926371D01*
X236354952Y-89831133D01*
X236402571Y-89783514D01*
X236497809Y-89735895D01*
X236735904Y-89735895D01*
X236831142Y-89783514D01*
X236878761Y-89831133D01*
X236926380Y-89926371D01*
X236926380Y-90164466D01*
X236878761Y-90259704D01*
X236831142Y-90307323D01*
%TO.C,C47*%
X256947942Y-91371657D02*
X256995561Y-91419276D01*
X257043180Y-91562133D01*
X257043180Y-91657371D01*
X256995561Y-91800228D01*
X256900323Y-91895466D01*
X256805085Y-91943085D01*
X256614609Y-91990704D01*
X256471752Y-91990704D01*
X256281276Y-91943085D01*
X256186038Y-91895466D01*
X256090800Y-91800228D01*
X256043180Y-91657371D01*
X256043180Y-91562133D01*
X256090800Y-91419276D01*
X256138419Y-91371657D01*
X256376514Y-90514514D02*
X257043180Y-90514514D01*
X255995561Y-90752609D02*
X256709847Y-90990704D01*
X256709847Y-90371657D01*
X256043180Y-90085942D02*
X256043180Y-89419276D01*
X257043180Y-89847847D01*
%TO.C,C48*%
X257062242Y-76499957D02*
X257109861Y-76547576D01*
X257157480Y-76690433D01*
X257157480Y-76785671D01*
X257109861Y-76928528D01*
X257014623Y-77023766D01*
X256919385Y-77071385D01*
X256728909Y-77119004D01*
X256586052Y-77119004D01*
X256395576Y-77071385D01*
X256300338Y-77023766D01*
X256205100Y-76928528D01*
X256157480Y-76785671D01*
X256157480Y-76690433D01*
X256205100Y-76547576D01*
X256252719Y-76499957D01*
X256490814Y-75642814D02*
X257157480Y-75642814D01*
X256109861Y-75880909D02*
X256824147Y-76119004D01*
X256824147Y-75499957D01*
X256586052Y-74976147D02*
X256538433Y-75071385D01*
X256490814Y-75119004D01*
X256395576Y-75166623D01*
X256347957Y-75166623D01*
X256252719Y-75119004D01*
X256205100Y-75071385D01*
X256157480Y-74976147D01*
X256157480Y-74785671D01*
X256205100Y-74690433D01*
X256252719Y-74642814D01*
X256347957Y-74595195D01*
X256395576Y-74595195D01*
X256490814Y-74642814D01*
X256538433Y-74690433D01*
X256586052Y-74785671D01*
X256586052Y-74976147D01*
X256633671Y-75071385D01*
X256681290Y-75119004D01*
X256776528Y-75166623D01*
X256967004Y-75166623D01*
X257062242Y-75119004D01*
X257109861Y-75071385D01*
X257157480Y-74976147D01*
X257157480Y-74785671D01*
X257109861Y-74690433D01*
X257062242Y-74642814D01*
X256967004Y-74595195D01*
X256776528Y-74595195D01*
X256681290Y-74642814D01*
X256633671Y-74690433D01*
X256586052Y-74785671D01*
%TO.C,D3*%
X197127904Y-130119380D02*
X197127904Y-129119380D01*
X197366000Y-129119380D01*
X197508857Y-129167000D01*
X197604095Y-129262238D01*
X197651714Y-129357476D01*
X197699333Y-129547952D01*
X197699333Y-129690809D01*
X197651714Y-129881285D01*
X197604095Y-129976523D01*
X197508857Y-130071761D01*
X197366000Y-130119380D01*
X197127904Y-130119380D01*
X198032666Y-129119380D02*
X198651714Y-129119380D01*
X198318380Y-129500333D01*
X198461238Y-129500333D01*
X198556476Y-129547952D01*
X198604095Y-129595571D01*
X198651714Y-129690809D01*
X198651714Y-129928904D01*
X198604095Y-130024142D01*
X198556476Y-130071761D01*
X198461238Y-130119380D01*
X198175523Y-130119380D01*
X198080285Y-130071761D01*
X198032666Y-130024142D01*
%TO.C,D1*%
X233805504Y-144165580D02*
X233805504Y-143165580D01*
X234043600Y-143165580D01*
X234186457Y-143213200D01*
X234281695Y-143308438D01*
X234329314Y-143403676D01*
X234376933Y-143594152D01*
X234376933Y-143737009D01*
X234329314Y-143927485D01*
X234281695Y-144022723D01*
X234186457Y-144117961D01*
X234043600Y-144165580D01*
X233805504Y-144165580D01*
X235329314Y-144165580D02*
X234757885Y-144165580D01*
X235043600Y-144165580D02*
X235043600Y-143165580D01*
X234948361Y-143308438D01*
X234853123Y-143403676D01*
X234757885Y-143451295D01*
%TO.C,D2*%
X205389480Y-153865695D02*
X204389480Y-153865695D01*
X204389480Y-153627600D01*
X204437100Y-153484742D01*
X204532338Y-153389504D01*
X204627576Y-153341885D01*
X204818052Y-153294266D01*
X204960909Y-153294266D01*
X205151385Y-153341885D01*
X205246623Y-153389504D01*
X205341861Y-153484742D01*
X205389480Y-153627600D01*
X205389480Y-153865695D01*
X204484719Y-152913314D02*
X204437100Y-152865695D01*
X204389480Y-152770457D01*
X204389480Y-152532361D01*
X204437100Y-152437123D01*
X204484719Y-152389504D01*
X204579957Y-152341885D01*
X204675195Y-152341885D01*
X204818052Y-152389504D01*
X205389480Y-152960933D01*
X205389480Y-152341885D01*
%TO.C,IC1*%
X202548809Y-118752380D02*
X202548809Y-117752380D01*
X203596428Y-118657142D02*
X203548809Y-118704761D01*
X203405952Y-118752380D01*
X203310714Y-118752380D01*
X203167857Y-118704761D01*
X203072619Y-118609523D01*
X203025000Y-118514285D01*
X202977380Y-118323809D01*
X202977380Y-118180952D01*
X203025000Y-117990476D01*
X203072619Y-117895238D01*
X203167857Y-117800000D01*
X203310714Y-117752380D01*
X203405952Y-117752380D01*
X203548809Y-117800000D01*
X203596428Y-117847619D01*
X204548809Y-118752380D02*
X203977380Y-118752380D01*
X204263095Y-118752380D02*
X204263095Y-117752380D01*
X204167857Y-117895238D01*
X204072619Y-117990476D01*
X203977380Y-118038095D01*
%TO.C,J6*%
X136922255Y-91713560D02*
X136922255Y-92427846D01*
X136874636Y-92570703D01*
X136779398Y-92665941D01*
X136636541Y-92713560D01*
X136541303Y-92713560D01*
X137827017Y-91713560D02*
X137636541Y-91713560D01*
X137541303Y-91761180D01*
X137493684Y-91808799D01*
X137398446Y-91951656D01*
X137350827Y-92142132D01*
X137350827Y-92523084D01*
X137398446Y-92618322D01*
X137446065Y-92665941D01*
X137541303Y-92713560D01*
X137731779Y-92713560D01*
X137827017Y-92665941D01*
X137874636Y-92618322D01*
X137922255Y-92523084D01*
X137922255Y-92284989D01*
X137874636Y-92189751D01*
X137827017Y-92142132D01*
X137731779Y-92094513D01*
X137541303Y-92094513D01*
X137446065Y-92142132D01*
X137398446Y-92189751D01*
X137350827Y-92284989D01*
%TO.C,J10*%
X229748576Y-91277380D02*
X229748576Y-91991666D01*
X229700957Y-92134523D01*
X229605719Y-92229761D01*
X229462861Y-92277380D01*
X229367623Y-92277380D01*
X230748576Y-92277380D02*
X230177147Y-92277380D01*
X230462861Y-92277380D02*
X230462861Y-91277380D01*
X230367623Y-91420238D01*
X230272385Y-91515476D01*
X230177147Y-91563095D01*
X231367623Y-91277380D02*
X231462861Y-91277380D01*
X231558100Y-91325000D01*
X231605719Y-91372619D01*
X231653338Y-91467857D01*
X231700957Y-91658333D01*
X231700957Y-91896428D01*
X231653338Y-92086904D01*
X231605719Y-92182142D01*
X231558100Y-92229761D01*
X231462861Y-92277380D01*
X231367623Y-92277380D01*
X231272385Y-92229761D01*
X231224766Y-92182142D01*
X231177147Y-92086904D01*
X231129528Y-91896428D01*
X231129528Y-91658333D01*
X231177147Y-91467857D01*
X231224766Y-91372619D01*
X231272385Y-91325000D01*
X231367623Y-91277380D01*
%TO.C,L4*%
X228549933Y-150984480D02*
X228073742Y-150984480D01*
X228073742Y-149984480D01*
X229311838Y-150317814D02*
X229311838Y-150984480D01*
X229073742Y-149936861D02*
X228835647Y-150651147D01*
X229454695Y-150651147D01*
%TO.C,L5*%
X212517980Y-153542266D02*
X212517980Y-154018457D01*
X211517980Y-154018457D01*
X211517980Y-152732742D02*
X211517980Y-153208933D01*
X211994171Y-153256552D01*
X211946552Y-153208933D01*
X211898933Y-153113695D01*
X211898933Y-152875600D01*
X211946552Y-152780361D01*
X211994171Y-152732742D01*
X212089409Y-152685123D01*
X212327504Y-152685123D01*
X212422742Y-152732742D01*
X212470361Y-152780361D01*
X212517980Y-152875600D01*
X212517980Y-153113695D01*
X212470361Y-153208933D01*
X212422742Y-153256552D01*
%TO.C,L7*%
X137971771Y-56348560D02*
X137495580Y-56348560D01*
X137495580Y-55348560D01*
X138209866Y-55348560D02*
X138876533Y-55348560D01*
X138447961Y-56348560D01*
%TO.C,L8*%
X173913718Y-150837946D02*
X173913718Y-151314137D01*
X172913718Y-151314137D01*
X173342290Y-150361756D02*
X173294671Y-150456994D01*
X173247052Y-150504613D01*
X173151814Y-150552232D01*
X173104195Y-150552232D01*
X173008957Y-150504613D01*
X172961338Y-150456994D01*
X172913718Y-150361756D01*
X172913718Y-150171280D01*
X172961338Y-150076041D01*
X173008957Y-150028422D01*
X173104195Y-149980803D01*
X173151814Y-149980803D01*
X173247052Y-150028422D01*
X173294671Y-150076041D01*
X173342290Y-150171280D01*
X173342290Y-150361756D01*
X173389909Y-150456994D01*
X173437528Y-150504613D01*
X173532766Y-150552232D01*
X173723242Y-150552232D01*
X173818480Y-150504613D01*
X173866099Y-150456994D01*
X173913718Y-150361756D01*
X173913718Y-150171280D01*
X173866099Y-150076041D01*
X173818480Y-150028422D01*
X173723242Y-149980803D01*
X173532766Y-149980803D01*
X173437528Y-150028422D01*
X173389909Y-150076041D01*
X173342290Y-150171280D01*
%TO.C,L9*%
X177408218Y-150871446D02*
X177408218Y-151347637D01*
X176408218Y-151347637D01*
X177408218Y-150490494D02*
X177408218Y-150300018D01*
X177360599Y-150204780D01*
X177312980Y-150157160D01*
X177170123Y-150061922D01*
X176979647Y-150014303D01*
X176598695Y-150014303D01*
X176503457Y-150061922D01*
X176455838Y-150109541D01*
X176408218Y-150204780D01*
X176408218Y-150395256D01*
X176455838Y-150490494D01*
X176503457Y-150538113D01*
X176598695Y-150585732D01*
X176836790Y-150585732D01*
X176932028Y-150538113D01*
X176979647Y-150490494D01*
X177027266Y-150395256D01*
X177027266Y-150204780D01*
X176979647Y-150109541D01*
X176932028Y-150061922D01*
X176836790Y-150014303D01*
%TO.C,L10*%
X169862418Y-156618137D02*
X169862418Y-157094327D01*
X168862418Y-157094327D01*
X169862418Y-155760994D02*
X169862418Y-156332422D01*
X169862418Y-156046708D02*
X168862418Y-156046708D01*
X169005276Y-156141946D01*
X169100514Y-156237184D01*
X169148133Y-156332422D01*
X168862418Y-155141946D02*
X168862418Y-155046708D01*
X168910038Y-154951470D01*
X168957657Y-154903851D01*
X169052895Y-154856232D01*
X169243371Y-154808613D01*
X169481466Y-154808613D01*
X169671942Y-154856232D01*
X169767180Y-154903851D01*
X169814799Y-154951470D01*
X169862418Y-155046708D01*
X169862418Y-155141946D01*
X169814799Y-155237184D01*
X169767180Y-155284803D01*
X169671942Y-155332422D01*
X169481466Y-155380041D01*
X169243371Y-155380041D01*
X169052895Y-155332422D01*
X168957657Y-155284803D01*
X168910038Y-155237184D01*
X168862418Y-155141946D01*
%TO.C,L11*%
X162697580Y-153915360D02*
X162221390Y-153915360D01*
X162221390Y-152915360D01*
X163554723Y-153915360D02*
X162983295Y-153915360D01*
X163269009Y-153915360D02*
X163269009Y-152915360D01*
X163173771Y-153058218D01*
X163078533Y-153153456D01*
X162983295Y-153201075D01*
X164507104Y-153915360D02*
X163935676Y-153915360D01*
X164221390Y-153915360D02*
X164221390Y-152915360D01*
X164126152Y-153058218D01*
X164030914Y-153153456D01*
X163935676Y-153201075D01*
%TO.C,Q1*%
X166377257Y-136540218D02*
X166329638Y-136635456D01*
X166234399Y-136730694D01*
X166091542Y-136873551D01*
X166043923Y-136968789D01*
X166043923Y-137064027D01*
X166282018Y-137016408D02*
X166234399Y-137111646D01*
X166139161Y-137206884D01*
X165948685Y-137254503D01*
X165615352Y-137254503D01*
X165424876Y-137206884D01*
X165329638Y-137111646D01*
X165282018Y-137016408D01*
X165282018Y-136825932D01*
X165329638Y-136730694D01*
X165424876Y-136635456D01*
X165615352Y-136587837D01*
X165948685Y-136587837D01*
X166139161Y-136635456D01*
X166234399Y-136730694D01*
X166282018Y-136825932D01*
X166282018Y-137016408D01*
X166282018Y-135635456D02*
X166282018Y-136206884D01*
X166282018Y-135921170D02*
X165282018Y-135921170D01*
X165424876Y-136016408D01*
X165520114Y-136111646D01*
X165567733Y-136206884D01*
%TO.C,R1*%
X204608133Y-126436380D02*
X204274800Y-125960190D01*
X204036704Y-126436380D02*
X204036704Y-125436380D01*
X204417657Y-125436380D01*
X204512895Y-125484000D01*
X204560514Y-125531619D01*
X204608133Y-125626857D01*
X204608133Y-125769714D01*
X204560514Y-125864952D01*
X204512895Y-125912571D01*
X204417657Y-125960190D01*
X204036704Y-125960190D01*
X205560514Y-126436380D02*
X204989085Y-126436380D01*
X205274800Y-126436380D02*
X205274800Y-125436380D01*
X205179561Y-125579238D01*
X205084323Y-125674476D01*
X204989085Y-125722095D01*
%TO.C,R3*%
X194660780Y-109539066D02*
X194184590Y-109872400D01*
X194660780Y-110110495D02*
X193660780Y-110110495D01*
X193660780Y-109729542D01*
X193708400Y-109634304D01*
X193756019Y-109586685D01*
X193851257Y-109539066D01*
X193994114Y-109539066D01*
X194089352Y-109586685D01*
X194136971Y-109634304D01*
X194184590Y-109729542D01*
X194184590Y-110110495D01*
X193660780Y-109205733D02*
X193660780Y-108586685D01*
X194041733Y-108920019D01*
X194041733Y-108777161D01*
X194089352Y-108681923D01*
X194136971Y-108634304D01*
X194232209Y-108586685D01*
X194470304Y-108586685D01*
X194565542Y-108634304D01*
X194613161Y-108681923D01*
X194660780Y-108777161D01*
X194660780Y-109062876D01*
X194613161Y-109158114D01*
X194565542Y-109205733D01*
%TO.C,R4*%
X197454780Y-109132666D02*
X196978590Y-109466000D01*
X197454780Y-109704095D02*
X196454780Y-109704095D01*
X196454780Y-109323142D01*
X196502400Y-109227904D01*
X196550019Y-109180285D01*
X196645257Y-109132666D01*
X196788114Y-109132666D01*
X196883352Y-109180285D01*
X196930971Y-109227904D01*
X196978590Y-109323142D01*
X196978590Y-109704095D01*
X196788114Y-108275523D02*
X197454780Y-108275523D01*
X196407161Y-108513619D02*
X197121447Y-108751714D01*
X197121447Y-108132666D01*
%TO.C,R2*%
X250439180Y-121070666D02*
X249962990Y-121404000D01*
X250439180Y-121642095D02*
X249439180Y-121642095D01*
X249439180Y-121261142D01*
X249486800Y-121165904D01*
X249534419Y-121118285D01*
X249629657Y-121070666D01*
X249772514Y-121070666D01*
X249867752Y-121118285D01*
X249915371Y-121165904D01*
X249962990Y-121261142D01*
X249962990Y-121642095D01*
X249534419Y-120689714D02*
X249486800Y-120642095D01*
X249439180Y-120546857D01*
X249439180Y-120308761D01*
X249486800Y-120213523D01*
X249534419Y-120165904D01*
X249629657Y-120118285D01*
X249724895Y-120118285D01*
X249867752Y-120165904D01*
X250439180Y-120737333D01*
X250439180Y-120118285D01*
%TO.C,R8*%
X243546333Y-96083380D02*
X243213000Y-95607190D01*
X242974904Y-96083380D02*
X242974904Y-95083380D01*
X243355857Y-95083380D01*
X243451095Y-95131000D01*
X243498714Y-95178619D01*
X243546333Y-95273857D01*
X243546333Y-95416714D01*
X243498714Y-95511952D01*
X243451095Y-95559571D01*
X243355857Y-95607190D01*
X242974904Y-95607190D01*
X244117761Y-95511952D02*
X244022523Y-95464333D01*
X243974904Y-95416714D01*
X243927285Y-95321476D01*
X243927285Y-95273857D01*
X243974904Y-95178619D01*
X244022523Y-95131000D01*
X244117761Y-95083380D01*
X244308238Y-95083380D01*
X244403476Y-95131000D01*
X244451095Y-95178619D01*
X244498714Y-95273857D01*
X244498714Y-95321476D01*
X244451095Y-95416714D01*
X244403476Y-95464333D01*
X244308238Y-95511952D01*
X244117761Y-95511952D01*
X244022523Y-95559571D01*
X243974904Y-95607190D01*
X243927285Y-95702428D01*
X243927285Y-95892904D01*
X243974904Y-95988142D01*
X244022523Y-96035761D01*
X244117761Y-96083380D01*
X244308238Y-96083380D01*
X244403476Y-96035761D01*
X244451095Y-95988142D01*
X244498714Y-95892904D01*
X244498714Y-95702428D01*
X244451095Y-95607190D01*
X244403476Y-95559571D01*
X244308238Y-95511952D01*
%TO.C,R10*%
X249293142Y-96083380D02*
X248959809Y-95607190D01*
X248721714Y-96083380D02*
X248721714Y-95083380D01*
X249102666Y-95083380D01*
X249197904Y-95131000D01*
X249245523Y-95178619D01*
X249293142Y-95273857D01*
X249293142Y-95416714D01*
X249245523Y-95511952D01*
X249197904Y-95559571D01*
X249102666Y-95607190D01*
X248721714Y-95607190D01*
X250245523Y-96083380D02*
X249674095Y-96083380D01*
X249959809Y-96083380D02*
X249959809Y-95083380D01*
X249864571Y-95226238D01*
X249769333Y-95321476D01*
X249674095Y-95369095D01*
X250864571Y-95083380D02*
X250959809Y-95083380D01*
X251055047Y-95131000D01*
X251102666Y-95178619D01*
X251150285Y-95273857D01*
X251197904Y-95464333D01*
X251197904Y-95702428D01*
X251150285Y-95892904D01*
X251102666Y-95988142D01*
X251055047Y-96035761D01*
X250959809Y-96083380D01*
X250864571Y-96083380D01*
X250769333Y-96035761D01*
X250721714Y-95988142D01*
X250674095Y-95892904D01*
X250626476Y-95702428D01*
X250626476Y-95464333D01*
X250674095Y-95273857D01*
X250721714Y-95178619D01*
X250769333Y-95131000D01*
X250864571Y-95083380D01*
%TO.C,R11*%
X128375752Y-119866637D02*
X127899562Y-120199970D01*
X128375752Y-120438065D02*
X127375752Y-120438065D01*
X127375752Y-120057113D01*
X127423372Y-119961875D01*
X127470991Y-119914256D01*
X127566229Y-119866637D01*
X127709086Y-119866637D01*
X127804324Y-119914256D01*
X127851943Y-119961875D01*
X127899562Y-120057113D01*
X127899562Y-120438065D01*
X128375752Y-118914256D02*
X128375752Y-119485684D01*
X128375752Y-119199970D02*
X127375752Y-119199970D01*
X127518610Y-119295208D01*
X127613848Y-119390446D01*
X127661467Y-119485684D01*
X128375752Y-117961875D02*
X128375752Y-118533303D01*
X128375752Y-118247589D02*
X127375752Y-118247589D01*
X127518610Y-118342827D01*
X127613848Y-118438065D01*
X127661467Y-118533303D01*
%TO.C,R12*%
X133090818Y-139289037D02*
X132614628Y-139622370D01*
X133090818Y-139860465D02*
X132090818Y-139860465D01*
X132090818Y-139479513D01*
X132138438Y-139384275D01*
X132186057Y-139336656D01*
X132281295Y-139289037D01*
X132424152Y-139289037D01*
X132519390Y-139336656D01*
X132567009Y-139384275D01*
X132614628Y-139479513D01*
X132614628Y-139860465D01*
X133090818Y-138336656D02*
X133090818Y-138908084D01*
X133090818Y-138622370D02*
X132090818Y-138622370D01*
X132233676Y-138717608D01*
X132328914Y-138812846D01*
X132376533Y-138908084D01*
X132186057Y-137955703D02*
X132138438Y-137908084D01*
X132090818Y-137812846D01*
X132090818Y-137574751D01*
X132138438Y-137479513D01*
X132186057Y-137431894D01*
X132281295Y-137384275D01*
X132376533Y-137384275D01*
X132519390Y-137431894D01*
X133090818Y-138003322D01*
X133090818Y-137384275D01*
%TO.C,R13*%
X106413218Y-119866637D02*
X105937028Y-120199970D01*
X106413218Y-120438065D02*
X105413218Y-120438065D01*
X105413218Y-120057113D01*
X105460838Y-119961875D01*
X105508457Y-119914256D01*
X105603695Y-119866637D01*
X105746552Y-119866637D01*
X105841790Y-119914256D01*
X105889409Y-119961875D01*
X105937028Y-120057113D01*
X105937028Y-120438065D01*
X106413218Y-118914256D02*
X106413218Y-119485684D01*
X106413218Y-119199970D02*
X105413218Y-119199970D01*
X105556076Y-119295208D01*
X105651314Y-119390446D01*
X105698933Y-119485684D01*
X105413218Y-118580922D02*
X105413218Y-117961875D01*
X105794171Y-118295208D01*
X105794171Y-118152351D01*
X105841790Y-118057113D01*
X105889409Y-118009494D01*
X105984647Y-117961875D01*
X106222742Y-117961875D01*
X106317980Y-118009494D01*
X106365599Y-118057113D01*
X106413218Y-118152351D01*
X106413218Y-118438065D01*
X106365599Y-118533303D01*
X106317980Y-118580922D01*
%TO.C,R14*%
X140678818Y-139450037D02*
X140202628Y-139783370D01*
X140678818Y-140021465D02*
X139678818Y-140021465D01*
X139678818Y-139640513D01*
X139726438Y-139545275D01*
X139774057Y-139497656D01*
X139869295Y-139450037D01*
X140012152Y-139450037D01*
X140107390Y-139497656D01*
X140155009Y-139545275D01*
X140202628Y-139640513D01*
X140202628Y-140021465D01*
X140678818Y-138497656D02*
X140678818Y-139069084D01*
X140678818Y-138783370D02*
X139678818Y-138783370D01*
X139821676Y-138878608D01*
X139916914Y-138973846D01*
X139964533Y-139069084D01*
X140012152Y-137640513D02*
X140678818Y-137640513D01*
X139631199Y-137878608D02*
X140345485Y-138116703D01*
X140345485Y-137497656D01*
%TO.C,R28*%
X150340818Y-99176537D02*
X149864628Y-99509870D01*
X150340818Y-99747965D02*
X149340818Y-99747965D01*
X149340818Y-99367013D01*
X149388438Y-99271775D01*
X149436057Y-99224156D01*
X149531295Y-99176537D01*
X149674152Y-99176537D01*
X149769390Y-99224156D01*
X149817009Y-99271775D01*
X149864628Y-99367013D01*
X149864628Y-99747965D01*
X149436057Y-98795584D02*
X149388438Y-98747965D01*
X149340818Y-98652727D01*
X149340818Y-98414632D01*
X149388438Y-98319394D01*
X149436057Y-98271775D01*
X149531295Y-98224156D01*
X149626533Y-98224156D01*
X149769390Y-98271775D01*
X150340818Y-98843203D01*
X150340818Y-98224156D01*
X149769390Y-97652727D02*
X149721771Y-97747965D01*
X149674152Y-97795584D01*
X149578914Y-97843203D01*
X149531295Y-97843203D01*
X149436057Y-97795584D01*
X149388438Y-97747965D01*
X149340818Y-97652727D01*
X149340818Y-97462251D01*
X149388438Y-97367013D01*
X149436057Y-97319394D01*
X149531295Y-97271775D01*
X149578914Y-97271775D01*
X149674152Y-97319394D01*
X149721771Y-97367013D01*
X149769390Y-97462251D01*
X149769390Y-97652727D01*
X149817009Y-97747965D01*
X149864628Y-97795584D01*
X149959866Y-97843203D01*
X150150342Y-97843203D01*
X150245580Y-97795584D01*
X150293199Y-97747965D01*
X150340818Y-97652727D01*
X150340818Y-97462251D01*
X150293199Y-97367013D01*
X150245580Y-97319394D01*
X150150342Y-97271775D01*
X149959866Y-97271775D01*
X149864628Y-97319394D01*
X149817009Y-97367013D01*
X149769390Y-97462251D01*
%TO.C,R29*%
X147307218Y-153379637D02*
X146831028Y-153712970D01*
X147307218Y-153951065D02*
X146307218Y-153951065D01*
X146307218Y-153570113D01*
X146354838Y-153474875D01*
X146402457Y-153427256D01*
X146497695Y-153379637D01*
X146640552Y-153379637D01*
X146735790Y-153427256D01*
X146783409Y-153474875D01*
X146831028Y-153570113D01*
X146831028Y-153951065D01*
X146402457Y-152998684D02*
X146354838Y-152951065D01*
X146307218Y-152855827D01*
X146307218Y-152617732D01*
X146354838Y-152522494D01*
X146402457Y-152474875D01*
X146497695Y-152427256D01*
X146592933Y-152427256D01*
X146735790Y-152474875D01*
X147307218Y-153046303D01*
X147307218Y-152427256D01*
X147307218Y-151951065D02*
X147307218Y-151760589D01*
X147259599Y-151665351D01*
X147211980Y-151617732D01*
X147069123Y-151522494D01*
X146878647Y-151474875D01*
X146497695Y-151474875D01*
X146402457Y-151522494D01*
X146354838Y-151570113D01*
X146307218Y-151665351D01*
X146307218Y-151855827D01*
X146354838Y-151951065D01*
X146402457Y-151998684D01*
X146497695Y-152046303D01*
X146735790Y-152046303D01*
X146831028Y-151998684D01*
X146878647Y-151951065D01*
X146926266Y-151855827D01*
X146926266Y-151665351D01*
X146878647Y-151570113D01*
X146831028Y-151522494D01*
X146735790Y-151474875D01*
%TO.C,R17*%
X102921718Y-99768537D02*
X102445528Y-100101870D01*
X102921718Y-100339965D02*
X101921718Y-100339965D01*
X101921718Y-99959013D01*
X101969338Y-99863775D01*
X102016957Y-99816156D01*
X102112195Y-99768537D01*
X102255052Y-99768537D01*
X102350290Y-99816156D01*
X102397909Y-99863775D01*
X102445528Y-99959013D01*
X102445528Y-100339965D01*
X102921718Y-98816156D02*
X102921718Y-99387584D01*
X102921718Y-99101870D02*
X101921718Y-99101870D01*
X102064576Y-99197108D01*
X102159814Y-99292346D01*
X102207433Y-99387584D01*
X101921718Y-98482822D02*
X101921718Y-97816156D01*
X102921718Y-98244727D01*
%TO.C,R18*%
X125018718Y-153379637D02*
X124542528Y-153712970D01*
X125018718Y-153951065D02*
X124018718Y-153951065D01*
X124018718Y-153570113D01*
X124066338Y-153474875D01*
X124113957Y-153427256D01*
X124209195Y-153379637D01*
X124352052Y-153379637D01*
X124447290Y-153427256D01*
X124494909Y-153474875D01*
X124542528Y-153570113D01*
X124542528Y-153951065D01*
X125018718Y-152427256D02*
X125018718Y-152998684D01*
X125018718Y-152712970D02*
X124018718Y-152712970D01*
X124161576Y-152808208D01*
X124256814Y-152903446D01*
X124304433Y-152998684D01*
X124447290Y-151855827D02*
X124399671Y-151951065D01*
X124352052Y-151998684D01*
X124256814Y-152046303D01*
X124209195Y-152046303D01*
X124113957Y-151998684D01*
X124066338Y-151951065D01*
X124018718Y-151855827D01*
X124018718Y-151665351D01*
X124066338Y-151570113D01*
X124113957Y-151522494D01*
X124209195Y-151474875D01*
X124256814Y-151474875D01*
X124352052Y-151522494D01*
X124399671Y-151570113D01*
X124447290Y-151665351D01*
X124447290Y-151855827D01*
X124494909Y-151951065D01*
X124542528Y-151998684D01*
X124637766Y-152046303D01*
X124828242Y-152046303D01*
X124923480Y-151998684D01*
X124971099Y-151951065D01*
X125018718Y-151855827D01*
X125018718Y-151665351D01*
X124971099Y-151570113D01*
X124923480Y-151522494D01*
X124828242Y-151474875D01*
X124637766Y-151474875D01*
X124542528Y-151522494D01*
X124494909Y-151570113D01*
X124447290Y-151665351D01*
%TO.C,R19*%
X119038018Y-119240103D02*
X118561828Y-119573436D01*
X119038018Y-119811531D02*
X118038018Y-119811531D01*
X118038018Y-119430579D01*
X118085638Y-119335341D01*
X118133257Y-119287722D01*
X118228495Y-119240103D01*
X118371352Y-119240103D01*
X118466590Y-119287722D01*
X118514209Y-119335341D01*
X118561828Y-119430579D01*
X118561828Y-119811531D01*
X119038018Y-118287722D02*
X119038018Y-118859150D01*
X119038018Y-118573436D02*
X118038018Y-118573436D01*
X118180876Y-118668674D01*
X118276114Y-118763912D01*
X118323733Y-118859150D01*
X119038018Y-117811531D02*
X119038018Y-117621055D01*
X118990399Y-117525817D01*
X118942780Y-117478198D01*
X118799923Y-117382960D01*
X118609447Y-117335341D01*
X118228495Y-117335341D01*
X118133257Y-117382960D01*
X118085638Y-117430579D01*
X118038018Y-117525817D01*
X118038018Y-117716293D01*
X118085638Y-117811531D01*
X118133257Y-117859150D01*
X118228495Y-117906769D01*
X118466590Y-117906769D01*
X118561828Y-117859150D01*
X118609447Y-117811531D01*
X118657066Y-117716293D01*
X118657066Y-117525817D01*
X118609447Y-117430579D01*
X118561828Y-117382960D01*
X118466590Y-117335341D01*
%TO.C,R20*%
X111976818Y-119093870D02*
X111500628Y-119427203D01*
X111976818Y-119665298D02*
X110976818Y-119665298D01*
X110976818Y-119284346D01*
X111024438Y-119189108D01*
X111072057Y-119141489D01*
X111167295Y-119093870D01*
X111310152Y-119093870D01*
X111405390Y-119141489D01*
X111453009Y-119189108D01*
X111500628Y-119284346D01*
X111500628Y-119665298D01*
X111072057Y-118712917D02*
X111024438Y-118665298D01*
X110976818Y-118570060D01*
X110976818Y-118331965D01*
X111024438Y-118236727D01*
X111072057Y-118189108D01*
X111167295Y-118141489D01*
X111262533Y-118141489D01*
X111405390Y-118189108D01*
X111976818Y-118760536D01*
X111976818Y-118141489D01*
X110976818Y-117522441D02*
X110976818Y-117427203D01*
X111024438Y-117331965D01*
X111072057Y-117284346D01*
X111167295Y-117236727D01*
X111357771Y-117189108D01*
X111595866Y-117189108D01*
X111786342Y-117236727D01*
X111881580Y-117284346D01*
X111929199Y-117331965D01*
X111976818Y-117427203D01*
X111976818Y-117522441D01*
X111929199Y-117617679D01*
X111881580Y-117665298D01*
X111786342Y-117712917D01*
X111595866Y-117760536D01*
X111357771Y-117760536D01*
X111167295Y-117712917D01*
X111072057Y-117665298D01*
X111024438Y-117617679D01*
X110976818Y-117522441D01*
%TO.C,R34*%
X155817218Y-98073437D02*
X155341028Y-98406770D01*
X155817218Y-98644865D02*
X154817218Y-98644865D01*
X154817218Y-98263913D01*
X154864838Y-98168675D01*
X154912457Y-98121056D01*
X155007695Y-98073437D01*
X155150552Y-98073437D01*
X155245790Y-98121056D01*
X155293409Y-98168675D01*
X155341028Y-98263913D01*
X155341028Y-98644865D01*
X154817218Y-97740103D02*
X154817218Y-97121056D01*
X155198171Y-97454389D01*
X155198171Y-97311532D01*
X155245790Y-97216294D01*
X155293409Y-97168675D01*
X155388647Y-97121056D01*
X155626742Y-97121056D01*
X155721980Y-97168675D01*
X155769599Y-97216294D01*
X155817218Y-97311532D01*
X155817218Y-97597246D01*
X155769599Y-97692484D01*
X155721980Y-97740103D01*
X155150552Y-96263913D02*
X155817218Y-96263913D01*
X154769599Y-96502008D02*
X155483885Y-96740103D01*
X155483885Y-96121056D01*
%TO.C,R22*%
X112129218Y-97565437D02*
X111653028Y-97898770D01*
X112129218Y-98136865D02*
X111129218Y-98136865D01*
X111129218Y-97755913D01*
X111176838Y-97660675D01*
X111224457Y-97613056D01*
X111319695Y-97565437D01*
X111462552Y-97565437D01*
X111557790Y-97613056D01*
X111605409Y-97660675D01*
X111653028Y-97755913D01*
X111653028Y-98136865D01*
X111224457Y-97184484D02*
X111176838Y-97136865D01*
X111129218Y-97041627D01*
X111129218Y-96803532D01*
X111176838Y-96708294D01*
X111224457Y-96660675D01*
X111319695Y-96613056D01*
X111414933Y-96613056D01*
X111557790Y-96660675D01*
X112129218Y-97232103D01*
X112129218Y-96613056D01*
X111224457Y-96232103D02*
X111176838Y-96184484D01*
X111129218Y-96089246D01*
X111129218Y-95851151D01*
X111176838Y-95755913D01*
X111224457Y-95708294D01*
X111319695Y-95660675D01*
X111414933Y-95660675D01*
X111557790Y-95708294D01*
X112129218Y-96279722D01*
X112129218Y-95660675D01*
%TO.C,R23*%
X150338285Y-119866637D02*
X149862095Y-120199970D01*
X150338285Y-120438065D02*
X149338285Y-120438065D01*
X149338285Y-120057113D01*
X149385905Y-119961875D01*
X149433524Y-119914256D01*
X149528762Y-119866637D01*
X149671619Y-119866637D01*
X149766857Y-119914256D01*
X149814476Y-119961875D01*
X149862095Y-120057113D01*
X149862095Y-120438065D01*
X149433524Y-119485684D02*
X149385905Y-119438065D01*
X149338285Y-119342827D01*
X149338285Y-119104732D01*
X149385905Y-119009494D01*
X149433524Y-118961875D01*
X149528762Y-118914256D01*
X149624000Y-118914256D01*
X149766857Y-118961875D01*
X150338285Y-119533303D01*
X150338285Y-118914256D01*
X149338285Y-118580922D02*
X149338285Y-117961875D01*
X149719238Y-118295208D01*
X149719238Y-118152351D01*
X149766857Y-118057113D01*
X149814476Y-118009494D01*
X149909714Y-117961875D01*
X150147809Y-117961875D01*
X150243047Y-118009494D01*
X150290666Y-118057113D01*
X150338285Y-118152351D01*
X150338285Y-118438065D01*
X150290666Y-118533303D01*
X150243047Y-118580922D01*
%TO.C,R24*%
X114096718Y-153379637D02*
X113620528Y-153712970D01*
X114096718Y-153951065D02*
X113096718Y-153951065D01*
X113096718Y-153570113D01*
X113144338Y-153474875D01*
X113191957Y-153427256D01*
X113287195Y-153379637D01*
X113430052Y-153379637D01*
X113525290Y-153427256D01*
X113572909Y-153474875D01*
X113620528Y-153570113D01*
X113620528Y-153951065D01*
X113191957Y-152998684D02*
X113144338Y-152951065D01*
X113096718Y-152855827D01*
X113096718Y-152617732D01*
X113144338Y-152522494D01*
X113191957Y-152474875D01*
X113287195Y-152427256D01*
X113382433Y-152427256D01*
X113525290Y-152474875D01*
X114096718Y-153046303D01*
X114096718Y-152427256D01*
X113430052Y-151570113D02*
X114096718Y-151570113D01*
X113049099Y-151808208D02*
X113763385Y-152046303D01*
X113763385Y-151427256D01*
%TO.C,R25*%
X172300818Y-119866637D02*
X171824628Y-120199970D01*
X172300818Y-120438065D02*
X171300818Y-120438065D01*
X171300818Y-120057113D01*
X171348438Y-119961875D01*
X171396057Y-119914256D01*
X171491295Y-119866637D01*
X171634152Y-119866637D01*
X171729390Y-119914256D01*
X171777009Y-119961875D01*
X171824628Y-120057113D01*
X171824628Y-120438065D01*
X171396057Y-119485684D02*
X171348438Y-119438065D01*
X171300818Y-119342827D01*
X171300818Y-119104732D01*
X171348438Y-119009494D01*
X171396057Y-118961875D01*
X171491295Y-118914256D01*
X171586533Y-118914256D01*
X171729390Y-118961875D01*
X172300818Y-119533303D01*
X172300818Y-118914256D01*
X171300818Y-118009494D02*
X171300818Y-118485684D01*
X171777009Y-118533303D01*
X171729390Y-118485684D01*
X171681771Y-118390446D01*
X171681771Y-118152351D01*
X171729390Y-118057113D01*
X171777009Y-118009494D01*
X171872247Y-117961875D01*
X172110342Y-117961875D01*
X172205580Y-118009494D01*
X172253199Y-118057113D01*
X172300818Y-118152351D01*
X172300818Y-118390446D01*
X172253199Y-118485684D01*
X172205580Y-118533303D01*
%TO.C,R26*%
X172515818Y-99201537D02*
X172039628Y-99534870D01*
X172515818Y-99772965D02*
X171515818Y-99772965D01*
X171515818Y-99392013D01*
X171563438Y-99296775D01*
X171611057Y-99249156D01*
X171706295Y-99201537D01*
X171849152Y-99201537D01*
X171944390Y-99249156D01*
X171992009Y-99296775D01*
X172039628Y-99392013D01*
X172039628Y-99772965D01*
X171611057Y-98820584D02*
X171563438Y-98772965D01*
X171515818Y-98677727D01*
X171515818Y-98439632D01*
X171563438Y-98344394D01*
X171611057Y-98296775D01*
X171706295Y-98249156D01*
X171801533Y-98249156D01*
X171944390Y-98296775D01*
X172515818Y-98868203D01*
X172515818Y-98249156D01*
X171515818Y-97392013D02*
X171515818Y-97582489D01*
X171563438Y-97677727D01*
X171611057Y-97725346D01*
X171753914Y-97820584D01*
X171944390Y-97868203D01*
X172325342Y-97868203D01*
X172420580Y-97820584D01*
X172468199Y-97772965D01*
X172515818Y-97677727D01*
X172515818Y-97487251D01*
X172468199Y-97392013D01*
X172420580Y-97344394D01*
X172325342Y-97296775D01*
X172087247Y-97296775D01*
X171992009Y-97344394D01*
X171944390Y-97392013D01*
X171896771Y-97487251D01*
X171896771Y-97677727D01*
X171944390Y-97772965D01*
X171992009Y-97820584D01*
X172087247Y-97868203D01*
%TO.C,R27*%
X156782418Y-149787837D02*
X156306228Y-150121170D01*
X156782418Y-150359265D02*
X155782418Y-150359265D01*
X155782418Y-149978313D01*
X155830038Y-149883075D01*
X155877657Y-149835456D01*
X155972895Y-149787837D01*
X156115752Y-149787837D01*
X156210990Y-149835456D01*
X156258609Y-149883075D01*
X156306228Y-149978313D01*
X156306228Y-150359265D01*
X155877657Y-149406884D02*
X155830038Y-149359265D01*
X155782418Y-149264027D01*
X155782418Y-149025932D01*
X155830038Y-148930694D01*
X155877657Y-148883075D01*
X155972895Y-148835456D01*
X156068133Y-148835456D01*
X156210990Y-148883075D01*
X156782418Y-149454503D01*
X156782418Y-148835456D01*
X155782418Y-148502122D02*
X155782418Y-147835456D01*
X156782418Y-148264027D01*
%TO.C,R15*%
X124926318Y-99105037D02*
X124450128Y-99438370D01*
X124926318Y-99676465D02*
X123926318Y-99676465D01*
X123926318Y-99295513D01*
X123973938Y-99200275D01*
X124021557Y-99152656D01*
X124116795Y-99105037D01*
X124259652Y-99105037D01*
X124354890Y-99152656D01*
X124402509Y-99200275D01*
X124450128Y-99295513D01*
X124450128Y-99676465D01*
X124926318Y-98152656D02*
X124926318Y-98724084D01*
X124926318Y-98438370D02*
X123926318Y-98438370D01*
X124069176Y-98533608D01*
X124164414Y-98628846D01*
X124212033Y-98724084D01*
X123926318Y-97247894D02*
X123926318Y-97724084D01*
X124402509Y-97771703D01*
X124354890Y-97724084D01*
X124307271Y-97628846D01*
X124307271Y-97390751D01*
X124354890Y-97295513D01*
X124402509Y-97247894D01*
X124497747Y-97200275D01*
X124735842Y-97200275D01*
X124831080Y-97247894D01*
X124878699Y-97295513D01*
X124926318Y-97390751D01*
X124926318Y-97628846D01*
X124878699Y-97724084D01*
X124831080Y-97771703D01*
%TO.C,R16*%
X136321718Y-153379637D02*
X135845528Y-153712970D01*
X136321718Y-153951065D02*
X135321718Y-153951065D01*
X135321718Y-153570113D01*
X135369338Y-153474875D01*
X135416957Y-153427256D01*
X135512195Y-153379637D01*
X135655052Y-153379637D01*
X135750290Y-153427256D01*
X135797909Y-153474875D01*
X135845528Y-153570113D01*
X135845528Y-153951065D01*
X136321718Y-152427256D02*
X136321718Y-152998684D01*
X136321718Y-152712970D02*
X135321718Y-152712970D01*
X135464576Y-152808208D01*
X135559814Y-152903446D01*
X135607433Y-152998684D01*
X135321718Y-151570113D02*
X135321718Y-151760589D01*
X135369338Y-151855827D01*
X135416957Y-151903446D01*
X135559814Y-151998684D01*
X135750290Y-152046303D01*
X136131242Y-152046303D01*
X136226480Y-151998684D01*
X136274099Y-151951065D01*
X136321718Y-151855827D01*
X136321718Y-151665351D01*
X136274099Y-151570113D01*
X136226480Y-151522494D01*
X136131242Y-151474875D01*
X135893147Y-151474875D01*
X135797909Y-151522494D01*
X135750290Y-151570113D01*
X135702671Y-151665351D01*
X135702671Y-151855827D01*
X135750290Y-151951065D01*
X135797909Y-151998684D01*
X135893147Y-152046303D01*
%TO.C,R31*%
X156122018Y-119612637D02*
X155645828Y-119945970D01*
X156122018Y-120184065D02*
X155122018Y-120184065D01*
X155122018Y-119803113D01*
X155169638Y-119707875D01*
X155217257Y-119660256D01*
X155312495Y-119612637D01*
X155455352Y-119612637D01*
X155550590Y-119660256D01*
X155598209Y-119707875D01*
X155645828Y-119803113D01*
X155645828Y-120184065D01*
X155122018Y-119279303D02*
X155122018Y-118660256D01*
X155502971Y-118993589D01*
X155502971Y-118850732D01*
X155550590Y-118755494D01*
X155598209Y-118707875D01*
X155693447Y-118660256D01*
X155931542Y-118660256D01*
X156026780Y-118707875D01*
X156074399Y-118755494D01*
X156122018Y-118850732D01*
X156122018Y-119136446D01*
X156074399Y-119231684D01*
X156026780Y-119279303D01*
X156122018Y-117707875D02*
X156122018Y-118279303D01*
X156122018Y-117993589D02*
X155122018Y-117993589D01*
X155264876Y-118088827D01*
X155360114Y-118184065D01*
X155407733Y-118279303D01*
%TO.C,R32*%
X163284818Y-119192369D02*
X162808628Y-119525702D01*
X163284818Y-119763797D02*
X162284818Y-119763797D01*
X162284818Y-119382845D01*
X162332438Y-119287607D01*
X162380057Y-119239988D01*
X162475295Y-119192369D01*
X162618152Y-119192369D01*
X162713390Y-119239988D01*
X162761009Y-119287607D01*
X162808628Y-119382845D01*
X162808628Y-119763797D01*
X162284818Y-118859035D02*
X162284818Y-118239988D01*
X162665771Y-118573321D01*
X162665771Y-118430464D01*
X162713390Y-118335226D01*
X162761009Y-118287607D01*
X162856247Y-118239988D01*
X163094342Y-118239988D01*
X163189580Y-118287607D01*
X163237199Y-118335226D01*
X163284818Y-118430464D01*
X163284818Y-118716178D01*
X163237199Y-118811416D01*
X163189580Y-118859035D01*
X162380057Y-117859035D02*
X162332438Y-117811416D01*
X162284818Y-117716178D01*
X162284818Y-117478083D01*
X162332438Y-117382845D01*
X162380057Y-117335226D01*
X162475295Y-117287607D01*
X162570533Y-117287607D01*
X162713390Y-117335226D01*
X163284818Y-117906654D01*
X163284818Y-117287607D01*
%TO.C,R33*%
X163386418Y-97921036D02*
X162910228Y-98254369D01*
X163386418Y-98492464D02*
X162386418Y-98492464D01*
X162386418Y-98111512D01*
X162434038Y-98016274D01*
X162481657Y-97968655D01*
X162576895Y-97921036D01*
X162719752Y-97921036D01*
X162814990Y-97968655D01*
X162862609Y-98016274D01*
X162910228Y-98111512D01*
X162910228Y-98492464D01*
X162386418Y-97587702D02*
X162386418Y-96968655D01*
X162767371Y-97301988D01*
X162767371Y-97159131D01*
X162814990Y-97063893D01*
X162862609Y-97016274D01*
X162957847Y-96968655D01*
X163195942Y-96968655D01*
X163291180Y-97016274D01*
X163338799Y-97063893D01*
X163386418Y-97159131D01*
X163386418Y-97444845D01*
X163338799Y-97540083D01*
X163291180Y-97587702D01*
X162386418Y-96635321D02*
X162386418Y-96016274D01*
X162767371Y-96349607D01*
X162767371Y-96206750D01*
X162814990Y-96111512D01*
X162862609Y-96063893D01*
X162957847Y-96016274D01*
X163195942Y-96016274D01*
X163291180Y-96063893D01*
X163338799Y-96111512D01*
X163386418Y-96206750D01*
X163386418Y-96492464D01*
X163338799Y-96587702D01*
X163291180Y-96635321D01*
%TO.C,R21*%
X117158418Y-97667037D02*
X116682228Y-98000370D01*
X117158418Y-98238465D02*
X116158418Y-98238465D01*
X116158418Y-97857513D01*
X116206038Y-97762275D01*
X116253657Y-97714656D01*
X116348895Y-97667037D01*
X116491752Y-97667037D01*
X116586990Y-97714656D01*
X116634609Y-97762275D01*
X116682228Y-97857513D01*
X116682228Y-98238465D01*
X116253657Y-97286084D02*
X116206038Y-97238465D01*
X116158418Y-97143227D01*
X116158418Y-96905132D01*
X116206038Y-96809894D01*
X116253657Y-96762275D01*
X116348895Y-96714656D01*
X116444133Y-96714656D01*
X116586990Y-96762275D01*
X117158418Y-97333703D01*
X117158418Y-96714656D01*
X117158418Y-95762275D02*
X117158418Y-96333703D01*
X117158418Y-96047989D02*
X116158418Y-96047989D01*
X116301276Y-96143227D01*
X116396514Y-96238465D01*
X116444133Y-96333703D01*
%TO.C,R30*%
X164478318Y-64389037D02*
X164002128Y-64722370D01*
X164478318Y-64960465D02*
X163478318Y-64960465D01*
X163478318Y-64579513D01*
X163525938Y-64484275D01*
X163573557Y-64436656D01*
X163668795Y-64389037D01*
X163811652Y-64389037D01*
X163906890Y-64436656D01*
X163954509Y-64484275D01*
X164002128Y-64579513D01*
X164002128Y-64960465D01*
X163478318Y-64055703D02*
X163478318Y-63436656D01*
X163859271Y-63769989D01*
X163859271Y-63627132D01*
X163906890Y-63531894D01*
X163954509Y-63484275D01*
X164049747Y-63436656D01*
X164287842Y-63436656D01*
X164383080Y-63484275D01*
X164430699Y-63531894D01*
X164478318Y-63627132D01*
X164478318Y-63912846D01*
X164430699Y-64008084D01*
X164383080Y-64055703D01*
X163478318Y-62817608D02*
X163478318Y-62722370D01*
X163525938Y-62627132D01*
X163573557Y-62579513D01*
X163668795Y-62531894D01*
X163859271Y-62484275D01*
X164097366Y-62484275D01*
X164287842Y-62531894D01*
X164383080Y-62579513D01*
X164430699Y-62627132D01*
X164478318Y-62722370D01*
X164478318Y-62817608D01*
X164430699Y-62912846D01*
X164383080Y-62960465D01*
X164287842Y-63008084D01*
X164097366Y-63055703D01*
X163859271Y-63055703D01*
X163668795Y-63008084D01*
X163573557Y-62960465D01*
X163525938Y-62912846D01*
X163478318Y-62817608D01*
%TO.C,R35*%
X155153318Y-64414037D02*
X154677128Y-64747370D01*
X155153318Y-64985465D02*
X154153318Y-64985465D01*
X154153318Y-64604513D01*
X154200938Y-64509275D01*
X154248557Y-64461656D01*
X154343795Y-64414037D01*
X154486652Y-64414037D01*
X154581890Y-64461656D01*
X154629509Y-64509275D01*
X154677128Y-64604513D01*
X154677128Y-64985465D01*
X154153318Y-64080703D02*
X154153318Y-63461656D01*
X154534271Y-63794989D01*
X154534271Y-63652132D01*
X154581890Y-63556894D01*
X154629509Y-63509275D01*
X154724747Y-63461656D01*
X154962842Y-63461656D01*
X155058080Y-63509275D01*
X155105699Y-63556894D01*
X155153318Y-63652132D01*
X155153318Y-63937846D01*
X155105699Y-64033084D01*
X155058080Y-64080703D01*
X154153318Y-62556894D02*
X154153318Y-63033084D01*
X154629509Y-63080703D01*
X154581890Y-63033084D01*
X154534271Y-62937846D01*
X154534271Y-62699751D01*
X154581890Y-62604513D01*
X154629509Y-62556894D01*
X154724747Y-62509275D01*
X154962842Y-62509275D01*
X155058080Y-62556894D01*
X155105699Y-62604513D01*
X155153318Y-62699751D01*
X155153318Y-62937846D01*
X155105699Y-63033084D01*
X155058080Y-63080703D01*
%TO.C,R50*%
X166613218Y-150395137D02*
X166137028Y-150728470D01*
X166613218Y-150966565D02*
X165613218Y-150966565D01*
X165613218Y-150585613D01*
X165660838Y-150490375D01*
X165708457Y-150442756D01*
X165803695Y-150395137D01*
X165946552Y-150395137D01*
X166041790Y-150442756D01*
X166089409Y-150490375D01*
X166137028Y-150585613D01*
X166137028Y-150966565D01*
X165613218Y-149490375D02*
X165613218Y-149966565D01*
X166089409Y-150014184D01*
X166041790Y-149966565D01*
X165994171Y-149871327D01*
X165994171Y-149633232D01*
X166041790Y-149537994D01*
X166089409Y-149490375D01*
X166184647Y-149442756D01*
X166422742Y-149442756D01*
X166517980Y-149490375D01*
X166565599Y-149537994D01*
X166613218Y-149633232D01*
X166613218Y-149871327D01*
X166565599Y-149966565D01*
X166517980Y-150014184D01*
X165613218Y-148823708D02*
X165613218Y-148728470D01*
X165660838Y-148633232D01*
X165708457Y-148585613D01*
X165803695Y-148537994D01*
X165994171Y-148490375D01*
X166232266Y-148490375D01*
X166422742Y-148537994D01*
X166517980Y-148585613D01*
X166565599Y-148633232D01*
X166613218Y-148728470D01*
X166613218Y-148823708D01*
X166565599Y-148918946D01*
X166517980Y-148966565D01*
X166422742Y-149014184D01*
X166232266Y-149061803D01*
X165994171Y-149061803D01*
X165803695Y-149014184D01*
X165708457Y-148966565D01*
X165660838Y-148918946D01*
X165613218Y-148823708D01*
%TO.C,R54*%
X97440818Y-139851537D02*
X96964628Y-140184870D01*
X97440818Y-140422965D02*
X96440818Y-140422965D01*
X96440818Y-140042013D01*
X96488438Y-139946775D01*
X96536057Y-139899156D01*
X96631295Y-139851537D01*
X96774152Y-139851537D01*
X96869390Y-139899156D01*
X96917009Y-139946775D01*
X96964628Y-140042013D01*
X96964628Y-140422965D01*
X96440818Y-138946775D02*
X96440818Y-139422965D01*
X96917009Y-139470584D01*
X96869390Y-139422965D01*
X96821771Y-139327727D01*
X96821771Y-139089632D01*
X96869390Y-138994394D01*
X96917009Y-138946775D01*
X97012247Y-138899156D01*
X97250342Y-138899156D01*
X97345580Y-138946775D01*
X97393199Y-138994394D01*
X97440818Y-139089632D01*
X97440818Y-139327727D01*
X97393199Y-139422965D01*
X97345580Y-139470584D01*
X96774152Y-138042013D02*
X97440818Y-138042013D01*
X96393199Y-138280108D02*
X97107485Y-138518203D01*
X97107485Y-137899156D01*
%TO.C,R55*%
X97140818Y-153201537D02*
X96664628Y-153534870D01*
X97140818Y-153772965D02*
X96140818Y-153772965D01*
X96140818Y-153392013D01*
X96188438Y-153296775D01*
X96236057Y-153249156D01*
X96331295Y-153201537D01*
X96474152Y-153201537D01*
X96569390Y-153249156D01*
X96617009Y-153296775D01*
X96664628Y-153392013D01*
X96664628Y-153772965D01*
X96140818Y-152296775D02*
X96140818Y-152772965D01*
X96617009Y-152820584D01*
X96569390Y-152772965D01*
X96521771Y-152677727D01*
X96521771Y-152439632D01*
X96569390Y-152344394D01*
X96617009Y-152296775D01*
X96712247Y-152249156D01*
X96950342Y-152249156D01*
X97045580Y-152296775D01*
X97093199Y-152344394D01*
X97140818Y-152439632D01*
X97140818Y-152677727D01*
X97093199Y-152772965D01*
X97045580Y-152820584D01*
X96140818Y-151344394D02*
X96140818Y-151820584D01*
X96617009Y-151868203D01*
X96569390Y-151820584D01*
X96521771Y-151725346D01*
X96521771Y-151487251D01*
X96569390Y-151392013D01*
X96617009Y-151344394D01*
X96712247Y-151296775D01*
X96950342Y-151296775D01*
X97045580Y-151344394D01*
X97093199Y-151392013D01*
X97140818Y-151487251D01*
X97140818Y-151725346D01*
X97093199Y-151820584D01*
X97045580Y-151868203D01*
%TO.C,R36*%
X160856080Y-69041260D02*
X160522747Y-68565070D01*
X160284652Y-69041260D02*
X160284652Y-68041260D01*
X160665604Y-68041260D01*
X160760842Y-68088880D01*
X160808461Y-68136499D01*
X160856080Y-68231737D01*
X160856080Y-68374594D01*
X160808461Y-68469832D01*
X160760842Y-68517451D01*
X160665604Y-68565070D01*
X160284652Y-68565070D01*
X161189414Y-68041260D02*
X161808461Y-68041260D01*
X161475128Y-68422213D01*
X161617985Y-68422213D01*
X161713223Y-68469832D01*
X161760842Y-68517451D01*
X161808461Y-68612689D01*
X161808461Y-68850784D01*
X161760842Y-68946022D01*
X161713223Y-68993641D01*
X161617985Y-69041260D01*
X161332271Y-69041260D01*
X161237033Y-68993641D01*
X161189414Y-68946022D01*
X162665604Y-68041260D02*
X162475128Y-68041260D01*
X162379890Y-68088880D01*
X162332271Y-68136499D01*
X162237033Y-68279356D01*
X162189414Y-68469832D01*
X162189414Y-68850784D01*
X162237033Y-68946022D01*
X162284652Y-68993641D01*
X162379890Y-69041260D01*
X162570366Y-69041260D01*
X162665604Y-68993641D01*
X162713223Y-68946022D01*
X162760842Y-68850784D01*
X162760842Y-68612689D01*
X162713223Y-68517451D01*
X162665604Y-68469832D01*
X162570366Y-68422213D01*
X162379890Y-68422213D01*
X162284652Y-68469832D01*
X162237033Y-68517451D01*
X162189414Y-68612689D01*
%TO.C,R37*%
X155190818Y-70539037D02*
X154714628Y-70872370D01*
X155190818Y-71110465D02*
X154190818Y-71110465D01*
X154190818Y-70729513D01*
X154238438Y-70634275D01*
X154286057Y-70586656D01*
X154381295Y-70539037D01*
X154524152Y-70539037D01*
X154619390Y-70586656D01*
X154667009Y-70634275D01*
X154714628Y-70729513D01*
X154714628Y-71110465D01*
X154190818Y-70205703D02*
X154190818Y-69586656D01*
X154571771Y-69919989D01*
X154571771Y-69777132D01*
X154619390Y-69681894D01*
X154667009Y-69634275D01*
X154762247Y-69586656D01*
X155000342Y-69586656D01*
X155095580Y-69634275D01*
X155143199Y-69681894D01*
X155190818Y-69777132D01*
X155190818Y-70062846D01*
X155143199Y-70158084D01*
X155095580Y-70205703D01*
X154190818Y-69253322D02*
X154190818Y-68586656D01*
X155190818Y-69015227D01*
%TO.C,R42*%
X241549180Y-91724957D02*
X241072990Y-92058290D01*
X241549180Y-92296385D02*
X240549180Y-92296385D01*
X240549180Y-91915433D01*
X240596800Y-91820195D01*
X240644419Y-91772576D01*
X240739657Y-91724957D01*
X240882514Y-91724957D01*
X240977752Y-91772576D01*
X241025371Y-91820195D01*
X241072990Y-91915433D01*
X241072990Y-92296385D01*
X240882514Y-90867814D02*
X241549180Y-90867814D01*
X240501561Y-91105909D02*
X241215847Y-91344004D01*
X241215847Y-90724957D01*
X240644419Y-90391623D02*
X240596800Y-90344004D01*
X240549180Y-90248766D01*
X240549180Y-90010671D01*
X240596800Y-89915433D01*
X240644419Y-89867814D01*
X240739657Y-89820195D01*
X240834895Y-89820195D01*
X240977752Y-89867814D01*
X241549180Y-90439242D01*
X241549180Y-89820195D01*
%TO.C,R43*%
X231868742Y-82392780D02*
X231535409Y-81916590D01*
X231297314Y-82392780D02*
X231297314Y-81392780D01*
X231678266Y-81392780D01*
X231773504Y-81440400D01*
X231821123Y-81488019D01*
X231868742Y-81583257D01*
X231868742Y-81726114D01*
X231821123Y-81821352D01*
X231773504Y-81868971D01*
X231678266Y-81916590D01*
X231297314Y-81916590D01*
X232725885Y-81726114D02*
X232725885Y-82392780D01*
X232487790Y-81345161D02*
X232249695Y-82059447D01*
X232868742Y-82059447D01*
X233154457Y-81392780D02*
X233773504Y-81392780D01*
X233440171Y-81773733D01*
X233583028Y-81773733D01*
X233678266Y-81821352D01*
X233725885Y-81868971D01*
X233773504Y-81964209D01*
X233773504Y-82202304D01*
X233725885Y-82297542D01*
X233678266Y-82345161D01*
X233583028Y-82392780D01*
X233297314Y-82392780D01*
X233202076Y-82345161D01*
X233154457Y-82297542D01*
%TO.C,R38*%
X170168018Y-139101037D02*
X169691828Y-139434370D01*
X170168018Y-139672465D02*
X169168018Y-139672465D01*
X169168018Y-139291513D01*
X169215638Y-139196275D01*
X169263257Y-139148656D01*
X169358495Y-139101037D01*
X169501352Y-139101037D01*
X169596590Y-139148656D01*
X169644209Y-139196275D01*
X169691828Y-139291513D01*
X169691828Y-139672465D01*
X169168018Y-138767703D02*
X169168018Y-138148656D01*
X169548971Y-138481989D01*
X169548971Y-138339132D01*
X169596590Y-138243894D01*
X169644209Y-138196275D01*
X169739447Y-138148656D01*
X169977542Y-138148656D01*
X170072780Y-138196275D01*
X170120399Y-138243894D01*
X170168018Y-138339132D01*
X170168018Y-138624846D01*
X170120399Y-138720084D01*
X170072780Y-138767703D01*
X169596590Y-137577227D02*
X169548971Y-137672465D01*
X169501352Y-137720084D01*
X169406114Y-137767703D01*
X169358495Y-137767703D01*
X169263257Y-137720084D01*
X169215638Y-137672465D01*
X169168018Y-137577227D01*
X169168018Y-137386751D01*
X169215638Y-137291513D01*
X169263257Y-137243894D01*
X169358495Y-137196275D01*
X169406114Y-137196275D01*
X169501352Y-137243894D01*
X169548971Y-137291513D01*
X169596590Y-137386751D01*
X169596590Y-137577227D01*
X169644209Y-137672465D01*
X169691828Y-137720084D01*
X169787066Y-137767703D01*
X169977542Y-137767703D01*
X170072780Y-137720084D01*
X170120399Y-137672465D01*
X170168018Y-137577227D01*
X170168018Y-137386751D01*
X170120399Y-137291513D01*
X170072780Y-137243894D01*
X169977542Y-137196275D01*
X169787066Y-137196275D01*
X169691828Y-137243894D01*
X169644209Y-137291513D01*
X169596590Y-137386751D01*
%TO.C,R48*%
X239415580Y-76434157D02*
X238939390Y-76767490D01*
X239415580Y-77005585D02*
X238415580Y-77005585D01*
X238415580Y-76624633D01*
X238463200Y-76529395D01*
X238510819Y-76481776D01*
X238606057Y-76434157D01*
X238748914Y-76434157D01*
X238844152Y-76481776D01*
X238891771Y-76529395D01*
X238939390Y-76624633D01*
X238939390Y-77005585D01*
X238748914Y-75577014D02*
X239415580Y-75577014D01*
X238367961Y-75815109D02*
X239082247Y-76053204D01*
X239082247Y-75434157D01*
X238844152Y-74910347D02*
X238796533Y-75005585D01*
X238748914Y-75053204D01*
X238653676Y-75100823D01*
X238606057Y-75100823D01*
X238510819Y-75053204D01*
X238463200Y-75005585D01*
X238415580Y-74910347D01*
X238415580Y-74719871D01*
X238463200Y-74624633D01*
X238510819Y-74577014D01*
X238606057Y-74529395D01*
X238653676Y-74529395D01*
X238748914Y-74577014D01*
X238796533Y-74624633D01*
X238844152Y-74719871D01*
X238844152Y-74910347D01*
X238891771Y-75005585D01*
X238939390Y-75053204D01*
X239034628Y-75100823D01*
X239225104Y-75100823D01*
X239320342Y-75053204D01*
X239367961Y-75005585D01*
X239415580Y-74910347D01*
X239415580Y-74719871D01*
X239367961Y-74624633D01*
X239320342Y-74577014D01*
X239225104Y-74529395D01*
X239034628Y-74529395D01*
X238939390Y-74577014D01*
X238891771Y-74624633D01*
X238844152Y-74719871D01*
%TO.C,R49*%
X239110780Y-91691457D02*
X238634590Y-92024790D01*
X239110780Y-92262885D02*
X238110780Y-92262885D01*
X238110780Y-91881933D01*
X238158400Y-91786695D01*
X238206019Y-91739076D01*
X238301257Y-91691457D01*
X238444114Y-91691457D01*
X238539352Y-91739076D01*
X238586971Y-91786695D01*
X238634590Y-91881933D01*
X238634590Y-92262885D01*
X238444114Y-90834314D02*
X239110780Y-90834314D01*
X238063161Y-91072409D02*
X238777447Y-91310504D01*
X238777447Y-90691457D01*
X239110780Y-90262885D02*
X239110780Y-90072409D01*
X239063161Y-89977171D01*
X239015542Y-89929552D01*
X238872685Y-89834314D01*
X238682209Y-89786695D01*
X238301257Y-89786695D01*
X238206019Y-89834314D01*
X238158400Y-89881933D01*
X238110780Y-89977171D01*
X238110780Y-90167647D01*
X238158400Y-90262885D01*
X238206019Y-90310504D01*
X238301257Y-90358123D01*
X238539352Y-90358123D01*
X238634590Y-90310504D01*
X238682209Y-90262885D01*
X238729828Y-90167647D01*
X238729828Y-89977171D01*
X238682209Y-89881933D01*
X238634590Y-89834314D01*
X238539352Y-89786695D01*
%TO.C,R40*%
X159650618Y-135820237D02*
X159174428Y-136153570D01*
X159650618Y-136391665D02*
X158650618Y-136391665D01*
X158650618Y-136010713D01*
X158698238Y-135915475D01*
X158745857Y-135867856D01*
X158841095Y-135820237D01*
X158983952Y-135820237D01*
X159079190Y-135867856D01*
X159126809Y-135915475D01*
X159174428Y-136010713D01*
X159174428Y-136391665D01*
X158983952Y-134963094D02*
X159650618Y-134963094D01*
X158602999Y-135201189D02*
X159317285Y-135439284D01*
X159317285Y-134820237D01*
X158650618Y-134248808D02*
X158650618Y-134153570D01*
X158698238Y-134058332D01*
X158745857Y-134010713D01*
X158841095Y-133963094D01*
X159031571Y-133915475D01*
X159269666Y-133915475D01*
X159460142Y-133963094D01*
X159555380Y-134010713D01*
X159602999Y-134058332D01*
X159650618Y-134153570D01*
X159650618Y-134248808D01*
X159602999Y-134344046D01*
X159555380Y-134391665D01*
X159460142Y-134439284D01*
X159269666Y-134486903D01*
X159031571Y-134486903D01*
X158841095Y-134439284D01*
X158745857Y-134391665D01*
X158698238Y-134344046D01*
X158650618Y-134248808D01*
%TO.C,R62*%
X254807980Y-91320857D02*
X254331790Y-91654190D01*
X254807980Y-91892285D02*
X253807980Y-91892285D01*
X253807980Y-91511333D01*
X253855600Y-91416095D01*
X253903219Y-91368476D01*
X253998457Y-91320857D01*
X254141314Y-91320857D01*
X254236552Y-91368476D01*
X254284171Y-91416095D01*
X254331790Y-91511333D01*
X254331790Y-91892285D01*
X253807980Y-90463714D02*
X253807980Y-90654190D01*
X253855600Y-90749428D01*
X253903219Y-90797047D01*
X254046076Y-90892285D01*
X254236552Y-90939904D01*
X254617504Y-90939904D01*
X254712742Y-90892285D01*
X254760361Y-90844666D01*
X254807980Y-90749428D01*
X254807980Y-90558952D01*
X254760361Y-90463714D01*
X254712742Y-90416095D01*
X254617504Y-90368476D01*
X254379409Y-90368476D01*
X254284171Y-90416095D01*
X254236552Y-90463714D01*
X254188933Y-90558952D01*
X254188933Y-90749428D01*
X254236552Y-90844666D01*
X254284171Y-90892285D01*
X254379409Y-90939904D01*
X253903219Y-89987523D02*
X253855600Y-89939904D01*
X253807980Y-89844666D01*
X253807980Y-89606571D01*
X253855600Y-89511333D01*
X253903219Y-89463714D01*
X253998457Y-89416095D01*
X254093695Y-89416095D01*
X254236552Y-89463714D01*
X254807980Y-90035142D01*
X254807980Y-89416095D01*
%TO.C,R63*%
X254744480Y-76563457D02*
X254268290Y-76896790D01*
X254744480Y-77134885D02*
X253744480Y-77134885D01*
X253744480Y-76753933D01*
X253792100Y-76658695D01*
X253839719Y-76611076D01*
X253934957Y-76563457D01*
X254077814Y-76563457D01*
X254173052Y-76611076D01*
X254220671Y-76658695D01*
X254268290Y-76753933D01*
X254268290Y-77134885D01*
X253744480Y-75706314D02*
X253744480Y-75896790D01*
X253792100Y-75992028D01*
X253839719Y-76039647D01*
X253982576Y-76134885D01*
X254173052Y-76182504D01*
X254554004Y-76182504D01*
X254649242Y-76134885D01*
X254696861Y-76087266D01*
X254744480Y-75992028D01*
X254744480Y-75801552D01*
X254696861Y-75706314D01*
X254649242Y-75658695D01*
X254554004Y-75611076D01*
X254315909Y-75611076D01*
X254220671Y-75658695D01*
X254173052Y-75706314D01*
X254125433Y-75801552D01*
X254125433Y-75992028D01*
X254173052Y-76087266D01*
X254220671Y-76134885D01*
X254315909Y-76182504D01*
X253744480Y-75277742D02*
X253744480Y-74658695D01*
X254125433Y-74992028D01*
X254125433Y-74849171D01*
X254173052Y-74753933D01*
X254220671Y-74706314D01*
X254315909Y-74658695D01*
X254554004Y-74658695D01*
X254649242Y-74706314D01*
X254696861Y-74753933D01*
X254744480Y-74849171D01*
X254744480Y-75134885D01*
X254696861Y-75230123D01*
X254649242Y-75277742D01*
%TO.C,U9*%
X110265818Y-108533084D02*
X111075342Y-108533084D01*
X111170580Y-108485465D01*
X111218199Y-108437846D01*
X111265818Y-108342608D01*
X111265818Y-108152132D01*
X111218199Y-108056894D01*
X111170580Y-108009275D01*
X111075342Y-107961656D01*
X110265818Y-107961656D01*
X111265818Y-107437846D02*
X111265818Y-107247370D01*
X111218199Y-107152132D01*
X111170580Y-107104513D01*
X111027723Y-107009275D01*
X110837247Y-106961656D01*
X110456295Y-106961656D01*
X110361057Y-107009275D01*
X110313438Y-107056894D01*
X110265818Y-107152132D01*
X110265818Y-107342608D01*
X110313438Y-107437846D01*
X110361057Y-107485465D01*
X110456295Y-107533084D01*
X110694390Y-107533084D01*
X110789628Y-107485465D01*
X110837247Y-107437846D01*
X110884866Y-107342608D01*
X110884866Y-107152132D01*
X110837247Y-107056894D01*
X110789628Y-107009275D01*
X110694390Y-106961656D01*
%TO.C,U11*%
X245370504Y-77712980D02*
X245370504Y-78522504D01*
X245418123Y-78617742D01*
X245465742Y-78665361D01*
X245560980Y-78712980D01*
X245751457Y-78712980D01*
X245846695Y-78665361D01*
X245894314Y-78617742D01*
X245941933Y-78522504D01*
X245941933Y-77712980D01*
X246941933Y-78712980D02*
X246370504Y-78712980D01*
X246656219Y-78712980D02*
X246656219Y-77712980D01*
X246560980Y-77855838D01*
X246465742Y-77951076D01*
X246370504Y-77998695D01*
X247894314Y-78712980D02*
X247322885Y-78712980D01*
X247608600Y-78712980D02*
X247608600Y-77712980D01*
X247513361Y-77855838D01*
X247418123Y-77951076D01*
X247322885Y-77998695D01*
%TO.C,U1*%
X248386695Y-136078980D02*
X248386695Y-136888504D01*
X248434314Y-136983742D01*
X248481933Y-137031361D01*
X248577171Y-137078980D01*
X248767647Y-137078980D01*
X248862885Y-137031361D01*
X248910504Y-136983742D01*
X248958123Y-136888504D01*
X248958123Y-136078980D01*
X249958123Y-137078980D02*
X249386695Y-137078980D01*
X249672409Y-137078980D02*
X249672409Y-136078980D01*
X249577171Y-136221838D01*
X249481933Y-136317076D01*
X249386695Y-136364695D01*
%TO.C,U2*%
X268274895Y-118730780D02*
X268274895Y-119540304D01*
X268322514Y-119635542D01*
X268370133Y-119683161D01*
X268465371Y-119730780D01*
X268655847Y-119730780D01*
X268751085Y-119683161D01*
X268798704Y-119635542D01*
X268846323Y-119540304D01*
X268846323Y-118730780D01*
X269274895Y-118826019D02*
X269322514Y-118778400D01*
X269417752Y-118730780D01*
X269655847Y-118730780D01*
X269751085Y-118778400D01*
X269798704Y-118826019D01*
X269846323Y-118921257D01*
X269846323Y-119016495D01*
X269798704Y-119159352D01*
X269227276Y-119730780D01*
X269846323Y-119730780D01*
D14*
%TO.C,U3*%
X188956647Y-123878415D02*
X189933338Y-123878415D01*
X190048242Y-123820963D01*
X190105695Y-123763510D01*
X190163147Y-123648606D01*
X190163147Y-123418796D01*
X190105695Y-123303891D01*
X190048242Y-123246439D01*
X189933338Y-123188987D01*
X188956647Y-123188987D01*
X188956647Y-122729367D02*
X188956647Y-121982487D01*
X189416266Y-122384653D01*
X189416266Y-122212296D01*
X189473719Y-122097391D01*
X189531171Y-122039939D01*
X189646076Y-121982487D01*
X189933338Y-121982487D01*
X190048242Y-122039939D01*
X190105695Y-122097391D01*
X190163147Y-122212296D01*
X190163147Y-122557010D01*
X190105695Y-122671915D01*
X190048242Y-122729367D01*
D13*
%TO.C,U4*%
X247407180Y-129031904D02*
X248216704Y-129031904D01*
X248311942Y-128984285D01*
X248359561Y-128936666D01*
X248407180Y-128841428D01*
X248407180Y-128650952D01*
X248359561Y-128555714D01*
X248311942Y-128508095D01*
X248216704Y-128460476D01*
X247407180Y-128460476D01*
X247740514Y-127555714D02*
X248407180Y-127555714D01*
X247359561Y-127793809D02*
X248073847Y-128031904D01*
X248073847Y-127412857D01*
%TO.C,U5*%
X153327033Y-57245260D02*
X153327033Y-58054784D01*
X153374652Y-58150022D01*
X153422271Y-58197641D01*
X153517509Y-58245260D01*
X153707985Y-58245260D01*
X153803223Y-58197641D01*
X153850842Y-58150022D01*
X153898461Y-58054784D01*
X153898461Y-57245260D01*
X154850842Y-57245260D02*
X154374652Y-57245260D01*
X154327033Y-57721451D01*
X154374652Y-57673832D01*
X154469890Y-57626213D01*
X154707985Y-57626213D01*
X154803223Y-57673832D01*
X154850842Y-57721451D01*
X154898461Y-57816689D01*
X154898461Y-58054784D01*
X154850842Y-58150022D01*
X154803223Y-58197641D01*
X154707985Y-58245260D01*
X154469890Y-58245260D01*
X154374652Y-58197641D01*
X154327033Y-58150022D01*
%TO.C,LEFT1*%
X269081428Y-107513380D02*
X268605238Y-107513380D01*
X268605238Y-106513380D01*
X269414761Y-106989571D02*
X269748095Y-106989571D01*
X269890952Y-107513380D02*
X269414761Y-107513380D01*
X269414761Y-106513380D01*
X269890952Y-106513380D01*
X270652857Y-106989571D02*
X270319523Y-106989571D01*
X270319523Y-107513380D02*
X270319523Y-106513380D01*
X270795714Y-106513380D01*
X271033809Y-106513380D02*
X271605238Y-106513380D01*
X271319523Y-107513380D02*
X271319523Y-106513380D01*
X272462380Y-107513380D02*
X271890952Y-107513380D01*
X272176666Y-107513380D02*
X272176666Y-106513380D01*
X272081428Y-106656238D01*
X271986190Y-106751476D01*
X271890952Y-106799095D01*
%TO.C,L6*%
X248115080Y-120992166D02*
X248115080Y-121468357D01*
X247115080Y-121468357D01*
X247115080Y-120230261D02*
X247115080Y-120420738D01*
X247162700Y-120515976D01*
X247210319Y-120563595D01*
X247353176Y-120658833D01*
X247543652Y-120706452D01*
X247924604Y-120706452D01*
X248019842Y-120658833D01*
X248067461Y-120611214D01*
X248115080Y-120515976D01*
X248115080Y-120325500D01*
X248067461Y-120230261D01*
X248019842Y-120182642D01*
X247924604Y-120135023D01*
X247686509Y-120135023D01*
X247591271Y-120182642D01*
X247543652Y-120230261D01*
X247496033Y-120325500D01*
X247496033Y-120515976D01*
X247543652Y-120611214D01*
X247591271Y-120658833D01*
X247686509Y-120706452D01*
%TO.C,R5*%
X127759618Y-86289146D02*
X127283428Y-86622480D01*
X127759618Y-86860575D02*
X126759618Y-86860575D01*
X126759618Y-86479622D01*
X126807238Y-86384384D01*
X126854857Y-86336765D01*
X126950095Y-86289146D01*
X127092952Y-86289146D01*
X127188190Y-86336765D01*
X127235809Y-86384384D01*
X127283428Y-86479622D01*
X127283428Y-86860575D01*
X126759618Y-85384384D02*
X126759618Y-85860575D01*
X127235809Y-85908194D01*
X127188190Y-85860575D01*
X127140571Y-85765337D01*
X127140571Y-85527241D01*
X127188190Y-85432003D01*
X127235809Y-85384384D01*
X127331047Y-85336765D01*
X127569142Y-85336765D01*
X127664380Y-85384384D01*
X127711999Y-85432003D01*
X127759618Y-85527241D01*
X127759618Y-85765337D01*
X127711999Y-85860575D01*
X127664380Y-85908194D01*
%TO.C,R52*%
X164365818Y-76489037D02*
X163889628Y-76822370D01*
X164365818Y-77060465D02*
X163365818Y-77060465D01*
X163365818Y-76679513D01*
X163413438Y-76584275D01*
X163461057Y-76536656D01*
X163556295Y-76489037D01*
X163699152Y-76489037D01*
X163794390Y-76536656D01*
X163842009Y-76584275D01*
X163889628Y-76679513D01*
X163889628Y-77060465D01*
X163365818Y-75584275D02*
X163365818Y-76060465D01*
X163842009Y-76108084D01*
X163794390Y-76060465D01*
X163746771Y-75965227D01*
X163746771Y-75727132D01*
X163794390Y-75631894D01*
X163842009Y-75584275D01*
X163937247Y-75536656D01*
X164175342Y-75536656D01*
X164270580Y-75584275D01*
X164318199Y-75631894D01*
X164365818Y-75727132D01*
X164365818Y-75965227D01*
X164318199Y-76060465D01*
X164270580Y-76108084D01*
X163461057Y-75155703D02*
X163413438Y-75108084D01*
X163365818Y-75012846D01*
X163365818Y-74774751D01*
X163413438Y-74679513D01*
X163461057Y-74631894D01*
X163556295Y-74584275D01*
X163651533Y-74584275D01*
X163794390Y-74631894D01*
X164365818Y-75203322D01*
X164365818Y-74584275D01*
%TO.C,R53*%
X157058780Y-74565760D02*
X156725447Y-74089570D01*
X156487352Y-74565760D02*
X156487352Y-73565760D01*
X156868304Y-73565760D01*
X156963542Y-73613380D01*
X157011161Y-73660999D01*
X157058780Y-73756237D01*
X157058780Y-73899094D01*
X157011161Y-73994332D01*
X156963542Y-74041951D01*
X156868304Y-74089570D01*
X156487352Y-74089570D01*
X157963542Y-73565760D02*
X157487352Y-73565760D01*
X157439733Y-74041951D01*
X157487352Y-73994332D01*
X157582590Y-73946713D01*
X157820685Y-73946713D01*
X157915923Y-73994332D01*
X157963542Y-74041951D01*
X158011161Y-74137189D01*
X158011161Y-74375284D01*
X157963542Y-74470522D01*
X157915923Y-74518141D01*
X157820685Y-74565760D01*
X157582590Y-74565760D01*
X157487352Y-74518141D01*
X157439733Y-74470522D01*
X158344495Y-73565760D02*
X158963542Y-73565760D01*
X158630209Y-73946713D01*
X158773066Y-73946713D01*
X158868304Y-73994332D01*
X158915923Y-74041951D01*
X158963542Y-74137189D01*
X158963542Y-74375284D01*
X158915923Y-74470522D01*
X158868304Y-74518141D01*
X158773066Y-74565760D01*
X158487352Y-74565760D01*
X158392114Y-74518141D01*
X158344495Y-74470522D01*
%TO.C,SW1*%
X254546266Y-154722861D02*
X254689123Y-154770480D01*
X254927219Y-154770480D01*
X255022457Y-154722861D01*
X255070076Y-154675242D01*
X255117695Y-154580004D01*
X255117695Y-154484766D01*
X255070076Y-154389528D01*
X255022457Y-154341909D01*
X254927219Y-154294290D01*
X254736742Y-154246671D01*
X254641504Y-154199052D01*
X254593885Y-154151433D01*
X254546266Y-154056195D01*
X254546266Y-153960957D01*
X254593885Y-153865719D01*
X254641504Y-153818100D01*
X254736742Y-153770480D01*
X254974838Y-153770480D01*
X255117695Y-153818100D01*
X255451028Y-153770480D02*
X255689123Y-154770480D01*
X255879600Y-154056195D01*
X256070076Y-154770480D01*
X256308171Y-153770480D01*
X257212933Y-154770480D02*
X256641504Y-154770480D01*
X256927219Y-154770480D02*
X256927219Y-153770480D01*
X256831980Y-153913338D01*
X256736742Y-154008576D01*
X256641504Y-154056195D01*
%TO.C,SW2*%
X176732599Y-65729113D02*
X176780218Y-65586256D01*
X176780218Y-65348160D01*
X176732599Y-65252922D01*
X176684980Y-65205303D01*
X176589742Y-65157684D01*
X176494504Y-65157684D01*
X176399266Y-65205303D01*
X176351647Y-65252922D01*
X176304028Y-65348160D01*
X176256409Y-65538637D01*
X176208790Y-65633875D01*
X176161171Y-65681494D01*
X176065933Y-65729113D01*
X175970695Y-65729113D01*
X175875457Y-65681494D01*
X175827838Y-65633875D01*
X175780218Y-65538637D01*
X175780218Y-65300541D01*
X175827838Y-65157684D01*
X175780218Y-64824351D02*
X176780218Y-64586256D01*
X176065933Y-64395780D01*
X176780218Y-64205303D01*
X175780218Y-63967208D01*
X175875457Y-63633875D02*
X175827838Y-63586256D01*
X175780218Y-63491018D01*
X175780218Y-63252922D01*
X175827838Y-63157684D01*
X175875457Y-63110065D01*
X175970695Y-63062446D01*
X176065933Y-63062446D01*
X176208790Y-63110065D01*
X176780218Y-63681494D01*
X176780218Y-63062446D01*
%TO.C,C10*%
X272795742Y-153760442D02*
X272748123Y-153808061D01*
X272605266Y-153855680D01*
X272510028Y-153855680D01*
X272367171Y-153808061D01*
X272271933Y-153712823D01*
X272224314Y-153617585D01*
X272176695Y-153427109D01*
X272176695Y-153284252D01*
X272224314Y-153093776D01*
X272271933Y-152998538D01*
X272367171Y-152903300D01*
X272510028Y-152855680D01*
X272605266Y-152855680D01*
X272748123Y-152903300D01*
X272795742Y-152950919D01*
X273748123Y-153855680D02*
X273176695Y-153855680D01*
X273462409Y-153855680D02*
X273462409Y-152855680D01*
X273367171Y-152998538D01*
X273271933Y-153093776D01*
X273176695Y-153141395D01*
X274367171Y-152855680D02*
X274462409Y-152855680D01*
X274557647Y-152903300D01*
X274605266Y-152950919D01*
X274652885Y-153046157D01*
X274700504Y-153236633D01*
X274700504Y-153474728D01*
X274652885Y-153665204D01*
X274605266Y-153760442D01*
X274557647Y-153808061D01*
X274462409Y-153855680D01*
X274367171Y-153855680D01*
X274271933Y-153808061D01*
X274224314Y-153760442D01*
X274176695Y-153665204D01*
X274129076Y-153474728D01*
X274129076Y-153236633D01*
X274176695Y-153046157D01*
X274224314Y-152950919D01*
X274271933Y-152903300D01*
X274367171Y-152855680D01*
%TO.C,L3*%
X230996433Y-160890480D02*
X230520242Y-160890480D01*
X230520242Y-159890480D01*
X231234528Y-159890480D02*
X231853576Y-159890480D01*
X231520242Y-160271433D01*
X231663100Y-160271433D01*
X231758338Y-160319052D01*
X231805957Y-160366671D01*
X231853576Y-160461909D01*
X231853576Y-160700004D01*
X231805957Y-160795242D01*
X231758338Y-160842861D01*
X231663100Y-160890480D01*
X231377385Y-160890480D01*
X231282147Y-160842861D01*
X231234528Y-160795242D01*
%TO.C,C17*%
X271075942Y-150585442D02*
X271028323Y-150633061D01*
X270885466Y-150680680D01*
X270790228Y-150680680D01*
X270647371Y-150633061D01*
X270552133Y-150537823D01*
X270504514Y-150442585D01*
X270456895Y-150252109D01*
X270456895Y-150109252D01*
X270504514Y-149918776D01*
X270552133Y-149823538D01*
X270647371Y-149728300D01*
X270790228Y-149680680D01*
X270885466Y-149680680D01*
X271028323Y-149728300D01*
X271075942Y-149775919D01*
X272028323Y-150680680D02*
X271456895Y-150680680D01*
X271742609Y-150680680D02*
X271742609Y-149680680D01*
X271647371Y-149823538D01*
X271552133Y-149918776D01*
X271456895Y-149966395D01*
X272361657Y-149680680D02*
X273028323Y-149680680D01*
X272599752Y-150680680D01*
%TO.C,C5*%
X236833442Y-125426766D02*
X236881061Y-125474385D01*
X236928680Y-125617242D01*
X236928680Y-125712480D01*
X236881061Y-125855338D01*
X236785823Y-125950576D01*
X236690585Y-125998195D01*
X236500109Y-126045814D01*
X236357252Y-126045814D01*
X236166776Y-125998195D01*
X236071538Y-125950576D01*
X235976300Y-125855338D01*
X235928680Y-125712480D01*
X235928680Y-125617242D01*
X235976300Y-125474385D01*
X236023919Y-125426766D01*
X235928680Y-124522004D02*
X235928680Y-124998195D01*
X236404871Y-125045814D01*
X236357252Y-124998195D01*
X236309633Y-124902957D01*
X236309633Y-124664861D01*
X236357252Y-124569623D01*
X236404871Y-124522004D01*
X236500109Y-124474385D01*
X236738204Y-124474385D01*
X236833442Y-124522004D01*
X236881061Y-124569623D01*
X236928680Y-124664861D01*
X236928680Y-124902957D01*
X236881061Y-124998195D01*
X236833442Y-125045814D01*
%TO.C,J7*%
X136922255Y-107053560D02*
X136922255Y-107767846D01*
X136874636Y-107910703D01*
X136779398Y-108005941D01*
X136636541Y-108053560D01*
X136541303Y-108053560D01*
X137303208Y-107053560D02*
X137969874Y-107053560D01*
X137541303Y-108053560D01*
%TO.C,J8*%
X230224766Y-106617380D02*
X230224766Y-107331666D01*
X230177147Y-107474523D01*
X230081909Y-107569761D01*
X229939052Y-107617380D01*
X229843814Y-107617380D01*
X230843814Y-107045952D02*
X230748576Y-106998333D01*
X230700957Y-106950714D01*
X230653338Y-106855476D01*
X230653338Y-106807857D01*
X230700957Y-106712619D01*
X230748576Y-106665000D01*
X230843814Y-106617380D01*
X231034290Y-106617380D01*
X231129528Y-106665000D01*
X231177147Y-106712619D01*
X231224766Y-106807857D01*
X231224766Y-106855476D01*
X231177147Y-106950714D01*
X231129528Y-106998333D01*
X231034290Y-107045952D01*
X230843814Y-107045952D01*
X230748576Y-107093571D01*
X230700957Y-107141190D01*
X230653338Y-107236428D01*
X230653338Y-107426904D01*
X230700957Y-107522142D01*
X230748576Y-107569761D01*
X230843814Y-107617380D01*
X231034290Y-107617380D01*
X231129528Y-107569761D01*
X231177147Y-107522142D01*
X231224766Y-107426904D01*
X231224766Y-107236428D01*
X231177147Y-107141190D01*
X231129528Y-107093571D01*
X231034290Y-107045952D01*
%TO.C,J5*%
X97480504Y-81890160D02*
X97480504Y-82604446D01*
X97432885Y-82747303D01*
X97337647Y-82842541D01*
X97194790Y-82890160D01*
X97099552Y-82890160D01*
X98432885Y-81890160D02*
X97956695Y-81890160D01*
X97909076Y-82366351D01*
X97956695Y-82318732D01*
X98051933Y-82271113D01*
X98290028Y-82271113D01*
X98385266Y-82318732D01*
X98432885Y-82366351D01*
X98480504Y-82461589D01*
X98480504Y-82699684D01*
X98432885Y-82794922D01*
X98385266Y-82842541D01*
X98290028Y-82890160D01*
X98051933Y-82890160D01*
X97956695Y-82842541D01*
X97909076Y-82794922D01*
%TO.C,J9*%
X269663266Y-82333980D02*
X269663266Y-83048266D01*
X269615647Y-83191123D01*
X269520409Y-83286361D01*
X269377552Y-83333980D01*
X269282314Y-83333980D01*
X270187076Y-83333980D02*
X270377552Y-83333980D01*
X270472790Y-83286361D01*
X270520409Y-83238742D01*
X270615647Y-83095885D01*
X270663266Y-82905409D01*
X270663266Y-82524457D01*
X270615647Y-82429219D01*
X270568028Y-82381600D01*
X270472790Y-82333980D01*
X270282314Y-82333980D01*
X270187076Y-82381600D01*
X270139457Y-82429219D01*
X270091838Y-82524457D01*
X270091838Y-82762552D01*
X270139457Y-82857790D01*
X270187076Y-82905409D01*
X270282314Y-82953028D01*
X270472790Y-82953028D01*
X270568028Y-82905409D01*
X270615647Y-82857790D01*
X270663266Y-82762552D01*
%TO.C,R41*%
X159725618Y-139858437D02*
X159249428Y-140191770D01*
X159725618Y-140429865D02*
X158725618Y-140429865D01*
X158725618Y-140048913D01*
X158773238Y-139953675D01*
X158820857Y-139906056D01*
X158916095Y-139858437D01*
X159058952Y-139858437D01*
X159154190Y-139906056D01*
X159201809Y-139953675D01*
X159249428Y-140048913D01*
X159249428Y-140429865D01*
X159058952Y-139001294D02*
X159725618Y-139001294D01*
X158677999Y-139239389D02*
X159392285Y-139477484D01*
X159392285Y-138858437D01*
X159725618Y-137953675D02*
X159725618Y-138525103D01*
X159725618Y-138239389D02*
X158725618Y-138239389D01*
X158868476Y-138334627D01*
X158963714Y-138429865D01*
X159011333Y-138525103D01*
%TO.C,R51*%
X159093818Y-150372037D02*
X158617628Y-150705370D01*
X159093818Y-150943465D02*
X158093818Y-150943465D01*
X158093818Y-150562513D01*
X158141438Y-150467275D01*
X158189057Y-150419656D01*
X158284295Y-150372037D01*
X158427152Y-150372037D01*
X158522390Y-150419656D01*
X158570009Y-150467275D01*
X158617628Y-150562513D01*
X158617628Y-150943465D01*
X158093818Y-149467275D02*
X158093818Y-149943465D01*
X158570009Y-149991084D01*
X158522390Y-149943465D01*
X158474771Y-149848227D01*
X158474771Y-149610132D01*
X158522390Y-149514894D01*
X158570009Y-149467275D01*
X158665247Y-149419656D01*
X158903342Y-149419656D01*
X158998580Y-149467275D01*
X159046199Y-149514894D01*
X159093818Y-149610132D01*
X159093818Y-149848227D01*
X159046199Y-149943465D01*
X158998580Y-149991084D01*
X159093818Y-148467275D02*
X159093818Y-149038703D01*
X159093818Y-148752989D02*
X158093818Y-148752989D01*
X158236676Y-148848227D01*
X158331914Y-148943465D01*
X158379533Y-149038703D01*
%TO.C,C3*%
X191873142Y-109386666D02*
X191920761Y-109434285D01*
X191968380Y-109577142D01*
X191968380Y-109672380D01*
X191920761Y-109815238D01*
X191825523Y-109910476D01*
X191730285Y-109958095D01*
X191539809Y-110005714D01*
X191396952Y-110005714D01*
X191206476Y-109958095D01*
X191111238Y-109910476D01*
X191016000Y-109815238D01*
X190968380Y-109672380D01*
X190968380Y-109577142D01*
X191016000Y-109434285D01*
X191063619Y-109386666D01*
X190968380Y-109053333D02*
X190968380Y-108434285D01*
X191349333Y-108767619D01*
X191349333Y-108624761D01*
X191396952Y-108529523D01*
X191444571Y-108481904D01*
X191539809Y-108434285D01*
X191777904Y-108434285D01*
X191873142Y-108481904D01*
X191920761Y-108529523D01*
X191968380Y-108624761D01*
X191968380Y-108910476D01*
X191920761Y-109005714D01*
X191873142Y-109053333D01*
%TO.C,R7*%
X243546333Y-109799380D02*
X243213000Y-109323190D01*
X242974904Y-109799380D02*
X242974904Y-108799380D01*
X243355857Y-108799380D01*
X243451095Y-108847000D01*
X243498714Y-108894619D01*
X243546333Y-108989857D01*
X243546333Y-109132714D01*
X243498714Y-109227952D01*
X243451095Y-109275571D01*
X243355857Y-109323190D01*
X242974904Y-109323190D01*
X243879666Y-108799380D02*
X244546333Y-108799380D01*
X244117761Y-109799380D01*
%TO.C,R9*%
X249769333Y-109926380D02*
X249436000Y-109450190D01*
X249197904Y-109926380D02*
X249197904Y-108926380D01*
X249578857Y-108926380D01*
X249674095Y-108974000D01*
X249721714Y-109021619D01*
X249769333Y-109116857D01*
X249769333Y-109259714D01*
X249721714Y-109354952D01*
X249674095Y-109402571D01*
X249578857Y-109450190D01*
X249197904Y-109450190D01*
X250245523Y-109926380D02*
X250436000Y-109926380D01*
X250531238Y-109878761D01*
X250578857Y-109831142D01*
X250674095Y-109688285D01*
X250721714Y-109497809D01*
X250721714Y-109116857D01*
X250674095Y-109021619D01*
X250626476Y-108974000D01*
X250531238Y-108926380D01*
X250340761Y-108926380D01*
X250245523Y-108974000D01*
X250197904Y-109021619D01*
X250150285Y-109116857D01*
X250150285Y-109354952D01*
X250197904Y-109450190D01*
X250245523Y-109497809D01*
X250340761Y-109545428D01*
X250531238Y-109545428D01*
X250626476Y-109497809D01*
X250674095Y-109450190D01*
X250721714Y-109354952D01*
%TO.C,RIGHT1*%
X268827476Y-86177380D02*
X268494142Y-85701190D01*
X268256047Y-86177380D02*
X268256047Y-85177380D01*
X268637000Y-85177380D01*
X268732238Y-85225000D01*
X268779857Y-85272619D01*
X268827476Y-85367857D01*
X268827476Y-85510714D01*
X268779857Y-85605952D01*
X268732238Y-85653571D01*
X268637000Y-85701190D01*
X268256047Y-85701190D01*
X269256047Y-86177380D02*
X269256047Y-85177380D01*
X270256047Y-85225000D02*
X270160809Y-85177380D01*
X270017952Y-85177380D01*
X269875095Y-85225000D01*
X269779857Y-85320238D01*
X269732238Y-85415476D01*
X269684619Y-85605952D01*
X269684619Y-85748809D01*
X269732238Y-85939285D01*
X269779857Y-86034523D01*
X269875095Y-86129761D01*
X270017952Y-86177380D01*
X270113190Y-86177380D01*
X270256047Y-86129761D01*
X270303666Y-86082142D01*
X270303666Y-85748809D01*
X270113190Y-85748809D01*
X270732238Y-86177380D02*
X270732238Y-85177380D01*
X270732238Y-85653571D02*
X271303666Y-85653571D01*
X271303666Y-86177380D02*
X271303666Y-85177380D01*
X271637000Y-85177380D02*
X272208428Y-85177380D01*
X271922714Y-86177380D02*
X271922714Y-85177380D01*
X273065571Y-86177380D02*
X272494142Y-86177380D01*
X272779857Y-86177380D02*
X272779857Y-85177380D01*
X272684619Y-85320238D01*
X272589380Y-85415476D01*
X272494142Y-85463095D01*
%TO.C,C31*%
X265788142Y-93714842D02*
X265740523Y-93762461D01*
X265597666Y-93810080D01*
X265502428Y-93810080D01*
X265359571Y-93762461D01*
X265264333Y-93667223D01*
X265216714Y-93571985D01*
X265169095Y-93381509D01*
X265169095Y-93238652D01*
X265216714Y-93048176D01*
X265264333Y-92952938D01*
X265359571Y-92857700D01*
X265502428Y-92810080D01*
X265597666Y-92810080D01*
X265740523Y-92857700D01*
X265788142Y-92905319D01*
X266121476Y-92810080D02*
X266740523Y-92810080D01*
X266407190Y-93191033D01*
X266550047Y-93191033D01*
X266645285Y-93238652D01*
X266692904Y-93286271D01*
X266740523Y-93381509D01*
X266740523Y-93619604D01*
X266692904Y-93714842D01*
X266645285Y-93762461D01*
X266550047Y-93810080D01*
X266264333Y-93810080D01*
X266169095Y-93762461D01*
X266121476Y-93714842D01*
X267692904Y-93810080D02*
X267121476Y-93810080D01*
X267407190Y-93810080D02*
X267407190Y-92810080D01*
X267311952Y-92952938D01*
X267216714Y-93048176D01*
X267121476Y-93095795D01*
%TO.C,R60*%
X252521980Y-76741257D02*
X252045790Y-77074590D01*
X252521980Y-77312685D02*
X251521980Y-77312685D01*
X251521980Y-76931733D01*
X251569600Y-76836495D01*
X251617219Y-76788876D01*
X251712457Y-76741257D01*
X251855314Y-76741257D01*
X251950552Y-76788876D01*
X251998171Y-76836495D01*
X252045790Y-76931733D01*
X252045790Y-77312685D01*
X251521980Y-75884114D02*
X251521980Y-76074590D01*
X251569600Y-76169828D01*
X251617219Y-76217447D01*
X251760076Y-76312685D01*
X251950552Y-76360304D01*
X252331504Y-76360304D01*
X252426742Y-76312685D01*
X252474361Y-76265066D01*
X252521980Y-76169828D01*
X252521980Y-75979352D01*
X252474361Y-75884114D01*
X252426742Y-75836495D01*
X252331504Y-75788876D01*
X252093409Y-75788876D01*
X251998171Y-75836495D01*
X251950552Y-75884114D01*
X251902933Y-75979352D01*
X251902933Y-76169828D01*
X251950552Y-76265066D01*
X251998171Y-76312685D01*
X252093409Y-76360304D01*
X251521980Y-75169828D02*
X251521980Y-75074590D01*
X251569600Y-74979352D01*
X251617219Y-74931733D01*
X251712457Y-74884114D01*
X251902933Y-74836495D01*
X252141028Y-74836495D01*
X252331504Y-74884114D01*
X252426742Y-74931733D01*
X252474361Y-74979352D01*
X252521980Y-75074590D01*
X252521980Y-75169828D01*
X252474361Y-75265066D01*
X252426742Y-75312685D01*
X252331504Y-75360304D01*
X252141028Y-75407923D01*
X251902933Y-75407923D01*
X251712457Y-75360304D01*
X251617219Y-75312685D01*
X251569600Y-75265066D01*
X251521980Y-75169828D01*
%TO.C,C39*%
X149258080Y-78453322D02*
X149210461Y-78500941D01*
X149067604Y-78548560D01*
X148972366Y-78548560D01*
X148829509Y-78500941D01*
X148734271Y-78405703D01*
X148686652Y-78310465D01*
X148639033Y-78119989D01*
X148639033Y-77977132D01*
X148686652Y-77786656D01*
X148734271Y-77691418D01*
X148829509Y-77596180D01*
X148972366Y-77548560D01*
X149067604Y-77548560D01*
X149210461Y-77596180D01*
X149258080Y-77643799D01*
X149591414Y-77548560D02*
X150210461Y-77548560D01*
X149877128Y-77929513D01*
X150019985Y-77929513D01*
X150115223Y-77977132D01*
X150162842Y-78024751D01*
X150210461Y-78119989D01*
X150210461Y-78358084D01*
X150162842Y-78453322D01*
X150115223Y-78500941D01*
X150019985Y-78548560D01*
X149734271Y-78548560D01*
X149639033Y-78500941D01*
X149591414Y-78453322D01*
X150686652Y-78548560D02*
X150877128Y-78548560D01*
X150972366Y-78500941D01*
X151019985Y-78453322D01*
X151115223Y-78310465D01*
X151162842Y-78119989D01*
X151162842Y-77739037D01*
X151115223Y-77643799D01*
X151067604Y-77596180D01*
X150972366Y-77548560D01*
X150781890Y-77548560D01*
X150686652Y-77596180D01*
X150639033Y-77643799D01*
X150591414Y-77739037D01*
X150591414Y-77977132D01*
X150639033Y-78072370D01*
X150686652Y-78119989D01*
X150781890Y-78167608D01*
X150972366Y-78167608D01*
X151067604Y-78119989D01*
X151115223Y-78072370D01*
X151162842Y-77977132D01*
%TO.C,C43*%
X145470580Y-78503322D02*
X145422961Y-78550941D01*
X145280104Y-78598560D01*
X145184866Y-78598560D01*
X145042009Y-78550941D01*
X144946771Y-78455703D01*
X144899152Y-78360465D01*
X144851533Y-78169989D01*
X144851533Y-78027132D01*
X144899152Y-77836656D01*
X144946771Y-77741418D01*
X145042009Y-77646180D01*
X145184866Y-77598560D01*
X145280104Y-77598560D01*
X145422961Y-77646180D01*
X145470580Y-77693799D01*
X146327723Y-77931894D02*
X146327723Y-78598560D01*
X146089628Y-77550941D02*
X145851533Y-78265227D01*
X146470580Y-78265227D01*
X146756295Y-77598560D02*
X147375342Y-77598560D01*
X147042009Y-77979513D01*
X147184866Y-77979513D01*
X147280104Y-78027132D01*
X147327723Y-78074751D01*
X147375342Y-78169989D01*
X147375342Y-78408084D01*
X147327723Y-78503322D01*
X147280104Y-78550941D01*
X147184866Y-78598560D01*
X146899152Y-78598560D01*
X146803914Y-78550941D01*
X146756295Y-78503322D01*
%TO.C,C51*%
X127358080Y-78078322D02*
X127310461Y-78125941D01*
X127167604Y-78173560D01*
X127072366Y-78173560D01*
X126929509Y-78125941D01*
X126834271Y-78030703D01*
X126786652Y-77935465D01*
X126739033Y-77744989D01*
X126739033Y-77602132D01*
X126786652Y-77411656D01*
X126834271Y-77316418D01*
X126929509Y-77221180D01*
X127072366Y-77173560D01*
X127167604Y-77173560D01*
X127310461Y-77221180D01*
X127358080Y-77268799D01*
X128262842Y-77173560D02*
X127786652Y-77173560D01*
X127739033Y-77649751D01*
X127786652Y-77602132D01*
X127881890Y-77554513D01*
X128119985Y-77554513D01*
X128215223Y-77602132D01*
X128262842Y-77649751D01*
X128310461Y-77744989D01*
X128310461Y-77983084D01*
X128262842Y-78078322D01*
X128215223Y-78125941D01*
X128119985Y-78173560D01*
X127881890Y-78173560D01*
X127786652Y-78125941D01*
X127739033Y-78078322D01*
X129262842Y-78173560D02*
X128691414Y-78173560D01*
X128977128Y-78173560D02*
X128977128Y-77173560D01*
X128881890Y-77316418D01*
X128786652Y-77411656D01*
X128691414Y-77459275D01*
%TO.C,C52*%
X123695580Y-78278322D02*
X123647961Y-78325941D01*
X123505104Y-78373560D01*
X123409866Y-78373560D01*
X123267009Y-78325941D01*
X123171771Y-78230703D01*
X123124152Y-78135465D01*
X123076533Y-77944989D01*
X123076533Y-77802132D01*
X123124152Y-77611656D01*
X123171771Y-77516418D01*
X123267009Y-77421180D01*
X123409866Y-77373560D01*
X123505104Y-77373560D01*
X123647961Y-77421180D01*
X123695580Y-77468799D01*
X124600342Y-77373560D02*
X124124152Y-77373560D01*
X124076533Y-77849751D01*
X124124152Y-77802132D01*
X124219390Y-77754513D01*
X124457485Y-77754513D01*
X124552723Y-77802132D01*
X124600342Y-77849751D01*
X124647961Y-77944989D01*
X124647961Y-78183084D01*
X124600342Y-78278322D01*
X124552723Y-78325941D01*
X124457485Y-78373560D01*
X124219390Y-78373560D01*
X124124152Y-78325941D01*
X124076533Y-78278322D01*
X125028914Y-77468799D02*
X125076533Y-77421180D01*
X125171771Y-77373560D01*
X125409866Y-77373560D01*
X125505104Y-77421180D01*
X125552723Y-77468799D01*
X125600342Y-77564037D01*
X125600342Y-77659275D01*
X125552723Y-77802132D01*
X124981295Y-78373560D01*
X125600342Y-78373560D01*
%TO.C,R82*%
X152040818Y-72151537D02*
X151564628Y-72484870D01*
X152040818Y-72722965D02*
X151040818Y-72722965D01*
X151040818Y-72342013D01*
X151088438Y-72246775D01*
X151136057Y-72199156D01*
X151231295Y-72151537D01*
X151374152Y-72151537D01*
X151469390Y-72199156D01*
X151517009Y-72246775D01*
X151564628Y-72342013D01*
X151564628Y-72722965D01*
X151469390Y-71580108D02*
X151421771Y-71675346D01*
X151374152Y-71722965D01*
X151278914Y-71770584D01*
X151231295Y-71770584D01*
X151136057Y-71722965D01*
X151088438Y-71675346D01*
X151040818Y-71580108D01*
X151040818Y-71389632D01*
X151088438Y-71294394D01*
X151136057Y-71246775D01*
X151231295Y-71199156D01*
X151278914Y-71199156D01*
X151374152Y-71246775D01*
X151421771Y-71294394D01*
X151469390Y-71389632D01*
X151469390Y-71580108D01*
X151517009Y-71675346D01*
X151564628Y-71722965D01*
X151659866Y-71770584D01*
X151850342Y-71770584D01*
X151945580Y-71722965D01*
X151993199Y-71675346D01*
X152040818Y-71580108D01*
X152040818Y-71389632D01*
X151993199Y-71294394D01*
X151945580Y-71246775D01*
X151850342Y-71199156D01*
X151659866Y-71199156D01*
X151564628Y-71246775D01*
X151517009Y-71294394D01*
X151469390Y-71389632D01*
X151136057Y-70818203D02*
X151088438Y-70770584D01*
X151040818Y-70675346D01*
X151040818Y-70437251D01*
X151088438Y-70342013D01*
X151136057Y-70294394D01*
X151231295Y-70246775D01*
X151326533Y-70246775D01*
X151469390Y-70294394D01*
X152040818Y-70865822D01*
X152040818Y-70246775D01*
%TO.C,R83*%
X149865818Y-72064037D02*
X149389628Y-72397370D01*
X149865818Y-72635465D02*
X148865818Y-72635465D01*
X148865818Y-72254513D01*
X148913438Y-72159275D01*
X148961057Y-72111656D01*
X149056295Y-72064037D01*
X149199152Y-72064037D01*
X149294390Y-72111656D01*
X149342009Y-72159275D01*
X149389628Y-72254513D01*
X149389628Y-72635465D01*
X149294390Y-71492608D02*
X149246771Y-71587846D01*
X149199152Y-71635465D01*
X149103914Y-71683084D01*
X149056295Y-71683084D01*
X148961057Y-71635465D01*
X148913438Y-71587846D01*
X148865818Y-71492608D01*
X148865818Y-71302132D01*
X148913438Y-71206894D01*
X148961057Y-71159275D01*
X149056295Y-71111656D01*
X149103914Y-71111656D01*
X149199152Y-71159275D01*
X149246771Y-71206894D01*
X149294390Y-71302132D01*
X149294390Y-71492608D01*
X149342009Y-71587846D01*
X149389628Y-71635465D01*
X149484866Y-71683084D01*
X149675342Y-71683084D01*
X149770580Y-71635465D01*
X149818199Y-71587846D01*
X149865818Y-71492608D01*
X149865818Y-71302132D01*
X149818199Y-71206894D01*
X149770580Y-71159275D01*
X149675342Y-71111656D01*
X149484866Y-71111656D01*
X149389628Y-71159275D01*
X149342009Y-71206894D01*
X149294390Y-71302132D01*
X148865818Y-70778322D02*
X148865818Y-70159275D01*
X149246771Y-70492608D01*
X149246771Y-70349751D01*
X149294390Y-70254513D01*
X149342009Y-70206894D01*
X149437247Y-70159275D01*
X149675342Y-70159275D01*
X149770580Y-70206894D01*
X149818199Y-70254513D01*
X149865818Y-70349751D01*
X149865818Y-70635465D01*
X149818199Y-70730703D01*
X149770580Y-70778322D01*
%TO.C,R84*%
X147665818Y-72101537D02*
X147189628Y-72434870D01*
X147665818Y-72672965D02*
X146665818Y-72672965D01*
X146665818Y-72292013D01*
X146713438Y-72196775D01*
X146761057Y-72149156D01*
X146856295Y-72101537D01*
X146999152Y-72101537D01*
X147094390Y-72149156D01*
X147142009Y-72196775D01*
X147189628Y-72292013D01*
X147189628Y-72672965D01*
X147094390Y-71530108D02*
X147046771Y-71625346D01*
X146999152Y-71672965D01*
X146903914Y-71720584D01*
X146856295Y-71720584D01*
X146761057Y-71672965D01*
X146713438Y-71625346D01*
X146665818Y-71530108D01*
X146665818Y-71339632D01*
X146713438Y-71244394D01*
X146761057Y-71196775D01*
X146856295Y-71149156D01*
X146903914Y-71149156D01*
X146999152Y-71196775D01*
X147046771Y-71244394D01*
X147094390Y-71339632D01*
X147094390Y-71530108D01*
X147142009Y-71625346D01*
X147189628Y-71672965D01*
X147284866Y-71720584D01*
X147475342Y-71720584D01*
X147570580Y-71672965D01*
X147618199Y-71625346D01*
X147665818Y-71530108D01*
X147665818Y-71339632D01*
X147618199Y-71244394D01*
X147570580Y-71196775D01*
X147475342Y-71149156D01*
X147284866Y-71149156D01*
X147189628Y-71196775D01*
X147142009Y-71244394D01*
X147094390Y-71339632D01*
X146999152Y-70292013D02*
X147665818Y-70292013D01*
X146618199Y-70530108D02*
X147332485Y-70768203D01*
X147332485Y-70149156D01*
%TO.C,R85*%
X145415818Y-72089037D02*
X144939628Y-72422370D01*
X145415818Y-72660465D02*
X144415818Y-72660465D01*
X144415818Y-72279513D01*
X144463438Y-72184275D01*
X144511057Y-72136656D01*
X144606295Y-72089037D01*
X144749152Y-72089037D01*
X144844390Y-72136656D01*
X144892009Y-72184275D01*
X144939628Y-72279513D01*
X144939628Y-72660465D01*
X144844390Y-71517608D02*
X144796771Y-71612846D01*
X144749152Y-71660465D01*
X144653914Y-71708084D01*
X144606295Y-71708084D01*
X144511057Y-71660465D01*
X144463438Y-71612846D01*
X144415818Y-71517608D01*
X144415818Y-71327132D01*
X144463438Y-71231894D01*
X144511057Y-71184275D01*
X144606295Y-71136656D01*
X144653914Y-71136656D01*
X144749152Y-71184275D01*
X144796771Y-71231894D01*
X144844390Y-71327132D01*
X144844390Y-71517608D01*
X144892009Y-71612846D01*
X144939628Y-71660465D01*
X145034866Y-71708084D01*
X145225342Y-71708084D01*
X145320580Y-71660465D01*
X145368199Y-71612846D01*
X145415818Y-71517608D01*
X145415818Y-71327132D01*
X145368199Y-71231894D01*
X145320580Y-71184275D01*
X145225342Y-71136656D01*
X145034866Y-71136656D01*
X144939628Y-71184275D01*
X144892009Y-71231894D01*
X144844390Y-71327132D01*
X144415818Y-70231894D02*
X144415818Y-70708084D01*
X144892009Y-70755703D01*
X144844390Y-70708084D01*
X144796771Y-70612846D01*
X144796771Y-70374751D01*
X144844390Y-70279513D01*
X144892009Y-70231894D01*
X144987247Y-70184275D01*
X145225342Y-70184275D01*
X145320580Y-70231894D01*
X145368199Y-70279513D01*
X145415818Y-70374751D01*
X145415818Y-70612846D01*
X145368199Y-70708084D01*
X145320580Y-70755703D01*
%TO.C,R86*%
X129940818Y-72439037D02*
X129464628Y-72772370D01*
X129940818Y-73010465D02*
X128940818Y-73010465D01*
X128940818Y-72629513D01*
X128988438Y-72534275D01*
X129036057Y-72486656D01*
X129131295Y-72439037D01*
X129274152Y-72439037D01*
X129369390Y-72486656D01*
X129417009Y-72534275D01*
X129464628Y-72629513D01*
X129464628Y-73010465D01*
X129369390Y-71867608D02*
X129321771Y-71962846D01*
X129274152Y-72010465D01*
X129178914Y-72058084D01*
X129131295Y-72058084D01*
X129036057Y-72010465D01*
X128988438Y-71962846D01*
X128940818Y-71867608D01*
X128940818Y-71677132D01*
X128988438Y-71581894D01*
X129036057Y-71534275D01*
X129131295Y-71486656D01*
X129178914Y-71486656D01*
X129274152Y-71534275D01*
X129321771Y-71581894D01*
X129369390Y-71677132D01*
X129369390Y-71867608D01*
X129417009Y-71962846D01*
X129464628Y-72010465D01*
X129559866Y-72058084D01*
X129750342Y-72058084D01*
X129845580Y-72010465D01*
X129893199Y-71962846D01*
X129940818Y-71867608D01*
X129940818Y-71677132D01*
X129893199Y-71581894D01*
X129845580Y-71534275D01*
X129750342Y-71486656D01*
X129559866Y-71486656D01*
X129464628Y-71534275D01*
X129417009Y-71581894D01*
X129369390Y-71677132D01*
X128940818Y-70629513D02*
X128940818Y-70819989D01*
X128988438Y-70915227D01*
X129036057Y-70962846D01*
X129178914Y-71058084D01*
X129369390Y-71105703D01*
X129750342Y-71105703D01*
X129845580Y-71058084D01*
X129893199Y-71010465D01*
X129940818Y-70915227D01*
X129940818Y-70724751D01*
X129893199Y-70629513D01*
X129845580Y-70581894D01*
X129750342Y-70534275D01*
X129512247Y-70534275D01*
X129417009Y-70581894D01*
X129369390Y-70629513D01*
X129321771Y-70724751D01*
X129321771Y-70915227D01*
X129369390Y-71010465D01*
X129417009Y-71058084D01*
X129512247Y-71105703D01*
%TO.C,R87*%
X127615818Y-72439037D02*
X127139628Y-72772370D01*
X127615818Y-73010465D02*
X126615818Y-73010465D01*
X126615818Y-72629513D01*
X126663438Y-72534275D01*
X126711057Y-72486656D01*
X126806295Y-72439037D01*
X126949152Y-72439037D01*
X127044390Y-72486656D01*
X127092009Y-72534275D01*
X127139628Y-72629513D01*
X127139628Y-73010465D01*
X127044390Y-71867608D02*
X126996771Y-71962846D01*
X126949152Y-72010465D01*
X126853914Y-72058084D01*
X126806295Y-72058084D01*
X126711057Y-72010465D01*
X126663438Y-71962846D01*
X126615818Y-71867608D01*
X126615818Y-71677132D01*
X126663438Y-71581894D01*
X126711057Y-71534275D01*
X126806295Y-71486656D01*
X126853914Y-71486656D01*
X126949152Y-71534275D01*
X126996771Y-71581894D01*
X127044390Y-71677132D01*
X127044390Y-71867608D01*
X127092009Y-71962846D01*
X127139628Y-72010465D01*
X127234866Y-72058084D01*
X127425342Y-72058084D01*
X127520580Y-72010465D01*
X127568199Y-71962846D01*
X127615818Y-71867608D01*
X127615818Y-71677132D01*
X127568199Y-71581894D01*
X127520580Y-71534275D01*
X127425342Y-71486656D01*
X127234866Y-71486656D01*
X127139628Y-71534275D01*
X127092009Y-71581894D01*
X127044390Y-71677132D01*
X126615818Y-71153322D02*
X126615818Y-70486656D01*
X127615818Y-70915227D01*
%TO.C,R88*%
X125365818Y-72464037D02*
X124889628Y-72797370D01*
X125365818Y-73035465D02*
X124365818Y-73035465D01*
X124365818Y-72654513D01*
X124413438Y-72559275D01*
X124461057Y-72511656D01*
X124556295Y-72464037D01*
X124699152Y-72464037D01*
X124794390Y-72511656D01*
X124842009Y-72559275D01*
X124889628Y-72654513D01*
X124889628Y-73035465D01*
X124794390Y-71892608D02*
X124746771Y-71987846D01*
X124699152Y-72035465D01*
X124603914Y-72083084D01*
X124556295Y-72083084D01*
X124461057Y-72035465D01*
X124413438Y-71987846D01*
X124365818Y-71892608D01*
X124365818Y-71702132D01*
X124413438Y-71606894D01*
X124461057Y-71559275D01*
X124556295Y-71511656D01*
X124603914Y-71511656D01*
X124699152Y-71559275D01*
X124746771Y-71606894D01*
X124794390Y-71702132D01*
X124794390Y-71892608D01*
X124842009Y-71987846D01*
X124889628Y-72035465D01*
X124984866Y-72083084D01*
X125175342Y-72083084D01*
X125270580Y-72035465D01*
X125318199Y-71987846D01*
X125365818Y-71892608D01*
X125365818Y-71702132D01*
X125318199Y-71606894D01*
X125270580Y-71559275D01*
X125175342Y-71511656D01*
X124984866Y-71511656D01*
X124889628Y-71559275D01*
X124842009Y-71606894D01*
X124794390Y-71702132D01*
X124794390Y-70940227D02*
X124746771Y-71035465D01*
X124699152Y-71083084D01*
X124603914Y-71130703D01*
X124556295Y-71130703D01*
X124461057Y-71083084D01*
X124413438Y-71035465D01*
X124365818Y-70940227D01*
X124365818Y-70749751D01*
X124413438Y-70654513D01*
X124461057Y-70606894D01*
X124556295Y-70559275D01*
X124603914Y-70559275D01*
X124699152Y-70606894D01*
X124746771Y-70654513D01*
X124794390Y-70749751D01*
X124794390Y-70940227D01*
X124842009Y-71035465D01*
X124889628Y-71083084D01*
X124984866Y-71130703D01*
X125175342Y-71130703D01*
X125270580Y-71083084D01*
X125318199Y-71035465D01*
X125365818Y-70940227D01*
X125365818Y-70749751D01*
X125318199Y-70654513D01*
X125270580Y-70606894D01*
X125175342Y-70559275D01*
X124984866Y-70559275D01*
X124889628Y-70606894D01*
X124842009Y-70654513D01*
X124794390Y-70749751D01*
%TO.C,R89*%
X123090818Y-72439037D02*
X122614628Y-72772370D01*
X123090818Y-73010465D02*
X122090818Y-73010465D01*
X122090818Y-72629513D01*
X122138438Y-72534275D01*
X122186057Y-72486656D01*
X122281295Y-72439037D01*
X122424152Y-72439037D01*
X122519390Y-72486656D01*
X122567009Y-72534275D01*
X122614628Y-72629513D01*
X122614628Y-73010465D01*
X122519390Y-71867608D02*
X122471771Y-71962846D01*
X122424152Y-72010465D01*
X122328914Y-72058084D01*
X122281295Y-72058084D01*
X122186057Y-72010465D01*
X122138438Y-71962846D01*
X122090818Y-71867608D01*
X122090818Y-71677132D01*
X122138438Y-71581894D01*
X122186057Y-71534275D01*
X122281295Y-71486656D01*
X122328914Y-71486656D01*
X122424152Y-71534275D01*
X122471771Y-71581894D01*
X122519390Y-71677132D01*
X122519390Y-71867608D01*
X122567009Y-71962846D01*
X122614628Y-72010465D01*
X122709866Y-72058084D01*
X122900342Y-72058084D01*
X122995580Y-72010465D01*
X123043199Y-71962846D01*
X123090818Y-71867608D01*
X123090818Y-71677132D01*
X123043199Y-71581894D01*
X122995580Y-71534275D01*
X122900342Y-71486656D01*
X122709866Y-71486656D01*
X122614628Y-71534275D01*
X122567009Y-71581894D01*
X122519390Y-71677132D01*
X123090818Y-71010465D02*
X123090818Y-70819989D01*
X123043199Y-70724751D01*
X122995580Y-70677132D01*
X122852723Y-70581894D01*
X122662247Y-70534275D01*
X122281295Y-70534275D01*
X122186057Y-70581894D01*
X122138438Y-70629513D01*
X122090818Y-70724751D01*
X122090818Y-70915227D01*
X122138438Y-71010465D01*
X122186057Y-71058084D01*
X122281295Y-71105703D01*
X122519390Y-71105703D01*
X122614628Y-71058084D01*
X122662247Y-71010465D01*
X122709866Y-70915227D01*
X122709866Y-70724751D01*
X122662247Y-70629513D01*
X122614628Y-70581894D01*
X122519390Y-70534275D01*
%TO.C,R64*%
X164265818Y-82014037D02*
X163789628Y-82347370D01*
X164265818Y-82585465D02*
X163265818Y-82585465D01*
X163265818Y-82204513D01*
X163313438Y-82109275D01*
X163361057Y-82061656D01*
X163456295Y-82014037D01*
X163599152Y-82014037D01*
X163694390Y-82061656D01*
X163742009Y-82109275D01*
X163789628Y-82204513D01*
X163789628Y-82585465D01*
X163265818Y-81156894D02*
X163265818Y-81347370D01*
X163313438Y-81442608D01*
X163361057Y-81490227D01*
X163503914Y-81585465D01*
X163694390Y-81633084D01*
X164075342Y-81633084D01*
X164170580Y-81585465D01*
X164218199Y-81537846D01*
X164265818Y-81442608D01*
X164265818Y-81252132D01*
X164218199Y-81156894D01*
X164170580Y-81109275D01*
X164075342Y-81061656D01*
X163837247Y-81061656D01*
X163742009Y-81109275D01*
X163694390Y-81156894D01*
X163646771Y-81252132D01*
X163646771Y-81442608D01*
X163694390Y-81537846D01*
X163742009Y-81585465D01*
X163837247Y-81633084D01*
X163599152Y-80204513D02*
X164265818Y-80204513D01*
X163218199Y-80442608D02*
X163932485Y-80680703D01*
X163932485Y-80061656D01*
%TO.C,R65*%
X155190818Y-82239037D02*
X154714628Y-82572370D01*
X155190818Y-82810465D02*
X154190818Y-82810465D01*
X154190818Y-82429513D01*
X154238438Y-82334275D01*
X154286057Y-82286656D01*
X154381295Y-82239037D01*
X154524152Y-82239037D01*
X154619390Y-82286656D01*
X154667009Y-82334275D01*
X154714628Y-82429513D01*
X154714628Y-82810465D01*
X154190818Y-81381894D02*
X154190818Y-81572370D01*
X154238438Y-81667608D01*
X154286057Y-81715227D01*
X154428914Y-81810465D01*
X154619390Y-81858084D01*
X155000342Y-81858084D01*
X155095580Y-81810465D01*
X155143199Y-81762846D01*
X155190818Y-81667608D01*
X155190818Y-81477132D01*
X155143199Y-81381894D01*
X155095580Y-81334275D01*
X155000342Y-81286656D01*
X154762247Y-81286656D01*
X154667009Y-81334275D01*
X154619390Y-81381894D01*
X154571771Y-81477132D01*
X154571771Y-81667608D01*
X154619390Y-81762846D01*
X154667009Y-81810465D01*
X154762247Y-81858084D01*
X154190818Y-80381894D02*
X154190818Y-80858084D01*
X154667009Y-80905703D01*
X154619390Y-80858084D01*
X154571771Y-80762846D01*
X154571771Y-80524751D01*
X154619390Y-80429513D01*
X154667009Y-80381894D01*
X154762247Y-80334275D01*
X155000342Y-80334275D01*
X155095580Y-80381894D01*
X155143199Y-80429513D01*
X155190818Y-80524751D01*
X155190818Y-80762846D01*
X155143199Y-80858084D01*
X155095580Y-80905703D01*
%TO.C,R66*%
X105065818Y-128214037D02*
X104589628Y-128547370D01*
X105065818Y-128785465D02*
X104065818Y-128785465D01*
X104065818Y-128404513D01*
X104113438Y-128309275D01*
X104161057Y-128261656D01*
X104256295Y-128214037D01*
X104399152Y-128214037D01*
X104494390Y-128261656D01*
X104542009Y-128309275D01*
X104589628Y-128404513D01*
X104589628Y-128785465D01*
X104065818Y-127356894D02*
X104065818Y-127547370D01*
X104113438Y-127642608D01*
X104161057Y-127690227D01*
X104303914Y-127785465D01*
X104494390Y-127833084D01*
X104875342Y-127833084D01*
X104970580Y-127785465D01*
X105018199Y-127737846D01*
X105065818Y-127642608D01*
X105065818Y-127452132D01*
X105018199Y-127356894D01*
X104970580Y-127309275D01*
X104875342Y-127261656D01*
X104637247Y-127261656D01*
X104542009Y-127309275D01*
X104494390Y-127356894D01*
X104446771Y-127452132D01*
X104446771Y-127642608D01*
X104494390Y-127737846D01*
X104542009Y-127785465D01*
X104637247Y-127833084D01*
X104065818Y-126404513D02*
X104065818Y-126594989D01*
X104113438Y-126690227D01*
X104161057Y-126737846D01*
X104303914Y-126833084D01*
X104494390Y-126880703D01*
X104875342Y-126880703D01*
X104970580Y-126833084D01*
X105018199Y-126785465D01*
X105065818Y-126690227D01*
X105065818Y-126499751D01*
X105018199Y-126404513D01*
X104970580Y-126356894D01*
X104875342Y-126309275D01*
X104637247Y-126309275D01*
X104542009Y-126356894D01*
X104494390Y-126404513D01*
X104446771Y-126499751D01*
X104446771Y-126690227D01*
X104494390Y-126785465D01*
X104542009Y-126833084D01*
X104637247Y-126880703D01*
%TO.C,R67*%
X111215818Y-139664037D02*
X110739628Y-139997370D01*
X111215818Y-140235465D02*
X110215818Y-140235465D01*
X110215818Y-139854513D01*
X110263438Y-139759275D01*
X110311057Y-139711656D01*
X110406295Y-139664037D01*
X110549152Y-139664037D01*
X110644390Y-139711656D01*
X110692009Y-139759275D01*
X110739628Y-139854513D01*
X110739628Y-140235465D01*
X110215818Y-138806894D02*
X110215818Y-138997370D01*
X110263438Y-139092608D01*
X110311057Y-139140227D01*
X110453914Y-139235465D01*
X110644390Y-139283084D01*
X111025342Y-139283084D01*
X111120580Y-139235465D01*
X111168199Y-139187846D01*
X111215818Y-139092608D01*
X111215818Y-138902132D01*
X111168199Y-138806894D01*
X111120580Y-138759275D01*
X111025342Y-138711656D01*
X110787247Y-138711656D01*
X110692009Y-138759275D01*
X110644390Y-138806894D01*
X110596771Y-138902132D01*
X110596771Y-139092608D01*
X110644390Y-139187846D01*
X110692009Y-139235465D01*
X110787247Y-139283084D01*
X110215818Y-138378322D02*
X110215818Y-137711656D01*
X111215818Y-138140227D01*
%TO.C,R68*%
X125065818Y-128239037D02*
X124589628Y-128572370D01*
X125065818Y-128810465D02*
X124065818Y-128810465D01*
X124065818Y-128429513D01*
X124113438Y-128334275D01*
X124161057Y-128286656D01*
X124256295Y-128239037D01*
X124399152Y-128239037D01*
X124494390Y-128286656D01*
X124542009Y-128334275D01*
X124589628Y-128429513D01*
X124589628Y-128810465D01*
X124065818Y-127381894D02*
X124065818Y-127572370D01*
X124113438Y-127667608D01*
X124161057Y-127715227D01*
X124303914Y-127810465D01*
X124494390Y-127858084D01*
X124875342Y-127858084D01*
X124970580Y-127810465D01*
X125018199Y-127762846D01*
X125065818Y-127667608D01*
X125065818Y-127477132D01*
X125018199Y-127381894D01*
X124970580Y-127334275D01*
X124875342Y-127286656D01*
X124637247Y-127286656D01*
X124542009Y-127334275D01*
X124494390Y-127381894D01*
X124446771Y-127477132D01*
X124446771Y-127667608D01*
X124494390Y-127762846D01*
X124542009Y-127810465D01*
X124637247Y-127858084D01*
X124494390Y-126715227D02*
X124446771Y-126810465D01*
X124399152Y-126858084D01*
X124303914Y-126905703D01*
X124256295Y-126905703D01*
X124161057Y-126858084D01*
X124113438Y-126810465D01*
X124065818Y-126715227D01*
X124065818Y-126524751D01*
X124113438Y-126429513D01*
X124161057Y-126381894D01*
X124256295Y-126334275D01*
X124303914Y-126334275D01*
X124399152Y-126381894D01*
X124446771Y-126429513D01*
X124494390Y-126524751D01*
X124494390Y-126715227D01*
X124542009Y-126810465D01*
X124589628Y-126858084D01*
X124684866Y-126905703D01*
X124875342Y-126905703D01*
X124970580Y-126858084D01*
X125018199Y-126810465D01*
X125065818Y-126715227D01*
X125065818Y-126524751D01*
X125018199Y-126429513D01*
X124970580Y-126381894D01*
X124875342Y-126334275D01*
X124684866Y-126334275D01*
X124589628Y-126381894D01*
X124542009Y-126429513D01*
X124494390Y-126524751D01*
%TO.C,R69*%
X122203318Y-139514037D02*
X121727128Y-139847370D01*
X122203318Y-140085465D02*
X121203318Y-140085465D01*
X121203318Y-139704513D01*
X121250938Y-139609275D01*
X121298557Y-139561656D01*
X121393795Y-139514037D01*
X121536652Y-139514037D01*
X121631890Y-139561656D01*
X121679509Y-139609275D01*
X121727128Y-139704513D01*
X121727128Y-140085465D01*
X121203318Y-138656894D02*
X121203318Y-138847370D01*
X121250938Y-138942608D01*
X121298557Y-138990227D01*
X121441414Y-139085465D01*
X121631890Y-139133084D01*
X122012842Y-139133084D01*
X122108080Y-139085465D01*
X122155699Y-139037846D01*
X122203318Y-138942608D01*
X122203318Y-138752132D01*
X122155699Y-138656894D01*
X122108080Y-138609275D01*
X122012842Y-138561656D01*
X121774747Y-138561656D01*
X121679509Y-138609275D01*
X121631890Y-138656894D01*
X121584271Y-138752132D01*
X121584271Y-138942608D01*
X121631890Y-139037846D01*
X121679509Y-139085465D01*
X121774747Y-139133084D01*
X122203318Y-138085465D02*
X122203318Y-137894989D01*
X122155699Y-137799751D01*
X122108080Y-137752132D01*
X121965223Y-137656894D01*
X121774747Y-137609275D01*
X121393795Y-137609275D01*
X121298557Y-137656894D01*
X121250938Y-137704513D01*
X121203318Y-137799751D01*
X121203318Y-137990227D01*
X121250938Y-138085465D01*
X121298557Y-138133084D01*
X121393795Y-138180703D01*
X121631890Y-138180703D01*
X121727128Y-138133084D01*
X121774747Y-138085465D01*
X121822366Y-137990227D01*
X121822366Y-137799751D01*
X121774747Y-137704513D01*
X121727128Y-137656894D01*
X121631890Y-137609275D01*
%TO.C,R70*%
X111214818Y-124464037D02*
X110738628Y-124797370D01*
X111214818Y-125035465D02*
X110214818Y-125035465D01*
X110214818Y-124654513D01*
X110262438Y-124559275D01*
X110310057Y-124511656D01*
X110405295Y-124464037D01*
X110548152Y-124464037D01*
X110643390Y-124511656D01*
X110691009Y-124559275D01*
X110738628Y-124654513D01*
X110738628Y-125035465D01*
X110214818Y-124130703D02*
X110214818Y-123464037D01*
X111214818Y-123892608D01*
X110214818Y-122892608D02*
X110214818Y-122797370D01*
X110262438Y-122702132D01*
X110310057Y-122654513D01*
X110405295Y-122606894D01*
X110595771Y-122559275D01*
X110833866Y-122559275D01*
X111024342Y-122606894D01*
X111119580Y-122654513D01*
X111167199Y-122702132D01*
X111214818Y-122797370D01*
X111214818Y-122892608D01*
X111167199Y-122987846D01*
X111119580Y-123035465D01*
X111024342Y-123083084D01*
X110833866Y-123130703D01*
X110595771Y-123130703D01*
X110405295Y-123083084D01*
X110310057Y-123035465D01*
X110262438Y-122987846D01*
X110214818Y-122892608D01*
%TO.C,R71*%
X118790818Y-125126537D02*
X118314628Y-125459870D01*
X118790818Y-125697965D02*
X117790818Y-125697965D01*
X117790818Y-125317013D01*
X117838438Y-125221775D01*
X117886057Y-125174156D01*
X117981295Y-125126537D01*
X118124152Y-125126537D01*
X118219390Y-125174156D01*
X118267009Y-125221775D01*
X118314628Y-125317013D01*
X118314628Y-125697965D01*
X117790818Y-124793203D02*
X117790818Y-124126537D01*
X118790818Y-124555108D01*
X118790818Y-123221775D02*
X118790818Y-123793203D01*
X118790818Y-123507489D02*
X117790818Y-123507489D01*
X117933676Y-123602727D01*
X118028914Y-123697965D01*
X118076533Y-123793203D01*
%TO.C,R72*%
X111165818Y-65489037D02*
X110689628Y-65822370D01*
X111165818Y-66060465D02*
X110165818Y-66060465D01*
X110165818Y-65679513D01*
X110213438Y-65584275D01*
X110261057Y-65536656D01*
X110356295Y-65489037D01*
X110499152Y-65489037D01*
X110594390Y-65536656D01*
X110642009Y-65584275D01*
X110689628Y-65679513D01*
X110689628Y-66060465D01*
X110165818Y-65155703D02*
X110165818Y-64489037D01*
X111165818Y-64917608D01*
X110261057Y-64155703D02*
X110213438Y-64108084D01*
X110165818Y-64012846D01*
X110165818Y-63774751D01*
X110213438Y-63679513D01*
X110261057Y-63631894D01*
X110356295Y-63584275D01*
X110451533Y-63584275D01*
X110594390Y-63631894D01*
X111165818Y-64203322D01*
X111165818Y-63584275D01*
%TO.C,R73*%
X120465818Y-65514037D02*
X119989628Y-65847370D01*
X120465818Y-66085465D02*
X119465818Y-66085465D01*
X119465818Y-65704513D01*
X119513438Y-65609275D01*
X119561057Y-65561656D01*
X119656295Y-65514037D01*
X119799152Y-65514037D01*
X119894390Y-65561656D01*
X119942009Y-65609275D01*
X119989628Y-65704513D01*
X119989628Y-66085465D01*
X119465818Y-65180703D02*
X119465818Y-64514037D01*
X120465818Y-64942608D01*
X119465818Y-64228322D02*
X119465818Y-63609275D01*
X119846771Y-63942608D01*
X119846771Y-63799751D01*
X119894390Y-63704513D01*
X119942009Y-63656894D01*
X120037247Y-63609275D01*
X120275342Y-63609275D01*
X120370580Y-63656894D01*
X120418199Y-63704513D01*
X120465818Y-63799751D01*
X120465818Y-64085465D01*
X120418199Y-64180703D01*
X120370580Y-64228322D01*
%TO.C,R74*%
X111240818Y-71114037D02*
X110764628Y-71447370D01*
X111240818Y-71685465D02*
X110240818Y-71685465D01*
X110240818Y-71304513D01*
X110288438Y-71209275D01*
X110336057Y-71161656D01*
X110431295Y-71114037D01*
X110574152Y-71114037D01*
X110669390Y-71161656D01*
X110717009Y-71209275D01*
X110764628Y-71304513D01*
X110764628Y-71685465D01*
X110240818Y-70780703D02*
X110240818Y-70114037D01*
X111240818Y-70542608D01*
X110574152Y-69304513D02*
X111240818Y-69304513D01*
X110193199Y-69542608D02*
X110907485Y-69780703D01*
X110907485Y-69161656D01*
%TO.C,R75*%
X120215818Y-70789037D02*
X119739628Y-71122370D01*
X120215818Y-71360465D02*
X119215818Y-71360465D01*
X119215818Y-70979513D01*
X119263438Y-70884275D01*
X119311057Y-70836656D01*
X119406295Y-70789037D01*
X119549152Y-70789037D01*
X119644390Y-70836656D01*
X119692009Y-70884275D01*
X119739628Y-70979513D01*
X119739628Y-71360465D01*
X119215818Y-70455703D02*
X119215818Y-69789037D01*
X120215818Y-70217608D01*
X119215818Y-68931894D02*
X119215818Y-69408084D01*
X119692009Y-69455703D01*
X119644390Y-69408084D01*
X119596771Y-69312846D01*
X119596771Y-69074751D01*
X119644390Y-68979513D01*
X119692009Y-68931894D01*
X119787247Y-68884275D01*
X120025342Y-68884275D01*
X120120580Y-68931894D01*
X120168199Y-68979513D01*
X120215818Y-69074751D01*
X120215818Y-69312846D01*
X120168199Y-69408084D01*
X120120580Y-69455703D01*
%TO.C,R76*%
X111115818Y-76539037D02*
X110639628Y-76872370D01*
X111115818Y-77110465D02*
X110115818Y-77110465D01*
X110115818Y-76729513D01*
X110163438Y-76634275D01*
X110211057Y-76586656D01*
X110306295Y-76539037D01*
X110449152Y-76539037D01*
X110544390Y-76586656D01*
X110592009Y-76634275D01*
X110639628Y-76729513D01*
X110639628Y-77110465D01*
X110115818Y-76205703D02*
X110115818Y-75539037D01*
X111115818Y-75967608D01*
X110115818Y-74729513D02*
X110115818Y-74919989D01*
X110163438Y-75015227D01*
X110211057Y-75062846D01*
X110353914Y-75158084D01*
X110544390Y-75205703D01*
X110925342Y-75205703D01*
X111020580Y-75158084D01*
X111068199Y-75110465D01*
X111115818Y-75015227D01*
X111115818Y-74824751D01*
X111068199Y-74729513D01*
X111020580Y-74681894D01*
X110925342Y-74634275D01*
X110687247Y-74634275D01*
X110592009Y-74681894D01*
X110544390Y-74729513D01*
X110496771Y-74824751D01*
X110496771Y-75015227D01*
X110544390Y-75110465D01*
X110592009Y-75158084D01*
X110687247Y-75205703D01*
%TO.C,R77*%
X115453580Y-74464160D02*
X115120247Y-73987970D01*
X114882152Y-74464160D02*
X114882152Y-73464160D01*
X115263104Y-73464160D01*
X115358342Y-73511780D01*
X115405961Y-73559399D01*
X115453580Y-73654637D01*
X115453580Y-73797494D01*
X115405961Y-73892732D01*
X115358342Y-73940351D01*
X115263104Y-73987970D01*
X114882152Y-73987970D01*
X115786914Y-73464160D02*
X116453580Y-73464160D01*
X116025009Y-74464160D01*
X116739295Y-73464160D02*
X117405961Y-73464160D01*
X116977390Y-74464160D01*
%TO.C,R78*%
X111015818Y-82114037D02*
X110539628Y-82447370D01*
X111015818Y-82685465D02*
X110015818Y-82685465D01*
X110015818Y-82304513D01*
X110063438Y-82209275D01*
X110111057Y-82161656D01*
X110206295Y-82114037D01*
X110349152Y-82114037D01*
X110444390Y-82161656D01*
X110492009Y-82209275D01*
X110539628Y-82304513D01*
X110539628Y-82685465D01*
X110015818Y-81780703D02*
X110015818Y-81114037D01*
X111015818Y-81542608D01*
X110444390Y-80590227D02*
X110396771Y-80685465D01*
X110349152Y-80733084D01*
X110253914Y-80780703D01*
X110206295Y-80780703D01*
X110111057Y-80733084D01*
X110063438Y-80685465D01*
X110015818Y-80590227D01*
X110015818Y-80399751D01*
X110063438Y-80304513D01*
X110111057Y-80256894D01*
X110206295Y-80209275D01*
X110253914Y-80209275D01*
X110349152Y-80256894D01*
X110396771Y-80304513D01*
X110444390Y-80399751D01*
X110444390Y-80590227D01*
X110492009Y-80685465D01*
X110539628Y-80733084D01*
X110634866Y-80780703D01*
X110825342Y-80780703D01*
X110920580Y-80733084D01*
X110968199Y-80685465D01*
X111015818Y-80590227D01*
X111015818Y-80399751D01*
X110968199Y-80304513D01*
X110920580Y-80256894D01*
X110825342Y-80209275D01*
X110634866Y-80209275D01*
X110539628Y-80256894D01*
X110492009Y-80304513D01*
X110444390Y-80399751D01*
%TO.C,R79*%
X120265818Y-82089037D02*
X119789628Y-82422370D01*
X120265818Y-82660465D02*
X119265818Y-82660465D01*
X119265818Y-82279513D01*
X119313438Y-82184275D01*
X119361057Y-82136656D01*
X119456295Y-82089037D01*
X119599152Y-82089037D01*
X119694390Y-82136656D01*
X119742009Y-82184275D01*
X119789628Y-82279513D01*
X119789628Y-82660465D01*
X119265818Y-81755703D02*
X119265818Y-81089037D01*
X120265818Y-81517608D01*
X120265818Y-80660465D02*
X120265818Y-80469989D01*
X120218199Y-80374751D01*
X120170580Y-80327132D01*
X120027723Y-80231894D01*
X119837247Y-80184275D01*
X119456295Y-80184275D01*
X119361057Y-80231894D01*
X119313438Y-80279513D01*
X119265818Y-80374751D01*
X119265818Y-80565227D01*
X119313438Y-80660465D01*
X119361057Y-80708084D01*
X119456295Y-80755703D01*
X119694390Y-80755703D01*
X119789628Y-80708084D01*
X119837247Y-80660465D01*
X119884866Y-80565227D01*
X119884866Y-80374751D01*
X119837247Y-80279513D01*
X119789628Y-80231894D01*
X119694390Y-80184275D01*
%TO.C,U12*%
X130927019Y-84734275D02*
X131736543Y-84734275D01*
X131831781Y-84686656D01*
X131879400Y-84639037D01*
X131927019Y-84543799D01*
X131927019Y-84353322D01*
X131879400Y-84258084D01*
X131831781Y-84210465D01*
X131736543Y-84162846D01*
X130927019Y-84162846D01*
X131927019Y-83162846D02*
X131927019Y-83734275D01*
X131927019Y-83448560D02*
X130927019Y-83448560D01*
X131069877Y-83543799D01*
X131165115Y-83639037D01*
X131212734Y-83734275D01*
X131022258Y-82781894D02*
X130974639Y-82734275D01*
X130927019Y-82639037D01*
X130927019Y-82400941D01*
X130974639Y-82305703D01*
X131022258Y-82258084D01*
X131117496Y-82210465D01*
X131212734Y-82210465D01*
X131355591Y-82258084D01*
X131927019Y-82829513D01*
X131927019Y-82210465D01*
%TO.C,C11*%
X112895580Y-135101537D02*
X112943199Y-135149156D01*
X112990818Y-135292013D01*
X112990818Y-135387251D01*
X112943199Y-135530108D01*
X112847961Y-135625346D01*
X112752723Y-135672965D01*
X112562247Y-135720584D01*
X112419390Y-135720584D01*
X112228914Y-135672965D01*
X112133676Y-135625346D01*
X112038438Y-135530108D01*
X111990818Y-135387251D01*
X111990818Y-135292013D01*
X112038438Y-135149156D01*
X112086057Y-135101537D01*
X112990818Y-134149156D02*
X112990818Y-134720584D01*
X112990818Y-134434870D02*
X111990818Y-134434870D01*
X112133676Y-134530108D01*
X112228914Y-134625346D01*
X112276533Y-134720584D01*
X112990818Y-133196775D02*
X112990818Y-133768203D01*
X112990818Y-133482489D02*
X111990818Y-133482489D01*
X112133676Y-133577727D01*
X112228914Y-133672965D01*
X112276533Y-133768203D01*
%TO.C,C12*%
X145345580Y-131578322D02*
X145297961Y-131625941D01*
X145155104Y-131673560D01*
X145059866Y-131673560D01*
X144917009Y-131625941D01*
X144821771Y-131530703D01*
X144774152Y-131435465D01*
X144726533Y-131244989D01*
X144726533Y-131102132D01*
X144774152Y-130911656D01*
X144821771Y-130816418D01*
X144917009Y-130721180D01*
X145059866Y-130673560D01*
X145155104Y-130673560D01*
X145297961Y-130721180D01*
X145345580Y-130768799D01*
X146297961Y-131673560D02*
X145726533Y-131673560D01*
X146012247Y-131673560D02*
X146012247Y-130673560D01*
X145917009Y-130816418D01*
X145821771Y-130911656D01*
X145726533Y-130959275D01*
X146678914Y-130768799D02*
X146726533Y-130721180D01*
X146821771Y-130673560D01*
X147059866Y-130673560D01*
X147155104Y-130721180D01*
X147202723Y-130768799D01*
X147250342Y-130864037D01*
X147250342Y-130959275D01*
X147202723Y-131102132D01*
X146631295Y-131673560D01*
X147250342Y-131673560D01*
%TO.C,R39*%
X145215818Y-139276537D02*
X144739628Y-139609870D01*
X145215818Y-139847965D02*
X144215818Y-139847965D01*
X144215818Y-139467013D01*
X144263438Y-139371775D01*
X144311057Y-139324156D01*
X144406295Y-139276537D01*
X144549152Y-139276537D01*
X144644390Y-139324156D01*
X144692009Y-139371775D01*
X144739628Y-139467013D01*
X144739628Y-139847965D01*
X144215818Y-138943203D02*
X144215818Y-138324156D01*
X144596771Y-138657489D01*
X144596771Y-138514632D01*
X144644390Y-138419394D01*
X144692009Y-138371775D01*
X144787247Y-138324156D01*
X145025342Y-138324156D01*
X145120580Y-138371775D01*
X145168199Y-138419394D01*
X145215818Y-138514632D01*
X145215818Y-138800346D01*
X145168199Y-138895584D01*
X145120580Y-138943203D01*
X145215818Y-137847965D02*
X145215818Y-137657489D01*
X145168199Y-137562251D01*
X145120580Y-137514632D01*
X144977723Y-137419394D01*
X144787247Y-137371775D01*
X144406295Y-137371775D01*
X144311057Y-137419394D01*
X144263438Y-137467013D01*
X144215818Y-137562251D01*
X144215818Y-137752727D01*
X144263438Y-137847965D01*
X144311057Y-137895584D01*
X144406295Y-137943203D01*
X144644390Y-137943203D01*
X144739628Y-137895584D01*
X144787247Y-137847965D01*
X144834866Y-137752727D01*
X144834866Y-137562251D01*
X144787247Y-137467013D01*
X144739628Y-137419394D01*
X144644390Y-137371775D01*
%TO.C,R80*%
X148633080Y-144085560D02*
X148299747Y-143609370D01*
X148061652Y-144085560D02*
X148061652Y-143085560D01*
X148442604Y-143085560D01*
X148537842Y-143133180D01*
X148585461Y-143180799D01*
X148633080Y-143276037D01*
X148633080Y-143418894D01*
X148585461Y-143514132D01*
X148537842Y-143561751D01*
X148442604Y-143609370D01*
X148061652Y-143609370D01*
X149204509Y-143514132D02*
X149109271Y-143466513D01*
X149061652Y-143418894D01*
X149014033Y-143323656D01*
X149014033Y-143276037D01*
X149061652Y-143180799D01*
X149109271Y-143133180D01*
X149204509Y-143085560D01*
X149394985Y-143085560D01*
X149490223Y-143133180D01*
X149537842Y-143180799D01*
X149585461Y-143276037D01*
X149585461Y-143323656D01*
X149537842Y-143418894D01*
X149490223Y-143466513D01*
X149394985Y-143514132D01*
X149204509Y-143514132D01*
X149109271Y-143561751D01*
X149061652Y-143609370D01*
X149014033Y-143704608D01*
X149014033Y-143895084D01*
X149061652Y-143990322D01*
X149109271Y-144037941D01*
X149204509Y-144085560D01*
X149394985Y-144085560D01*
X149490223Y-144037941D01*
X149537842Y-143990322D01*
X149585461Y-143895084D01*
X149585461Y-143704608D01*
X149537842Y-143609370D01*
X149490223Y-143561751D01*
X149394985Y-143514132D01*
X150204509Y-143085560D02*
X150299747Y-143085560D01*
X150394985Y-143133180D01*
X150442604Y-143180799D01*
X150490223Y-143276037D01*
X150537842Y-143466513D01*
X150537842Y-143704608D01*
X150490223Y-143895084D01*
X150442604Y-143990322D01*
X150394985Y-144037941D01*
X150299747Y-144085560D01*
X150204509Y-144085560D01*
X150109271Y-144037941D01*
X150061652Y-143990322D01*
X150014033Y-143895084D01*
X149966414Y-143704608D01*
X149966414Y-143466513D01*
X150014033Y-143276037D01*
X150061652Y-143180799D01*
X150109271Y-143133180D01*
X150204509Y-143085560D01*
%TO.C,R81*%
X153680580Y-138497560D02*
X153347247Y-138021370D01*
X153109152Y-138497560D02*
X153109152Y-137497560D01*
X153490104Y-137497560D01*
X153585342Y-137545180D01*
X153632961Y-137592799D01*
X153680580Y-137688037D01*
X153680580Y-137830894D01*
X153632961Y-137926132D01*
X153585342Y-137973751D01*
X153490104Y-138021370D01*
X153109152Y-138021370D01*
X154252009Y-137926132D02*
X154156771Y-137878513D01*
X154109152Y-137830894D01*
X154061533Y-137735656D01*
X154061533Y-137688037D01*
X154109152Y-137592799D01*
X154156771Y-137545180D01*
X154252009Y-137497560D01*
X154442485Y-137497560D01*
X154537723Y-137545180D01*
X154585342Y-137592799D01*
X154632961Y-137688037D01*
X154632961Y-137735656D01*
X154585342Y-137830894D01*
X154537723Y-137878513D01*
X154442485Y-137926132D01*
X154252009Y-137926132D01*
X154156771Y-137973751D01*
X154109152Y-138021370D01*
X154061533Y-138116608D01*
X154061533Y-138307084D01*
X154109152Y-138402322D01*
X154156771Y-138449941D01*
X154252009Y-138497560D01*
X154442485Y-138497560D01*
X154537723Y-138449941D01*
X154585342Y-138402322D01*
X154632961Y-138307084D01*
X154632961Y-138116608D01*
X154585342Y-138021370D01*
X154537723Y-137973751D01*
X154442485Y-137926132D01*
X155585342Y-138497560D02*
X155013914Y-138497560D01*
X155299628Y-138497560D02*
X155299628Y-137497560D01*
X155204390Y-137640418D01*
X155109152Y-137735656D01*
X155013914Y-137783275D01*
%TO.C,U13*%
X113200342Y-122523560D02*
X113200342Y-123333084D01*
X113247961Y-123428322D01*
X113295580Y-123475941D01*
X113390818Y-123523560D01*
X113581295Y-123523560D01*
X113676533Y-123475941D01*
X113724152Y-123428322D01*
X113771771Y-123333084D01*
X113771771Y-122523560D01*
X114771771Y-123523560D02*
X114200342Y-123523560D01*
X114486057Y-123523560D02*
X114486057Y-122523560D01*
X114390818Y-122666418D01*
X114295580Y-122761656D01*
X114200342Y-122809275D01*
X115105104Y-122523560D02*
X115724152Y-122523560D01*
X115390818Y-122904513D01*
X115533676Y-122904513D01*
X115628914Y-122952132D01*
X115676533Y-122999751D01*
X115724152Y-123094989D01*
X115724152Y-123333084D01*
X115676533Y-123428322D01*
X115628914Y-123475941D01*
X115533676Y-123523560D01*
X115247961Y-123523560D01*
X115152723Y-123475941D01*
X115105104Y-123428322D01*
%TO.C,U14*%
X148259342Y-135465560D02*
X148259342Y-136275084D01*
X148306961Y-136370322D01*
X148354580Y-136417941D01*
X148449818Y-136465560D01*
X148640295Y-136465560D01*
X148735533Y-136417941D01*
X148783152Y-136370322D01*
X148830771Y-136275084D01*
X148830771Y-135465560D01*
X149830771Y-136465560D02*
X149259342Y-136465560D01*
X149545057Y-136465560D02*
X149545057Y-135465560D01*
X149449818Y-135608418D01*
X149354580Y-135703656D01*
X149259342Y-135751275D01*
X150687914Y-135798894D02*
X150687914Y-136465560D01*
X150449818Y-135417941D02*
X150211723Y-136132227D01*
X150830771Y-136132227D01*
%TO.C,demp1*%
X205690476Y-91202380D02*
X205690476Y-90202380D01*
X205690476Y-91154761D02*
X205595238Y-91202380D01*
X205404761Y-91202380D01*
X205309523Y-91154761D01*
X205261904Y-91107142D01*
X205214285Y-91011904D01*
X205214285Y-90726190D01*
X205261904Y-90630952D01*
X205309523Y-90583333D01*
X205404761Y-90535714D01*
X205595238Y-90535714D01*
X205690476Y-90583333D01*
X206547619Y-91154761D02*
X206452380Y-91202380D01*
X206261904Y-91202380D01*
X206166666Y-91154761D01*
X206119047Y-91059523D01*
X206119047Y-90678571D01*
X206166666Y-90583333D01*
X206261904Y-90535714D01*
X206452380Y-90535714D01*
X206547619Y-90583333D01*
X206595238Y-90678571D01*
X206595238Y-90773809D01*
X206119047Y-90869047D01*
X207023809Y-91202380D02*
X207023809Y-90535714D01*
X207023809Y-90630952D02*
X207071428Y-90583333D01*
X207166666Y-90535714D01*
X207309523Y-90535714D01*
X207404761Y-90583333D01*
X207452380Y-90678571D01*
X207452380Y-91202380D01*
X207452380Y-90678571D02*
X207500000Y-90583333D01*
X207595238Y-90535714D01*
X207738095Y-90535714D01*
X207833333Y-90583333D01*
X207880952Y-90678571D01*
X207880952Y-91202380D01*
X208357142Y-90535714D02*
X208357142Y-91535714D01*
X208357142Y-90583333D02*
X208452380Y-90535714D01*
X208642857Y-90535714D01*
X208738095Y-90583333D01*
X208785714Y-90630952D01*
X208833333Y-90726190D01*
X208833333Y-91011904D01*
X208785714Y-91107142D01*
X208738095Y-91154761D01*
X208642857Y-91202380D01*
X208452380Y-91202380D01*
X208357142Y-91154761D01*
X209785714Y-91202380D02*
X209214285Y-91202380D01*
X209500000Y-91202380D02*
X209500000Y-90202380D01*
X209404761Y-90345238D01*
X209309523Y-90440476D01*
X209214285Y-90488095D01*
%TO.C,xsmt1*%
X210702380Y-101995238D02*
X210035714Y-101471428D01*
X210035714Y-101995238D02*
X210702380Y-101471428D01*
X210654761Y-101138095D02*
X210702380Y-101042857D01*
X210702380Y-100852380D01*
X210654761Y-100757142D01*
X210559523Y-100709523D01*
X210511904Y-100709523D01*
X210416666Y-100757142D01*
X210369047Y-100852380D01*
X210369047Y-100995238D01*
X210321428Y-101090476D01*
X210226190Y-101138095D01*
X210178571Y-101138095D01*
X210083333Y-101090476D01*
X210035714Y-100995238D01*
X210035714Y-100852380D01*
X210083333Y-100757142D01*
X210702380Y-100280952D02*
X210035714Y-100280952D01*
X210130952Y-100280952D02*
X210083333Y-100233333D01*
X210035714Y-100138095D01*
X210035714Y-99995238D01*
X210083333Y-99900000D01*
X210178571Y-99852380D01*
X210702380Y-99852380D01*
X210178571Y-99852380D02*
X210083333Y-99804761D01*
X210035714Y-99709523D01*
X210035714Y-99566666D01*
X210083333Y-99471428D01*
X210178571Y-99423809D01*
X210702380Y-99423809D01*
X210035714Y-99090476D02*
X210035714Y-98709523D01*
X209702380Y-98947619D02*
X210559523Y-98947619D01*
X210654761Y-98900000D01*
X210702380Y-98804761D01*
X210702380Y-98709523D01*
X210702380Y-97852380D02*
X210702380Y-98423809D01*
X210702380Y-98138095D02*
X209702380Y-98138095D01*
X209845238Y-98233333D01*
X209940476Y-98328571D01*
X209988095Y-98423809D01*
%TO.C,flt1*%
X212585714Y-100314285D02*
X212585714Y-99933333D01*
X213252380Y-100171428D02*
X212395238Y-100171428D01*
X212300000Y-100123809D01*
X212252380Y-100028571D01*
X212252380Y-99933333D01*
X213252380Y-99457142D02*
X213204761Y-99552380D01*
X213109523Y-99600000D01*
X212252380Y-99600000D01*
X212585714Y-99219047D02*
X212585714Y-98838095D01*
X212252380Y-99076190D02*
X213109523Y-99076190D01*
X213204761Y-99028571D01*
X213252380Y-98933333D01*
X213252380Y-98838095D01*
X213252380Y-97980952D02*
X213252380Y-98552380D01*
X213252380Y-98266666D02*
X212252380Y-98266666D01*
X212395238Y-98361904D01*
X212490476Y-98457142D01*
X212538095Y-98552380D01*
%TO.C,fmt1*%
X215735714Y-101019047D02*
X215735714Y-100638095D01*
X216402380Y-100876190D02*
X215545238Y-100876190D01*
X215450000Y-100828571D01*
X215402380Y-100733333D01*
X215402380Y-100638095D01*
X216402380Y-100304761D02*
X215735714Y-100304761D01*
X215830952Y-100304761D02*
X215783333Y-100257142D01*
X215735714Y-100161904D01*
X215735714Y-100019047D01*
X215783333Y-99923809D01*
X215878571Y-99876190D01*
X216402380Y-99876190D01*
X215878571Y-99876190D02*
X215783333Y-99828571D01*
X215735714Y-99733333D01*
X215735714Y-99590476D01*
X215783333Y-99495238D01*
X215878571Y-99447619D01*
X216402380Y-99447619D01*
X215735714Y-99114285D02*
X215735714Y-98733333D01*
X215402380Y-98971428D02*
X216259523Y-98971428D01*
X216354761Y-98923809D01*
X216402380Y-98828571D01*
X216402380Y-98733333D01*
X216402380Y-97876190D02*
X216402380Y-98447619D01*
X216402380Y-98161904D02*
X215402380Y-98161904D01*
X215545238Y-98257142D01*
X215640476Y-98352380D01*
X215688095Y-98447619D01*
D10*
%TO.C,L1*%
X242460100Y-145290164D02*
X242460100Y-144086036D01*
X244280100Y-145290164D02*
X244280100Y-144086036D01*
%TO.C,L2*%
X260382278Y-128525200D02*
X259865122Y-128525200D01*
X260382278Y-129945200D02*
X259865122Y-129945200D01*
%TO.C,U6*%
X257449000Y-101854000D02*
X257449000Y-99904000D01*
X252329000Y-101854000D02*
X252329000Y-99904000D01*
X257449000Y-101854000D02*
X257449000Y-103804000D01*
X252329000Y-101854000D02*
X252329000Y-105304000D01*
%TO.C,U8*%
X204978000Y-81400200D02*
X201378000Y-81400200D01*
X204978000Y-88170200D02*
X202778000Y-88170200D01*
X204978000Y-81400200D02*
X207178000Y-81400200D01*
X204978000Y-88170200D02*
X207178000Y-88170200D01*
%TO.C,R44*%
X241857600Y-79671678D02*
X241857600Y-79154522D01*
X240437600Y-79671678D02*
X240437600Y-79154522D01*
%TO.C,R45*%
X232912178Y-79361100D02*
X232395022Y-79361100D01*
X232912178Y-77941100D02*
X232395022Y-77941100D01*
%TO.C,R58*%
X252843100Y-87092022D02*
X252843100Y-87609178D01*
X251423100Y-87092022D02*
X251423100Y-87609178D01*
%TO.C,U10*%
X159301838Y-112736780D02*
X162751838Y-112736780D01*
X159301838Y-103866780D02*
X161251838Y-103866780D01*
X159301838Y-103866780D02*
X157351838Y-103866780D01*
X159301838Y-112736780D02*
X157351838Y-112736780D01*
%TO.C,C1*%
X272744000Y-122067822D02*
X272744000Y-122584978D01*
X271324000Y-122067822D02*
X271324000Y-122584978D01*
%TO.C,C2*%
X270603000Y-130130437D02*
X270603000Y-130766000D01*
X265083000Y-129066000D02*
X265083000Y-130766000D01*
X269538563Y-134586000D02*
X265083000Y-134586000D01*
X270603000Y-130130437D02*
X269538563Y-129066000D01*
X270603000Y-133521563D02*
X269538563Y-134586000D01*
X265083000Y-134586000D02*
X265083000Y-132886000D01*
X270603000Y-133521563D02*
X270603000Y-132886000D01*
X269538563Y-129066000D02*
X265083000Y-129066000D01*
%TO.C,C4*%
X246032000Y-124272578D02*
X246032000Y-123755422D01*
X244612000Y-124272578D02*
X244612000Y-123755422D01*
%TO.C,C6*%
X250702100Y-151979537D02*
X250702100Y-156435100D01*
X250702100Y-156435100D02*
X249002100Y-156435100D01*
X249637663Y-150915100D02*
X250702100Y-151979537D01*
X246246537Y-150915100D02*
X246882100Y-150915100D01*
X249637663Y-150915100D02*
X249002100Y-150915100D01*
X245182100Y-151979537D02*
X245182100Y-156435100D01*
X245182100Y-156435100D02*
X246882100Y-156435100D01*
X246246537Y-150915100D02*
X245182100Y-151979537D01*
%TO.C,C7*%
X196804437Y-156147500D02*
X197440000Y-156147500D01*
X201260000Y-155083063D02*
X201260000Y-150627500D01*
X195740000Y-150627500D02*
X197440000Y-150627500D01*
X200195563Y-156147500D02*
X201260000Y-155083063D01*
X195740000Y-155083063D02*
X195740000Y-150627500D01*
X196804437Y-156147500D02*
X195740000Y-155083063D01*
X201260000Y-150627500D02*
X199560000Y-150627500D01*
X200195563Y-156147500D02*
X199560000Y-156147500D01*
%TO.C,C8*%
X109323438Y-127400102D02*
X109323438Y-127917258D01*
X107903438Y-127400102D02*
X107903438Y-127917258D01*
%TO.C,C9*%
X120015938Y-127387602D02*
X120015938Y-127904758D01*
X121435938Y-127387602D02*
X121435938Y-127904758D01*
%TO.C,C14*%
X163945938Y-70878980D02*
X165645938Y-70878980D01*
X169465938Y-66423417D02*
X169465938Y-70878980D01*
X163945938Y-66423417D02*
X163945938Y-70878980D01*
X165010375Y-65358980D02*
X165645938Y-65358980D01*
X168401501Y-65358980D02*
X167765938Y-65358980D01*
X165010375Y-65358980D02*
X163945938Y-66423417D01*
X168401501Y-65358980D02*
X169465938Y-66423417D01*
X169465938Y-70878980D02*
X167765938Y-70878980D01*
%TO.C,C15*%
X259790000Y-101722422D02*
X259790000Y-102239578D01*
X258370000Y-101722422D02*
X258370000Y-102239578D01*
%TO.C,C16*%
X250900000Y-102620578D02*
X250900000Y-102103422D01*
X249480000Y-102620578D02*
X249480000Y-102103422D01*
%TO.C,C18*%
X168003438Y-62500102D02*
X168003438Y-63017258D01*
X169423438Y-62500102D02*
X169423438Y-63017258D01*
%TO.C,C19*%
X243915000Y-153840922D02*
X243915000Y-154358078D01*
X242495000Y-153840922D02*
X242495000Y-154358078D01*
%TO.C,C20*%
X197816400Y-80088478D02*
X197816400Y-79571322D01*
X199236400Y-80088478D02*
X199236400Y-79571322D01*
%TO.C,C21*%
X194487200Y-79712063D02*
X194487200Y-76256500D01*
X193422763Y-80776500D02*
X194487200Y-79712063D01*
X189967200Y-76256500D02*
X191167200Y-76256500D01*
X191031637Y-80776500D02*
X189967200Y-79712063D01*
X194487200Y-76256500D02*
X193287200Y-76256500D01*
X193422763Y-80776500D02*
X193287200Y-80776500D01*
X191031637Y-80776500D02*
X191167200Y-80776500D01*
X189967200Y-79712063D02*
X189967200Y-76256500D01*
%TO.C,C22*%
X206310000Y-98510000D02*
X206310000Y-96810000D01*
X201854437Y-98510000D02*
X206310000Y-98510000D01*
X201854437Y-92990000D02*
X206310000Y-92990000D01*
X200790000Y-94054437D02*
X201854437Y-92990000D01*
X206310000Y-92990000D02*
X206310000Y-94690000D01*
X200790000Y-94054437D02*
X200790000Y-94690000D01*
X200790000Y-97445563D02*
X200790000Y-96810000D01*
X200790000Y-97445563D02*
X201854437Y-98510000D01*
%TO.C,C23*%
X193368437Y-91820400D02*
X192304000Y-90755963D01*
X192304000Y-90755963D02*
X192304000Y-87300400D01*
X196824000Y-90755963D02*
X196824000Y-87300400D01*
X195759563Y-91820400D02*
X196824000Y-90755963D01*
X196824000Y-87300400D02*
X195624000Y-87300400D01*
X195759563Y-91820400D02*
X195624000Y-91820400D01*
X193368437Y-91820400D02*
X193504000Y-91820400D01*
X192304000Y-87300400D02*
X193504000Y-87300400D01*
%TO.C,C24*%
X186366037Y-83701600D02*
X185301600Y-84766037D01*
X190821600Y-89221600D02*
X189121600Y-89221600D01*
X189757163Y-83701600D02*
X189121600Y-83701600D01*
X186366037Y-83701600D02*
X187001600Y-83701600D01*
X190821600Y-84766037D02*
X190821600Y-89221600D01*
X185301600Y-89221600D02*
X187001600Y-89221600D01*
X185301600Y-84766037D02*
X185301600Y-89221600D01*
X189757163Y-83701600D02*
X190821600Y-84766037D01*
%TO.C,C25*%
X203001378Y-77064800D02*
X202484222Y-77064800D01*
X203001378Y-78484800D02*
X202484222Y-78484800D01*
%TO.C,C26*%
X197968800Y-87800922D02*
X197968800Y-88318078D01*
X199388800Y-87800922D02*
X199388800Y-88318078D01*
%TO.C,C27*%
X254407600Y-122866678D02*
X254407600Y-122349522D01*
X255827600Y-122866678D02*
X255827600Y-122349522D01*
%TO.C,C28*%
X247471000Y-104906578D02*
X247471000Y-104389422D01*
X246051000Y-104906578D02*
X246051000Y-104389422D01*
%TO.C,C29*%
X247471000Y-100198422D02*
X247471000Y-100715578D01*
X246051000Y-100198422D02*
X246051000Y-100715578D01*
%TO.C,C30*%
X264977378Y-105408800D02*
X264460222Y-105408800D01*
X264977378Y-103988800D02*
X264460222Y-103988800D01*
%TO.C,C32*%
X117009638Y-114924301D02*
X117009638Y-115441457D01*
X115589638Y-114924301D02*
X115589638Y-115441457D01*
%TO.C,C33*%
X114672838Y-114873502D02*
X114672838Y-115390658D01*
X113252838Y-114873502D02*
X113252838Y-115390658D01*
%TO.C,C42*%
X157313372Y-100980391D02*
X157313372Y-100463235D01*
X158733372Y-100980391D02*
X158733372Y-100463235D01*
%TO.C,C35*%
X113506838Y-100677124D02*
X113506838Y-100159968D01*
X114926838Y-100677124D02*
X114926838Y-100159968D01*
%TO.C,C36*%
X122398438Y-106800102D02*
X122398438Y-107317258D01*
X120978438Y-106800102D02*
X120978438Y-107317258D01*
%TO.C,C37*%
X165984516Y-109006180D02*
X165467360Y-109006180D01*
X165984516Y-107586180D02*
X165467360Y-107586180D01*
%TO.C,C38*%
X157414972Y-114975102D02*
X157414972Y-115492258D01*
X158834972Y-114975102D02*
X158834972Y-115492258D01*
%TO.C,C40*%
X159768705Y-115030500D02*
X159768705Y-115547656D01*
X161188705Y-115030500D02*
X161188705Y-115547656D01*
%TO.C,C41*%
X161290305Y-100997324D02*
X161290305Y-100480168D01*
X159870305Y-100997324D02*
X159870305Y-100480168D01*
%TO.C,C34*%
X119905238Y-100695590D02*
X119905238Y-100178434D01*
X118485238Y-100695590D02*
X118485238Y-100178434D01*
%TO.C,C46*%
X171743260Y-145120280D02*
X172260416Y-145120280D01*
X171743260Y-146540280D02*
X172260416Y-146540280D01*
%TO.C,C44*%
X237539600Y-79154522D02*
X237539600Y-79671678D01*
X236119600Y-79154522D02*
X236119600Y-79671678D01*
%TO.C,C45*%
X237349100Y-87609178D02*
X237349100Y-87092022D01*
X235929100Y-87609178D02*
X235929100Y-87092022D01*
%TO.C,C47*%
X257224600Y-87609178D02*
X257224600Y-87092022D01*
X255804600Y-87609178D02*
X255804600Y-87092022D01*
%TO.C,C48*%
X255868100Y-79154522D02*
X255868100Y-79671678D01*
X257288100Y-79154522D02*
X257288100Y-79671678D01*
%TO.C,D3*%
X193260000Y-128834000D02*
X193260000Y-130754000D01*
X195945000Y-128834000D02*
X193260000Y-128834000D01*
X193260000Y-130754000D02*
X195945000Y-130754000D01*
%TO.C,D1*%
X239309100Y-149254100D02*
X239309100Y-144954100D01*
X239309100Y-144954100D02*
X233609100Y-144954100D01*
X239309100Y-149254100D02*
X233609100Y-149254100D01*
%TO.C,D2*%
X210087100Y-156677600D02*
X210087100Y-150977600D01*
X205787100Y-156677600D02*
X210087100Y-156677600D01*
X205787100Y-156677600D02*
X205787100Y-150977600D01*
%TO.C,IC1*%
X202625000Y-122810000D02*
X204425000Y-122810000D01*
X204425000Y-119590000D02*
X201975000Y-119590000D01*
%TO.C,J6*%
X139855589Y-95351180D02*
X139855589Y-96371180D01*
X134655589Y-95351180D02*
X134655589Y-96371180D01*
X134655589Y-100431180D02*
X134655589Y-101451180D01*
X139855589Y-102971180D02*
X139855589Y-103991180D01*
X134655589Y-93261180D02*
X139855589Y-93261180D01*
X139855589Y-105511180D02*
X139855589Y-106081180D01*
X139855589Y-97891180D02*
X139855589Y-98911180D01*
X134655589Y-97891180D02*
X134655589Y-98911180D01*
X134655589Y-93261180D02*
X134655589Y-93831180D01*
X133215589Y-93831180D02*
X134655589Y-93831180D01*
X139855589Y-100431180D02*
X139855589Y-101451180D01*
X139855589Y-93261180D02*
X139855589Y-93831180D01*
X134655589Y-102971180D02*
X134655589Y-103991180D01*
X134655589Y-106081180D02*
X139855589Y-106081180D01*
X134655589Y-105511180D02*
X134655589Y-106081180D01*
%TO.C,J10*%
X233158100Y-105515000D02*
X233158100Y-106085000D01*
X227958100Y-95355000D02*
X227958100Y-96375000D01*
X233158100Y-97895000D02*
X233158100Y-98915000D01*
X233158100Y-93265000D02*
X233158100Y-93835000D01*
X233158100Y-95355000D02*
X233158100Y-96375000D01*
X227958100Y-106085000D02*
X233158100Y-106085000D01*
X233158100Y-102975000D02*
X233158100Y-103995000D01*
X227958100Y-105515000D02*
X227958100Y-106085000D01*
X227958100Y-93265000D02*
X227958100Y-93835000D01*
X233158100Y-93835000D02*
X234518100Y-93835000D01*
X227958100Y-93265000D02*
X233158100Y-93265000D01*
X233158100Y-100435000D02*
X233158100Y-101455000D01*
X227958100Y-102975000D02*
X227958100Y-103995000D01*
X227958100Y-97895000D02*
X227958100Y-98915000D01*
X227958100Y-100435000D02*
X227958100Y-101455000D01*
%TO.C,L4*%
X228975178Y-148172100D02*
X228458022Y-148172100D01*
X228975178Y-149592100D02*
X228458022Y-149592100D01*
%TO.C,L5*%
X213005600Y-153634178D02*
X213005600Y-153117022D01*
X214425600Y-153634178D02*
X214425600Y-153117022D01*
%TO.C,L7*%
X137879860Y-58256180D02*
X138397016Y-58256180D01*
X137879860Y-56836180D02*
X138397016Y-56836180D01*
%TO.C,L8*%
X172521338Y-150412702D02*
X172521338Y-150929858D01*
X171101338Y-150412702D02*
X171101338Y-150929858D01*
%TO.C,L9*%
X177895838Y-150963358D02*
X177895838Y-150446202D01*
X179315838Y-150963358D02*
X179315838Y-150446202D01*
%TO.C,L10*%
X168470038Y-155716702D02*
X168470038Y-156233858D01*
X167050038Y-155716702D02*
X167050038Y-156233858D01*
%TO.C,L11*%
X163054160Y-152242580D02*
X163571316Y-152242580D01*
X163054160Y-150822580D02*
X163571316Y-150822580D01*
%TO.C,Q1*%
X163728438Y-140751180D02*
X165888438Y-140751180D01*
X163728438Y-137591180D02*
X163728438Y-138521180D01*
X163728438Y-137591180D02*
X165188438Y-137591180D01*
X163728438Y-140751180D02*
X163728438Y-139821180D01*
%TO.C,R1*%
X204109822Y-128522800D02*
X204626978Y-128522800D01*
X204109822Y-127102800D02*
X204626978Y-127102800D01*
%TO.C,R3*%
X194931100Y-111969022D02*
X194931100Y-112486178D01*
X193511100Y-111969022D02*
X193511100Y-112486178D01*
%TO.C,R4*%
X197534600Y-112452678D02*
X197534600Y-111935522D01*
X196114600Y-112452678D02*
X196114600Y-111935522D01*
%TO.C,R2*%
X249276800Y-123744222D02*
X249276800Y-124261378D01*
X250696800Y-123744222D02*
X250696800Y-124261378D01*
%TO.C,R8*%
X243454422Y-98119000D02*
X243971578Y-98119000D01*
X243454422Y-96699000D02*
X243971578Y-96699000D01*
%TO.C,R10*%
X249550422Y-98119000D02*
X250067578Y-98119000D01*
X249550422Y-96699000D02*
X250067578Y-96699000D01*
%TO.C,R11*%
X125563372Y-118965202D02*
X125563372Y-119482358D01*
X126983372Y-118965202D02*
X126983372Y-119482358D01*
%TO.C,R12*%
X131698438Y-138387602D02*
X131698438Y-138904758D01*
X130278438Y-138387602D02*
X130278438Y-138904758D01*
%TO.C,R13*%
X105020838Y-118965202D02*
X105020838Y-119482358D01*
X103600838Y-118965202D02*
X103600838Y-119482358D01*
%TO.C,R14*%
X142798438Y-138725102D02*
X142798438Y-139242258D01*
X141378438Y-138725102D02*
X141378438Y-139242258D01*
%TO.C,R28*%
X148948438Y-98275102D02*
X148948438Y-98792258D01*
X147528438Y-98275102D02*
X147528438Y-98792258D01*
%TO.C,R29*%
X145914838Y-152478202D02*
X145914838Y-152995358D01*
X144494838Y-152478202D02*
X144494838Y-152995358D01*
%TO.C,R17*%
X105020838Y-98725102D02*
X105020838Y-99242258D01*
X103600838Y-98725102D02*
X103600838Y-99242258D01*
%TO.C,R18*%
X123626338Y-152478202D02*
X123626338Y-152995358D01*
X122206338Y-152478202D02*
X122206338Y-152995358D01*
%TO.C,R19*%
X117926438Y-114907368D02*
X117926438Y-115424524D01*
X119346438Y-114907368D02*
X119346438Y-115424524D01*
%TO.C,R20*%
X110916038Y-114890435D02*
X110916038Y-115407591D01*
X112336038Y-114890435D02*
X112336038Y-115407591D01*
%TO.C,R34*%
X156176438Y-100963458D02*
X156176438Y-100446302D01*
X154756438Y-100963458D02*
X154756438Y-100446302D01*
%TO.C,R22*%
X112437638Y-100658658D02*
X112437638Y-100141502D01*
X111017638Y-100658658D02*
X111017638Y-100141502D01*
%TO.C,R23*%
X147525905Y-118965202D02*
X147525905Y-119482358D01*
X148945905Y-118965202D02*
X148945905Y-119482358D01*
%TO.C,R24*%
X111284338Y-152478202D02*
X111284338Y-152995358D01*
X112704338Y-152478202D02*
X112704338Y-152995358D01*
%TO.C,R25*%
X169488438Y-118965202D02*
X169488438Y-119482358D01*
X170908438Y-118965202D02*
X170908438Y-119482358D01*
%TO.C,R26*%
X171123438Y-98300102D02*
X171123438Y-98817258D01*
X169703438Y-98300102D02*
X169703438Y-98817258D01*
%TO.C,R27*%
X155797838Y-152478202D02*
X155797838Y-152995358D01*
X157217838Y-152478202D02*
X157217838Y-152995358D01*
%TO.C,R15*%
X126898438Y-98125102D02*
X126898438Y-98642258D01*
X125478438Y-98125102D02*
X125478438Y-98642258D01*
%TO.C,R16*%
X133509338Y-152478202D02*
X133509338Y-152995358D01*
X134929338Y-152478202D02*
X134929338Y-152995358D01*
%TO.C,R31*%
X155061238Y-114993568D02*
X155061238Y-115510724D01*
X156481238Y-114993568D02*
X156481238Y-115510724D01*
%TO.C,R32*%
X162122438Y-115012034D02*
X162122438Y-115529190D01*
X163542438Y-115012034D02*
X163542438Y-115529190D01*
%TO.C,R33*%
X163847238Y-101014257D02*
X163847238Y-100497101D01*
X162427238Y-101014257D02*
X162427238Y-100497101D01*
%TO.C,R21*%
X115996038Y-100714056D02*
X115996038Y-100196900D01*
X117416038Y-100714056D02*
X117416038Y-100196900D01*
%TO.C,R30*%
X161142360Y-64556180D02*
X161659516Y-64556180D01*
X161142360Y-63136180D02*
X161659516Y-63136180D01*
%TO.C,R35*%
X157117360Y-63136180D02*
X157634516Y-63136180D01*
X157117360Y-64556180D02*
X157634516Y-64556180D01*
%TO.C,R50*%
X167100838Y-150010858D02*
X167100838Y-149493702D01*
X168520838Y-150010858D02*
X168520838Y-149493702D01*
%TO.C,R54*%
X97928438Y-139467258D02*
X97928438Y-138950102D01*
X99348438Y-139467258D02*
X99348438Y-138950102D01*
%TO.C,R55*%
X97628438Y-152817258D02*
X97628438Y-152300102D01*
X99048438Y-152817258D02*
X99048438Y-152300102D01*
%TO.C,R36*%
X161142360Y-70656180D02*
X161659516Y-70656180D01*
X161142360Y-69236180D02*
X161659516Y-69236180D01*
%TO.C,R37*%
X157117360Y-69236180D02*
X157634516Y-69236180D01*
X157117360Y-70656180D02*
X157634516Y-70656180D01*
%TO.C,R42*%
X241730600Y-87092022D02*
X241730600Y-87609178D01*
X240310600Y-87092022D02*
X240310600Y-87609178D01*
%TO.C,R43*%
X232897178Y-83021100D02*
X232380022Y-83021100D01*
X232897178Y-84441100D02*
X232380022Y-84441100D01*
%TO.C,R38*%
X168698438Y-138892258D02*
X168698438Y-138375102D01*
X167278438Y-138892258D02*
X167278438Y-138375102D01*
%TO.C,R48*%
X238278600Y-79154522D02*
X238278600Y-79671678D01*
X239698600Y-79154522D02*
X239698600Y-79671678D01*
%TO.C,R49*%
X239635100Y-87609178D02*
X239635100Y-87092022D01*
X238215100Y-87609178D02*
X238215100Y-87092022D01*
%TO.C,R40*%
X160528438Y-135342258D02*
X160528438Y-134825102D01*
X161948438Y-135342258D02*
X161948438Y-134825102D01*
%TO.C,R62*%
X255065600Y-87609178D02*
X255065600Y-87092022D01*
X253645600Y-87609178D02*
X253645600Y-87092022D01*
%TO.C,R63*%
X253582100Y-79154522D02*
X253582100Y-79671678D01*
X255002100Y-79154522D02*
X255002100Y-79671678D01*
%TO.C,U9*%
X115423338Y-112355780D02*
X118873338Y-112355780D01*
X115423338Y-103485780D02*
X113473338Y-103485780D01*
X115423338Y-103485780D02*
X117373338Y-103485780D01*
X115423338Y-112355780D02*
X113473338Y-112355780D01*
%TO.C,U11*%
X246608600Y-87975600D02*
X244658600Y-87975600D01*
X246608600Y-79105600D02*
X243158600Y-79105600D01*
X246608600Y-87975600D02*
X248558600Y-87975600D01*
X246608600Y-79105600D02*
X248558600Y-79105600D01*
%TO.C,U1*%
X246207600Y-144689100D02*
X246207600Y-146189100D01*
X252837600Y-146189100D02*
X252837600Y-147289100D01*
X246207600Y-146189100D02*
X246477600Y-146189100D01*
X246477600Y-146189100D02*
X246477600Y-149019100D01*
X253107600Y-144689100D02*
X253107600Y-146189100D01*
X253107600Y-146189100D02*
X252837600Y-146189100D01*
%TO.C,U2*%
X262690600Y-127082600D02*
X266450600Y-127082600D01*
X266450600Y-120262600D02*
X266450600Y-121522600D01*
X266450600Y-127082600D02*
X266450600Y-125822600D01*
X260440600Y-120262600D02*
X266450600Y-120262600D01*
D15*
%TO.C,U3*%
X190699600Y-124503100D02*
X190699600Y-118143100D01*
X200409600Y-118143100D02*
X200409600Y-123487100D01*
X200409600Y-123487100D02*
X190699600Y-123487100D01*
X190699600Y-118143100D02*
X200409600Y-118143100D01*
X200409600Y-123487100D02*
X200409600Y-124503100D01*
X200409600Y-124503100D02*
X190699600Y-124503100D01*
D10*
%TO.C,U4*%
X246994800Y-129233200D02*
X246064800Y-129233200D01*
X243834800Y-129233200D02*
X244764800Y-129233200D01*
X243834800Y-129233200D02*
X243834800Y-127773200D01*
X246994800Y-129233200D02*
X246994800Y-127073200D01*
%TO.C,U5*%
X162405438Y-54458180D02*
X163905438Y-54458180D01*
X163905438Y-54728180D02*
X165005438Y-54728180D01*
X163905438Y-61088180D02*
X166735438Y-61088180D01*
X163905438Y-61358180D02*
X163905438Y-61088180D01*
X163905438Y-54458180D02*
X163905438Y-54728180D01*
X162405438Y-61358180D02*
X163905438Y-61358180D01*
%TO.C,LEFT1*%
X266990200Y-112958300D02*
X273194200Y-112958300D01*
X273194200Y-110828300D02*
X273194200Y-112958300D01*
X266454200Y-108679300D02*
X266454200Y-110498300D01*
X266990200Y-106217300D02*
X273194200Y-106217300D01*
X273194200Y-106217300D02*
X273194200Y-108348300D01*
%TO.C,L6*%
X246940000Y-124261378D02*
X246940000Y-123744222D01*
X248360000Y-124261378D02*
X248360000Y-123744222D01*
%TO.C,R5*%
X129998438Y-85637602D02*
X129998438Y-86154758D01*
X128578438Y-85637602D02*
X128578438Y-86154758D01*
%TO.C,R52*%
X161142360Y-74811180D02*
X161659516Y-74811180D01*
X161142360Y-76231180D02*
X161659516Y-76231180D01*
%TO.C,R53*%
X157634516Y-76231180D02*
X157117360Y-76231180D01*
X157634516Y-74811180D02*
X157117360Y-74811180D01*
%TO.C,SW1*%
X255779600Y-160538100D02*
X255579600Y-160748100D01*
X254279600Y-156398100D02*
X255979600Y-156398100D01*
X257279600Y-156398100D02*
X257479600Y-156398100D01*
X254679600Y-160748100D02*
X255579600Y-160748100D01*
X254479600Y-160538100D02*
X254679600Y-160748100D01*
X252429600Y-157448100D02*
X252429600Y-158238100D01*
X253029600Y-159248100D02*
X258729600Y-159248100D01*
X259329600Y-158238100D02*
X259329600Y-157448100D01*
X255779600Y-160538100D02*
X255779600Y-159248100D01*
X254479600Y-159248100D02*
X254479600Y-160538100D01*
%TO.C,SW2*%
X182547838Y-64495780D02*
X181257838Y-64495780D01*
X180247838Y-60945780D02*
X179457838Y-60945780D01*
X182547838Y-65795780D02*
X182757838Y-65595780D01*
X178407838Y-65995780D02*
X178407838Y-64295780D01*
X182547838Y-64495780D02*
X182757838Y-64695780D01*
X182757838Y-65595780D02*
X182757838Y-64695780D01*
X178407838Y-62995780D02*
X178407838Y-62795780D01*
X181257838Y-67245780D02*
X181257838Y-61545780D01*
X179457838Y-67845780D02*
X180247838Y-67845780D01*
X181257838Y-65795780D02*
X182547838Y-65795780D01*
%TO.C,C10*%
X265057600Y-153142837D02*
X266122037Y-152078400D01*
X265057600Y-156533963D02*
X266122037Y-157598400D01*
X270577600Y-152078400D02*
X270577600Y-153778400D01*
X266122037Y-157598400D02*
X270577600Y-157598400D01*
X270577600Y-157598400D02*
X270577600Y-155898400D01*
X265057600Y-156533963D02*
X265057600Y-155898400D01*
X266122037Y-152078400D02*
X270577600Y-152078400D01*
X265057600Y-153142837D02*
X265057600Y-153778400D01*
%TO.C,L3*%
X231421678Y-158078100D02*
X230904522Y-158078100D01*
X231421678Y-159498100D02*
X230904522Y-159498100D01*
%TO.C,C17*%
X267559022Y-149658000D02*
X268076178Y-149658000D01*
X267559022Y-151078000D02*
X268076178Y-151078000D01*
%TO.C,C5*%
X241867563Y-122429000D02*
X242932000Y-123493437D01*
X238476437Y-122429000D02*
X239112000Y-122429000D01*
X238476437Y-122429000D02*
X237412000Y-123493437D01*
X241867563Y-122429000D02*
X241232000Y-122429000D01*
X237412000Y-123493437D02*
X237412000Y-127949000D01*
X242932000Y-123493437D02*
X242932000Y-127949000D01*
X237412000Y-127949000D02*
X239112000Y-127949000D01*
X242932000Y-127949000D02*
X241232000Y-127949000D01*
%TO.C,J7*%
X139855589Y-125931180D02*
X139855589Y-126951180D01*
X139855589Y-113231180D02*
X139855589Y-114251180D01*
X133215589Y-109171180D02*
X134655589Y-109171180D01*
X139855589Y-110691180D02*
X139855589Y-111711180D01*
X139855589Y-128471180D02*
X139855589Y-129041180D01*
X134655589Y-108601180D02*
X134655589Y-109171180D01*
X134655589Y-108601180D02*
X139855589Y-108601180D01*
X139855589Y-118311180D02*
X139855589Y-119331180D01*
X134655589Y-128471180D02*
X134655589Y-129041180D01*
X134655589Y-113231180D02*
X134655589Y-114251180D01*
X134655589Y-118311180D02*
X134655589Y-119331180D01*
X134655589Y-115771180D02*
X134655589Y-116791180D01*
X134655589Y-120851180D02*
X134655589Y-121871180D01*
X139855589Y-115771180D02*
X139855589Y-116791180D01*
X134655589Y-125931180D02*
X134655589Y-126951180D01*
X139855589Y-108601180D02*
X139855589Y-109171180D01*
X139855589Y-120851180D02*
X139855589Y-121871180D01*
X134655589Y-123391180D02*
X134655589Y-124411180D01*
X134655589Y-110691180D02*
X134655589Y-111711180D01*
X139855589Y-123391180D02*
X139855589Y-124411180D01*
X134655589Y-129041180D02*
X139855589Y-129041180D01*
%TO.C,J8*%
X227958100Y-129045000D02*
X233158100Y-129045000D01*
X227958100Y-125935000D02*
X227958100Y-126955000D01*
X233158100Y-125935000D02*
X233158100Y-126955000D01*
X227958100Y-123395000D02*
X227958100Y-124415000D01*
X227958100Y-115775000D02*
X227958100Y-116795000D01*
X227958100Y-113235000D02*
X227958100Y-114255000D01*
X233158100Y-113235000D02*
X233158100Y-114255000D01*
X233158100Y-120855000D02*
X233158100Y-121875000D01*
X233158100Y-118315000D02*
X233158100Y-119335000D01*
X233158100Y-109175000D02*
X234518100Y-109175000D01*
X227958100Y-110695000D02*
X227958100Y-111715000D01*
X233158100Y-110695000D02*
X233158100Y-111715000D01*
X227958100Y-128475000D02*
X227958100Y-129045000D01*
X227958100Y-118315000D02*
X227958100Y-119335000D01*
X227958100Y-108605000D02*
X227958100Y-109175000D01*
X233158100Y-115775000D02*
X233158100Y-116795000D01*
X233158100Y-108605000D02*
X233158100Y-109175000D01*
X227958100Y-108605000D02*
X233158100Y-108605000D01*
X227958100Y-120855000D02*
X227958100Y-121875000D01*
X233158100Y-123395000D02*
X233158100Y-124415000D01*
X233158100Y-128475000D02*
X233158100Y-129045000D01*
%TO.C,J5*%
X100413838Y-64107780D02*
X100413838Y-63087780D01*
X95213838Y-79347780D02*
X95213838Y-78327780D01*
X100413838Y-59027780D02*
X100413838Y-58457780D01*
X95213838Y-64107780D02*
X95213838Y-63087780D01*
X100413838Y-81437780D02*
X100413838Y-80867780D01*
X100413838Y-74267780D02*
X100413838Y-73247780D01*
X95213838Y-81437780D02*
X95213838Y-80867780D01*
X101853838Y-80867780D02*
X100413838Y-80867780D01*
X95213838Y-74267780D02*
X95213838Y-73247780D01*
X95213838Y-71727780D02*
X95213838Y-70707780D01*
X100413838Y-81437780D02*
X95213838Y-81437780D01*
X95213838Y-59027780D02*
X95213838Y-58457780D01*
X100413838Y-58457780D02*
X95213838Y-58457780D01*
X95213838Y-76807780D02*
X95213838Y-75787780D01*
X100413838Y-66647780D02*
X100413838Y-65627780D01*
X100413838Y-69187780D02*
X100413838Y-68167780D01*
X100413838Y-71727780D02*
X100413838Y-70707780D01*
X100413838Y-76807780D02*
X100413838Y-75787780D01*
X95213838Y-69187780D02*
X95213838Y-68167780D01*
X100413838Y-79347780D02*
X100413838Y-78327780D01*
X95213838Y-61567780D02*
X95213838Y-60547780D01*
X95213838Y-66647780D02*
X95213838Y-65627780D01*
X100413838Y-61567780D02*
X100413838Y-60547780D01*
%TO.C,J9*%
X272596600Y-74271600D02*
X272596600Y-73251600D01*
X267396600Y-81441600D02*
X267396600Y-80871600D01*
X267396600Y-64111600D02*
X267396600Y-63091600D01*
X267396600Y-61571600D02*
X267396600Y-60551600D01*
X272596600Y-69191600D02*
X272596600Y-68171600D01*
X272596600Y-81441600D02*
X267396600Y-81441600D01*
X272596600Y-61571600D02*
X272596600Y-60551600D01*
X267396600Y-76811600D02*
X267396600Y-75791600D01*
X267396600Y-80871600D02*
X266036600Y-80871600D01*
X272596600Y-71731600D02*
X272596600Y-70711600D01*
X272596600Y-64111600D02*
X272596600Y-63091600D01*
X272596600Y-76811600D02*
X272596600Y-75791600D01*
X267396600Y-69191600D02*
X267396600Y-68171600D01*
X272596600Y-66651600D02*
X272596600Y-65631600D01*
X272596600Y-58461600D02*
X267396600Y-58461600D01*
X267396600Y-71731600D02*
X267396600Y-70711600D01*
X272596600Y-59031600D02*
X272596600Y-58461600D01*
X267396600Y-79351600D02*
X267396600Y-78331600D01*
X272596600Y-79351600D02*
X272596600Y-78331600D01*
X267396600Y-59031600D02*
X267396600Y-58461600D01*
X272596600Y-81441600D02*
X272596600Y-80871600D01*
X267396600Y-66651600D02*
X267396600Y-65631600D01*
X267396600Y-74271600D02*
X267396600Y-73251600D01*
%TO.C,R41*%
X161923438Y-139417258D02*
X161923438Y-138900102D01*
X160503438Y-139417258D02*
X160503438Y-138900102D01*
%TO.C,R51*%
X159684038Y-149934658D02*
X159684038Y-149417502D01*
X161104038Y-149934658D02*
X161104038Y-149417502D01*
%TO.C,C3*%
X192391100Y-112452678D02*
X192391100Y-111935522D01*
X190971100Y-112452678D02*
X190971100Y-111935522D01*
%TO.C,R7*%
X243454422Y-108152000D02*
X243971578Y-108152000D01*
X243454422Y-106732000D02*
X243971578Y-106732000D01*
%TO.C,R9*%
X249550422Y-106732000D02*
X250067578Y-106732000D01*
X249550422Y-108152000D02*
X250067578Y-108152000D01*
%TO.C,RIGHT1*%
X266990200Y-91393700D02*
X273194200Y-91393700D01*
X266454200Y-87114700D02*
X266454200Y-88933700D01*
X266990200Y-84652700D02*
X273194200Y-84652700D01*
X273194200Y-89263700D02*
X273194200Y-91393700D01*
X273194200Y-84652700D02*
X273194200Y-86783700D01*
%TO.C,C31*%
X269400522Y-94042300D02*
X269917678Y-94042300D01*
X269400522Y-92622300D02*
X269917678Y-92622300D01*
%TO.C,R60*%
X252716100Y-79671678D02*
X252716100Y-79154522D01*
X251296100Y-79671678D02*
X251296100Y-79154522D01*
%TO.C,C39*%
X149642360Y-79036180D02*
X150159516Y-79036180D01*
X149642360Y-80456180D02*
X150159516Y-80456180D01*
%TO.C,C43*%
X146509516Y-80456180D02*
X145992360Y-80456180D01*
X146509516Y-79036180D02*
X145992360Y-79036180D01*
%TO.C,C51*%
X127742360Y-78786180D02*
X128259516Y-78786180D01*
X127742360Y-80206180D02*
X128259516Y-80206180D01*
%TO.C,C52*%
X124484516Y-78786180D02*
X123967360Y-78786180D01*
X124484516Y-80206180D02*
X123967360Y-80206180D01*
%TO.C,R82*%
X150978438Y-75017258D02*
X150978438Y-74500102D01*
X152398438Y-75017258D02*
X152398438Y-74500102D01*
%TO.C,R83*%
X148778438Y-75017258D02*
X148778438Y-74500102D01*
X150198438Y-75017258D02*
X150198438Y-74500102D01*
%TO.C,R84*%
X146578438Y-75017258D02*
X146578438Y-74500102D01*
X147998438Y-75017258D02*
X147998438Y-74500102D01*
%TO.C,R85*%
X145798438Y-74500102D02*
X145798438Y-75017258D01*
X144378438Y-74500102D02*
X144378438Y-75017258D01*
%TO.C,R86*%
X130298438Y-75267258D02*
X130298438Y-74750102D01*
X128878438Y-75267258D02*
X128878438Y-74750102D01*
%TO.C,R87*%
X128048438Y-75267258D02*
X128048438Y-74750102D01*
X126628438Y-75267258D02*
X126628438Y-74750102D01*
%TO.C,R88*%
X125798438Y-75267258D02*
X125798438Y-74750102D01*
X124378438Y-75267258D02*
X124378438Y-74750102D01*
%TO.C,R89*%
X122128438Y-74750102D02*
X122128438Y-75267258D01*
X123548438Y-74750102D02*
X123548438Y-75267258D01*
%TO.C,R64*%
X161142360Y-81756180D02*
X161659516Y-81756180D01*
X161142360Y-80336180D02*
X161659516Y-80336180D01*
%TO.C,R65*%
X157634516Y-80336180D02*
X157117360Y-80336180D01*
X157634516Y-81756180D02*
X157117360Y-81756180D01*
%TO.C,R66*%
X105753438Y-127917258D02*
X105753438Y-127400102D01*
X107173438Y-127917258D02*
X107173438Y-127400102D01*
%TO.C,R67*%
X108403438Y-138762602D02*
X108403438Y-139279758D01*
X109823438Y-138762602D02*
X109823438Y-139279758D01*
%TO.C,R68*%
X122153438Y-127904758D02*
X122153438Y-127387602D01*
X123573438Y-127904758D02*
X123573438Y-127387602D01*
%TO.C,R69*%
X119390938Y-138612602D02*
X119390938Y-139129758D01*
X120810938Y-138612602D02*
X120810938Y-139129758D01*
%TO.C,R70*%
X110053438Y-127400102D02*
X110053438Y-127917258D01*
X111473438Y-127400102D02*
X111473438Y-127917258D01*
%TO.C,R71*%
X119298438Y-127387602D02*
X119298438Y-127904758D01*
X117878438Y-127387602D02*
X117878438Y-127904758D01*
%TO.C,R72*%
X113584516Y-65281180D02*
X113067360Y-65281180D01*
X113584516Y-63861180D02*
X113067360Y-63861180D01*
%TO.C,R73*%
X117684516Y-65281180D02*
X117167360Y-65281180D01*
X117684516Y-63861180D02*
X117167360Y-63861180D01*
%TO.C,R74*%
X113584516Y-69236180D02*
X113067360Y-69236180D01*
X113584516Y-70656180D02*
X113067360Y-70656180D01*
%TO.C,R75*%
X117684516Y-69236180D02*
X117167360Y-69236180D01*
X117684516Y-70656180D02*
X117167360Y-70656180D01*
%TO.C,R76*%
X113584516Y-76231180D02*
X113067360Y-76231180D01*
X113584516Y-74811180D02*
X113067360Y-74811180D01*
%TO.C,R77*%
X117684516Y-76231180D02*
X117167360Y-76231180D01*
X117684516Y-74811180D02*
X117167360Y-74811180D01*
%TO.C,R78*%
X113584516Y-81756180D02*
X113067360Y-81756180D01*
X113584516Y-80336180D02*
X113067360Y-80336180D01*
%TO.C,R79*%
X117684516Y-80336180D02*
X117167360Y-80336180D01*
X117684516Y-81756180D02*
X117167360Y-81756180D01*
D13*
%TO.C,U12*%
X132399639Y-85821180D02*
X132624639Y-85821180D01*
X132399639Y-81171180D02*
X132724639Y-81171180D01*
X142400439Y-85821180D02*
X142075439Y-85821180D01*
X142400439Y-85821180D02*
X142400439Y-81171180D01*
X132624639Y-85821180D02*
X132624639Y-86896180D01*
X132399639Y-85821180D02*
X132399639Y-81171180D01*
X142400439Y-81171180D02*
X142075439Y-81171180D01*
D10*
%TO.C,C11*%
X113478438Y-134717258D02*
X113478438Y-134200102D01*
X114898438Y-134717258D02*
X114898438Y-134200102D01*
%TO.C,C12*%
X146359516Y-134081180D02*
X145842360Y-134081180D01*
X146359516Y-132661180D02*
X145842360Y-132661180D01*
%TO.C,R39*%
X147123438Y-138892258D02*
X147123438Y-138375102D01*
X145703438Y-138892258D02*
X145703438Y-138375102D01*
%TO.C,R80*%
X149017360Y-142481180D02*
X149534516Y-142481180D01*
X149017360Y-141061180D02*
X149534516Y-141061180D01*
%TO.C,R81*%
X154534516Y-138861180D02*
X154017360Y-138861180D01*
X154534516Y-140281180D02*
X154017360Y-140281180D01*
%TO.C,U13*%
X112103438Y-127496180D02*
X112103438Y-129446180D01*
X117223438Y-127496180D02*
X117223438Y-129446180D01*
X112103438Y-127496180D02*
X112103438Y-125546180D01*
X117223438Y-127496180D02*
X117223438Y-124046180D01*
%TO.C,U14*%
X148863438Y-140256180D02*
X151313438Y-140256180D01*
X150663438Y-137036180D02*
X148863438Y-137036180D01*
%TO.C,demp1*%
X204600000Y-89850000D02*
X204600000Y-91850000D01*
X201800000Y-89850000D02*
X204600000Y-89850000D01*
X204600000Y-91850000D02*
X201800000Y-91850000D01*
X201800000Y-91850000D02*
X201800000Y-89850000D01*
%TO.C,xsmt1*%
X211350000Y-97400000D02*
X209350000Y-97400000D01*
X209350000Y-94600000D02*
X211350000Y-94600000D01*
X211350000Y-94600000D02*
X211350000Y-97400000D01*
X209350000Y-97400000D02*
X209350000Y-94600000D01*
%TO.C,flt1*%
X212050000Y-94600000D02*
X214050000Y-94600000D01*
X214050000Y-97400000D02*
X212050000Y-97400000D01*
X214050000Y-94600000D02*
X214050000Y-97400000D01*
X212050000Y-97400000D02*
X212050000Y-94600000D01*
%TO.C,fmt1*%
X215050000Y-97400000D02*
X215050000Y-94600000D01*
X215050000Y-94600000D02*
X217050000Y-94600000D01*
X217050000Y-97400000D02*
X215050000Y-97400000D01*
X217050000Y-94600000D02*
X217050000Y-97400000D01*
%TD*%
M02*
