%TF.GenerationSoftware,KiCad,Pcbnew,(6.0.1-0)*%
%TF.CreationDate,2022-04-07T21:47:18+00:00*%
%TF.ProjectId,fjol,666a6f6c-2e6b-4696-9361-645f70636258,rev?*%
%TF.SameCoordinates,Original*%
%TF.FileFunction,Paste,Bot*%
%TF.FilePolarity,Positive*%
%FSLAX46Y46*%
G04 Gerber Fmt 4.6, Leading zero omitted, Abs format (unit mm)*
G04 Created by KiCad (PCBNEW (6.0.1-0)) date 2022-04-07 21:47:18*
%MOMM*%
%LPD*%
G01*
G04 APERTURE LIST*
G04 Aperture macros list*
%AMRoundRect*
0 Rectangle with rounded corners*
0 $1 Rounding radius*
0 $2 $3 $4 $5 $6 $7 $8 $9 X,Y pos of 4 corners*
0 Add a 4 corners polygon primitive as box body*
4,1,4,$2,$3,$4,$5,$6,$7,$8,$9,$2,$3,0*
0 Add four circle primitives for the rounded corners*
1,1,$1+$1,$2,$3*
1,1,$1+$1,$4,$5*
1,1,$1+$1,$6,$7*
1,1,$1+$1,$8,$9*
0 Add four rect primitives between the rounded corners*
20,1,$1+$1,$2,$3,$4,$5,0*
20,1,$1+$1,$4,$5,$6,$7,0*
20,1,$1+$1,$6,$7,$8,$9,0*
20,1,$1+$1,$8,$9,$2,$3,0*%
G04 Aperture macros list end*
%ADD10R,2.400000X0.740000*%
%ADD11RoundRect,0.243750X0.243750X0.456250X-0.243750X0.456250X-0.243750X-0.456250X0.243750X-0.456250X0*%
%ADD12RoundRect,0.243750X0.456250X-0.243750X0.456250X0.243750X-0.456250X0.243750X-0.456250X-0.243750X0*%
%ADD13R,2.510000X1.000000*%
%ADD14R,0.800000X0.900000*%
%ADD15RoundRect,0.243750X-0.456250X0.243750X-0.456250X-0.243750X0.456250X-0.243750X0.456250X0.243750X0*%
%ADD16C,1.422400*%
G04 APERTURE END LIST*
D10*
%TO.C,J2*%
X231235800Y-80568800D03*
X227335800Y-80568800D03*
X231235800Y-81838800D03*
X227335800Y-81838800D03*
X231235800Y-83108800D03*
X227335800Y-83108800D03*
X231235800Y-84378800D03*
X227335800Y-84378800D03*
X231235800Y-85648800D03*
X227335800Y-85648800D03*
%TD*%
D11*
%TO.C,R59*%
X237739400Y-81076800D03*
X235864400Y-81076800D03*
%TD*%
%TO.C,R61*%
X237739400Y-86309200D03*
X235864400Y-86309200D03*
%TD*%
D12*
%TO.C,C49*%
X246608600Y-88036400D03*
X246608600Y-86161400D03*
%TD*%
D13*
%TO.C,J4*%
X269290800Y-95199200D03*
X272600800Y-97739200D03*
X269290800Y-100279200D03*
%TD*%
D14*
%TO.C,Q2*%
X215422400Y-77533500D03*
X217322400Y-77533500D03*
X216372400Y-79533500D03*
%TD*%
%TO.C,Q3*%
X215295400Y-85280500D03*
X217195400Y-85280500D03*
X216245400Y-87280500D03*
%TD*%
%TO.C,Q4*%
X215356400Y-81486500D03*
X217256400Y-81486500D03*
X216306400Y-83486500D03*
%TD*%
%TO.C,Q5*%
X215290400Y-89598500D03*
X217190400Y-89598500D03*
X216240400Y-91598500D03*
%TD*%
D15*
%TO.C,R46*%
X219989400Y-77627000D03*
X219989400Y-79502000D03*
%TD*%
%TO.C,R47*%
X220052900Y-85374000D03*
X220052900Y-87249000D03*
%TD*%
%TO.C,R56*%
X220052900Y-81597500D03*
X220052900Y-83472500D03*
%TD*%
%TO.C,R57*%
X220052900Y-89662000D03*
X220052900Y-91537000D03*
%TD*%
D16*
%TO.C,J1*%
X217322400Y-152196800D03*
X217322400Y-154736800D03*
X219862400Y-152196800D03*
X219862400Y-154736800D03*
X222402400Y-152196800D03*
X222402400Y-154736800D03*
X224942400Y-152196800D03*
X224942400Y-154736800D03*
X227482400Y-152196800D03*
X227482400Y-154736800D03*
X230022400Y-152196800D03*
X230022400Y-154736800D03*
X232562400Y-152196800D03*
X232562400Y-154736800D03*
X235102400Y-152196800D03*
X235102400Y-154736800D03*
%TD*%
M02*
