%TF.GenerationSoftware,KiCad,Pcbnew,(6.0.1-0)*%
%TF.CreationDate,2022-04-07T21:47:18+00:00*%
%TF.ProjectId,fjol,666a6f6c-2e6b-4696-9361-645f70636258,rev?*%
%TF.SameCoordinates,Original*%
%TF.FileFunction,Paste,Top*%
%TF.FilePolarity,Positive*%
%FSLAX46Y46*%
G04 Gerber Fmt 4.6, Leading zero omitted, Abs format (unit mm)*
G04 Created by KiCad (PCBNEW (6.0.1-0)) date 2022-04-07 21:47:18*
%MOMM*%
%LPD*%
G01*
G04 APERTURE LIST*
G04 Aperture macros list*
%AMRoundRect*
0 Rectangle with rounded corners*
0 $1 Rounding radius*
0 $2 $3 $4 $5 $6 $7 $8 $9 X,Y pos of 4 corners*
0 Add a 4 corners polygon primitive as box body*
4,1,4,$2,$3,$4,$5,$6,$7,$8,$9,$2,$3,0*
0 Add four circle primitives for the rounded corners*
1,1,$1+$1,$2,$3*
1,1,$1+$1,$4,$5*
1,1,$1+$1,$6,$7*
1,1,$1+$1,$8,$9*
0 Add four rect primitives between the rounded corners*
20,1,$1+$1,$2,$3,$4,$5,0*
20,1,$1+$1,$4,$5,$6,$7,0*
20,1,$1+$1,$6,$7,$8,$9,0*
20,1,$1+$1,$8,$9,$2,$3,0*%
G04 Aperture macros list end*
%ADD10RoundRect,0.250000X0.625000X-0.375000X0.625000X0.375000X-0.625000X0.375000X-0.625000X-0.375000X0*%
%ADD11RoundRect,0.243750X0.243750X0.456250X-0.243750X0.456250X-0.243750X-0.456250X0.243750X-0.456250X0*%
%ADD12RoundRect,0.150000X0.150000X-0.725000X0.150000X0.725000X-0.150000X0.725000X-0.150000X-0.725000X0*%
%ADD13RoundRect,0.100000X-0.637500X-0.100000X0.637500X-0.100000X0.637500X0.100000X-0.637500X0.100000X0*%
%ADD14RoundRect,0.243750X0.456250X-0.243750X0.456250X0.243750X-0.456250X0.243750X-0.456250X-0.243750X0*%
%ADD15RoundRect,0.243750X-0.456250X0.243750X-0.456250X-0.243750X0.456250X-0.243750X0.456250X0.243750X0*%
%ADD16RoundRect,0.150000X0.825000X0.150000X-0.825000X0.150000X-0.825000X-0.150000X0.825000X-0.150000X0*%
%ADD17RoundRect,0.250000X1.137500X0.550000X-1.137500X0.550000X-1.137500X-0.550000X1.137500X-0.550000X0*%
%ADD18RoundRect,0.250000X-0.550000X1.137500X-0.550000X-1.137500X0.550000X-1.137500X0.550000X1.137500X0*%
%ADD19RoundRect,0.250000X0.550000X-1.137500X0.550000X1.137500X-0.550000X1.137500X-0.550000X-1.137500X0*%
%ADD20RoundRect,0.250000X0.550000X-1.075000X0.550000X1.075000X-0.550000X1.075000X-0.550000X-1.075000X0*%
%ADD21RoundRect,0.250000X-1.137500X-0.550000X1.137500X-0.550000X1.137500X0.550000X-1.137500X0.550000X0*%
%ADD22RoundRect,0.243750X-0.243750X-0.456250X0.243750X-0.456250X0.243750X0.456250X-0.243750X0.456250X0*%
%ADD23R,2.500000X2.300000*%
%ADD24R,2.300000X2.500000*%
%ADD25R,1.560000X0.650000*%
%ADD26R,3.150000X1.000000*%
%ADD27R,3.000000X1.000000*%
%ADD28R,0.900000X0.800000*%
%ADD29RoundRect,0.150000X-0.825000X-0.150000X0.825000X-0.150000X0.825000X0.150000X-0.825000X0.150000X0*%
%ADD30R,2.750000X3.050000*%
%ADD31R,1.200000X2.200000*%
%ADD32R,2.000000X1.500000*%
%ADD33R,2.000000X3.800000*%
%ADD34R,1.600000X2.000000*%
%ADD35R,0.800000X0.900000*%
%ADD36R,3.050000X2.750000*%
%ADD37R,2.200000X1.200000*%
%ADD38R,2.500000X2.000000*%
%ADD39R,1.000000X0.800000*%
%ADD40R,0.700000X1.500000*%
%ADD41R,0.800000X1.000000*%
%ADD42R,1.500000X0.700000*%
%ADD43R,1.600000X1.400000*%
%ADD44R,0.400000X1.100000*%
%ADD45RoundRect,0.250000X-0.395000X0.255000X-0.395000X-0.255000X0.395000X-0.255000X0.395000X0.255000X0*%
%ADD46RoundRect,0.150000X-0.150000X0.662500X-0.150000X-0.662500X0.150000X-0.662500X0.150000X0.662500X0*%
%ADD47R,1.060000X0.650000*%
%ADD48C,1.422400*%
G04 APERTURE END LIST*
D10*
%TO.C,L1*%
X243370100Y-146088100D03*
X243370100Y-143288100D03*
%TD*%
D11*
%TO.C,L2*%
X261061200Y-129235200D03*
X259186200Y-129235200D03*
%TD*%
D12*
%TO.C,U6*%
X252984000Y-104429000D03*
X254254000Y-104429000D03*
X255524000Y-104429000D03*
X256794000Y-104429000D03*
X256794000Y-99279000D03*
X255524000Y-99279000D03*
X254254000Y-99279000D03*
X252984000Y-99279000D03*
%TD*%
D13*
%TO.C,U8*%
X202115500Y-81860200D03*
X202115500Y-82510200D03*
X202115500Y-83160200D03*
X202115500Y-83810200D03*
X202115500Y-84460200D03*
X202115500Y-85110200D03*
X202115500Y-85760200D03*
X202115500Y-86410200D03*
X202115500Y-87060200D03*
X202115500Y-87710200D03*
X207840500Y-87710200D03*
X207840500Y-87060200D03*
X207840500Y-86410200D03*
X207840500Y-85760200D03*
X207840500Y-85110200D03*
X207840500Y-84460200D03*
X207840500Y-83810200D03*
X207840500Y-83160200D03*
X207840500Y-82510200D03*
X207840500Y-81860200D03*
%TD*%
D14*
%TO.C,R44*%
X241147600Y-80350600D03*
X241147600Y-78475600D03*
%TD*%
D11*
%TO.C,R45*%
X233591100Y-78651100D03*
X231716100Y-78651100D03*
%TD*%
D15*
%TO.C,R58*%
X252133100Y-86413100D03*
X252133100Y-88288100D03*
%TD*%
D16*
%TO.C,U10*%
X161776838Y-112111780D03*
X161776838Y-110841780D03*
X161776838Y-109571780D03*
X161776838Y-108301780D03*
X161776838Y-107031780D03*
X161776838Y-105761780D03*
X161776838Y-104491780D03*
X156826838Y-104491780D03*
X156826838Y-105761780D03*
X156826838Y-107031780D03*
X156826838Y-108301780D03*
X156826838Y-109571780D03*
X156826838Y-110841780D03*
X156826838Y-112111780D03*
%TD*%
D15*
%TO.C,C1*%
X272034000Y-121388900D03*
X272034000Y-123263900D03*
%TD*%
D17*
%TO.C,C2*%
X269905500Y-131826000D03*
X265780500Y-131826000D03*
%TD*%
D14*
%TO.C,C4*%
X245322000Y-124951500D03*
X245322000Y-123076500D03*
%TD*%
D18*
%TO.C,C6*%
X247942100Y-151612600D03*
X247942100Y-155737600D03*
%TD*%
D19*
%TO.C,C7*%
X198500000Y-155450000D03*
X198500000Y-151325000D03*
%TD*%
D15*
%TO.C,C8*%
X108613438Y-126721180D03*
X108613438Y-128596180D03*
%TD*%
%TO.C,C9*%
X120725938Y-126708680D03*
X120725938Y-128583680D03*
%TD*%
D18*
%TO.C,C14*%
X166705938Y-66056480D03*
X166705938Y-70181480D03*
%TD*%
D15*
%TO.C,C15*%
X259080000Y-101043500D03*
X259080000Y-102918500D03*
%TD*%
D14*
%TO.C,C16*%
X250190000Y-103299500D03*
X250190000Y-101424500D03*
%TD*%
D15*
%TO.C,C18*%
X168713438Y-61821180D03*
X168713438Y-63696180D03*
%TD*%
%TO.C,C19*%
X243205000Y-153162000D03*
X243205000Y-155037000D03*
%TD*%
D14*
%TO.C,C20*%
X198526400Y-80767400D03*
X198526400Y-78892400D03*
%TD*%
D20*
%TO.C,C21*%
X192227200Y-80191500D03*
X192227200Y-76841500D03*
%TD*%
D21*
%TO.C,C22*%
X201487500Y-95750000D03*
X205612500Y-95750000D03*
%TD*%
D20*
%TO.C,C23*%
X194564000Y-91235400D03*
X194564000Y-87885400D03*
%TD*%
D18*
%TO.C,C24*%
X188061600Y-84399100D03*
X188061600Y-88524100D03*
%TD*%
D11*
%TO.C,C25*%
X203680300Y-77774800D03*
X201805300Y-77774800D03*
%TD*%
D15*
%TO.C,C26*%
X198678800Y-87122000D03*
X198678800Y-88997000D03*
%TD*%
D14*
%TO.C,C27*%
X255117600Y-123545600D03*
X255117600Y-121670600D03*
%TD*%
%TO.C,C28*%
X246761000Y-105585500D03*
X246761000Y-103710500D03*
%TD*%
D15*
%TO.C,C29*%
X246761000Y-99519500D03*
X246761000Y-101394500D03*
%TD*%
D11*
%TO.C,C30*%
X265656300Y-104698800D03*
X263781300Y-104698800D03*
%TD*%
D15*
%TO.C,C32*%
X116299638Y-114245379D03*
X116299638Y-116120379D03*
%TD*%
%TO.C,C33*%
X113962838Y-114194580D03*
X113962838Y-116069580D03*
%TD*%
D14*
%TO.C,C42*%
X158023372Y-101659313D03*
X158023372Y-99784313D03*
%TD*%
%TO.C,C35*%
X114216838Y-101356046D03*
X114216838Y-99481046D03*
%TD*%
D15*
%TO.C,C36*%
X121688438Y-106121180D03*
X121688438Y-107996180D03*
%TD*%
D11*
%TO.C,C37*%
X166663438Y-108296180D03*
X164788438Y-108296180D03*
%TD*%
D15*
%TO.C,C38*%
X158124972Y-114296180D03*
X158124972Y-116171180D03*
%TD*%
%TO.C,C40*%
X160478705Y-114351578D03*
X160478705Y-116226578D03*
%TD*%
D14*
%TO.C,C41*%
X160580305Y-101676246D03*
X160580305Y-99801246D03*
%TD*%
%TO.C,C34*%
X119195238Y-101374512D03*
X119195238Y-99499512D03*
%TD*%
D22*
%TO.C,C46*%
X171064338Y-145830280D03*
X172939338Y-145830280D03*
%TD*%
D15*
%TO.C,C44*%
X236829600Y-78475600D03*
X236829600Y-80350600D03*
%TD*%
D14*
%TO.C,C45*%
X236639100Y-88288100D03*
X236639100Y-86413100D03*
%TD*%
%TO.C,C47*%
X256514600Y-88288100D03*
X256514600Y-86413100D03*
%TD*%
D15*
%TO.C,C48*%
X256578100Y-78475600D03*
X256578100Y-80350600D03*
%TD*%
D22*
%TO.C,D3*%
X194007500Y-129794000D03*
X195882500Y-129794000D03*
%TD*%
D23*
%TO.C,D1*%
X237909100Y-147104100D03*
X233609100Y-147104100D03*
%TD*%
D24*
%TO.C,D2*%
X207937100Y-155277600D03*
X207937100Y-150977600D03*
%TD*%
D25*
%TO.C,IC1*%
X202175000Y-120250000D03*
X202175000Y-121200000D03*
X202175000Y-122150000D03*
X204875000Y-122150000D03*
X204875000Y-120250000D03*
%TD*%
D26*
%TO.C,J6*%
X134730589Y-94591180D03*
X139780589Y-94591180D03*
X134730589Y-97131180D03*
X139780589Y-97131180D03*
X134730589Y-99671180D03*
X139780589Y-99671180D03*
X134730589Y-102211180D03*
X139780589Y-102211180D03*
X134730589Y-104751180D03*
X139780589Y-104751180D03*
%TD*%
D27*
%TO.C,J10*%
X233078100Y-94595000D03*
X228038100Y-94595000D03*
X233078100Y-97135000D03*
X228038100Y-97135000D03*
X233078100Y-99675000D03*
X228038100Y-99675000D03*
X233078100Y-102215000D03*
X228038100Y-102215000D03*
X233078100Y-104755000D03*
X228038100Y-104755000D03*
%TD*%
D11*
%TO.C,L4*%
X229654100Y-148882100D03*
X227779100Y-148882100D03*
%TD*%
D14*
%TO.C,L5*%
X213715600Y-154313100D03*
X213715600Y-152438100D03*
%TD*%
D22*
%TO.C,L7*%
X137200938Y-57546180D03*
X139075938Y-57546180D03*
%TD*%
D15*
%TO.C,L8*%
X171811338Y-149733780D03*
X171811338Y-151608780D03*
%TD*%
D14*
%TO.C,L9*%
X178605838Y-151642280D03*
X178605838Y-149767280D03*
%TD*%
D15*
%TO.C,L10*%
X167760038Y-155037780D03*
X167760038Y-156912780D03*
%TD*%
D22*
%TO.C,L11*%
X162375238Y-151532580D03*
X164250238Y-151532580D03*
%TD*%
D28*
%TO.C,Q1*%
X165488438Y-140121180D03*
X165488438Y-138221180D03*
X163488438Y-139171180D03*
%TD*%
D22*
%TO.C,R1*%
X203430900Y-127812800D03*
X205305900Y-127812800D03*
%TD*%
D15*
%TO.C,R3*%
X194221100Y-111290100D03*
X194221100Y-113165100D03*
%TD*%
D14*
%TO.C,R4*%
X196824600Y-113131600D03*
X196824600Y-111256600D03*
%TD*%
D15*
%TO.C,R2*%
X249986800Y-123065300D03*
X249986800Y-124940300D03*
%TD*%
D22*
%TO.C,R8*%
X242775500Y-97409000D03*
X244650500Y-97409000D03*
%TD*%
%TO.C,R10*%
X248871500Y-97409000D03*
X250746500Y-97409000D03*
%TD*%
D15*
%TO.C,R11*%
X126273372Y-118286280D03*
X126273372Y-120161280D03*
%TD*%
%TO.C,R12*%
X130988438Y-137708680D03*
X130988438Y-139583680D03*
%TD*%
%TO.C,R13*%
X104310838Y-118286280D03*
X104310838Y-120161280D03*
%TD*%
%TO.C,R14*%
X142088438Y-138046180D03*
X142088438Y-139921180D03*
%TD*%
%TO.C,R28*%
X148238438Y-97596180D03*
X148238438Y-99471180D03*
%TD*%
%TO.C,R29*%
X145204838Y-151799280D03*
X145204838Y-153674280D03*
%TD*%
%TO.C,R17*%
X104310838Y-98046180D03*
X104310838Y-99921180D03*
%TD*%
%TO.C,R18*%
X122916338Y-151799280D03*
X122916338Y-153674280D03*
%TD*%
%TO.C,R19*%
X118636438Y-114228446D03*
X118636438Y-116103446D03*
%TD*%
%TO.C,R20*%
X111626038Y-114211513D03*
X111626038Y-116086513D03*
%TD*%
D14*
%TO.C,R34*%
X155466438Y-101642380D03*
X155466438Y-99767380D03*
%TD*%
%TO.C,R22*%
X111727638Y-101337580D03*
X111727638Y-99462580D03*
%TD*%
D15*
%TO.C,R23*%
X148235905Y-118286280D03*
X148235905Y-120161280D03*
%TD*%
%TO.C,R24*%
X111994338Y-151799280D03*
X111994338Y-153674280D03*
%TD*%
%TO.C,R25*%
X170198438Y-118286280D03*
X170198438Y-120161280D03*
%TD*%
%TO.C,R26*%
X170413438Y-97621180D03*
X170413438Y-99496180D03*
%TD*%
%TO.C,R27*%
X156507838Y-151799280D03*
X156507838Y-153674280D03*
%TD*%
%TO.C,R15*%
X126188438Y-97446180D03*
X126188438Y-99321180D03*
%TD*%
%TO.C,R16*%
X134219338Y-151799280D03*
X134219338Y-153674280D03*
%TD*%
%TO.C,R31*%
X155771238Y-114314646D03*
X155771238Y-116189646D03*
%TD*%
%TO.C,R32*%
X162832438Y-114333112D03*
X162832438Y-116208112D03*
%TD*%
D14*
%TO.C,R33*%
X163137238Y-101693179D03*
X163137238Y-99818179D03*
%TD*%
%TO.C,R21*%
X116706038Y-101392978D03*
X116706038Y-99517978D03*
%TD*%
D22*
%TO.C,R30*%
X160463438Y-63846180D03*
X162338438Y-63846180D03*
%TD*%
%TO.C,R35*%
X156438438Y-63846180D03*
X158313438Y-63846180D03*
%TD*%
D14*
%TO.C,R50*%
X167810838Y-150689780D03*
X167810838Y-148814780D03*
%TD*%
%TO.C,R54*%
X98638438Y-140146180D03*
X98638438Y-138271180D03*
%TD*%
%TO.C,R55*%
X98338438Y-153496180D03*
X98338438Y-151621180D03*
%TD*%
D22*
%TO.C,R36*%
X160463438Y-69946180D03*
X162338438Y-69946180D03*
%TD*%
%TO.C,R37*%
X156438438Y-69946180D03*
X158313438Y-69946180D03*
%TD*%
D15*
%TO.C,R42*%
X241020600Y-86413100D03*
X241020600Y-88288100D03*
%TD*%
D11*
%TO.C,R43*%
X233576100Y-83731100D03*
X231701100Y-83731100D03*
%TD*%
D14*
%TO.C,R38*%
X167988438Y-139571180D03*
X167988438Y-137696180D03*
%TD*%
D15*
%TO.C,R48*%
X238988600Y-78475600D03*
X238988600Y-80350600D03*
%TD*%
D14*
%TO.C,R49*%
X238925100Y-88288100D03*
X238925100Y-86413100D03*
%TD*%
%TO.C,R40*%
X161238438Y-136021180D03*
X161238438Y-134146180D03*
%TD*%
%TO.C,R62*%
X254355600Y-88288100D03*
X254355600Y-86413100D03*
%TD*%
D15*
%TO.C,R63*%
X254292100Y-78475600D03*
X254292100Y-80350600D03*
%TD*%
D16*
%TO.C,U9*%
X117898338Y-111730780D03*
X117898338Y-110460780D03*
X117898338Y-109190780D03*
X117898338Y-107920780D03*
X117898338Y-106650780D03*
X117898338Y-105380780D03*
X117898338Y-104110780D03*
X112948338Y-104110780D03*
X112948338Y-105380780D03*
X112948338Y-106650780D03*
X112948338Y-107920780D03*
X112948338Y-109190780D03*
X112948338Y-110460780D03*
X112948338Y-111730780D03*
%TD*%
D29*
%TO.C,U11*%
X244133600Y-79730600D03*
X244133600Y-81000600D03*
X244133600Y-82270600D03*
X244133600Y-83540600D03*
X244133600Y-84810600D03*
X244133600Y-86080600D03*
X244133600Y-87350600D03*
X249083600Y-87350600D03*
X249083600Y-86080600D03*
X249083600Y-84810600D03*
X249083600Y-83540600D03*
X249083600Y-82270600D03*
X249083600Y-81000600D03*
X249083600Y-79730600D03*
%TD*%
D30*
%TO.C,U1*%
X248132600Y-143294100D03*
X251182600Y-139944100D03*
X248132600Y-139944100D03*
X251182600Y-143294100D03*
D31*
X247377600Y-147919100D03*
X251937600Y-147919100D03*
%TD*%
D32*
%TO.C,U2*%
X261390600Y-121372600D03*
D33*
X267690600Y-123672600D03*
D32*
X261390600Y-123672600D03*
X261390600Y-125972600D03*
%TD*%
D34*
%TO.C,U3*%
X191744600Y-126093100D03*
X194284600Y-126093100D03*
X196824600Y-126093100D03*
X199364600Y-126093100D03*
X199364600Y-116553100D03*
X196824600Y-116553100D03*
X194284600Y-116553100D03*
X191744600Y-116553100D03*
%TD*%
D35*
%TO.C,U4*%
X246364800Y-127473200D03*
X244464800Y-127473200D03*
X245414800Y-129473200D03*
%TD*%
D36*
%TO.C,U5*%
X161010438Y-59433180D03*
X157660438Y-59433180D03*
X161010438Y-56383180D03*
X157660438Y-56383180D03*
D37*
X165635438Y-60188180D03*
X165635438Y-55628180D03*
%TD*%
D38*
%TO.C,LEFT1*%
X265499200Y-111738300D03*
X274149200Y-109588300D03*
X265499200Y-107438300D03*
%TD*%
D14*
%TO.C,L6*%
X247650000Y-124940300D03*
X247650000Y-123065300D03*
%TD*%
D15*
%TO.C,R5*%
X129288438Y-84958680D03*
X129288438Y-86833680D03*
%TD*%
D22*
%TO.C,R52*%
X160463438Y-75521180D03*
X162338438Y-75521180D03*
%TD*%
D11*
%TO.C,R53*%
X158313438Y-75521180D03*
X156438438Y-75521180D03*
%TD*%
D39*
%TO.C,SW1*%
X259529600Y-156738100D03*
X252229600Y-156738100D03*
X252229600Y-158948100D03*
X259529600Y-158948100D03*
D40*
X253629600Y-156088100D03*
X256629600Y-156088100D03*
X258129600Y-156088100D03*
%TD*%
D41*
%TO.C,SW2*%
X180957838Y-60745780D03*
X178747838Y-68045780D03*
X180957838Y-68045780D03*
X178747838Y-60745780D03*
D42*
X178097838Y-66645780D03*
X178097838Y-63645780D03*
X178097838Y-62145780D03*
%TD*%
D21*
%TO.C,C10*%
X265755100Y-154838400D03*
X269880100Y-154838400D03*
%TD*%
D11*
%TO.C,L3*%
X232100600Y-158788100D03*
X230225600Y-158788100D03*
%TD*%
D22*
%TO.C,C17*%
X266880100Y-150368000D03*
X268755100Y-150368000D03*
%TD*%
D18*
%TO.C,C5*%
X240172000Y-123126500D03*
X240172000Y-127251500D03*
%TD*%
D26*
%TO.C,J7*%
X134730589Y-109931180D03*
X139780589Y-109931180D03*
X134730589Y-112471180D03*
X139780589Y-112471180D03*
X134730589Y-115011180D03*
X139780589Y-115011180D03*
X134730589Y-117551180D03*
X139780589Y-117551180D03*
X134730589Y-120091180D03*
X139780589Y-120091180D03*
X134730589Y-122631180D03*
X139780589Y-122631180D03*
X134730589Y-125171180D03*
X139780589Y-125171180D03*
X134730589Y-127711180D03*
X139780589Y-127711180D03*
%TD*%
D27*
%TO.C,J8*%
X233078100Y-109935000D03*
X228038100Y-109935000D03*
X233078100Y-112475000D03*
X228038100Y-112475000D03*
X233078100Y-115015000D03*
X228038100Y-115015000D03*
X233078100Y-117555000D03*
X228038100Y-117555000D03*
X233078100Y-120095000D03*
X228038100Y-120095000D03*
X233078100Y-122635000D03*
X228038100Y-122635000D03*
X233078100Y-125175000D03*
X228038100Y-125175000D03*
X233078100Y-127715000D03*
X228038100Y-127715000D03*
%TD*%
D26*
%TO.C,J5*%
X100338838Y-80107780D03*
X95288838Y-80107780D03*
X100338838Y-77567780D03*
X95288838Y-77567780D03*
X100338838Y-75027780D03*
X95288838Y-75027780D03*
X100338838Y-72487780D03*
X95288838Y-72487780D03*
X100338838Y-69947780D03*
X95288838Y-69947780D03*
X100338838Y-67407780D03*
X95288838Y-67407780D03*
X100338838Y-64867780D03*
X95288838Y-64867780D03*
X100338838Y-62327780D03*
X95288838Y-62327780D03*
X100338838Y-59787780D03*
X95288838Y-59787780D03*
%TD*%
D27*
%TO.C,J9*%
X267476600Y-80111600D03*
X272516600Y-80111600D03*
X267476600Y-77571600D03*
X272516600Y-77571600D03*
X267476600Y-75031600D03*
X272516600Y-75031600D03*
X267476600Y-72491600D03*
X272516600Y-72491600D03*
X267476600Y-69951600D03*
X272516600Y-69951600D03*
X267476600Y-67411600D03*
X272516600Y-67411600D03*
X267476600Y-64871600D03*
X272516600Y-64871600D03*
X267476600Y-62331600D03*
X272516600Y-62331600D03*
X267476600Y-59791600D03*
X272516600Y-59791600D03*
%TD*%
D14*
%TO.C,R41*%
X161213438Y-140096180D03*
X161213438Y-138221180D03*
%TD*%
%TO.C,R51*%
X160394038Y-150613580D03*
X160394038Y-148738580D03*
%TD*%
%TO.C,C3*%
X191681100Y-113131600D03*
X191681100Y-111256600D03*
%TD*%
D22*
%TO.C,R7*%
X242775500Y-107442000D03*
X244650500Y-107442000D03*
%TD*%
%TO.C,R9*%
X248871500Y-107442000D03*
X250746500Y-107442000D03*
%TD*%
D38*
%TO.C,RIGHT1*%
X265499200Y-90173700D03*
X274149200Y-88023700D03*
X265499200Y-85873700D03*
%TD*%
D22*
%TO.C,C31*%
X268721600Y-93332300D03*
X270596600Y-93332300D03*
%TD*%
D14*
%TO.C,R60*%
X252006100Y-80350600D03*
X252006100Y-78475600D03*
%TD*%
D22*
%TO.C,C39*%
X148963438Y-79746180D03*
X150838438Y-79746180D03*
%TD*%
D11*
%TO.C,C43*%
X147188438Y-79746180D03*
X145313438Y-79746180D03*
%TD*%
D22*
%TO.C,C51*%
X127063438Y-79496180D03*
X128938438Y-79496180D03*
%TD*%
D11*
%TO.C,C52*%
X125163438Y-79496180D03*
X123288438Y-79496180D03*
%TD*%
D14*
%TO.C,R82*%
X151688438Y-75696180D03*
X151688438Y-73821180D03*
%TD*%
%TO.C,R83*%
X149488438Y-75696180D03*
X149488438Y-73821180D03*
%TD*%
%TO.C,R84*%
X147288438Y-75696180D03*
X147288438Y-73821180D03*
%TD*%
D15*
%TO.C,R85*%
X145088438Y-73821180D03*
X145088438Y-75696180D03*
%TD*%
D14*
%TO.C,R86*%
X129588438Y-75946180D03*
X129588438Y-74071180D03*
%TD*%
%TO.C,R87*%
X127338438Y-75946180D03*
X127338438Y-74071180D03*
%TD*%
%TO.C,R88*%
X125088438Y-75946180D03*
X125088438Y-74071180D03*
%TD*%
D15*
%TO.C,R89*%
X122838438Y-74071180D03*
X122838438Y-75946180D03*
%TD*%
D22*
%TO.C,R64*%
X160463438Y-81046180D03*
X162338438Y-81046180D03*
%TD*%
D11*
%TO.C,R65*%
X158313438Y-81046180D03*
X156438438Y-81046180D03*
%TD*%
D14*
%TO.C,R66*%
X106463438Y-128596180D03*
X106463438Y-126721180D03*
%TD*%
D15*
%TO.C,R67*%
X109113438Y-138083680D03*
X109113438Y-139958680D03*
%TD*%
D14*
%TO.C,R68*%
X122863438Y-128583680D03*
X122863438Y-126708680D03*
%TD*%
D15*
%TO.C,R69*%
X120100938Y-137933680D03*
X120100938Y-139808680D03*
%TD*%
%TO.C,R70*%
X110763438Y-126721180D03*
X110763438Y-128596180D03*
%TD*%
%TO.C,R71*%
X118588438Y-126708680D03*
X118588438Y-128583680D03*
%TD*%
D11*
%TO.C,R72*%
X114263438Y-64571180D03*
X112388438Y-64571180D03*
%TD*%
%TO.C,R73*%
X118363438Y-64571180D03*
X116488438Y-64571180D03*
%TD*%
%TO.C,R74*%
X114263438Y-69946180D03*
X112388438Y-69946180D03*
%TD*%
%TO.C,R75*%
X118363438Y-69946180D03*
X116488438Y-69946180D03*
%TD*%
%TO.C,R76*%
X114263438Y-75521180D03*
X112388438Y-75521180D03*
%TD*%
%TO.C,R77*%
X118363438Y-75521180D03*
X116488438Y-75521180D03*
%TD*%
%TO.C,R78*%
X114263438Y-81046180D03*
X112388438Y-81046180D03*
%TD*%
%TO.C,R79*%
X118363438Y-81046180D03*
X116488438Y-81046180D03*
%TD*%
D43*
%TO.C,U12*%
X135474639Y-84346180D03*
X133574639Y-82646180D03*
X139274639Y-82646180D03*
X139274639Y-84346180D03*
X137374639Y-84346180D03*
X141174639Y-84346180D03*
X133574639Y-84346180D03*
X135474639Y-82646180D03*
X137374639Y-82646180D03*
X141174639Y-82646180D03*
D44*
X133149639Y-86346180D03*
X133799639Y-86346180D03*
X134449639Y-86346180D03*
X135099639Y-86346180D03*
X135749639Y-86346180D03*
X136399639Y-86346180D03*
X137049639Y-86346180D03*
X137699639Y-86346180D03*
X138349639Y-86346180D03*
X138999639Y-86346180D03*
X139649639Y-86346180D03*
X140299639Y-86346180D03*
X140949639Y-86346180D03*
X141599639Y-86346180D03*
X141599639Y-80646180D03*
X140949639Y-80646180D03*
X140299639Y-80646180D03*
X139649639Y-80646180D03*
X138999639Y-80646180D03*
X138349639Y-80646180D03*
X137699639Y-80646180D03*
X137049639Y-80646180D03*
X136399639Y-80646180D03*
X135749639Y-80646180D03*
X135099639Y-80646180D03*
X134449639Y-80646180D03*
X133799639Y-80646180D03*
X133149639Y-80646180D03*
%TD*%
D14*
%TO.C,C11*%
X114188438Y-135396180D03*
X114188438Y-133521180D03*
%TD*%
D11*
%TO.C,C12*%
X147038438Y-133371180D03*
X145163438Y-133371180D03*
%TD*%
D14*
%TO.C,R39*%
X146413438Y-139571180D03*
X146413438Y-137696180D03*
%TD*%
D22*
%TO.C,R80*%
X148338438Y-141771180D03*
X150213438Y-141771180D03*
%TD*%
D11*
%TO.C,R81*%
X155213438Y-139571180D03*
X153338438Y-139571180D03*
%TD*%
D45*
%TO.C,U13*%
X113863438Y-126866180D03*
X115463438Y-126866180D03*
X113863438Y-128126180D03*
X115463438Y-128126180D03*
D46*
X116568438Y-124858680D03*
X115298438Y-124858680D03*
X114028438Y-124858680D03*
X112758438Y-124858680D03*
X112758438Y-130133680D03*
X114028438Y-130133680D03*
X115298438Y-130133680D03*
X116568438Y-130133680D03*
%TD*%
D47*
%TO.C,U14*%
X150863438Y-139596180D03*
X150863438Y-138646180D03*
X150863438Y-137696180D03*
X148663438Y-137696180D03*
X148663438Y-139596180D03*
%TD*%
D48*
%TO.C,J1*%
X217322400Y-152196800D03*
X217322400Y-154736800D03*
X219862400Y-152196800D03*
X219862400Y-154736800D03*
X222402400Y-152196800D03*
X222402400Y-154736800D03*
X224942400Y-152196800D03*
X224942400Y-154736800D03*
X227482400Y-152196800D03*
X227482400Y-154736800D03*
X230022400Y-152196800D03*
X230022400Y-154736800D03*
X232562400Y-152196800D03*
X232562400Y-154736800D03*
X235102400Y-152196800D03*
X235102400Y-154736800D03*
%TD*%
M02*
