%TF.GenerationSoftware,KiCad,Pcbnew,6.0.7-1.fc36*%
%TF.CreationDate,2022-09-03T22:34:53+00:00*%
%TF.ProjectId,fjol-top,666a6f6c-2d74-46f7-902e-6b696361645f,rev?*%
%TF.SameCoordinates,Original*%
%TF.FileFunction,Legend,Bot*%
%TF.FilePolarity,Positive*%
%FSLAX46Y46*%
G04 Gerber Fmt 4.6, Leading zero omitted, Abs format (unit mm)*
G04 Created by KiCad (PCBNEW 6.0.7-1.fc36) date 2022-09-03 22:34:53*
%MOMM*%
%LPD*%
G01*
G04 APERTURE LIST*
%ADD10C,0.300000*%
%ADD11C,0.077216*%
%ADD12C,0.096520*%
%ADD13C,0.081076*%
%ADD14C,0.150000*%
%ADD15C,0.127000*%
%ADD16C,0.101600*%
%ADD17C,0.203200*%
%ADD18C,0.050800*%
%ADD19C,0.120000*%
G04 APERTURE END LIST*
D10*
X182002209Y-59277265D02*
X181287923Y-58777265D01*
X182002209Y-58420122D02*
X180502209Y-58420122D01*
X180502209Y-58991551D01*
X180573638Y-59134408D01*
X180645066Y-59205837D01*
X180787923Y-59277265D01*
X181002209Y-59277265D01*
X181145066Y-59205837D01*
X181216495Y-59134408D01*
X181287923Y-58991551D01*
X181287923Y-58420122D01*
X181216495Y-59920122D02*
X181216495Y-60420122D01*
X182002209Y-60634408D02*
X182002209Y-59920122D01*
X180502209Y-59920122D01*
X180502209Y-60634408D01*
X180573638Y-62062980D02*
X180502209Y-61920122D01*
X180502209Y-61705837D01*
X180573638Y-61491551D01*
X180716495Y-61348694D01*
X180859352Y-61277265D01*
X181145066Y-61205837D01*
X181359352Y-61205837D01*
X181645066Y-61277265D01*
X181787923Y-61348694D01*
X181930780Y-61491551D01*
X182002209Y-61705837D01*
X182002209Y-61848694D01*
X181930780Y-62062980D01*
X181859352Y-62134408D01*
X181359352Y-62134408D01*
X181359352Y-61848694D01*
X181430780Y-63920122D02*
X181430780Y-65062980D01*
X182002209Y-66920122D02*
X180502209Y-66920122D01*
X180502209Y-67491551D01*
X180573638Y-67634408D01*
X180645066Y-67705837D01*
X180787923Y-67777265D01*
X181002209Y-67777265D01*
X181145066Y-67705837D01*
X181216495Y-67634408D01*
X181287923Y-67491551D01*
X181287923Y-66920122D01*
X181930780Y-68348694D02*
X182002209Y-68562980D01*
X182002209Y-68920122D01*
X181930780Y-69062980D01*
X181859352Y-69134408D01*
X181716495Y-69205837D01*
X181573638Y-69205837D01*
X181430780Y-69134408D01*
X181359352Y-69062980D01*
X181287923Y-68920122D01*
X181216495Y-68634408D01*
X181145066Y-68491551D01*
X181073638Y-68420122D01*
X180930780Y-68348694D01*
X180787923Y-68348694D01*
X180645066Y-68420122D01*
X180573638Y-68491551D01*
X180502209Y-68634408D01*
X180502209Y-68991551D01*
X180573638Y-69205837D01*
X180502209Y-69848694D02*
X181716495Y-69848694D01*
X181859352Y-69920122D01*
X181930780Y-69991551D01*
X182002209Y-70134408D01*
X182002209Y-70420122D01*
X181930780Y-70562980D01*
X181859352Y-70634408D01*
X181716495Y-70705837D01*
X180502209Y-70705837D01*
D11*
%TO.C,CV-RAT1*%
X137472634Y-143992675D02*
X137518596Y-143946713D01*
X137564558Y-143808827D01*
X137564558Y-143716903D01*
X137518596Y-143579018D01*
X137426672Y-143487094D01*
X137334748Y-143441132D01*
X137150900Y-143395170D01*
X137013015Y-143395170D01*
X136829167Y-143441132D01*
X136737243Y-143487094D01*
X136645320Y-143579018D01*
X136599358Y-143716903D01*
X136599358Y-143808827D01*
X136645320Y-143946713D01*
X136691281Y-143992675D01*
X136599358Y-144268446D02*
X137564558Y-144590180D01*
X136599358Y-144911913D01*
X137196862Y-145233646D02*
X137196862Y-145969037D01*
X137564558Y-146980199D02*
X137104939Y-146658465D01*
X137564558Y-146428656D02*
X136599358Y-146428656D01*
X136599358Y-146796351D01*
X136645320Y-146888275D01*
X136691281Y-146934237D01*
X136783205Y-146980199D01*
X136921091Y-146980199D01*
X137013015Y-146934237D01*
X137058977Y-146888275D01*
X137104939Y-146796351D01*
X137104939Y-146428656D01*
X137288786Y-147347894D02*
X137288786Y-147807513D01*
X137564558Y-147255970D02*
X136599358Y-147577703D01*
X137564558Y-147899437D01*
X136599358Y-148083284D02*
X136599358Y-148634827D01*
X137564558Y-148359056D02*
X136599358Y-148359056D01*
X137564558Y-149462141D02*
X137564558Y-148910599D01*
X137564558Y-149186370D02*
X136599358Y-149186370D01*
X136737243Y-149094446D01*
X136829167Y-149002522D01*
X136875129Y-148910599D01*
%TO.C,CV-REL1*%
X104781154Y-143950751D02*
X104827116Y-143904789D01*
X104873078Y-143766903D01*
X104873078Y-143674980D01*
X104827116Y-143537094D01*
X104735192Y-143445170D01*
X104643268Y-143399208D01*
X104459420Y-143353246D01*
X104321535Y-143353246D01*
X104137687Y-143399208D01*
X104045763Y-143445170D01*
X103953840Y-143537094D01*
X103907878Y-143674980D01*
X103907878Y-143766903D01*
X103953840Y-143904789D01*
X103999801Y-143950751D01*
X103907878Y-144226522D02*
X104873078Y-144548256D01*
X103907878Y-144869989D01*
X104505382Y-145191722D02*
X104505382Y-145927113D01*
X104873078Y-146938275D02*
X104413459Y-146616541D01*
X104873078Y-146386732D02*
X103907878Y-146386732D01*
X103907878Y-146754427D01*
X103953840Y-146846351D01*
X103999801Y-146892313D01*
X104091725Y-146938275D01*
X104229611Y-146938275D01*
X104321535Y-146892313D01*
X104367497Y-146846351D01*
X104413459Y-146754427D01*
X104413459Y-146386732D01*
X104367497Y-147351932D02*
X104367497Y-147673665D01*
X104873078Y-147811551D02*
X104873078Y-147351932D01*
X103907878Y-147351932D01*
X103907878Y-147811551D01*
X104873078Y-148684827D02*
X104873078Y-148225208D01*
X103907878Y-148225208D01*
X104873078Y-149512141D02*
X104873078Y-148960599D01*
X104873078Y-149236370D02*
X103907878Y-149236370D01*
X104045763Y-149144446D01*
X104137687Y-149052522D01*
X104183649Y-148960599D01*
%TO.C,CV-PM1*%
X148511594Y-145052294D02*
X148557556Y-145006332D01*
X148603518Y-144868446D01*
X148603518Y-144776522D01*
X148557556Y-144638637D01*
X148465632Y-144546713D01*
X148373708Y-144500751D01*
X148189860Y-144454789D01*
X148051975Y-144454789D01*
X147868127Y-144500751D01*
X147776203Y-144546713D01*
X147684280Y-144638637D01*
X147638318Y-144776522D01*
X147638318Y-144868446D01*
X147684280Y-145006332D01*
X147730241Y-145052294D01*
X147638318Y-145328065D02*
X148603518Y-145649799D01*
X147638318Y-145971532D01*
X148235822Y-146293265D02*
X148235822Y-147028656D01*
X148603518Y-147488275D02*
X147638318Y-147488275D01*
X147638318Y-147855970D01*
X147684280Y-147947894D01*
X147730241Y-147993856D01*
X147822165Y-148039818D01*
X147960051Y-148039818D01*
X148051975Y-147993856D01*
X148097937Y-147947894D01*
X148143899Y-147855970D01*
X148143899Y-147488275D01*
X148603518Y-148453475D02*
X147638318Y-148453475D01*
X148327746Y-148775208D01*
X147638318Y-149096941D01*
X148603518Y-149096941D01*
X148603518Y-150062141D02*
X148603518Y-149510599D01*
X148603518Y-149786370D02*
X147638318Y-149786370D01*
X147776203Y-149694446D01*
X147868127Y-149602522D01*
X147914089Y-149510599D01*
%TO.C,CV-RAT2*%
X115895514Y-144167675D02*
X115941476Y-144121713D01*
X115987438Y-143983827D01*
X115987438Y-143891903D01*
X115941476Y-143754018D01*
X115849552Y-143662094D01*
X115757628Y-143616132D01*
X115573780Y-143570170D01*
X115435895Y-143570170D01*
X115252047Y-143616132D01*
X115160123Y-143662094D01*
X115068200Y-143754018D01*
X115022238Y-143891903D01*
X115022238Y-143983827D01*
X115068200Y-144121713D01*
X115114161Y-144167675D01*
X115022238Y-144443446D02*
X115987438Y-144765180D01*
X115022238Y-145086913D01*
X115619742Y-145408646D02*
X115619742Y-146144037D01*
X115987438Y-147155199D02*
X115527819Y-146833465D01*
X115987438Y-146603656D02*
X115022238Y-146603656D01*
X115022238Y-146971351D01*
X115068200Y-147063275D01*
X115114161Y-147109237D01*
X115206085Y-147155199D01*
X115343971Y-147155199D01*
X115435895Y-147109237D01*
X115481857Y-147063275D01*
X115527819Y-146971351D01*
X115527819Y-146603656D01*
X115711666Y-147522894D02*
X115711666Y-147982513D01*
X115987438Y-147430970D02*
X115022238Y-147752703D01*
X115987438Y-148074437D01*
X115022238Y-148258284D02*
X115022238Y-148809827D01*
X115987438Y-148534056D02*
X115022238Y-148534056D01*
X115114161Y-149085599D02*
X115068200Y-149131561D01*
X115022238Y-149223484D01*
X115022238Y-149453294D01*
X115068200Y-149545218D01*
X115114161Y-149591180D01*
X115206085Y-149637141D01*
X115298009Y-149637141D01*
X115435895Y-149591180D01*
X115987438Y-149039637D01*
X115987438Y-149637141D01*
%TO.C,CV-PM2*%
X126509074Y-144677294D02*
X126555036Y-144631332D01*
X126600998Y-144493446D01*
X126600998Y-144401522D01*
X126555036Y-144263637D01*
X126463112Y-144171713D01*
X126371188Y-144125751D01*
X126187340Y-144079789D01*
X126049455Y-144079789D01*
X125865607Y-144125751D01*
X125773683Y-144171713D01*
X125681760Y-144263637D01*
X125635798Y-144401522D01*
X125635798Y-144493446D01*
X125681760Y-144631332D01*
X125727721Y-144677294D01*
X125635798Y-144953065D02*
X126600998Y-145274799D01*
X125635798Y-145596532D01*
X126233302Y-145918265D02*
X126233302Y-146653656D01*
X126600998Y-147113275D02*
X125635798Y-147113275D01*
X125635798Y-147480970D01*
X125681760Y-147572894D01*
X125727721Y-147618856D01*
X125819645Y-147664818D01*
X125957531Y-147664818D01*
X126049455Y-147618856D01*
X126095417Y-147572894D01*
X126141379Y-147480970D01*
X126141379Y-147113275D01*
X126600998Y-148078475D02*
X125635798Y-148078475D01*
X126325226Y-148400208D01*
X125635798Y-148721941D01*
X126600998Y-148721941D01*
X125727721Y-149135599D02*
X125681760Y-149181561D01*
X125635798Y-149273484D01*
X125635798Y-149503294D01*
X125681760Y-149595218D01*
X125727721Y-149641180D01*
X125819645Y-149687141D01*
X125911569Y-149687141D01*
X126049455Y-149641180D01*
X126600998Y-149089637D01*
X126600998Y-149687141D01*
%TO.C,LEFT-OUT1*%
X94092476Y-143360798D02*
X94092476Y-142901179D01*
X93127276Y-142901179D01*
X93586895Y-143682532D02*
X93586895Y-144004265D01*
X94092476Y-144142151D02*
X94092476Y-143682532D01*
X93127276Y-143682532D01*
X93127276Y-144142151D01*
X93586895Y-144877541D02*
X93586895Y-144555808D01*
X94092476Y-144555808D02*
X93127276Y-144555808D01*
X93127276Y-145015427D01*
X93127276Y-145245237D02*
X93127276Y-145796779D01*
X94092476Y-145521008D02*
X93127276Y-145521008D01*
X93724780Y-146118513D02*
X93724780Y-146853903D01*
X93127276Y-147497370D02*
X93127276Y-147681218D01*
X93173238Y-147773141D01*
X93265161Y-147865065D01*
X93449009Y-147911027D01*
X93770742Y-147911027D01*
X93954590Y-147865065D01*
X94046514Y-147773141D01*
X94092476Y-147681218D01*
X94092476Y-147497370D01*
X94046514Y-147405446D01*
X93954590Y-147313522D01*
X93770742Y-147267560D01*
X93449009Y-147267560D01*
X93265161Y-147313522D01*
X93173238Y-147405446D01*
X93127276Y-147497370D01*
X93127276Y-148324684D02*
X93908628Y-148324684D01*
X94000552Y-148370646D01*
X94046514Y-148416608D01*
X94092476Y-148508532D01*
X94092476Y-148692379D01*
X94046514Y-148784303D01*
X94000552Y-148830265D01*
X93908628Y-148876227D01*
X93127276Y-148876227D01*
X93127276Y-149197960D02*
X93127276Y-149749503D01*
X94092476Y-149473732D02*
X93127276Y-149473732D01*
X94092476Y-150576818D02*
X94092476Y-150025275D01*
X94092476Y-150301046D02*
X93127276Y-150301046D01*
X93265161Y-150209122D01*
X93357085Y-150117198D01*
X93403047Y-150025275D01*
%TO.C,GATE-OUT1*%
X159448240Y-126533237D02*
X159402278Y-126441313D01*
X159402278Y-126303427D01*
X159448240Y-126165541D01*
X159540163Y-126073618D01*
X159632087Y-126027656D01*
X159815935Y-125981694D01*
X159953820Y-125981694D01*
X160137668Y-126027656D01*
X160229592Y-126073618D01*
X160321516Y-126165541D01*
X160367478Y-126303427D01*
X160367478Y-126395351D01*
X160321516Y-126533237D01*
X160275554Y-126579199D01*
X159953820Y-126579199D01*
X159953820Y-126395351D01*
X160091706Y-126946894D02*
X160091706Y-127406513D01*
X160367478Y-126854970D02*
X159402278Y-127176703D01*
X160367478Y-127498437D01*
X159402278Y-127682284D02*
X159402278Y-128233827D01*
X160367478Y-127958056D02*
X159402278Y-127958056D01*
X159861897Y-128555561D02*
X159861897Y-128877294D01*
X160367478Y-129015180D02*
X160367478Y-128555561D01*
X159402278Y-128555561D01*
X159402278Y-129015180D01*
X159999782Y-129428837D02*
X159999782Y-130164227D01*
X159402278Y-130807694D02*
X159402278Y-130991541D01*
X159448240Y-131083465D01*
X159540163Y-131175389D01*
X159724011Y-131221351D01*
X160045744Y-131221351D01*
X160229592Y-131175389D01*
X160321516Y-131083465D01*
X160367478Y-130991541D01*
X160367478Y-130807694D01*
X160321516Y-130715770D01*
X160229592Y-130623846D01*
X160045744Y-130577884D01*
X159724011Y-130577884D01*
X159540163Y-130623846D01*
X159448240Y-130715770D01*
X159402278Y-130807694D01*
X159402278Y-131635008D02*
X160183630Y-131635008D01*
X160275554Y-131680970D01*
X160321516Y-131726932D01*
X160367478Y-131818856D01*
X160367478Y-132002703D01*
X160321516Y-132094627D01*
X160275554Y-132140589D01*
X160183630Y-132186551D01*
X159402278Y-132186551D01*
X159402278Y-132508284D02*
X159402278Y-133059827D01*
X160367478Y-132784056D02*
X159402278Y-132784056D01*
X160367478Y-133887141D02*
X160367478Y-133335599D01*
X160367478Y-133611370D02*
X159402278Y-133611370D01*
X159540163Y-133519446D01*
X159632087Y-133427522D01*
X159678049Y-133335599D01*
%TO.C,RIGHT-OUT1*%
X94042476Y-140543808D02*
X93582857Y-140222075D01*
X94042476Y-139992265D02*
X93077276Y-139992265D01*
X93077276Y-140359961D01*
X93123238Y-140451884D01*
X93169199Y-140497846D01*
X93261123Y-140543808D01*
X93399009Y-140543808D01*
X93490933Y-140497846D01*
X93536895Y-140451884D01*
X93582857Y-140359961D01*
X93582857Y-139992265D01*
X94042476Y-140957465D02*
X93077276Y-140957465D01*
X93123238Y-141922665D02*
X93077276Y-141830741D01*
X93077276Y-141692856D01*
X93123238Y-141554970D01*
X93215161Y-141463046D01*
X93307085Y-141417084D01*
X93490933Y-141371122D01*
X93628818Y-141371122D01*
X93812666Y-141417084D01*
X93904590Y-141463046D01*
X93996514Y-141554970D01*
X94042476Y-141692856D01*
X94042476Y-141784780D01*
X93996514Y-141922665D01*
X93950552Y-141968627D01*
X93628818Y-141968627D01*
X93628818Y-141784780D01*
X94042476Y-142382284D02*
X93077276Y-142382284D01*
X93536895Y-142382284D02*
X93536895Y-142933827D01*
X94042476Y-142933827D02*
X93077276Y-142933827D01*
X93077276Y-143255561D02*
X93077276Y-143807103D01*
X94042476Y-143531332D02*
X93077276Y-143531332D01*
X93674780Y-144128837D02*
X93674780Y-144864227D01*
X93077276Y-145507694D02*
X93077276Y-145691541D01*
X93123238Y-145783465D01*
X93215161Y-145875389D01*
X93399009Y-145921351D01*
X93720742Y-145921351D01*
X93904590Y-145875389D01*
X93996514Y-145783465D01*
X94042476Y-145691541D01*
X94042476Y-145507694D01*
X93996514Y-145415770D01*
X93904590Y-145323846D01*
X93720742Y-145277884D01*
X93399009Y-145277884D01*
X93215161Y-145323846D01*
X93123238Y-145415770D01*
X93077276Y-145507694D01*
X93077276Y-146335008D02*
X93858628Y-146335008D01*
X93950552Y-146380970D01*
X93996514Y-146426932D01*
X94042476Y-146518856D01*
X94042476Y-146702703D01*
X93996514Y-146794627D01*
X93950552Y-146840589D01*
X93858628Y-146886551D01*
X93077276Y-146886551D01*
X93077276Y-147208284D02*
X93077276Y-147759827D01*
X94042476Y-147484056D02*
X93077276Y-147484056D01*
X94042476Y-148587141D02*
X94042476Y-148035599D01*
X94042476Y-148311370D02*
X93077276Y-148311370D01*
X93215161Y-148219446D01*
X93307085Y-148127522D01*
X93353047Y-148035599D01*
D12*
%TO.C,X1*%
X166658885Y-51964303D02*
X167865385Y-52768637D01*
X166658885Y-52768637D02*
X167865385Y-51964303D01*
X167865385Y-53860232D02*
X167865385Y-53170803D01*
X167865385Y-53515518D02*
X166658885Y-53515518D01*
X166831242Y-53400613D01*
X166946147Y-53285708D01*
X167003599Y-53170803D01*
D11*
%TO.C,CV-CTL2*%
X126734074Y-129688637D02*
X126780036Y-129642675D01*
X126825998Y-129504789D01*
X126825998Y-129412865D01*
X126780036Y-129274980D01*
X126688112Y-129183056D01*
X126596188Y-129137094D01*
X126412340Y-129091132D01*
X126274455Y-129091132D01*
X126090607Y-129137094D01*
X125998683Y-129183056D01*
X125906760Y-129274980D01*
X125860798Y-129412865D01*
X125860798Y-129504789D01*
X125906760Y-129642675D01*
X125952721Y-129688637D01*
X125860798Y-129964408D02*
X126825998Y-130286141D01*
X125860798Y-130607875D01*
X126458302Y-130929608D02*
X126458302Y-131664999D01*
X126734074Y-132676161D02*
X126780036Y-132630199D01*
X126825998Y-132492313D01*
X126825998Y-132400389D01*
X126780036Y-132262503D01*
X126688112Y-132170580D01*
X126596188Y-132124618D01*
X126412340Y-132078656D01*
X126274455Y-132078656D01*
X126090607Y-132124618D01*
X125998683Y-132170580D01*
X125906760Y-132262503D01*
X125860798Y-132400389D01*
X125860798Y-132492313D01*
X125906760Y-132630199D01*
X125952721Y-132676161D01*
X125860798Y-132951932D02*
X125860798Y-133503475D01*
X126825998Y-133227703D02*
X125860798Y-133227703D01*
X126825998Y-134284827D02*
X126825998Y-133825208D01*
X125860798Y-133825208D01*
X125952721Y-134560599D02*
X125906760Y-134606561D01*
X125860798Y-134698484D01*
X125860798Y-134928294D01*
X125906760Y-135020218D01*
X125952721Y-135066180D01*
X126044645Y-135112141D01*
X126136569Y-135112141D01*
X126274455Y-135066180D01*
X126825998Y-134514637D01*
X126825998Y-135112141D01*
%TO.C,cv-cutoff1*%
X137593596Y-126984008D02*
X137639558Y-126892084D01*
X137639558Y-126708237D01*
X137593596Y-126616313D01*
X137547634Y-126570351D01*
X137455710Y-126524389D01*
X137179939Y-126524389D01*
X137088015Y-126570351D01*
X137042053Y-126616313D01*
X136996091Y-126708237D01*
X136996091Y-126892084D01*
X137042053Y-126984008D01*
X136996091Y-127305741D02*
X137639558Y-127535551D01*
X136996091Y-127765361D01*
X137271862Y-128133056D02*
X137271862Y-128868446D01*
X137593596Y-129741722D02*
X137639558Y-129649799D01*
X137639558Y-129465951D01*
X137593596Y-129374027D01*
X137547634Y-129328065D01*
X137455710Y-129282103D01*
X137179939Y-129282103D01*
X137088015Y-129328065D01*
X137042053Y-129374027D01*
X136996091Y-129465951D01*
X136996091Y-129649799D01*
X137042053Y-129741722D01*
X136996091Y-130569037D02*
X137639558Y-130569037D01*
X136996091Y-130155380D02*
X137501672Y-130155380D01*
X137593596Y-130201341D01*
X137639558Y-130293265D01*
X137639558Y-130431151D01*
X137593596Y-130523075D01*
X137547634Y-130569037D01*
X136996091Y-130890770D02*
X136996091Y-131258465D01*
X136674358Y-131028656D02*
X137501672Y-131028656D01*
X137593596Y-131074618D01*
X137639558Y-131166541D01*
X137639558Y-131258465D01*
X137639558Y-131718084D02*
X137593596Y-131626161D01*
X137547634Y-131580199D01*
X137455710Y-131534237D01*
X137179939Y-131534237D01*
X137088015Y-131580199D01*
X137042053Y-131626161D01*
X136996091Y-131718084D01*
X136996091Y-131855970D01*
X137042053Y-131947894D01*
X137088015Y-131993856D01*
X137179939Y-132039818D01*
X137455710Y-132039818D01*
X137547634Y-131993856D01*
X137593596Y-131947894D01*
X137639558Y-131855970D01*
X137639558Y-131718084D01*
X136996091Y-132315589D02*
X136996091Y-132683284D01*
X137639558Y-132453475D02*
X136812243Y-132453475D01*
X136720320Y-132499437D01*
X136674358Y-132591361D01*
X136674358Y-132683284D01*
X136996091Y-132867132D02*
X136996091Y-133234827D01*
X137639558Y-133005018D02*
X136812243Y-133005018D01*
X136720320Y-133050980D01*
X136674358Y-133142903D01*
X136674358Y-133234827D01*
X137639558Y-134062141D02*
X137639558Y-133510599D01*
X137639558Y-133786370D02*
X136674358Y-133786370D01*
X136812243Y-133694446D01*
X136904167Y-133602522D01*
X136950129Y-133510599D01*
D13*
%TO.C,ATTACK1*%
X173470598Y-110059460D02*
X172987998Y-110059460D01*
X173567118Y-110349020D02*
X173229298Y-109335560D01*
X172891478Y-110349020D01*
X172698438Y-109335560D02*
X172119318Y-109335560D01*
X172408878Y-110349020D02*
X172408878Y-109335560D01*
X171926278Y-109335560D02*
X171347158Y-109335560D01*
X171636718Y-110349020D02*
X171636718Y-109335560D01*
X171057598Y-110059460D02*
X170574998Y-110059460D01*
X171154118Y-110349020D02*
X170816298Y-109335560D01*
X170478478Y-110349020D01*
X169561538Y-110252500D02*
X169609798Y-110300760D01*
X169754578Y-110349020D01*
X169851098Y-110349020D01*
X169995878Y-110300760D01*
X170092398Y-110204240D01*
X170140658Y-110107720D01*
X170188918Y-109914680D01*
X170188918Y-109769900D01*
X170140658Y-109576860D01*
X170092398Y-109480340D01*
X169995878Y-109383820D01*
X169851098Y-109335560D01*
X169754578Y-109335560D01*
X169609798Y-109383820D01*
X169561538Y-109432080D01*
X169127198Y-110349020D02*
X169127198Y-109335560D01*
X168548078Y-110349020D02*
X168982418Y-109769900D01*
X168548078Y-109335560D02*
X169127198Y-109914680D01*
X167582878Y-110349020D02*
X168161998Y-110349020D01*
X167872438Y-110349020D02*
X167872438Y-109335560D01*
X167968958Y-109480340D01*
X168065478Y-109576860D01*
X168161998Y-109625120D01*
%TO.C,cutoff1*%
X127775998Y-110427760D02*
X127872518Y-110476020D01*
X128065558Y-110476020D01*
X128162078Y-110427760D01*
X128210338Y-110379500D01*
X128258598Y-110282980D01*
X128258598Y-109993420D01*
X128210338Y-109896900D01*
X128162078Y-109848640D01*
X128065558Y-109800380D01*
X127872518Y-109800380D01*
X127775998Y-109848640D01*
X126907318Y-109800380D02*
X126907318Y-110476020D01*
X127341658Y-109800380D02*
X127341658Y-110331240D01*
X127293398Y-110427760D01*
X127196878Y-110476020D01*
X127052098Y-110476020D01*
X126955578Y-110427760D01*
X126907318Y-110379500D01*
X126569498Y-109800380D02*
X126183418Y-109800380D01*
X126424718Y-109462560D02*
X126424718Y-110331240D01*
X126376458Y-110427760D01*
X126279938Y-110476020D01*
X126183418Y-110476020D01*
X125700818Y-110476020D02*
X125797338Y-110427760D01*
X125845598Y-110379500D01*
X125893858Y-110282980D01*
X125893858Y-109993420D01*
X125845598Y-109896900D01*
X125797338Y-109848640D01*
X125700818Y-109800380D01*
X125556038Y-109800380D01*
X125459518Y-109848640D01*
X125411258Y-109896900D01*
X125362998Y-109993420D01*
X125362998Y-110282980D01*
X125411258Y-110379500D01*
X125459518Y-110427760D01*
X125556038Y-110476020D01*
X125700818Y-110476020D01*
X125073438Y-109800380D02*
X124687358Y-109800380D01*
X124928658Y-110476020D02*
X124928658Y-109607340D01*
X124880398Y-109510820D01*
X124783878Y-109462560D01*
X124687358Y-109462560D01*
X124494318Y-109800380D02*
X124108238Y-109800380D01*
X124349538Y-110476020D02*
X124349538Y-109607340D01*
X124301278Y-109510820D01*
X124204758Y-109462560D01*
X124108238Y-109462560D01*
X123239558Y-110476020D02*
X123818678Y-110476020D01*
X123529118Y-110476020D02*
X123529118Y-109462560D01*
X123625638Y-109607340D01*
X123722158Y-109703860D01*
X123818678Y-109752120D01*
%TO.C,RELEASE1*%
X151380218Y-110158520D02*
X151718038Y-109675920D01*
X151959338Y-110158520D02*
X151959338Y-109145060D01*
X151573258Y-109145060D01*
X151476738Y-109193320D01*
X151428478Y-109241580D01*
X151380218Y-109338100D01*
X151380218Y-109482880D01*
X151428478Y-109579400D01*
X151476738Y-109627660D01*
X151573258Y-109675920D01*
X151959338Y-109675920D01*
X150945878Y-109627660D02*
X150608058Y-109627660D01*
X150463278Y-110158520D02*
X150945878Y-110158520D01*
X150945878Y-109145060D01*
X150463278Y-109145060D01*
X149546338Y-110158520D02*
X150028938Y-110158520D01*
X150028938Y-109145060D01*
X149208518Y-109627660D02*
X148870698Y-109627660D01*
X148725918Y-110158520D02*
X149208518Y-110158520D01*
X149208518Y-109145060D01*
X148725918Y-109145060D01*
X148339838Y-109868960D02*
X147857238Y-109868960D01*
X148436358Y-110158520D02*
X148098538Y-109145060D01*
X147760718Y-110158520D01*
X147471158Y-110110260D02*
X147326378Y-110158520D01*
X147085078Y-110158520D01*
X146988558Y-110110260D01*
X146940298Y-110062000D01*
X146892038Y-109965480D01*
X146892038Y-109868960D01*
X146940298Y-109772440D01*
X146988558Y-109724180D01*
X147085078Y-109675920D01*
X147278118Y-109627660D01*
X147374638Y-109579400D01*
X147422898Y-109531140D01*
X147471158Y-109434620D01*
X147471158Y-109338100D01*
X147422898Y-109241580D01*
X147374638Y-109193320D01*
X147278118Y-109145060D01*
X147036818Y-109145060D01*
X146892038Y-109193320D01*
X146457698Y-109627660D02*
X146119878Y-109627660D01*
X145975098Y-110158520D02*
X146457698Y-110158520D01*
X146457698Y-109145060D01*
X145975098Y-109145060D01*
X145009898Y-110158520D02*
X145589018Y-110158520D01*
X145299458Y-110158520D02*
X145299458Y-109145060D01*
X145395978Y-109289840D01*
X145492498Y-109386360D01*
X145589018Y-109434620D01*
D14*
%TO.C,sw-midi1*%
X180928323Y-134567608D02*
X180975942Y-134662846D01*
X180975942Y-134853322D01*
X180928323Y-134948560D01*
X180833085Y-134996180D01*
X180785466Y-134996180D01*
X180690228Y-134948560D01*
X180642609Y-134853322D01*
X180642609Y-134710465D01*
X180594990Y-134615227D01*
X180499752Y-134567608D01*
X180452133Y-134567608D01*
X180356895Y-134615227D01*
X180309276Y-134710465D01*
X180309276Y-134853322D01*
X180356895Y-134948560D01*
X180309276Y-135329513D02*
X180975942Y-135519989D01*
X180499752Y-135710465D01*
X180975942Y-135900941D01*
X180309276Y-136091418D01*
X180594990Y-136472370D02*
X180594990Y-137234275D01*
X180975942Y-137710465D02*
X180309276Y-137710465D01*
X180404514Y-137710465D02*
X180356895Y-137758084D01*
X180309276Y-137853322D01*
X180309276Y-137996180D01*
X180356895Y-138091418D01*
X180452133Y-138139037D01*
X180975942Y-138139037D01*
X180452133Y-138139037D02*
X180356895Y-138186656D01*
X180309276Y-138281894D01*
X180309276Y-138424751D01*
X180356895Y-138519989D01*
X180452133Y-138567608D01*
X180975942Y-138567608D01*
X180975942Y-139043799D02*
X180309276Y-139043799D01*
X179975942Y-139043799D02*
X180023562Y-138996180D01*
X180071181Y-139043799D01*
X180023562Y-139091418D01*
X179975942Y-139043799D01*
X180071181Y-139043799D01*
X180975942Y-139948560D02*
X179975942Y-139948560D01*
X180928323Y-139948560D02*
X180975942Y-139853322D01*
X180975942Y-139662846D01*
X180928323Y-139567608D01*
X180880704Y-139519989D01*
X180785466Y-139472370D01*
X180499752Y-139472370D01*
X180404514Y-139519989D01*
X180356895Y-139567608D01*
X180309276Y-139662846D01*
X180309276Y-139853322D01*
X180356895Y-139948560D01*
X180975942Y-140424751D02*
X180309276Y-140424751D01*
X179975942Y-140424751D02*
X180023562Y-140377132D01*
X180071181Y-140424751D01*
X180023562Y-140472370D01*
X179975942Y-140424751D01*
X180071181Y-140424751D01*
X180975942Y-141424751D02*
X180975942Y-140853322D01*
X180975942Y-141139037D02*
X179975942Y-141139037D01*
X180118800Y-141043799D01*
X180214038Y-140948560D01*
X180261657Y-140853322D01*
D13*
%TO.C,CTL2*%
X105469718Y-110570000D02*
X105517978Y-110618260D01*
X105662758Y-110666520D01*
X105759278Y-110666520D01*
X105904058Y-110618260D01*
X106000578Y-110521740D01*
X106048838Y-110425220D01*
X106097098Y-110232180D01*
X106097098Y-110087400D01*
X106048838Y-109894360D01*
X106000578Y-109797840D01*
X105904058Y-109701320D01*
X105759278Y-109653060D01*
X105662758Y-109653060D01*
X105517978Y-109701320D01*
X105469718Y-109749580D01*
X105180158Y-109653060D02*
X104601038Y-109653060D01*
X104890598Y-110666520D02*
X104890598Y-109653060D01*
X103780618Y-110666520D02*
X104263218Y-110666520D01*
X104263218Y-109653060D01*
X103491058Y-109749580D02*
X103442798Y-109701320D01*
X103346278Y-109653060D01*
X103104978Y-109653060D01*
X103008458Y-109701320D01*
X102960198Y-109749580D01*
X102911938Y-109846100D01*
X102911938Y-109942620D01*
X102960198Y-110087400D01*
X103539318Y-110666520D01*
X102911938Y-110666520D01*
D11*
%TO.C,MIDI-IN1*%
X179536133Y-160122618D02*
X179536133Y-159157418D01*
X179214399Y-159846846D01*
X178892666Y-159157418D01*
X178892666Y-160122618D01*
X178433047Y-160122618D02*
X178433047Y-159157418D01*
X177973428Y-160122618D02*
X177973428Y-159157418D01*
X177743618Y-159157418D01*
X177605733Y-159203380D01*
X177513809Y-159295303D01*
X177467847Y-159387227D01*
X177421885Y-159571075D01*
X177421885Y-159708960D01*
X177467847Y-159892808D01*
X177513809Y-159984732D01*
X177605733Y-160076656D01*
X177743618Y-160122618D01*
X177973428Y-160122618D01*
X177008228Y-160122618D02*
X177008228Y-159157418D01*
X176548609Y-159754922D02*
X175813218Y-159754922D01*
X175353599Y-160122618D02*
X175353599Y-159157418D01*
X174893980Y-160122618D02*
X174893980Y-159157418D01*
X174342438Y-160122618D01*
X174342438Y-159157418D01*
X173377238Y-160122618D02*
X173928780Y-160122618D01*
X173653009Y-160122618D02*
X173653009Y-159157418D01*
X173744933Y-159295303D01*
X173836857Y-159387227D01*
X173928780Y-159433189D01*
%TO.C,MIDI-THRU1*%
X160087840Y-159944818D02*
X160087840Y-158979618D01*
X159766106Y-159669046D01*
X159444373Y-158979618D01*
X159444373Y-159944818D01*
X158984754Y-159944818D02*
X158984754Y-158979618D01*
X158525135Y-159944818D02*
X158525135Y-158979618D01*
X158295325Y-158979618D01*
X158157440Y-159025580D01*
X158065516Y-159117503D01*
X158019554Y-159209427D01*
X157973592Y-159393275D01*
X157973592Y-159531160D01*
X158019554Y-159715008D01*
X158065516Y-159806932D01*
X158157440Y-159898856D01*
X158295325Y-159944818D01*
X158525135Y-159944818D01*
X157559935Y-159944818D02*
X157559935Y-158979618D01*
X157100316Y-159577122D02*
X156364925Y-159577122D01*
X156043192Y-158979618D02*
X155491649Y-158979618D01*
X155767421Y-159944818D02*
X155767421Y-158979618D01*
X155169916Y-159944818D02*
X155169916Y-158979618D01*
X155169916Y-159439237D02*
X154618373Y-159439237D01*
X154618373Y-159944818D02*
X154618373Y-158979618D01*
X153607211Y-159944818D02*
X153928944Y-159485199D01*
X154158754Y-159944818D02*
X154158754Y-158979618D01*
X153791059Y-158979618D01*
X153699135Y-159025580D01*
X153653173Y-159071541D01*
X153607211Y-159163465D01*
X153607211Y-159301351D01*
X153653173Y-159393275D01*
X153699135Y-159439237D01*
X153791059Y-159485199D01*
X154158754Y-159485199D01*
X153193554Y-158979618D02*
X153193554Y-159760970D01*
X153147592Y-159852894D01*
X153101630Y-159898856D01*
X153009706Y-159944818D01*
X152825859Y-159944818D01*
X152733935Y-159898856D01*
X152687973Y-159852894D01*
X152642011Y-159760970D01*
X152642011Y-158979618D01*
X151676811Y-159944818D02*
X152228354Y-159944818D01*
X151952582Y-159944818D02*
X151952582Y-158979618D01*
X152044506Y-159117503D01*
X152136430Y-159209427D01*
X152228354Y-159255389D01*
D14*
%TO.C,sw-sel2*%
X129281943Y-62550941D02*
X129186705Y-62598560D01*
X128996229Y-62598560D01*
X128900991Y-62550941D01*
X128853372Y-62455703D01*
X128853372Y-62408084D01*
X128900991Y-62312846D01*
X128996229Y-62265227D01*
X129139086Y-62265227D01*
X129234324Y-62217608D01*
X129281943Y-62122370D01*
X129281943Y-62074751D01*
X129234324Y-61979513D01*
X129139086Y-61931894D01*
X128996229Y-61931894D01*
X128900991Y-61979513D01*
X128520038Y-61931894D02*
X128329562Y-62598560D01*
X128139086Y-62122370D01*
X127948610Y-62598560D01*
X127758133Y-61931894D01*
X127377181Y-62217608D02*
X126615276Y-62217608D01*
X126186705Y-62550941D02*
X126091467Y-62598560D01*
X125900991Y-62598560D01*
X125805752Y-62550941D01*
X125758133Y-62455703D01*
X125758133Y-62408084D01*
X125805752Y-62312846D01*
X125900991Y-62265227D01*
X126043848Y-62265227D01*
X126139086Y-62217608D01*
X126186705Y-62122370D01*
X126186705Y-62074751D01*
X126139086Y-61979513D01*
X126043848Y-61931894D01*
X125900991Y-61931894D01*
X125805752Y-61979513D01*
X124948610Y-62550941D02*
X125043848Y-62598560D01*
X125234324Y-62598560D01*
X125329562Y-62550941D01*
X125377181Y-62455703D01*
X125377181Y-62074751D01*
X125329562Y-61979513D01*
X125234324Y-61931894D01*
X125043848Y-61931894D01*
X124948610Y-61979513D01*
X124900991Y-62074751D01*
X124900991Y-62169989D01*
X125377181Y-62265227D01*
X124329562Y-62598560D02*
X124424800Y-62550941D01*
X124472419Y-62455703D01*
X124472419Y-61598560D01*
X123996229Y-61693799D02*
X123948610Y-61646180D01*
X123853372Y-61598560D01*
X123615276Y-61598560D01*
X123520038Y-61646180D01*
X123472419Y-61693799D01*
X123424800Y-61789037D01*
X123424800Y-61884275D01*
X123472419Y-62027132D01*
X124043848Y-62598560D01*
X123424800Y-62598560D01*
%TO.C,SW3*%
X144171771Y-65850941D02*
X144028914Y-65898560D01*
X143790818Y-65898560D01*
X143695580Y-65850941D01*
X143647961Y-65803322D01*
X143600342Y-65708084D01*
X143600342Y-65612846D01*
X143647961Y-65517608D01*
X143695580Y-65469989D01*
X143790818Y-65422370D01*
X143981295Y-65374751D01*
X144076533Y-65327132D01*
X144124152Y-65279513D01*
X144171771Y-65184275D01*
X144171771Y-65089037D01*
X144124152Y-64993799D01*
X144076533Y-64946180D01*
X143981295Y-64898560D01*
X143743199Y-64898560D01*
X143600342Y-64946180D01*
X143267009Y-64898560D02*
X143028914Y-65898560D01*
X142838438Y-65184275D01*
X142647961Y-65898560D01*
X142409866Y-64898560D01*
X142124152Y-64898560D02*
X141505104Y-64898560D01*
X141838438Y-65279513D01*
X141695580Y-65279513D01*
X141600342Y-65327132D01*
X141552723Y-65374751D01*
X141505104Y-65469989D01*
X141505104Y-65708084D01*
X141552723Y-65803322D01*
X141600342Y-65850941D01*
X141695580Y-65898560D01*
X141981295Y-65898560D01*
X142076533Y-65850941D01*
X142124152Y-65803322D01*
%TO.C,SW4*%
X133096771Y-66075941D02*
X132953914Y-66123560D01*
X132715818Y-66123560D01*
X132620580Y-66075941D01*
X132572961Y-66028322D01*
X132525342Y-65933084D01*
X132525342Y-65837846D01*
X132572961Y-65742608D01*
X132620580Y-65694989D01*
X132715818Y-65647370D01*
X132906295Y-65599751D01*
X133001533Y-65552132D01*
X133049152Y-65504513D01*
X133096771Y-65409275D01*
X133096771Y-65314037D01*
X133049152Y-65218799D01*
X133001533Y-65171180D01*
X132906295Y-65123560D01*
X132668199Y-65123560D01*
X132525342Y-65171180D01*
X132192009Y-65123560D02*
X131953914Y-66123560D01*
X131763438Y-65409275D01*
X131572961Y-66123560D01*
X131334866Y-65123560D01*
X130525342Y-65456894D02*
X130525342Y-66123560D01*
X130763438Y-65075941D02*
X131001533Y-65790227D01*
X130382485Y-65790227D01*
D11*
%TO.C,CV-CTL3*%
X115770514Y-129138637D02*
X115816476Y-129092675D01*
X115862438Y-128954789D01*
X115862438Y-128862865D01*
X115816476Y-128724980D01*
X115724552Y-128633056D01*
X115632628Y-128587094D01*
X115448780Y-128541132D01*
X115310895Y-128541132D01*
X115127047Y-128587094D01*
X115035123Y-128633056D01*
X114943200Y-128724980D01*
X114897238Y-128862865D01*
X114897238Y-128954789D01*
X114943200Y-129092675D01*
X114989161Y-129138637D01*
X114897238Y-129414408D02*
X115862438Y-129736141D01*
X114897238Y-130057875D01*
X115494742Y-130379608D02*
X115494742Y-131114999D01*
X115770514Y-132126161D02*
X115816476Y-132080199D01*
X115862438Y-131942313D01*
X115862438Y-131850389D01*
X115816476Y-131712503D01*
X115724552Y-131620580D01*
X115632628Y-131574618D01*
X115448780Y-131528656D01*
X115310895Y-131528656D01*
X115127047Y-131574618D01*
X115035123Y-131620580D01*
X114943200Y-131712503D01*
X114897238Y-131850389D01*
X114897238Y-131942313D01*
X114943200Y-132080199D01*
X114989161Y-132126161D01*
X114897238Y-132401932D02*
X114897238Y-132953475D01*
X115862438Y-132677703D02*
X114897238Y-132677703D01*
X115862438Y-133734827D02*
X115862438Y-133275208D01*
X114897238Y-133275208D01*
X114897238Y-133964637D02*
X114897238Y-134562141D01*
X115264933Y-134240408D01*
X115264933Y-134378294D01*
X115310895Y-134470218D01*
X115356857Y-134516180D01*
X115448780Y-134562141D01*
X115678590Y-134562141D01*
X115770514Y-134516180D01*
X115816476Y-134470218D01*
X115862438Y-134378294D01*
X115862438Y-134102522D01*
X115816476Y-134010599D01*
X115770514Y-133964637D01*
%TO.C,CV-CTL4*%
X104831154Y-129413637D02*
X104877116Y-129367675D01*
X104923078Y-129229789D01*
X104923078Y-129137865D01*
X104877116Y-128999980D01*
X104785192Y-128908056D01*
X104693268Y-128862094D01*
X104509420Y-128816132D01*
X104371535Y-128816132D01*
X104187687Y-128862094D01*
X104095763Y-128908056D01*
X104003840Y-128999980D01*
X103957878Y-129137865D01*
X103957878Y-129229789D01*
X104003840Y-129367675D01*
X104049801Y-129413637D01*
X103957878Y-129689408D02*
X104923078Y-130011141D01*
X103957878Y-130332875D01*
X104555382Y-130654608D02*
X104555382Y-131389999D01*
X104831154Y-132401161D02*
X104877116Y-132355199D01*
X104923078Y-132217313D01*
X104923078Y-132125389D01*
X104877116Y-131987503D01*
X104785192Y-131895580D01*
X104693268Y-131849618D01*
X104509420Y-131803656D01*
X104371535Y-131803656D01*
X104187687Y-131849618D01*
X104095763Y-131895580D01*
X104003840Y-131987503D01*
X103957878Y-132125389D01*
X103957878Y-132217313D01*
X104003840Y-132355199D01*
X104049801Y-132401161D01*
X103957878Y-132676932D02*
X103957878Y-133228475D01*
X104923078Y-132952703D02*
X103957878Y-132952703D01*
X104923078Y-134009827D02*
X104923078Y-133550208D01*
X103957878Y-133550208D01*
X104279611Y-134745218D02*
X104923078Y-134745218D01*
X103911916Y-134515408D02*
X104601344Y-134285599D01*
X104601344Y-134883103D01*
D14*
%TO.C,D5*%
X162706933Y-69028560D02*
X162706933Y-68028560D01*
X162468838Y-68028560D01*
X162325980Y-68076180D01*
X162230742Y-68171418D01*
X162183123Y-68266656D01*
X162135504Y-68457132D01*
X162135504Y-68599989D01*
X162183123Y-68790465D01*
X162230742Y-68885703D01*
X162325980Y-68980941D01*
X162468838Y-69028560D01*
X162706933Y-69028560D01*
X161230742Y-68028560D02*
X161706933Y-68028560D01*
X161754552Y-68504751D01*
X161706933Y-68457132D01*
X161611695Y-68409513D01*
X161373599Y-68409513D01*
X161278361Y-68457132D01*
X161230742Y-68504751D01*
X161183123Y-68599989D01*
X161183123Y-68838084D01*
X161230742Y-68933322D01*
X161278361Y-68980941D01*
X161373599Y-69028560D01*
X161611695Y-69028560D01*
X161706933Y-68980941D01*
X161754552Y-68933322D01*
%TO.C,D6*%
X162706933Y-74362560D02*
X162706933Y-73362560D01*
X162468838Y-73362560D01*
X162325980Y-73410180D01*
X162230742Y-73505418D01*
X162183123Y-73600656D01*
X162135504Y-73791132D01*
X162135504Y-73933989D01*
X162183123Y-74124465D01*
X162230742Y-74219703D01*
X162325980Y-74314941D01*
X162468838Y-74362560D01*
X162706933Y-74362560D01*
X161278361Y-73362560D02*
X161468838Y-73362560D01*
X161564076Y-73410180D01*
X161611695Y-73457799D01*
X161706933Y-73600656D01*
X161754552Y-73791132D01*
X161754552Y-74172084D01*
X161706933Y-74267322D01*
X161659314Y-74314941D01*
X161564076Y-74362560D01*
X161373599Y-74362560D01*
X161278361Y-74314941D01*
X161230742Y-74267322D01*
X161183123Y-74172084D01*
X161183123Y-73933989D01*
X161230742Y-73838751D01*
X161278361Y-73791132D01*
X161373599Y-73743513D01*
X161564076Y-73743513D01*
X161659314Y-73791132D01*
X161706933Y-73838751D01*
X161754552Y-73933989D01*
%TO.C,D7*%
X162706933Y-79747360D02*
X162706933Y-78747360D01*
X162468838Y-78747360D01*
X162325980Y-78794980D01*
X162230742Y-78890218D01*
X162183123Y-78985456D01*
X162135504Y-79175932D01*
X162135504Y-79318789D01*
X162183123Y-79509265D01*
X162230742Y-79604503D01*
X162325980Y-79699741D01*
X162468838Y-79747360D01*
X162706933Y-79747360D01*
X161802171Y-78747360D02*
X161135504Y-78747360D01*
X161564076Y-79747360D01*
%TO.C,D8*%
X162705267Y-85248560D02*
X162705267Y-84248560D01*
X162467172Y-84248560D01*
X162324314Y-84296180D01*
X162229076Y-84391418D01*
X162181457Y-84486656D01*
X162133838Y-84677132D01*
X162133838Y-84819989D01*
X162181457Y-85010465D01*
X162229076Y-85105703D01*
X162324314Y-85200941D01*
X162467172Y-85248560D01*
X162705267Y-85248560D01*
X161562410Y-84677132D02*
X161657648Y-84629513D01*
X161705267Y-84581894D01*
X161752886Y-84486656D01*
X161752886Y-84439037D01*
X161705267Y-84343799D01*
X161657648Y-84296180D01*
X161562410Y-84248560D01*
X161371933Y-84248560D01*
X161276695Y-84296180D01*
X161229076Y-84343799D01*
X161181457Y-84439037D01*
X161181457Y-84486656D01*
X161229076Y-84581894D01*
X161276695Y-84629513D01*
X161371933Y-84677132D01*
X161562410Y-84677132D01*
X161657648Y-84724751D01*
X161705267Y-84772370D01*
X161752886Y-84867608D01*
X161752886Y-85058084D01*
X161705267Y-85153322D01*
X161657648Y-85200941D01*
X161562410Y-85248560D01*
X161371933Y-85248560D01*
X161276695Y-85200941D01*
X161229076Y-85153322D01*
X161181457Y-85058084D01*
X161181457Y-84867608D01*
X161229076Y-84772370D01*
X161276695Y-84724751D01*
X161371933Y-84677132D01*
%TO.C,D9*%
X118714133Y-68977760D02*
X118714133Y-67977760D01*
X118476038Y-67977760D01*
X118333180Y-68025380D01*
X118237942Y-68120618D01*
X118190323Y-68215856D01*
X118142704Y-68406332D01*
X118142704Y-68549189D01*
X118190323Y-68739665D01*
X118237942Y-68834903D01*
X118333180Y-68930141D01*
X118476038Y-68977760D01*
X118714133Y-68977760D01*
X117666514Y-68977760D02*
X117476038Y-68977760D01*
X117380799Y-68930141D01*
X117333180Y-68882522D01*
X117237942Y-68739665D01*
X117190323Y-68549189D01*
X117190323Y-68168237D01*
X117237942Y-68072999D01*
X117285561Y-68025380D01*
X117380799Y-67977760D01*
X117571276Y-67977760D01*
X117666514Y-68025380D01*
X117714133Y-68072999D01*
X117761752Y-68168237D01*
X117761752Y-68406332D01*
X117714133Y-68501570D01*
X117666514Y-68549189D01*
X117571276Y-68596808D01*
X117380799Y-68596808D01*
X117285561Y-68549189D01*
X117237942Y-68501570D01*
X117190323Y-68406332D01*
%TO.C,D10*%
X118936323Y-74413360D02*
X118936323Y-73413360D01*
X118698228Y-73413360D01*
X118555371Y-73460980D01*
X118460133Y-73556218D01*
X118412514Y-73651456D01*
X118364895Y-73841932D01*
X118364895Y-73984789D01*
X118412514Y-74175265D01*
X118460133Y-74270503D01*
X118555371Y-74365741D01*
X118698228Y-74413360D01*
X118936323Y-74413360D01*
X117412514Y-74413360D02*
X117983942Y-74413360D01*
X117698228Y-74413360D02*
X117698228Y-73413360D01*
X117793466Y-73556218D01*
X117888704Y-73651456D01*
X117983942Y-73699075D01*
X116793466Y-73413360D02*
X116698228Y-73413360D01*
X116602990Y-73460980D01*
X116555371Y-73508599D01*
X116507752Y-73603837D01*
X116460133Y-73794313D01*
X116460133Y-74032408D01*
X116507752Y-74222884D01*
X116555371Y-74318122D01*
X116602990Y-74365741D01*
X116698228Y-74413360D01*
X116793466Y-74413360D01*
X116888704Y-74365741D01*
X116936323Y-74318122D01*
X116983942Y-74222884D01*
X117031561Y-74032408D01*
X117031561Y-73794313D01*
X116983942Y-73603837D01*
X116936323Y-73508599D01*
X116888704Y-73460980D01*
X116793466Y-73413360D01*
%TO.C,D11*%
X118936323Y-79848960D02*
X118936323Y-78848960D01*
X118698228Y-78848960D01*
X118555371Y-78896580D01*
X118460133Y-78991818D01*
X118412514Y-79087056D01*
X118364895Y-79277532D01*
X118364895Y-79420389D01*
X118412514Y-79610865D01*
X118460133Y-79706103D01*
X118555371Y-79801341D01*
X118698228Y-79848960D01*
X118936323Y-79848960D01*
X117412514Y-79848960D02*
X117983942Y-79848960D01*
X117698228Y-79848960D02*
X117698228Y-78848960D01*
X117793466Y-78991818D01*
X117888704Y-79087056D01*
X117983942Y-79134675D01*
X116460133Y-79848960D02*
X117031561Y-79848960D01*
X116745847Y-79848960D02*
X116745847Y-78848960D01*
X116841085Y-78991818D01*
X116936323Y-79087056D01*
X117031561Y-79134675D01*
%TO.C,D12*%
X118987123Y-85335360D02*
X118987123Y-84335360D01*
X118749028Y-84335360D01*
X118606171Y-84382980D01*
X118510933Y-84478218D01*
X118463314Y-84573456D01*
X118415695Y-84763932D01*
X118415695Y-84906789D01*
X118463314Y-85097265D01*
X118510933Y-85192503D01*
X118606171Y-85287741D01*
X118749028Y-85335360D01*
X118987123Y-85335360D01*
X117463314Y-85335360D02*
X118034742Y-85335360D01*
X117749028Y-85335360D02*
X117749028Y-84335360D01*
X117844266Y-84478218D01*
X117939504Y-84573456D01*
X118034742Y-84621075D01*
X117082361Y-84430599D02*
X117034742Y-84382980D01*
X116939504Y-84335360D01*
X116701409Y-84335360D01*
X116606171Y-84382980D01*
X116558552Y-84430599D01*
X116510933Y-84525837D01*
X116510933Y-84621075D01*
X116558552Y-84763932D01*
X117129980Y-85335360D01*
X116510933Y-85335360D01*
%TO.C,sw-sel1*%
X151324476Y-62550941D02*
X151229238Y-62598560D01*
X151038762Y-62598560D01*
X150943524Y-62550941D01*
X150895905Y-62455703D01*
X150895905Y-62408084D01*
X150943524Y-62312846D01*
X151038762Y-62265227D01*
X151181619Y-62265227D01*
X151276857Y-62217608D01*
X151324476Y-62122370D01*
X151324476Y-62074751D01*
X151276857Y-61979513D01*
X151181619Y-61931894D01*
X151038762Y-61931894D01*
X150943524Y-61979513D01*
X150562571Y-61931894D02*
X150372095Y-62598560D01*
X150181619Y-62122370D01*
X149991143Y-62598560D01*
X149800666Y-61931894D01*
X149419714Y-62217608D02*
X148657809Y-62217608D01*
X148229238Y-62550941D02*
X148134000Y-62598560D01*
X147943524Y-62598560D01*
X147848285Y-62550941D01*
X147800666Y-62455703D01*
X147800666Y-62408084D01*
X147848285Y-62312846D01*
X147943524Y-62265227D01*
X148086381Y-62265227D01*
X148181619Y-62217608D01*
X148229238Y-62122370D01*
X148229238Y-62074751D01*
X148181619Y-61979513D01*
X148086381Y-61931894D01*
X147943524Y-61931894D01*
X147848285Y-61979513D01*
X146991143Y-62550941D02*
X147086381Y-62598560D01*
X147276857Y-62598560D01*
X147372095Y-62550941D01*
X147419714Y-62455703D01*
X147419714Y-62074751D01*
X147372095Y-61979513D01*
X147276857Y-61931894D01*
X147086381Y-61931894D01*
X146991143Y-61979513D01*
X146943524Y-62074751D01*
X146943524Y-62169989D01*
X147419714Y-62265227D01*
X146372095Y-62598560D02*
X146467333Y-62550941D01*
X146514952Y-62455703D01*
X146514952Y-61598560D01*
X145467333Y-62598560D02*
X146038762Y-62598560D01*
X145753047Y-62598560D02*
X145753047Y-61598560D01*
X145848285Y-61741418D01*
X145943524Y-61836656D01*
X146038762Y-61884275D01*
D13*
%TO.C,PM2*%
X127781705Y-88750220D02*
X127781705Y-87736760D01*
X127395625Y-87736760D01*
X127299105Y-87785020D01*
X127250845Y-87833280D01*
X127202585Y-87929800D01*
X127202585Y-88074580D01*
X127250845Y-88171100D01*
X127299105Y-88219360D01*
X127395625Y-88267620D01*
X127781705Y-88267620D01*
X126768245Y-88750220D02*
X126768245Y-87736760D01*
X126430425Y-88460660D01*
X126092605Y-87736760D01*
X126092605Y-88750220D01*
X125658265Y-87833280D02*
X125610005Y-87785020D01*
X125513485Y-87736760D01*
X125272185Y-87736760D01*
X125175665Y-87785020D01*
X125127405Y-87833280D01*
X125079145Y-87929800D01*
X125079145Y-88026320D01*
X125127405Y-88171100D01*
X125706525Y-88750220D01*
X125079145Y-88750220D01*
%TO.C,RATIO1*%
X150141951Y-88989220D02*
X150479771Y-88506620D01*
X150721071Y-88989220D02*
X150721071Y-87975760D01*
X150334991Y-87975760D01*
X150238471Y-88024020D01*
X150190211Y-88072280D01*
X150141951Y-88168800D01*
X150141951Y-88313580D01*
X150190211Y-88410100D01*
X150238471Y-88458360D01*
X150334991Y-88506620D01*
X150721071Y-88506620D01*
X149755871Y-88699660D02*
X149273271Y-88699660D01*
X149852391Y-88989220D02*
X149514571Y-87975760D01*
X149176751Y-88989220D01*
X148983711Y-87975760D02*
X148404591Y-87975760D01*
X148694151Y-88989220D02*
X148694151Y-87975760D01*
X148066771Y-88989220D02*
X148066771Y-87975760D01*
X147391131Y-87975760D02*
X147198091Y-87975760D01*
X147101571Y-88024020D01*
X147005051Y-88120540D01*
X146956791Y-88313580D01*
X146956791Y-88651400D01*
X147005051Y-88844440D01*
X147101571Y-88940960D01*
X147198091Y-88989220D01*
X147391131Y-88989220D01*
X147487651Y-88940960D01*
X147584171Y-88844440D01*
X147632431Y-88651400D01*
X147632431Y-88313580D01*
X147584171Y-88120540D01*
X147487651Y-88024020D01*
X147391131Y-87975760D01*
X145991591Y-88989220D02*
X146570711Y-88989220D01*
X146281151Y-88989220D02*
X146281151Y-87975760D01*
X146377671Y-88120540D01*
X146474191Y-88217060D01*
X146570711Y-88265320D01*
%TO.C,RATIO2*%
X106295218Y-88496220D02*
X106633038Y-88013620D01*
X106874338Y-88496220D02*
X106874338Y-87482760D01*
X106488258Y-87482760D01*
X106391738Y-87531020D01*
X106343478Y-87579280D01*
X106295218Y-87675800D01*
X106295218Y-87820580D01*
X106343478Y-87917100D01*
X106391738Y-87965360D01*
X106488258Y-88013620D01*
X106874338Y-88013620D01*
X105909138Y-88206660D02*
X105426538Y-88206660D01*
X106005658Y-88496220D02*
X105667838Y-87482760D01*
X105330018Y-88496220D01*
X105136978Y-87482760D02*
X104557858Y-87482760D01*
X104847418Y-88496220D02*
X104847418Y-87482760D01*
X104220038Y-88496220D02*
X104220038Y-87482760D01*
X103544398Y-87482760D02*
X103351358Y-87482760D01*
X103254838Y-87531020D01*
X103158318Y-87627540D01*
X103110058Y-87820580D01*
X103110058Y-88158400D01*
X103158318Y-88351440D01*
X103254838Y-88447960D01*
X103351358Y-88496220D01*
X103544398Y-88496220D01*
X103640918Y-88447960D01*
X103737438Y-88351440D01*
X103785698Y-88158400D01*
X103785698Y-87820580D01*
X103737438Y-87627540D01*
X103640918Y-87531020D01*
X103544398Y-87482760D01*
X102723978Y-87579280D02*
X102675718Y-87531020D01*
X102579198Y-87482760D01*
X102337898Y-87482760D01*
X102241378Y-87531020D01*
X102193118Y-87579280D01*
X102144858Y-87675800D01*
X102144858Y-87772320D01*
X102193118Y-87917100D01*
X102772238Y-88496220D01*
X102144858Y-88496220D01*
%TO.C,PM1*%
X171969438Y-89122920D02*
X171969438Y-88109460D01*
X171583358Y-88109460D01*
X171486838Y-88157720D01*
X171438578Y-88205980D01*
X171390318Y-88302500D01*
X171390318Y-88447280D01*
X171438578Y-88543800D01*
X171486838Y-88592060D01*
X171583358Y-88640320D01*
X171969438Y-88640320D01*
X170955978Y-89122920D02*
X170955978Y-88109460D01*
X170618158Y-88833360D01*
X170280338Y-88109460D01*
X170280338Y-89122920D01*
X169266878Y-89122920D02*
X169845998Y-89122920D01*
X169556438Y-89122920D02*
X169556438Y-88109460D01*
X169652958Y-88254240D01*
X169749478Y-88350760D01*
X169845998Y-88399020D01*
D14*
%TO.C,D4*%
X153592337Y-134488559D02*
X153592337Y-133488559D01*
X153354242Y-133488559D01*
X153211384Y-133536179D01*
X153116146Y-133631417D01*
X153068527Y-133726655D01*
X153020908Y-133917131D01*
X153020908Y-134059988D01*
X153068527Y-134250464D01*
X153116146Y-134345702D01*
X153211384Y-134440940D01*
X153354242Y-134488559D01*
X153592337Y-134488559D01*
X152163765Y-133821893D02*
X152163765Y-134488559D01*
X152401861Y-133440940D02*
X152639956Y-134155226D01*
X152020908Y-134155226D01*
D15*
%TO.C,CV-RAT1*%
X145912082Y-158358929D02*
X146412082Y-158358929D01*
X137412082Y-148358929D02*
X137412082Y-147858929D01*
X146412082Y-158358929D02*
X146412082Y-157858929D01*
X146412082Y-148358929D02*
X146412082Y-147858929D01*
X146412082Y-147858929D02*
X145912082Y-147858929D01*
X137412082Y-158358929D02*
X137912082Y-158358929D01*
X137412082Y-147858929D02*
X137912082Y-147858929D01*
X137412082Y-157858929D02*
X137412082Y-158358929D01*
X144602803Y-152358929D02*
G75*
G03*
X144602803Y-152358929I-2690721J0D01*
G01*
%TO.C,CV-REL1*%
X113100602Y-158358929D02*
X113600602Y-158358929D01*
X113600602Y-158358929D02*
X113600602Y-157858929D01*
X104600602Y-157858929D02*
X104600602Y-158358929D01*
X104600602Y-148358929D02*
X104600602Y-147858929D01*
X113600602Y-148358929D02*
X113600602Y-147858929D01*
X104600602Y-147858929D02*
X105100602Y-147858929D01*
X104600602Y-158358929D02*
X105100602Y-158358929D01*
X113600602Y-147858929D02*
X113100602Y-147858929D01*
X111791323Y-152358929D02*
G75*
G03*
X111791323Y-152358929I-2690721J0D01*
G01*
%TO.C,CV-PM1*%
X148349242Y-147858929D02*
X148849242Y-147858929D01*
X157349242Y-158358929D02*
X157349242Y-157858929D01*
X157349242Y-148358929D02*
X157349242Y-147858929D01*
X148349242Y-148358929D02*
X148349242Y-147858929D01*
X148349242Y-158358929D02*
X148849242Y-158358929D01*
X157349242Y-147858929D02*
X156849242Y-147858929D01*
X148349242Y-157858929D02*
X148349242Y-158358929D01*
X156849242Y-158358929D02*
X157349242Y-158358929D01*
X155539963Y-152358929D02*
G75*
G03*
X155539963Y-152358929I-2690721J0D01*
G01*
%TO.C,CV-RAT2*%
X124537762Y-158358929D02*
X124537762Y-157858929D01*
X115537762Y-148358929D02*
X115537762Y-147858929D01*
X124537762Y-147858929D02*
X124037762Y-147858929D01*
X124537762Y-148358929D02*
X124537762Y-147858929D01*
X115537762Y-147858929D02*
X116037762Y-147858929D01*
X115537762Y-157858929D02*
X115537762Y-158358929D01*
X115537762Y-158358929D02*
X116037762Y-158358929D01*
X124037762Y-158358929D02*
X124537762Y-158358929D01*
X122728483Y-152358929D02*
G75*
G03*
X122728483Y-152358929I-2690721J0D01*
G01*
%TO.C,CV-PM2*%
X126474922Y-147858929D02*
X126974922Y-147858929D01*
X126474922Y-148358929D02*
X126474922Y-147858929D01*
X135474922Y-158358929D02*
X135474922Y-157858929D01*
X134974922Y-158358929D02*
X135474922Y-158358929D01*
X135474922Y-148358929D02*
X135474922Y-147858929D01*
X135474922Y-147858929D02*
X134974922Y-147858929D01*
X126474922Y-158358929D02*
X126974922Y-158358929D01*
X126474922Y-157858929D02*
X126474922Y-158358929D01*
X133665643Y-152358929D02*
G75*
G03*
X133665643Y-152358929I-2690721J0D01*
G01*
%TO.C,LEFT-OUT1*%
X93663438Y-143126929D02*
X93663438Y-143626929D01*
X102663438Y-133126929D02*
X102163438Y-133126929D01*
X102663438Y-133626929D02*
X102663438Y-133126929D01*
X93663438Y-133626929D02*
X93663438Y-133126929D01*
X102663438Y-143626929D02*
X102663438Y-143126929D01*
X93663438Y-143626929D02*
X94163438Y-143626929D01*
X93663438Y-133126929D02*
X94163438Y-133126929D01*
X102163438Y-143626929D02*
X102663438Y-143626929D01*
X100854159Y-137626929D02*
G75*
G03*
X100854159Y-137626929I-2690721J0D01*
G01*
%TO.C,GATE-OUT1*%
X159786402Y-143126929D02*
X159786402Y-143626929D01*
X159786402Y-133626929D02*
X159786402Y-133126929D01*
X168286402Y-143626929D02*
X168786402Y-143626929D01*
X168786402Y-133626929D02*
X168786402Y-133126929D01*
X168786402Y-143626929D02*
X168786402Y-143126929D01*
X168786402Y-133126929D02*
X168286402Y-133126929D01*
X159786402Y-133126929D02*
X160286402Y-133126929D01*
X159786402Y-143626929D02*
X160286402Y-143626929D01*
X166977123Y-137626929D02*
G75*
G03*
X166977123Y-137626929I-2690721J0D01*
G01*
%TO.C,RIGHT-OUT1*%
X93663438Y-157846180D02*
X93663438Y-158346180D01*
X102663438Y-158346180D02*
X102663438Y-157846180D01*
X102163438Y-158346180D02*
X102663438Y-158346180D01*
X93663438Y-158346180D02*
X94163438Y-158346180D01*
X102663438Y-147846180D02*
X102163438Y-147846180D01*
X93663438Y-147846180D02*
X94163438Y-147846180D01*
X102663438Y-148346180D02*
X102663438Y-147846180D01*
X93663438Y-148346180D02*
X93663438Y-147846180D01*
X100854159Y-152346180D02*
G75*
G03*
X100854159Y-152346180I-2690721J0D01*
G01*
D16*
%TO.C,X1*%
X175822438Y-62444480D02*
X175822438Y-63793880D01*
X175843838Y-57861080D02*
X176229338Y-58203780D01*
X171153238Y-62101780D02*
X171581638Y-62465880D01*
X175843838Y-56533180D02*
X175843838Y-57861080D01*
X171024738Y-64007980D02*
X170724938Y-64007980D01*
X171024738Y-56318980D02*
X170724938Y-56318980D01*
X176315038Y-62187480D02*
X176229338Y-62101780D01*
X170746338Y-61352180D02*
X170360838Y-61352180D01*
X177214538Y-65507280D02*
X177214538Y-61544980D01*
X175886638Y-63750980D02*
X176357838Y-64007980D01*
X173702038Y-54626980D02*
X173702038Y-65635780D01*
X170168038Y-54776780D02*
X170168038Y-58803480D01*
X175629638Y-53941580D02*
X176015138Y-53941580D01*
X175929438Y-57839680D02*
X176486338Y-57668280D01*
X173659138Y-56019080D02*
X172395538Y-56019080D01*
X173680638Y-62979980D02*
X172395538Y-62979980D01*
X170746338Y-58996180D02*
X170746338Y-61352180D01*
X176186438Y-66770980D02*
X175651038Y-66770980D01*
X171581638Y-56554580D02*
X171153238Y-56211880D01*
X171153238Y-58974780D02*
X171153238Y-58225180D01*
X170596438Y-56447480D02*
X170596438Y-57989580D01*
X172395538Y-58503580D02*
X172395538Y-59810080D01*
X171131838Y-54605480D02*
X171131838Y-56233280D01*
X176636238Y-61352180D02*
X176636238Y-58996180D01*
X176764738Y-64007980D02*
X176764738Y-62187480D01*
X175822438Y-63793880D02*
X176229338Y-64136480D01*
X171581638Y-57861080D02*
X171581638Y-56554580D01*
X174258838Y-54241380D02*
X174515938Y-53962980D01*
X173702038Y-54626980D02*
X174087538Y-55162380D01*
X171153238Y-58225180D02*
X171067638Y-58139480D01*
X176636238Y-54605480D02*
X176229338Y-54605480D01*
X173680638Y-58503580D02*
X172395538Y-58503580D01*
X176229338Y-65721480D02*
X176229338Y-64136480D01*
X170339438Y-65721480D02*
X171131838Y-65721480D01*
X172395538Y-60495480D02*
X172395538Y-61801980D01*
X175008538Y-65164580D02*
X175308338Y-65507280D01*
X176229338Y-58974780D02*
X176957538Y-58974780D01*
X171581638Y-62465880D02*
X171581638Y-63772380D01*
X173659138Y-60495480D02*
X172395538Y-60495480D01*
X176229338Y-58974780D02*
X176229338Y-62101780D01*
X171153238Y-62101780D02*
X171067638Y-62187480D01*
X176207938Y-56190480D02*
X175843838Y-56533180D01*
X172395538Y-57346980D02*
X173659138Y-57346980D01*
X172395538Y-56019080D02*
X172395538Y-57346980D01*
X171153238Y-54605480D02*
X170339338Y-54605480D01*
X176443538Y-62615880D02*
X176443538Y-63558280D01*
X176357838Y-64007980D02*
X176764738Y-64007980D01*
X170746338Y-58139480D02*
X171067638Y-58139480D01*
X176229338Y-64136480D02*
X176357838Y-64007980D01*
X174087538Y-65164580D02*
X175008538Y-65164580D01*
X171131838Y-56233280D02*
X171024738Y-56318980D01*
X176229338Y-58203780D02*
X176379238Y-58096680D01*
X176229338Y-62101780D02*
X175822438Y-62444480D01*
X176636238Y-65721480D02*
X176636238Y-66321180D01*
X177214538Y-58717780D02*
X177214538Y-54776880D01*
X170168038Y-61544980D02*
X170168038Y-65550080D01*
X176229338Y-56190380D02*
X176229338Y-56190480D01*
X173702038Y-65635780D02*
X173702038Y-65657180D01*
X174087538Y-55162380D02*
X175008538Y-55140980D01*
X176229338Y-54155780D02*
X176229338Y-56190380D01*
X176229338Y-58974780D02*
X176229338Y-58203780D01*
X176379238Y-58096680D02*
X175929438Y-57839680D01*
X172395538Y-61801980D02*
X173680638Y-61801980D01*
X171581638Y-63772380D02*
X171153238Y-64115080D01*
X174087538Y-55162380D02*
X174087538Y-65164580D01*
X172395538Y-62979980D02*
X172395538Y-64286480D01*
X176636238Y-61352180D02*
X176229338Y-61352180D01*
X170596438Y-63879480D02*
X170596438Y-62337380D01*
X175008538Y-55140980D02*
X175286938Y-54819680D01*
X177043138Y-54605480D02*
X176636238Y-54605480D01*
X172395538Y-64286480D02*
X173680638Y-64286480D01*
X176636238Y-54605480D02*
X176636238Y-54005780D01*
X170746338Y-61352180D02*
X171153238Y-61352180D01*
X177021738Y-61352180D02*
X176636238Y-61352180D01*
X176764738Y-62187480D02*
X176315038Y-62187480D01*
X171131838Y-64093680D02*
X171024738Y-64007980D01*
X173680638Y-58482180D02*
X173680638Y-58503580D01*
X175865238Y-62487380D02*
X176443538Y-62615880D01*
X171131838Y-65721480D02*
X171131838Y-64093680D01*
X175865238Y-62487380D02*
X176379238Y-62208880D01*
X173702038Y-65657180D02*
X174987138Y-65657180D01*
X176743338Y-58096680D02*
X176379238Y-58096680D01*
X175629638Y-53191980D02*
X175629638Y-53941580D01*
X174087538Y-65164580D02*
X173702038Y-65635780D01*
X176786238Y-56426080D02*
X176786238Y-58053780D01*
X176443538Y-63558280D02*
X175865238Y-63772380D01*
X176379238Y-56276080D02*
X176636238Y-56276080D01*
X176486338Y-56747280D02*
X175865238Y-56554580D01*
X176165038Y-53534580D02*
X175651038Y-53534580D01*
X174880038Y-54626980D02*
X173702038Y-54626980D01*
X171153238Y-61352180D02*
X171153238Y-62101780D01*
X171153238Y-58225180D02*
X171581638Y-57861080D01*
X176229338Y-66171280D02*
X176229338Y-65721480D01*
X172395538Y-59810080D02*
X173637738Y-59810080D01*
X175629638Y-66363980D02*
X175629638Y-67092180D01*
X174494438Y-66321180D02*
X174216038Y-66064180D01*
X170339338Y-58974780D02*
X171153238Y-58974780D01*
X176229338Y-56190380D02*
X176379238Y-56276080D01*
X176636238Y-65721480D02*
X177000338Y-65721480D01*
X176229338Y-65721480D02*
X176636238Y-65721480D01*
X170746338Y-62187480D02*
X171067638Y-62187480D01*
X171153238Y-58974780D02*
X171153238Y-61352180D01*
X176486338Y-57668280D02*
X176486338Y-56747280D01*
X176422138Y-56297580D02*
X175972338Y-56554580D01*
X170596438Y-57989580D02*
G75*
G03*
X170746338Y-58139480I149901J1D01*
G01*
X170746338Y-62187480D02*
G75*
G03*
X170596438Y-62337380I0J-149900D01*
G01*
X176058038Y-66342580D02*
G75*
G03*
X176229338Y-66171280I0J171300D01*
G01*
X170168038Y-65550080D02*
G75*
G03*
X170339438Y-65721480I171400J0D01*
G01*
X176636238Y-54005780D02*
G75*
G03*
X176165038Y-53534580I-471199J1D01*
G01*
X170360838Y-61352180D02*
G75*
G03*
X170168038Y-61544980I0J-192800D01*
G01*
X177214538Y-61544980D02*
G75*
G03*
X177021738Y-61352180I-192800J0D01*
G01*
X176786238Y-56426080D02*
G75*
G03*
X176636238Y-56276080I-150000J0D01*
G01*
X175629638Y-53191980D02*
G75*
G03*
X175415438Y-52977780I-214201J-1D01*
G01*
X175351138Y-67370680D02*
G75*
G03*
X175629638Y-67092180I0J278500D01*
G01*
X170168038Y-58803480D02*
G75*
G03*
X170339338Y-58974780I171301J1D01*
G01*
X174987138Y-65657179D02*
G75*
G03*
X175522537Y-65121779I0J535399D01*
G01*
X175522538Y-55269480D02*
G75*
G03*
X174880038Y-54626980I-642500J0D01*
G01*
X177000338Y-65721480D02*
G75*
G03*
X177214538Y-65507280I0J214200D01*
G01*
X176743338Y-58096680D02*
G75*
G03*
X176786238Y-58053780I0J42900D01*
G01*
X176229338Y-54155780D02*
G75*
G03*
X176015138Y-53941580I-214201J-1D01*
G01*
X170596438Y-63879480D02*
G75*
G03*
X170724938Y-64007980I128500J0D01*
G01*
X170724938Y-56318980D02*
G75*
G03*
X170596438Y-56447480I1J-128501D01*
G01*
X176957538Y-58974780D02*
G75*
G03*
X177214538Y-58717780I-2J257002D01*
G01*
X176186438Y-66770980D02*
G75*
G03*
X176636238Y-66321180I0J449800D01*
G01*
X177214538Y-54776880D02*
G75*
G03*
X177043138Y-54605480I-171400J0D01*
G01*
X170339338Y-54605480D02*
G75*
G03*
X170168038Y-54776780I1J-171301D01*
G01*
D15*
%TO.C,CV-CTL2*%
X126474922Y-133126929D02*
X126974922Y-133126929D01*
X126474922Y-143126929D02*
X126474922Y-143626929D01*
X135474922Y-133126929D02*
X134974922Y-133126929D01*
X134974922Y-143626929D02*
X135474922Y-143626929D01*
X126474922Y-133626929D02*
X126474922Y-133126929D01*
X135474922Y-133626929D02*
X135474922Y-133126929D01*
X135474922Y-143626929D02*
X135474922Y-143126929D01*
X126474922Y-143626929D02*
X126974922Y-143626929D01*
X133665643Y-137626929D02*
G75*
G03*
X133665643Y-137626929I-2690721J0D01*
G01*
%TO.C,cv-cutoff1*%
X146412082Y-143626929D02*
X146412082Y-143126929D01*
X146412082Y-133126929D02*
X145912082Y-133126929D01*
X137412082Y-133626929D02*
X137412082Y-133126929D01*
X137412082Y-133126929D02*
X137912082Y-133126929D01*
X145912082Y-143626929D02*
X146412082Y-143626929D01*
X137412082Y-143626929D02*
X137912082Y-143626929D01*
X137412082Y-143126929D02*
X137412082Y-143626929D01*
X146412082Y-133626929D02*
X146412082Y-133126929D01*
X144602803Y-137626929D02*
G75*
G03*
X144602803Y-137626929I-2690721J0D01*
G01*
D17*
%TO.C,ATTACK1*%
X166100338Y-122082280D02*
X165550338Y-122082280D01*
X165550338Y-111882280D02*
X165550338Y-114082280D01*
X166100338Y-122632280D02*
X166100338Y-122082280D01*
X174850338Y-122082280D02*
X174850338Y-118882280D01*
X174300338Y-111882280D02*
X174850338Y-111882280D01*
X165550338Y-111882280D02*
X166100338Y-111882280D01*
X166100338Y-111882280D02*
X166100338Y-111332280D01*
X174850338Y-122082280D02*
X174300338Y-122082280D01*
X174300338Y-111332280D02*
X166100338Y-111332280D01*
X174300338Y-122082280D02*
X174300338Y-122632280D01*
X166100338Y-122632280D02*
X174300338Y-122632280D01*
X165550338Y-118882280D02*
X165550338Y-122082280D01*
X174850338Y-114082280D02*
X174850338Y-111882280D01*
X174300338Y-111332280D02*
X174300338Y-111882280D01*
D18*
X171216338Y-116732280D02*
G75*
G03*
X171216338Y-116732280I-1016000J0D01*
G01*
X171597338Y-116732280D02*
G75*
G03*
X171597338Y-116732280I-1397000J0D01*
G01*
D17*
%TO.C,cutoff1*%
X122168338Y-122695780D02*
X122168338Y-122145780D01*
X122168338Y-122695780D02*
X130368338Y-122695780D01*
X130368338Y-122145780D02*
X130368338Y-122695780D01*
X130918338Y-122145780D02*
X130368338Y-122145780D01*
X130918338Y-122145780D02*
X130918338Y-118945780D01*
X130918338Y-114145780D02*
X130918338Y-111945780D01*
X122168338Y-122145780D02*
X121618338Y-122145780D01*
X121618338Y-118945780D02*
X121618338Y-122145780D01*
X122168338Y-111945780D02*
X122168338Y-111395780D01*
X121618338Y-111945780D02*
X121618338Y-114145780D01*
X130368338Y-111945780D02*
X130918338Y-111945780D01*
X130368338Y-111395780D02*
X130368338Y-111945780D01*
X130368338Y-111395780D02*
X122168338Y-111395780D01*
X121618338Y-111945780D02*
X122168338Y-111945780D01*
D18*
X127284338Y-116795780D02*
G75*
G03*
X127284338Y-116795780I-1016000J0D01*
G01*
X127665338Y-116795780D02*
G75*
G03*
X127665338Y-116795780I-1397000J0D01*
G01*
D17*
%TO.C,RELEASE1*%
X152334338Y-111395780D02*
X144134338Y-111395780D01*
X143584338Y-111945780D02*
X144134338Y-111945780D01*
X143584338Y-118945780D02*
X143584338Y-122145780D01*
X152884338Y-114145780D02*
X152884338Y-111945780D01*
X144134338Y-122695780D02*
X144134338Y-122145780D01*
X144134338Y-122145780D02*
X143584338Y-122145780D01*
X152884338Y-122145780D02*
X152334338Y-122145780D01*
X144134338Y-122695780D02*
X152334338Y-122695780D01*
X144134338Y-111945780D02*
X144134338Y-111395780D01*
X152334338Y-122145780D02*
X152334338Y-122695780D01*
X152884338Y-122145780D02*
X152884338Y-118945780D01*
X152334338Y-111395780D02*
X152334338Y-111945780D01*
X152334338Y-111945780D02*
X152884338Y-111945780D01*
X143584338Y-111945780D02*
X143584338Y-114145780D01*
D18*
X149250338Y-116795780D02*
G75*
G03*
X149250338Y-116795780I-1016000J0D01*
G01*
X149631338Y-116795780D02*
G75*
G03*
X149631338Y-116795780I-1397000J0D01*
G01*
D19*
%TO.C,sw-midi1*%
X177563562Y-134876180D02*
X174883562Y-134876180D01*
X174883562Y-141116180D02*
X177563562Y-141116180D01*
X179343562Y-140966180D02*
X179343562Y-135026180D01*
X173103562Y-140966180D02*
X173103562Y-135026180D01*
X177637776Y-137996180D02*
G75*
G03*
X177637776Y-137996180I-1414214J0D01*
G01*
D17*
%TO.C,CTL2*%
X100202338Y-122097280D02*
X99652338Y-122097280D01*
X108402338Y-122097280D02*
X108402338Y-122647280D01*
X108952338Y-122097280D02*
X108952338Y-118897280D01*
X100202338Y-122647280D02*
X108402338Y-122647280D01*
X108952338Y-114097280D02*
X108952338Y-111897280D01*
X108402338Y-111347280D02*
X100202338Y-111347280D01*
X108402338Y-111347280D02*
X108402338Y-111897280D01*
X100202338Y-122647280D02*
X100202338Y-122097280D01*
X99652338Y-111897280D02*
X99652338Y-114097280D01*
X99652338Y-111897280D02*
X100202338Y-111897280D01*
X100202338Y-111897280D02*
X100202338Y-111347280D01*
X108952338Y-122097280D02*
X108402338Y-122097280D01*
X108402338Y-111897280D02*
X108952338Y-111897280D01*
X99652338Y-118897280D02*
X99652338Y-122097280D01*
D18*
X105318338Y-116747280D02*
G75*
G03*
X105318338Y-116747280I-1016000J0D01*
G01*
X105699338Y-116747280D02*
G75*
G03*
X105699338Y-116747280I-1397000J0D01*
G01*
D15*
%TO.C,MIDI-IN1*%
X171223562Y-150358929D02*
X171223562Y-152358929D01*
X171223562Y-156358929D02*
X173223562Y-158358929D01*
X179223562Y-154358929D02*
X181223562Y-156358929D01*
X181223562Y-154358929D02*
X181223562Y-152358929D01*
X181223562Y-156358929D02*
X181223562Y-154358929D01*
X175223562Y-158358929D02*
X171223562Y-154358929D01*
X181223562Y-152358929D02*
X181223562Y-150358929D01*
X173223562Y-154358929D02*
X171223562Y-152358929D01*
X179223562Y-152358929D02*
X181223562Y-154358929D01*
X179223562Y-158358929D02*
X181223562Y-158358929D01*
X171223562Y-158358929D02*
X173223562Y-158358929D01*
X171223562Y-156358929D02*
X171223562Y-158358929D01*
X171223562Y-148358929D02*
X171223562Y-150358929D01*
X171223562Y-147858929D02*
X171223562Y-148358929D01*
X179223562Y-156358929D02*
X181223562Y-158358929D01*
X171223562Y-154358929D02*
X171223562Y-156358929D01*
X179223562Y-148358929D02*
X181223562Y-150358929D01*
X181223562Y-158358929D02*
X181223562Y-156358929D01*
X181223562Y-150358929D02*
X181223562Y-147858929D01*
X179223562Y-158358929D02*
X177223562Y-156358929D01*
X173223562Y-150358929D02*
X171223562Y-148358929D01*
X181223562Y-147858929D02*
X171223562Y-147858929D01*
X179223562Y-150358929D02*
X181223562Y-152358929D01*
X173223562Y-158358929D02*
X175223562Y-158358929D01*
X175223562Y-158358929D02*
X179223562Y-158358929D01*
X171223562Y-152358929D02*
X171223562Y-154358929D01*
X173223562Y-152358929D02*
X171223562Y-150358929D01*
X178914283Y-152358929D02*
G75*
G03*
X178914283Y-152358929I-2690721J0D01*
G01*
%TO.C,MIDI-THRU1*%
X169286402Y-154358929D02*
X169286402Y-152358929D01*
X159286402Y-152358929D02*
X159286402Y-154358929D01*
X169286402Y-156358929D02*
X169286402Y-154358929D01*
X159286402Y-150358929D02*
X159286402Y-152358929D01*
X159286402Y-158358929D02*
X161286402Y-158358929D01*
X169286402Y-150358929D02*
X169286402Y-147858929D01*
X167286402Y-158358929D02*
X165286402Y-156358929D01*
X167286402Y-154358929D02*
X169286402Y-156358929D01*
X159286402Y-156358929D02*
X159286402Y-158358929D01*
X163286402Y-158358929D02*
X159286402Y-154358929D01*
X161286402Y-150358929D02*
X159286402Y-148358929D01*
X167286402Y-152358929D02*
X169286402Y-154358929D01*
X161286402Y-154358929D02*
X159286402Y-152358929D01*
X169286402Y-147858929D02*
X159286402Y-147858929D01*
X169286402Y-152358929D02*
X169286402Y-150358929D01*
X161286402Y-158358929D02*
X163286402Y-158358929D01*
X159286402Y-156358929D02*
X161286402Y-158358929D01*
X159286402Y-147858929D02*
X159286402Y-148358929D01*
X167286402Y-148358929D02*
X169286402Y-150358929D01*
X161286402Y-152358929D02*
X159286402Y-150358929D01*
X159286402Y-148358929D02*
X159286402Y-150358929D01*
X163286402Y-158358929D02*
X167286402Y-158358929D01*
X159286402Y-154358929D02*
X159286402Y-156358929D01*
X167286402Y-150358929D02*
X169286402Y-152358929D01*
X167286402Y-156358929D02*
X169286402Y-158358929D01*
X169286402Y-158358929D02*
X169286402Y-156358929D01*
X167286402Y-158358929D02*
X169286402Y-158358929D01*
X166977123Y-152358929D02*
G75*
G03*
X166977123Y-152358929I-2690721J0D01*
G01*
D19*
%TO.C,sw-sel2*%
X129473372Y-59186180D02*
X129473372Y-56506180D01*
X123233372Y-56506180D02*
X123233372Y-59186180D01*
X123383372Y-54726180D02*
X129323372Y-54726180D01*
X123383372Y-60966180D02*
X129323372Y-60966180D01*
X127767586Y-57846180D02*
G75*
G03*
X127767586Y-57846180I-1414214J0D01*
G01*
%TO.C,SW3*%
X148395905Y-75246180D02*
X148395905Y-74246180D01*
X144895905Y-68646180D02*
X142495905Y-68646180D01*
X152495905Y-82546180D02*
X152495905Y-81946180D01*
X154295905Y-68646180D02*
X151895905Y-68646180D01*
X152495905Y-81946180D02*
X152195905Y-82246180D01*
X148895905Y-74746180D02*
X147895905Y-74746180D01*
X152195905Y-82246180D02*
X152495905Y-82546180D01*
X154295905Y-80846180D02*
X142495905Y-80846180D01*
X142495905Y-76746180D02*
X142495905Y-80846180D01*
X149695905Y-68646180D02*
X147095905Y-68646180D01*
X154295905Y-72746180D02*
X154295905Y-68646180D01*
X142495905Y-68646180D02*
X142495905Y-72746180D01*
X154295905Y-76746180D02*
X154295905Y-80846180D01*
X151395905Y-74746180D02*
G75*
G03*
X151395905Y-74746180I-3000000J0D01*
G01*
%TO.C,SW4*%
X130453372Y-82546180D02*
X130453372Y-81946180D01*
X127653372Y-68646180D02*
X125053372Y-68646180D01*
X132253372Y-68646180D02*
X129853372Y-68646180D01*
X120453372Y-76746180D02*
X120453372Y-80846180D01*
X132253372Y-76746180D02*
X132253372Y-80846180D01*
X130153372Y-82246180D02*
X130453372Y-82546180D01*
X132253372Y-72746180D02*
X132253372Y-68646180D01*
X120453372Y-68646180D02*
X120453372Y-72746180D01*
X126853372Y-74746180D02*
X125853372Y-74746180D01*
X132253372Y-80846180D02*
X120453372Y-80846180D01*
X122853372Y-68646180D02*
X120453372Y-68646180D01*
X130453372Y-81946180D02*
X130153372Y-82246180D01*
X126353372Y-75246180D02*
X126353372Y-74246180D01*
X129353372Y-74746180D02*
G75*
G03*
X129353372Y-74746180I-3000000J0D01*
G01*
D15*
%TO.C,CV-CTL3*%
X124537762Y-133626929D02*
X124537762Y-133126929D01*
X115537762Y-143126929D02*
X115537762Y-143626929D01*
X115537762Y-133626929D02*
X115537762Y-133126929D01*
X124037762Y-143626929D02*
X124537762Y-143626929D01*
X115537762Y-143626929D02*
X116037762Y-143626929D01*
X124537762Y-133126929D02*
X124037762Y-133126929D01*
X124537762Y-143626929D02*
X124537762Y-143126929D01*
X115537762Y-133126929D02*
X116037762Y-133126929D01*
X122728483Y-137626929D02*
G75*
G03*
X122728483Y-137626929I-2690721J0D01*
G01*
%TO.C,CV-CTL4*%
X104600602Y-143126929D02*
X104600602Y-143626929D01*
X113600602Y-133126929D02*
X113100602Y-133126929D01*
X104600602Y-143626929D02*
X105100602Y-143626929D01*
X113100602Y-143626929D02*
X113600602Y-143626929D01*
X104600602Y-133626929D02*
X104600602Y-133126929D01*
X104600602Y-133126929D02*
X105100602Y-133126929D01*
X113600602Y-133626929D02*
X113600602Y-133126929D01*
X113600602Y-143626929D02*
X113600602Y-143126929D01*
X111791323Y-137626929D02*
G75*
G03*
X111791323Y-137626929I-2690721J0D01*
G01*
D19*
%TO.C,D5*%
X157847172Y-65741180D02*
X157847172Y-65585180D01*
X157847172Y-68057180D02*
X157847172Y-67901180D01*
X157847172Y-68056696D02*
G75*
G03*
X161079507Y-67899788I1560000J1235516D01*
G01*
X158366211Y-67901180D02*
G75*
G03*
X160448302Y-67901017I1040961J1080000D01*
G01*
X161079507Y-65742572D02*
G75*
G03*
X157847172Y-65585664I-1672335J-1078608D01*
G01*
X160448302Y-65741343D02*
G75*
G03*
X158366211Y-65741180I-1041130J-1079837D01*
G01*
%TO.C,D6*%
X157847172Y-73507180D02*
X157847172Y-73351180D01*
X157847172Y-71191180D02*
X157847172Y-71035180D01*
X161079507Y-71192572D02*
G75*
G03*
X157847172Y-71035664I-1672335J-1078608D01*
G01*
X158366211Y-73351180D02*
G75*
G03*
X160448302Y-73351017I1040961J1080000D01*
G01*
X157847172Y-73506696D02*
G75*
G03*
X161079507Y-73349788I1560000J1235516D01*
G01*
X160448302Y-71191343D02*
G75*
G03*
X158366211Y-71191180I-1041130J-1079837D01*
G01*
%TO.C,D7*%
X157847172Y-78957180D02*
X157847172Y-78801180D01*
X157847172Y-76641180D02*
X157847172Y-76485180D01*
X157847172Y-78956696D02*
G75*
G03*
X161079507Y-78799788I1560000J1235516D01*
G01*
X160448302Y-76641343D02*
G75*
G03*
X158366211Y-76641180I-1041130J-1079837D01*
G01*
X158366211Y-78801180D02*
G75*
G03*
X160448302Y-78801017I1040961J1080000D01*
G01*
X161079507Y-76642572D02*
G75*
G03*
X157847172Y-76485664I-1672335J-1078608D01*
G01*
%TO.C,D8*%
X157847172Y-82091180D02*
X157847172Y-81935180D01*
X157847172Y-84407180D02*
X157847172Y-84251180D01*
X160448302Y-82091343D02*
G75*
G03*
X158366211Y-82091180I-1041130J-1079837D01*
G01*
X157847172Y-84406696D02*
G75*
G03*
X161079507Y-84249788I1560000J1235516D01*
G01*
X161079507Y-82092572D02*
G75*
G03*
X157847172Y-81935664I-1672335J-1078608D01*
G01*
X158366211Y-84251180D02*
G75*
G03*
X160448302Y-84251017I1040961J1080000D01*
G01*
%TO.C,D9*%
X116902105Y-67901180D02*
X116902105Y-68057180D01*
X116902105Y-65585180D02*
X116902105Y-65741180D01*
X113669770Y-67899788D02*
G75*
G03*
X116902105Y-68056696I1672335J1078608D01*
G01*
X116902105Y-65585664D02*
G75*
G03*
X113669770Y-65742572I-1560000J-1235516D01*
G01*
X114300975Y-67901017D02*
G75*
G03*
X116383066Y-67901180I1041130J1079837D01*
G01*
X116383066Y-65741180D02*
G75*
G03*
X114300975Y-65741343I-1040961J-1080000D01*
G01*
%TO.C,D10*%
X116902105Y-71035180D02*
X116902105Y-71191180D01*
X116902105Y-73351180D02*
X116902105Y-73507180D01*
X114300975Y-73351017D02*
G75*
G03*
X116383066Y-73351180I1041130J1079837D01*
G01*
X116902105Y-71035664D02*
G75*
G03*
X113669770Y-71192572I-1560000J-1235516D01*
G01*
X116383066Y-71191180D02*
G75*
G03*
X114300975Y-71191343I-1040961J-1080000D01*
G01*
X113669770Y-73349788D02*
G75*
G03*
X116902105Y-73506696I1672335J1078608D01*
G01*
%TO.C,D11*%
X116902105Y-78801180D02*
X116902105Y-78957180D01*
X116902105Y-76485180D02*
X116902105Y-76641180D01*
X116902105Y-76485664D02*
G75*
G03*
X113669770Y-76642572I-1560000J-1235516D01*
G01*
X113669770Y-78799788D02*
G75*
G03*
X116902105Y-78956696I1672335J1078608D01*
G01*
X114300975Y-78801017D02*
G75*
G03*
X116383066Y-78801180I1041130J1079837D01*
G01*
X116383066Y-76641180D02*
G75*
G03*
X114300975Y-76641343I-1040961J-1080000D01*
G01*
%TO.C,D12*%
X116902105Y-81935180D02*
X116902105Y-82091180D01*
X116902105Y-84251180D02*
X116902105Y-84407180D01*
X116383066Y-82091180D02*
G75*
G03*
X114300975Y-82091343I-1040961J-1080000D01*
G01*
X116902105Y-81935664D02*
G75*
G03*
X113669770Y-82092572I-1560000J-1235516D01*
G01*
X113669770Y-84249788D02*
G75*
G03*
X116902105Y-84406696I1672335J1078608D01*
G01*
X114300975Y-84251017D02*
G75*
G03*
X116383066Y-84251180I1041130J1079837D01*
G01*
%TO.C,sw-sel1*%
X145425905Y-54726180D02*
X151365905Y-54726180D01*
X145425905Y-60966180D02*
X151365905Y-60966180D01*
X145275905Y-56506180D02*
X145275905Y-59186180D01*
X151515905Y-59186180D02*
X151515905Y-56506180D01*
X149810119Y-57846180D02*
G75*
G03*
X149810119Y-57846180I-1414214J0D01*
G01*
D17*
%TO.C,PM2*%
X131003373Y-100483480D02*
X131003373Y-97283480D01*
X131003373Y-100483480D02*
X130453373Y-100483480D01*
X122253373Y-100483480D02*
X121703373Y-100483480D01*
X122253373Y-101033480D02*
X130453373Y-101033480D01*
X130453373Y-89733480D02*
X130453373Y-90283480D01*
X131003373Y-92483480D02*
X131003373Y-90283480D01*
X130453373Y-90283480D02*
X131003373Y-90283480D01*
X122253373Y-90283480D02*
X122253373Y-89733480D01*
X122253373Y-101033480D02*
X122253373Y-100483480D01*
X121703373Y-90283480D02*
X121703373Y-92483480D01*
X130453373Y-100483480D02*
X130453373Y-101033480D01*
X121703373Y-90283480D02*
X122253373Y-90283480D01*
X121703373Y-97283480D02*
X121703373Y-100483480D01*
X130453373Y-89733480D02*
X122253373Y-89733480D01*
D18*
X127750373Y-95133480D02*
G75*
G03*
X127750373Y-95133480I-1397000J0D01*
G01*
X127369373Y-95133480D02*
G75*
G03*
X127369373Y-95133480I-1016000J0D01*
G01*
D17*
%TO.C,RATIO1*%
X152495905Y-89733480D02*
X144295905Y-89733480D01*
X143745905Y-90283480D02*
X143745905Y-92483480D01*
X153045905Y-92483480D02*
X153045905Y-90283480D01*
X153045905Y-100483480D02*
X152495905Y-100483480D01*
X144295905Y-90283480D02*
X144295905Y-89733480D01*
X152495905Y-89733480D02*
X152495905Y-90283480D01*
X144295905Y-101033480D02*
X152495905Y-101033480D01*
X144295905Y-101033480D02*
X144295905Y-100483480D01*
X153045905Y-100483480D02*
X153045905Y-97283480D01*
X152495905Y-100483480D02*
X152495905Y-101033480D01*
X143745905Y-90283480D02*
X144295905Y-90283480D01*
X144295905Y-100483480D02*
X143745905Y-100483480D01*
X143745905Y-97283480D02*
X143745905Y-100483480D01*
X152495905Y-90283480D02*
X153045905Y-90283480D01*
D18*
X149792905Y-95133480D02*
G75*
G03*
X149792905Y-95133480I-1397000J0D01*
G01*
X149411905Y-95133480D02*
G75*
G03*
X149411905Y-95133480I-1016000J0D01*
G01*
D17*
%TO.C,RATIO2*%
X99660838Y-90283480D02*
X99660838Y-92483480D01*
X108960838Y-100483480D02*
X108410838Y-100483480D01*
X100210838Y-101033480D02*
X108410838Y-101033480D01*
X108960838Y-100483480D02*
X108960838Y-97283480D01*
X99660838Y-97283480D02*
X99660838Y-100483480D01*
X100210838Y-101033480D02*
X100210838Y-100483480D01*
X100210838Y-90283480D02*
X100210838Y-89733480D01*
X108410838Y-100483480D02*
X108410838Y-101033480D01*
X108410838Y-89733480D02*
X108410838Y-90283480D01*
X108960838Y-92483480D02*
X108960838Y-90283480D01*
X108410838Y-89733480D02*
X100210838Y-89733480D01*
X100210838Y-100483480D02*
X99660838Y-100483480D01*
X108410838Y-90283480D02*
X108960838Y-90283480D01*
X99660838Y-90283480D02*
X100210838Y-90283480D01*
D18*
X105326838Y-95133480D02*
G75*
G03*
X105326838Y-95133480I-1016000J0D01*
G01*
X105707838Y-95133480D02*
G75*
G03*
X105707838Y-95133480I-1397000J0D01*
G01*
D17*
%TO.C,PM1*%
X175088438Y-100483480D02*
X174538438Y-100483480D01*
X175088438Y-100483480D02*
X175088438Y-97283480D01*
X165788438Y-90283480D02*
X166338438Y-90283480D01*
X166338438Y-101033480D02*
X174538438Y-101033480D01*
X175088438Y-92483480D02*
X175088438Y-90283480D01*
X166338438Y-100483480D02*
X165788438Y-100483480D01*
X165788438Y-97283480D02*
X165788438Y-100483480D01*
X166338438Y-90283480D02*
X166338438Y-89733480D01*
X174538438Y-90283480D02*
X175088438Y-90283480D01*
X174538438Y-89733480D02*
X174538438Y-90283480D01*
X165788438Y-90283480D02*
X165788438Y-92483480D01*
X166338438Y-101033480D02*
X166338438Y-100483480D01*
X174538438Y-89733480D02*
X166338438Y-89733480D01*
X174538438Y-100483480D02*
X174538438Y-101033480D01*
D18*
X171835438Y-95133480D02*
G75*
G03*
X171835438Y-95133480I-1397000J0D01*
G01*
X171454438Y-95133480D02*
G75*
G03*
X171454438Y-95133480I-1016000J0D01*
G01*
D19*
%TO.C,D4*%
X154414242Y-135760179D02*
X154414242Y-135916179D01*
X154414242Y-138076179D02*
X154414242Y-138232179D01*
X153895203Y-135916179D02*
G75*
G03*
X151813112Y-135916342I-1040961J-1080000D01*
G01*
X151181907Y-138074787D02*
G75*
G03*
X154414242Y-138231695I1672335J1078608D01*
G01*
X154414242Y-135760663D02*
G75*
G03*
X151181907Y-135917571I-1560000J-1235516D01*
G01*
X151813112Y-138076016D02*
G75*
G03*
X153895203Y-138076179I1041130J1079837D01*
G01*
%TD*%
M02*
