M48
; DRILL file {KiCad 6.0.7-1.fc36} date Sat 03 Sep 2022 10:34:57 PM GMT
; FORMAT={-:-/ absolute / inch / decimal}
; #@! TF.CreationDate,2022-09-03T22:34:57+00:00
; #@! TF.GenerationSoftware,Kicad,Pcbnew,6.0.7-1.fc36
; #@! TF.FileFunction,Plated,1,2,PTH
FMAT,2
INCH
; #@! TA.AperFunction,Plated,PTH,ViaDrill
T1C0.0157
; #@! TA.AperFunction,Plated,PTH,ComponentDrill
T2C0.0354
; #@! TA.AperFunction,Plated,PTH,ComponentDrill
T3C0.0394
; #@! TA.AperFunction,Plated,PTH,ComponentDrill
T4C0.0433
; #@! TA.AperFunction,Plated,PTH,ComponentDrill
T5C0.0591
; #@! TA.AperFunction,Plated,PTH,ComponentDrill
T6C0.0827
; #@! TA.AperFunction,Plated,PTH,ComponentDrill
T7C0.0906
%
G90
G05
T1
X3.6457Y-2.3498
X3.6957Y-2.1898
X3.7476Y-5.3266
X3.7507Y-2.2348
X3.8057Y-2.2648
X3.8357Y-2.5548
X3.8357Y-3.0548
X3.8407Y-2.3548
X3.8407Y-2.4598
X3.8457Y-2.7548
X3.8757Y-2.1198
X3.9007Y-2.9048
X3.9346Y-5.8502
X3.9474Y-2.1308
X3.9503Y-3.492
X4.0107Y-2.2098
X4.0357Y-2.6548
X4.0429Y-2.8542
X4.0507Y-2.3498
X4.0557Y-2.4598
X4.0767Y-2.7558
X4.0807Y-2.5548
X4.1187Y-3.4098
X4.2118Y-3.287
X4.2776Y-2.751
X4.2847Y-3.1158
X4.3598Y-4.93
X4.3598Y-5.1052
X4.387Y-3.3909
X4.3887Y-3.1158
X4.4095Y-5.2425
X4.4499Y-3.9904
X4.4838Y-2.9014
X4.4877Y-4.992
X4.4966Y-5.2095
X4.5114Y-5.9644
X4.5123Y-4.053
X4.5407Y-5.1898
X4.5448Y-4.992
X4.5478Y-3.802
X4.5901Y-5.1898
X4.6157Y-2.2698
X4.6441Y-3.9911
X4.6462Y-5.2774
X4.6649Y-4.8473
X4.6659Y-5.1121
X4.7456Y-3.116
X4.7507Y-2.7898
X4.7751Y-3.0589
X4.781Y-3.1514
X4.7907Y-2.7598
X4.8007Y-4.3384
X4.8913Y-4.4624
X4.909Y-4.6436
X4.9444Y-4.2124
X4.9679Y-2.872
X4.972Y-5.2794
X5.1177Y-4.1229
X5.1964Y-4.0284
X5.2121Y-3.8817
X5.223Y-3.6721
X5.2357Y-2.6648
X5.2657Y-2.2698
X5.281Y-2.8483
X5.2978Y-3.676
X5.3057Y-2.2998
X5.3057Y-3.0998
X5.3057Y-4.5798
X5.3086Y-2.8817
X5.3381Y-2.9152
X5.3415Y-3.4232
X5.3657Y-2.9526
X5.3657Y-3.0948
X5.366Y-3.632
X5.3677Y-5.2735
X5.3696Y-5.6337
X5.3893Y-4.8286
X5.3957Y-5.0748
X5.4011Y-4.4615
X5.404Y-3.654
X5.4149Y-2.4408
X5.4326Y-3.9752
X5.4366Y-5.1672
X5.4453Y-2.3331
X5.4464Y-6.2577
X5.448Y-3.602
X5.474Y-2.4723
X5.4799Y-6.2065
X5.482Y-3.65
X5.4838Y-5.2754
X5.486Y-3.61
X5.5114Y-2.5038
X5.5163Y-3.6682
X5.5207Y-5.1748
X5.5389Y-2.5432
X5.5406Y-2.1476
X5.5507Y-2.2598
X5.5659Y-3.3839
X5.6112Y-3.4833
X5.6217Y-2.1913
X5.624Y-2.3988
X5.6248Y-2.322
X5.6423Y-3.8296
X5.6507Y-5.1398
X5.6905Y-5.0392
X5.781Y-3.6012
X5.786Y-5.5569
X5.8125Y-4.5235
X5.8407Y-2.8798
X5.848Y-4.1613
X5.8707Y-5.1648
X5.8814Y-5.0983
X5.8917Y-4.6569
X5.909Y-5.2794
X5.9707Y-2.7898
X5.9757Y-2.8398
X5.9966Y-4.4851
X6.0143Y-4.2646
X6.1257Y-2.1098
X6.1736Y-4.0017
X6.2377Y-4.0806
X6.2988Y-4.0786
X6.3107Y-5.0548
X6.3145Y-5.8069
X6.3888Y-3.4833
X6.4203Y-3.5049
X6.4356Y-4.2656
X6.4444Y-3.1475
X6.4764Y-3.4459
X6.4818Y-3.1987
X6.4936Y-2.929
X6.5468Y-2.9861
X6.5488Y-2.4546
X6.5488Y-3.425
X6.6098Y-4.49
X6.6157Y-5.366
X6.6619Y-4.0776
X6.6807Y-2.0348
X6.7692Y-5.8483
X6.8775Y-6.0845
X7.0307Y-2.7798
T2
X4.441Y-2.6308
X4.441Y-2.8453
X4.441Y-3.0599
X4.441Y-3.2745
X4.541Y-2.6308
X4.541Y-2.8453
X4.541Y-3.0599
X4.541Y-3.2745
X4.641Y-2.6308
X4.641Y-2.8453
X4.641Y-3.0599
X4.641Y-3.2745
X5.9679Y-5.3936
X6.0679Y-5.3936
X6.1759Y-2.6308
X6.1759Y-2.8453
X6.1759Y-3.0599
X6.1759Y-3.2745
X6.2759Y-2.6308
X6.2759Y-2.8453
X6.2759Y-3.0599
X6.2759Y-3.2745
X6.3759Y-2.6308
X6.3759Y-2.8453
X6.3759Y-3.0599
X6.3759Y-3.2745
X6.8867Y-2.2304
X6.8867Y-2.3288
X6.8867Y-2.4076
X6.8867Y-2.506
T3
X4.8466Y-2.1888
X4.8466Y-2.366
X4.8761Y-2.6672
X4.8761Y-3.238
X4.9745Y-3.238
X5.073Y-2.6672
X5.073Y-3.238
X5.1025Y-2.1888
X5.1025Y-2.366
X5.7144Y-2.1888
X5.7144Y-2.366
X5.7439Y-2.6672
X5.7439Y-3.238
X5.8424Y-3.238
X5.9408Y-2.6672
X5.9408Y-3.238
X5.9703Y-2.1888
X5.9703Y-2.366
X6.8494Y-5.305
X6.8494Y-5.5609
X7.0265Y-5.305
X7.0265Y-5.5609
T4
X3.8647Y-5.1625
X3.8647Y-5.2806
X3.8647Y-5.6152
X3.8647Y-5.742
X3.8647Y-5.8601
X3.8647Y-6.1947
X4.008Y-4.8719
X4.0083Y-4.021
X4.1064Y-4.8719
X4.1067Y-4.021
X4.2048Y-4.8719
X4.2052Y-4.021
X4.2953Y-5.1625
X4.2953Y-5.2806
X4.2953Y-5.6152
X4.2953Y-5.7425
X4.2953Y-5.8606
X4.2953Y-6.1952
X4.7259Y-5.1625
X4.7259Y-5.2806
X4.7259Y-5.6152
X4.7259Y-5.7425
X4.7259Y-5.8606
X4.7259Y-6.1952
X4.8728Y-4.8738
X4.8761Y-4.021
X4.9712Y-4.8738
X4.9745Y-4.021
X5.0696Y-4.8738
X5.073Y-4.021
X5.1565Y-5.1625
X5.1565Y-5.2806
X5.1565Y-5.6152
X5.1565Y-5.7425
X5.1565Y-5.8606
X5.1565Y-6.1952
X5.5871Y-5.1625
X5.5871Y-5.2806
X5.5871Y-5.6152
X5.5871Y-5.7425
X5.5871Y-5.8606
X5.5871Y-6.1952
X5.7376Y-4.8738
X5.7439Y-4.021
X5.836Y-4.8738
X5.8424Y-4.021
X5.9344Y-4.8738
X5.9408Y-4.021
X6.0177Y-5.7425
X6.0177Y-5.8606
X6.0177Y-6.1952
X6.468Y-5.1625
X6.468Y-5.2806
X6.468Y-5.6152
X6.468Y-5.7425
X6.468Y-5.8606
X6.468Y-6.1952
X6.6024Y-4.8713
X6.6117Y-4.021
X6.7008Y-4.8713
X6.7102Y-4.021
X6.7992Y-4.8713
X6.8086Y-4.021
X6.9379Y-5.7425
X6.9379Y-5.8606
X6.9379Y-6.1952
T6
X3.9292Y-4.5963
X3.9296Y-3.7454
X4.2836Y-4.5963
X4.2839Y-3.7454
X4.794Y-4.5983
X4.7974Y-3.7454
X5.1484Y-4.5983
X5.1517Y-3.7454
X5.6588Y-4.5983
X5.6652Y-3.7454
X6.0132Y-4.5983
X6.0195Y-3.7454
X6.5236Y-4.5958
X6.533Y-3.7454
X6.878Y-4.5958
X6.8873Y-3.7454
T7
X6.78Y-2.1096
X6.78Y-2.6269
T5
G00X4.7541Y-2.9684
M15
G01X4.7541Y-2.9172
M16
G05
G00X5.195Y-2.9684
M15
G01X5.195Y-2.9172
M16
G05
G00X5.6219Y-2.9684
M15
G01X5.6219Y-2.9172
M16
G05
G00X6.0628Y-2.9684
M15
G01X6.0628Y-2.9172
M16
G05
T0
M30
