G04 #@! TF.GenerationSoftware,KiCad,Pcbnew,(6.0.1-0)*
G04 #@! TF.CreationDate,2022-04-07T21:36:06+00:00*
G04 #@! TF.ProjectId,frontpanel(1),66726f6e-7470-4616-9e65-6c2831292e6b,rev?*
G04 #@! TF.SameCoordinates,Original*
G04 #@! TF.FileFunction,Profile,NP*
%FSLAX46Y46*%
G04 Gerber Fmt 4.6, Leading zero omitted, Abs format (unit mm)*
G04 Created by KiCad (PCBNEW (6.0.1-0)) date 2022-04-07 21:36:06*
%MOMM*%
%LPD*%
G01*
G04 APERTURE LIST*
G04 #@! TA.AperFunction,Profile*
%ADD10C,0.050000*%
G04 #@! TD*
G04 #@! TA.AperFunction,Profile*
%ADD11C,0.152400*%
G04 #@! TD*
G04 #@! TA.AperFunction,Profile*
%ADD12C,0.010000*%
G04 #@! TD*
G04 #@! TA.AperFunction,Profile*
%ADD13C,0.200000*%
G04 #@! TD*
G04 APERTURE END LIST*
D10*
X168165736Y-105525149D02*
G75*
G03*
X168165736Y-105525149I-3000000J0D01*
G01*
X151412965Y-63021000D02*
G75*
G03*
X151412965Y-63021000I-3500000J0D01*
G01*
X129370433Y-63021000D02*
G75*
G03*
X129370433Y-63021000I-3500000J0D01*
G01*
X124417096Y-120257149D02*
G75*
G03*
X124417096Y-120257149I-3000000J0D01*
G01*
X157228576Y-120257149D02*
G75*
G03*
X157228576Y-120257149I-3000000J0D01*
G01*
X173476800Y-63021000D02*
G75*
G03*
X173476800Y-63021000I-3500000J0D01*
G01*
X179102900Y-120257149D02*
G75*
G03*
X179102900Y-120257149I-3000000J0D01*
G01*
X168165736Y-120257149D02*
G75*
G03*
X168165736Y-120257149I-3000000J0D01*
G01*
X179102900Y-105525149D02*
G75*
G03*
X179102900Y-105525149I-3000000J0D01*
G01*
X107327900Y-63021000D02*
G75*
G03*
X107327900Y-63021000I-3500000J0D01*
G01*
X150412966Y-25733700D02*
G75*
G03*
X150412966Y-25733700I-2500000J0D01*
G01*
X101042776Y-120257149D02*
G75*
G03*
X101042776Y-120257149I-3000000J0D01*
G01*
X112979936Y-105525149D02*
G75*
G03*
X112979936Y-105525149I-3000000J0D01*
G01*
X146291416Y-120257149D02*
G75*
G03*
X146291416Y-120257149I-3000000J0D01*
G01*
X151498000Y-84694000D02*
G75*
G03*
X151498000Y-84694000I-3500000J0D01*
G01*
X129532000Y-84694000D02*
G75*
G03*
X129532000Y-84694000I-3500000J0D01*
G01*
X173464000Y-84645500D02*
G75*
G03*
X173464000Y-84645500I-3500000J0D01*
G01*
X107566000Y-84630500D02*
G75*
G03*
X107566000Y-84630500I-3500000J0D01*
G01*
D11*
X182702200Y-10541000D02*
X182702200Y-139041000D01*
X91389200Y-10541000D02*
X182702200Y-10541000D01*
X91389200Y-139041000D02*
X91389200Y-10541000D01*
X182702200Y-139041000D02*
X91389200Y-139041000D01*
X97949362Y-21590000D02*
X103283362Y-21590000D01*
X97949362Y-34544000D02*
X97949362Y-21590000D01*
X97949362Y-34544000D02*
X103283362Y-34544000D01*
X103283362Y-21590000D02*
X103283362Y-34544000D01*
D10*
X135354256Y-120257149D02*
G75*
G03*
X135354256Y-120257149I-3000000J0D01*
G01*
X112979936Y-120257149D02*
G75*
G03*
X112979936Y-120257149I-3000000J0D01*
G01*
X157228576Y-105525149D02*
G75*
G03*
X157228576Y-105525149I-3000000J0D01*
G01*
D12*
X95536362Y-20955000D02*
G75*
G03*
X95536362Y-20955000I-1500000J0D01*
G01*
D10*
X100542776Y-105883700D02*
G75*
G03*
X100542776Y-105883700I-2500000J0D01*
G01*
X146291416Y-105514449D02*
G75*
G03*
X146291416Y-105514449I-3000000J0D01*
G01*
X124417096Y-105514449D02*
G75*
G03*
X124417096Y-105514449I-3000000J0D01*
G01*
X151416900Y-42633900D02*
G75*
G03*
X151416900Y-42633900I-3500000J0D01*
G01*
X128370433Y-25733700D02*
G75*
G03*
X128370433Y-25733700I-2500000J0D01*
G01*
D13*
X100489200Y-136041000D02*
G75*
G03*
X100489200Y-136041000I-1600000J0D01*
G01*
X100570971Y-13541000D02*
G75*
G03*
X100570971Y-13541000I-1600000J0D01*
G01*
X176802200Y-136041000D02*
G75*
G03*
X176802200Y-136041000I-1600000J0D01*
G01*
D10*
X135354256Y-105514449D02*
G75*
G03*
X135354256Y-105514449I-3000000J0D01*
G01*
D13*
X176770971Y-13541000D02*
G75*
G03*
X176770971Y-13541000I-1600000J0D01*
G01*
D10*
X129369700Y-42633900D02*
G75*
G03*
X129369700Y-42633900I-3500000J0D01*
G01*
M02*
