G04 #@! TF.GenerationSoftware,KiCad,Pcbnew,(6.0.1-0)*
G04 #@! TF.CreationDate,2022-04-07T21:36:06+00:00*
G04 #@! TF.ProjectId,frontpanel(1),66726f6e-7470-4616-9e65-6c2831292e6b,rev?*
G04 #@! TF.SameCoordinates,Original*
G04 #@! TF.FileFunction,Soldermask,Bot*
G04 #@! TF.FilePolarity,Negative*
%FSLAX46Y46*%
G04 Gerber Fmt 4.6, Leading zero omitted, Abs format (unit mm)*
G04 Created by KiCad (PCBNEW (6.0.1-0)) date 2022-04-07 21:36:06*
%MOMM*%
%LPD*%
G01*
G04 APERTURE LIST*
%ADD10C,2.200000*%
G04 APERTURE END LIST*
D10*
X115949166Y-45608700D02*
G75*
G03*
X115949166Y-45608700I-1100000J0D01*
G01*
X115949166Y-51058700D02*
G75*
G03*
X115949166Y-51058700I-1100000J0D01*
G01*
G04 #@! TO.C,G\u002A\u002A\u002A*
G36*
X157664233Y-46360117D02*
G01*
X158786067Y-46360117D01*
X158786067Y-44582117D01*
X160458233Y-44582117D01*
X160458233Y-46635283D01*
X160204233Y-46635283D01*
X160204233Y-44857283D01*
X159061233Y-44857283D01*
X159061233Y-46635283D01*
X157410233Y-46635283D01*
X157410233Y-44582117D01*
X157664233Y-44582117D01*
X157664233Y-46360117D01*
G37*
G36*
X159034945Y-34477323D02*
G01*
X159040445Y-35476662D01*
X159724686Y-34478422D01*
X160408928Y-33480182D01*
X160617361Y-33480182D01*
X160617361Y-35872015D01*
X160406109Y-35872015D01*
X160400610Y-34878420D01*
X160395111Y-33884826D01*
X159717778Y-34877241D01*
X159040445Y-35869655D01*
X158818609Y-35872015D01*
X158813110Y-34881471D01*
X158807611Y-33890928D01*
X158140861Y-34863078D01*
X158059182Y-34982181D01*
X157939183Y-35157196D01*
X157827702Y-35319834D01*
X157726941Y-35466875D01*
X157639107Y-35595103D01*
X157566404Y-35701297D01*
X157511035Y-35782239D01*
X157475206Y-35834711D01*
X157461122Y-35855494D01*
X157450868Y-35859802D01*
X157410158Y-35851706D01*
X157349619Y-35825693D01*
X157251106Y-35775627D01*
X158818276Y-33490765D01*
X158923861Y-33484374D01*
X159029446Y-33477985D01*
X159034945Y-34477323D01*
G37*
G36*
X160458233Y-52318117D02*
G01*
X160204698Y-52318117D01*
X160199174Y-51434409D01*
X160193650Y-50550700D01*
X159627442Y-50545063D01*
X159061233Y-50539425D01*
X159061233Y-52318117D01*
X157410233Y-52318117D01*
X157410233Y-50286117D01*
X157663769Y-50286117D01*
X157669293Y-51169825D01*
X157674817Y-52053534D01*
X158796650Y-52053534D01*
X158802167Y-51164534D01*
X158807685Y-50275534D01*
X160458233Y-50275534D01*
X160458233Y-52318117D01*
G37*
G36*
X158807233Y-50053284D02*
G01*
X157706567Y-50053284D01*
X157706567Y-49799284D01*
X158807233Y-49799284D01*
X158807233Y-50053284D01*
G37*
G36*
X115895308Y-34786854D02*
G01*
X115900983Y-34948046D01*
X115906658Y-35109239D01*
X115748770Y-35109239D01*
X115748770Y-34774726D01*
X115895308Y-34786854D01*
G37*
G36*
X115905077Y-34230008D02*
G01*
X115748770Y-34230008D01*
X115748770Y-33917393D01*
X115905077Y-33917393D01*
X115905077Y-34230008D01*
G37*
G36*
X113951231Y-33800162D02*
G01*
X113794924Y-33800162D01*
X113794924Y-33487546D01*
X113951231Y-33487546D01*
X113951231Y-33800162D01*
G37*
G36*
X113951231Y-35109239D02*
G01*
X113793343Y-35109239D01*
X113799018Y-34948046D01*
X113804693Y-34786854D01*
X113951231Y-34774726D01*
X113951231Y-35109239D01*
G37*
G36*
X114889077Y-35968931D02*
G01*
X114732770Y-35968931D01*
X114732770Y-35656316D01*
X114889077Y-35656316D01*
X114889077Y-35968931D01*
G37*
G36*
X114889077Y-34230008D02*
G01*
X114732770Y-34230008D01*
X114732770Y-33917393D01*
X114889077Y-33917393D01*
X114889077Y-34230008D01*
G37*
G36*
X115905077Y-35539085D02*
G01*
X115748770Y-35539085D01*
X115748770Y-35226469D01*
X115905077Y-35226469D01*
X115905077Y-35539085D01*
G37*
G36*
X113951231Y-35539085D02*
G01*
X113794924Y-35539085D01*
X113794924Y-35226469D01*
X113951231Y-35226469D01*
X113951231Y-35539085D01*
G37*
G36*
X114420154Y-36008008D02*
G01*
X114263847Y-36008008D01*
X114263847Y-33409393D01*
X114420154Y-33409393D01*
X114420154Y-36008008D01*
G37*
G36*
X114889077Y-33800162D02*
G01*
X114732770Y-33800162D01*
X114732770Y-33487546D01*
X114889077Y-33487546D01*
X114889077Y-33800162D01*
G37*
G36*
X113482308Y-36008008D02*
G01*
X113326000Y-36008008D01*
X113326000Y-33409393D01*
X113482308Y-33409393D01*
X113482308Y-36008008D01*
G37*
G36*
X115905077Y-33800162D02*
G01*
X115748770Y-33800162D01*
X115748770Y-33487546D01*
X115905077Y-33487546D01*
X115905077Y-33800162D01*
G37*
G36*
X115905077Y-34679393D02*
G01*
X115748770Y-34679393D01*
X115748770Y-34347239D01*
X115905077Y-34347239D01*
X115905077Y-34679393D01*
G37*
G36*
X114889077Y-35109239D02*
G01*
X114731189Y-35109239D01*
X114736864Y-34948046D01*
X114742539Y-34786854D01*
X114889077Y-34774726D01*
X114889077Y-35109239D01*
G37*
G36*
X116374000Y-36008008D02*
G01*
X116217693Y-36008008D01*
X116217693Y-33409393D01*
X116374000Y-33409393D01*
X116374000Y-36008008D01*
G37*
G36*
X113951231Y-34230008D02*
G01*
X113794924Y-34230008D01*
X113794924Y-33917393D01*
X113951231Y-33917393D01*
X113951231Y-34230008D01*
G37*
G36*
X114889077Y-35539085D02*
G01*
X114732770Y-35539085D01*
X114732770Y-35226469D01*
X114889077Y-35226469D01*
X114889077Y-35539085D01*
G37*
G36*
X115358000Y-36008008D02*
G01*
X115201693Y-36008008D01*
X115201693Y-33409393D01*
X115358000Y-33409393D01*
X115358000Y-36008008D01*
G37*
G36*
X114889077Y-34681751D02*
G01*
X114742539Y-34669623D01*
X114731189Y-34347239D01*
X114889077Y-34347239D01*
X114889077Y-34681751D01*
G37*
G36*
X113951231Y-34679393D02*
G01*
X113794924Y-34679393D01*
X113794924Y-34347239D01*
X113951231Y-34347239D01*
X113951231Y-34679393D01*
G37*
G36*
X115905077Y-35968931D02*
G01*
X115748770Y-35968931D01*
X115748770Y-35656316D01*
X115905077Y-35656316D01*
X115905077Y-35968931D01*
G37*
G36*
X113951231Y-35968931D02*
G01*
X113794924Y-35968931D01*
X113794924Y-35656316D01*
X113951231Y-35656316D01*
X113951231Y-35968931D01*
G37*
G36*
X159733275Y-41366478D02*
G01*
X159585108Y-41366478D01*
X159584865Y-40927269D01*
X159584622Y-40488061D01*
X159325574Y-40926130D01*
X159066525Y-41364200D01*
X158977238Y-41365339D01*
X158887952Y-41366478D01*
X158881988Y-41117769D01*
X158876025Y-40869061D01*
X158755560Y-41117769D01*
X158741760Y-41146248D01*
X158696271Y-41238912D01*
X158663236Y-41301074D01*
X158637862Y-41338822D01*
X158615355Y-41358246D01*
X158590921Y-41365434D01*
X158559768Y-41366478D01*
X158484441Y-41366478D01*
X158484291Y-40683853D01*
X158484140Y-40001228D01*
X158205128Y-40466894D01*
X158090987Y-40657394D01*
X158004377Y-40801984D01*
X157919627Y-40943547D01*
X157843847Y-41070208D01*
X157779596Y-41177687D01*
X157729433Y-41261701D01*
X157695919Y-41317970D01*
X157681611Y-41342212D01*
X157676249Y-41350598D01*
X157656035Y-41359955D01*
X157619186Y-41342212D01*
X157615267Y-41339816D01*
X157578277Y-41324936D01*
X157557014Y-41339195D01*
X157551588Y-41345772D01*
X157525400Y-41348765D01*
X157478285Y-41323659D01*
X157470853Y-41318658D01*
X157431545Y-41287016D01*
X157415525Y-41264601D01*
X157423850Y-41243718D01*
X157448676Y-41187761D01*
X157488445Y-41100182D01*
X157541596Y-40984365D01*
X157606565Y-40843691D01*
X157681791Y-40681544D01*
X157765711Y-40501308D01*
X157781784Y-40466894D01*
X157955275Y-40466894D01*
X157965858Y-40477478D01*
X157976441Y-40466894D01*
X157965858Y-40456311D01*
X157955275Y-40466894D01*
X157781784Y-40466894D01*
X157796613Y-40435144D01*
X157985613Y-40435144D01*
X157989488Y-40430268D01*
X158011757Y-40395916D01*
X158050901Y-40333001D01*
X158103775Y-40246645D01*
X158167233Y-40141967D01*
X158238130Y-40024087D01*
X158242411Y-40016942D01*
X158320834Y-39885671D01*
X158380158Y-39784606D01*
X158396359Y-39755645D01*
X158631955Y-39755645D01*
X158637573Y-40360708D01*
X158643191Y-40965770D01*
X158873515Y-40472273D01*
X159054553Y-40472273D01*
X159060539Y-40718552D01*
X159066525Y-40964832D01*
X159325816Y-40532498D01*
X159585108Y-40100165D01*
X159584640Y-39345061D01*
X159319596Y-39908667D01*
X159054553Y-40472273D01*
X158873515Y-40472273D01*
X158876025Y-40466894D01*
X158882437Y-40064728D01*
X158883953Y-39947937D01*
X158884930Y-39809913D01*
X158885003Y-39683052D01*
X158884172Y-39577740D01*
X158882437Y-39504365D01*
X158876025Y-39346168D01*
X158790515Y-39489629D01*
X158753990Y-39550907D01*
X158631955Y-39755645D01*
X158396359Y-39755645D01*
X158423022Y-39707980D01*
X158452068Y-39650028D01*
X158469935Y-39604983D01*
X158479265Y-39567079D01*
X158482697Y-39530550D01*
X158482873Y-39489629D01*
X158481305Y-39366228D01*
X158421819Y-39493228D01*
X158418340Y-39500651D01*
X158388309Y-39564684D01*
X158344732Y-39657527D01*
X158291424Y-39771057D01*
X158232199Y-39897151D01*
X158170871Y-40027686D01*
X158149863Y-40072474D01*
X158095935Y-40188234D01*
X158050023Y-40287932D01*
X158014649Y-40366016D01*
X157992338Y-40416937D01*
X157985613Y-40435144D01*
X157796613Y-40435144D01*
X157856762Y-40306364D01*
X157953382Y-40100095D01*
X158491240Y-38953478D01*
X158631020Y-38953478D01*
X158637106Y-39149269D01*
X158643191Y-39345061D01*
X158758691Y-39149269D01*
X158874190Y-38953478D01*
X159055239Y-38953478D01*
X159060882Y-39507054D01*
X159062676Y-39683052D01*
X159066525Y-40060631D01*
X159578571Y-38964061D01*
X159655923Y-38957491D01*
X159733275Y-38950923D01*
X159733553Y-39401991D01*
X159733831Y-39853061D01*
X160000297Y-39403269D01*
X160266763Y-38953478D01*
X160452941Y-38953478D01*
X160452941Y-41366478D01*
X160262856Y-41366478D01*
X160251858Y-39368636D01*
X159992566Y-39806097D01*
X159818266Y-40100165D01*
X159733275Y-40243557D01*
X159733275Y-41366478D01*
G37*
G36*
X114854317Y-38602751D02*
G01*
X114883715Y-38639322D01*
X114933712Y-38709914D01*
X115000092Y-38807962D01*
X115078643Y-38926901D01*
X115165151Y-39060165D01*
X115255402Y-39201189D01*
X115345184Y-39343407D01*
X115430281Y-39480254D01*
X115506481Y-39605165D01*
X115569570Y-39711573D01*
X115615334Y-39792915D01*
X115683062Y-39925662D01*
X115761892Y-40097525D01*
X115829463Y-40264277D01*
X115882179Y-40416233D01*
X115916445Y-40543707D01*
X115928666Y-40637012D01*
X115924530Y-40730881D01*
X115881104Y-40951895D01*
X115794116Y-41156134D01*
X115668197Y-41337706D01*
X115507978Y-41490716D01*
X115318090Y-41609270D01*
X115103166Y-41687474D01*
X115099191Y-41688453D01*
X114877255Y-41718285D01*
X114661381Y-41701613D01*
X114456923Y-41642654D01*
X114269233Y-41545624D01*
X114103664Y-41414741D01*
X113965570Y-41254221D01*
X113860303Y-41068282D01*
X113793218Y-40861140D01*
X113769666Y-40637012D01*
X113777341Y-40566630D01*
X113807242Y-40445580D01*
X113856354Y-40297997D01*
X113921081Y-40133568D01*
X113997827Y-39961978D01*
X114082999Y-39792915D01*
X114099580Y-39762690D01*
X114153030Y-39670170D01*
X114222060Y-39555303D01*
X114302456Y-39424652D01*
X114390005Y-39284784D01*
X114480492Y-39142264D01*
X114569704Y-39003658D01*
X114653428Y-38875530D01*
X114727450Y-38764446D01*
X114787556Y-38676972D01*
X114829533Y-38619673D01*
X114849166Y-38599115D01*
X114854317Y-38602751D01*
G37*
G04 #@! TD*
M02*
