M48
; DRILL file {KiCad (6.0.1-0)} date 2022 April 07, Thursday 21:47:23
; FORMAT={-:-/ absolute / inch / decimal}
; #@! TF.CreationDate,2022-04-07T21:47:23+00:00
; #@! TF.GenerationSoftware,Kicad,Pcbnew,(6.0.1-0)
; #@! TF.FileFunction,MixedPlating,1,2
FMAT,2
INCH
; #@! TA.AperFunction,Plated,PTH,ViaDrill
T1C0.0157
; #@! TA.AperFunction,Plated,PTH,ComponentDrill
T2C0.0315
; #@! TA.AperFunction,Plated,PTH,ComponentDrill
T3C0.0354
; #@! TA.AperFunction,Plated,PTH,ComponentDrill
T4C0.0393
; #@! TA.AperFunction,Plated,PTH,ComponentDrill
T5C0.0394
; #@! TA.AperFunction,Plated,PTH,ComponentDrill
T6C0.0433
; #@! TA.AperFunction,Plated,PTH,ComponentDrill
T7C0.0591
; #@! TA.AperFunction,Plated,PTH,ComponentDrill
T8C0.0827
; #@! TA.AperFunction,Plated,PTH,ComponentDrill
T9C0.0906
; #@! TA.AperFunction,NonPlated,NPTH,ComponentDrill
T10C0.0354
; #@! TA.AperFunction,NonPlated,NPTH,ComponentDrill
T11C0.0984
%
G90
G05
T1
X3.6457Y-2.3498
X3.6957Y-2.1898
X3.7476Y-5.3266
X3.7507Y-2.2348
X3.8057Y-2.2648
X3.8357Y-2.5548
X3.8357Y-3.0548
X3.8407Y-2.3548
X3.8407Y-2.4598
X3.8457Y-2.7548
X3.8757Y-2.1198
X3.9007Y-2.9048
X3.9346Y-5.8502
X3.9474Y-2.1308
X3.9503Y-3.492
X4.0107Y-2.2098
X4.0357Y-2.6548
X4.0429Y-2.8542
X4.0507Y-2.3498
X4.0557Y-2.4598
X4.0767Y-2.7558
X4.0807Y-2.5548
X4.1187Y-3.4098
X4.2847Y-3.1158
X4.3598Y-4.93
X4.3598Y-5.1052
X4.3887Y-3.1158
X4.4095Y-5.2425
X4.4499Y-3.9904
X4.4838Y-2.9014
X4.4877Y-4.992
X4.4966Y-5.2095
X4.5114Y-5.9644
X4.5123Y-4.053
X4.5407Y-5.1898
X4.5448Y-4.992
X4.5478Y-3.802
X4.5901Y-5.1898
X4.6157Y-2.2698
X4.6441Y-3.9911
X4.6462Y-5.2774
X4.6649Y-4.8473
X4.6659Y-5.1121
X4.7456Y-3.116
X4.7507Y-2.7898
X4.7751Y-3.0589
X4.781Y-3.1514
X4.7907Y-2.7598
X4.8007Y-4.3384
X4.8913Y-4.4624
X4.909Y-4.6436
X4.9444Y-4.2124
X4.9679Y-2.872
X4.972Y-5.2794
X5.1177Y-4.1229
X5.1457Y-3.4148
X5.1787Y-3.3698
X5.1807Y-3.2648
X5.1964Y-4.0284
X5.2121Y-3.8817
X5.223Y-3.6721
X5.2357Y-2.6648
X5.2657Y-2.2698
X5.281Y-2.8483
X5.2978Y-3.676
X5.3057Y-2.2998
X5.3057Y-3.0998
X5.3057Y-4.5798
X5.3086Y-2.8817
X5.3087Y-3.5838
X5.3381Y-2.9152
X5.3657Y-2.9526
X5.3657Y-3.0948
X5.3677Y-5.2735
X5.3696Y-5.6337
X5.3787Y-3.5818
X5.3893Y-4.8286
X5.3957Y-5.0748
X5.4011Y-4.4615
X5.4149Y-2.4408
X5.4167Y-3.5918
X5.4326Y-3.9752
X5.4366Y-5.1672
X5.4464Y-6.2577
X5.4507Y-3.5418
X5.474Y-2.4723
X5.4799Y-6.2065
X5.4838Y-3.5973
X5.4838Y-5.2754
X5.4947Y-3.5438
X5.5114Y-2.5038
X5.5163Y-3.6682
X5.5207Y-5.1748
X5.5389Y-2.5432
X5.5507Y-2.2598
X5.6423Y-3.8296
X5.6507Y-5.1398
X5.6905Y-5.0392
X5.781Y-3.6012
X5.786Y-5.5569
X5.7879Y-5.3128
X5.8125Y-4.5235
X5.8407Y-2.8798
X5.848Y-4.1613
X5.8707Y-5.1648
X5.8814Y-5.0983
X5.8917Y-4.6569
X5.909Y-5.2794
X5.9707Y-2.7898
X5.9757Y-2.8398
X5.9966Y-4.4851
X6.0143Y-4.2646
X6.1257Y-2.1098
X6.1736Y-4.0017
X6.2377Y-4.0806
X6.2988Y-4.0786
X6.3107Y-5.0548
X6.3145Y-5.8069
X6.4326Y-3.3739
X6.4356Y-4.2656
X6.4444Y-3.1475
X6.4818Y-3.1987
X6.4838Y-3.3404
X6.4936Y-2.929
X6.5133Y-3.3916
X6.5468Y-2.9861
X6.5488Y-2.4546
X6.5488Y-3.425
X6.6098Y-4.49
X6.6157Y-5.366
X6.6619Y-4.0776
X6.6807Y-2.0348
X6.7692Y-5.8483
X6.8775Y-6.0845
X7.0307Y-2.7798
X7.332Y-3.092
X7.394Y-6.03
X7.408Y-6.278
X7.422Y-2.912
X7.462Y-2.83
X7.5465Y-4.5085
X7.574Y-3.802
X7.578Y-2.7
X7.65Y-3.73
X7.794Y-3.26
X7.826Y-3.9
X7.838Y-3.334
X7.84Y-3.768
X7.892Y-3.376
X7.9Y-3.488
X7.9823Y-3.1713
X8.014Y-3.352
X8.0315Y-4.5217
X8.032Y-2.578
X8.0335Y-3.2736
X8.0413Y-2.9941
X8.056Y-6.322
X8.076Y-3.166
X8.0965Y-3.2756
X8.0984Y-3.3209
X8.114Y-4.104
X8.132Y-5.506
X8.14Y-4.166
X8.185Y-3.4961
X8.186Y-2.622
X8.2205Y-2.9764
X8.25Y-3.3169
X8.2697Y-3.5
X8.2746Y-2.9715
X8.29Y-2.926
X8.313Y-3.624
X8.344Y-2.97
X8.3661Y-3.4488
X8.402Y-3.1
X8.408Y-3.408
X8.422Y-3.262
X8.44Y-2.918
X8.516Y-2.174
X8.528Y-2.358
X8.638Y-2.17
X8.638Y-4.87
X8.67Y-5.524
X8.714Y-2.648
X8.788Y-2.092
X8.792Y-3.05
X8.796Y-3.468
X8.798Y-3.938
X8.838Y-4.45
X8.868Y-4.57
X8.87Y-4.628
X8.888Y-2.092
X8.988Y-2.092
X9.024Y-3.098
X9.029Y-3.276
X9.06Y-3.918
X9.0669Y-4.0236
X9.07Y-4.904
X9.0709Y-3.8238
X9.088Y-2.058
X9.12Y-2.506
X9.136Y-2.284
X9.16Y-2.54
X9.182Y-5.098
X9.236Y-3.478
X9.27Y-4.328
X9.27Y-4.376
X9.3162Y-4.1242
X9.3396Y-4.0236
X9.372Y-4.58
X9.4085Y-3.8524
X9.412Y-3.922
X9.472Y-5.79
X9.488Y-4.226
X9.542Y-3.51
X9.558Y-3.894
X9.5815Y-5.5645
X9.598Y-4.038
X9.709Y-3.289
X9.714Y-3.21
X9.756Y-2.632
X9.784Y-4.092
X9.802Y-3.908
X9.856Y-4.134
X9.872Y-3.392
X9.898Y-4.532
X9.958Y-2.834
X9.96Y-4.05
X9.97Y-3.36
X9.992Y-4.23
X10.01Y-3.968
X10.024Y-2.21
X10.058Y-4.482
X10.068Y-4.288
X10.152Y-2.212
X10.156Y-2.85
X10.156Y-2.956
X10.162Y-3.08
X10.186Y-2.632
X10.192Y-2.686
X10.192Y-2.778
X10.194Y-2.73
X10.264Y-4.284
X10.306Y-3.978
X10.37Y-4.23
X10.376Y-2.992
X10.402Y-2.952
X10.404Y-2.844
X10.418Y-2.41
X10.438Y-2.762
X10.442Y-6.284
X10.444Y-2.556
X10.526Y-2.046
X10.5515Y-4.134
X10.5525Y-3.4
X10.5928Y-3.6168
X10.614Y-2.652
X10.6216Y-4.8576
X10.626Y-2.854
X10.636Y-2.11
X10.648Y-2.754
X10.718Y-3.67
X10.726Y-2.61
X10.73Y-3.2
X10.732Y-2.052
X10.816Y-2.456
X10.818Y-2.952
X10.8307Y-3.0551
T2
X9.8603Y-2.479
X9.8603Y-2.579
T3
X4.441Y-2.6308
X4.441Y-2.8453
X4.441Y-3.0599
X4.441Y-3.2745
X4.541Y-2.6308
X4.541Y-2.8453
X4.541Y-3.0599
X4.541Y-3.2745
X4.641Y-2.6308
X4.641Y-2.8453
X4.641Y-3.0599
X4.641Y-3.2745
X6.1759Y-2.6308
X6.1759Y-2.8453
X6.1759Y-3.0599
X6.1759Y-3.2745
X6.2759Y-2.6308
X6.2759Y-2.8453
X6.2759Y-3.0599
X6.2759Y-3.2745
X6.3759Y-2.6308
X6.3759Y-2.8453
X6.3759Y-3.0599
X6.3759Y-3.2745
X6.8867Y-2.2304
X6.8867Y-2.3288
X6.8867Y-2.4076
X6.8867Y-2.506
T4
X8.556Y-5.992
X8.556Y-6.092
X8.656Y-5.992
X8.656Y-6.092
X8.756Y-5.992
X8.756Y-6.092
X8.856Y-5.992
X8.856Y-6.092
X8.956Y-5.992
X8.956Y-6.092
X9.056Y-5.992
X9.056Y-6.092
X9.156Y-5.992
X9.156Y-6.092
X9.256Y-5.992
X9.256Y-6.092
T5
X4.8466Y-2.1888
X4.8466Y-2.366
X4.8761Y-2.6672
X4.8761Y-3.238
X4.9745Y-3.238
X5.073Y-2.6672
X5.073Y-3.238
X5.1025Y-2.1888
X5.1025Y-2.366
X5.7144Y-2.1888
X5.7144Y-2.366
X5.7439Y-2.6672
X5.7439Y-3.238
X5.8424Y-3.238
X5.9408Y-2.6672
X5.9408Y-3.238
X5.9703Y-2.1888
X5.9703Y-2.366
X6.8494Y-5.305
X6.8494Y-5.5609
X7.0265Y-5.305
X7.0265Y-5.5609
T6
X3.8647Y-5.1625
X3.8647Y-5.2806
X3.8647Y-5.6152
X3.8647Y-5.742
X3.8647Y-5.8601
X3.8647Y-6.1947
X4.008Y-4.8719
X4.0083Y-4.021
X4.1064Y-4.8719
X4.1067Y-4.021
X4.2048Y-4.8719
X4.2052Y-4.021
X4.2953Y-5.1625
X4.2953Y-5.2806
X4.2953Y-5.6152
X4.2953Y-5.7425
X4.2953Y-5.8606
X4.2953Y-6.1952
X4.7259Y-5.1625
X4.7259Y-5.2806
X4.7259Y-5.6152
X4.7259Y-5.7425
X4.7259Y-5.8606
X4.7259Y-6.1952
X4.8728Y-4.8738
X4.8761Y-4.021
X4.9712Y-4.8738
X4.9745Y-4.021
X5.0696Y-4.8738
X5.073Y-4.021
X5.1565Y-5.1625
X5.1565Y-5.2806
X5.1565Y-5.6152
X5.1565Y-5.7425
X5.1565Y-5.8606
X5.1565Y-6.1952
X5.5871Y-5.1625
X5.5871Y-5.2806
X5.5871Y-5.6152
X5.5871Y-5.7425
X5.5871Y-5.8606
X5.5871Y-6.1952
X5.7376Y-4.8738
X5.7439Y-4.021
X5.836Y-4.8738
X5.8424Y-4.021
X5.9344Y-4.8738
X5.9408Y-4.021
X6.0177Y-5.1625
X6.0177Y-5.2806
X6.0177Y-5.6152
X6.0177Y-5.7425
X6.0177Y-5.8606
X6.0177Y-6.1952
X6.468Y-5.1625
X6.468Y-5.2806
X6.468Y-5.6152
X6.468Y-5.7425
X6.468Y-5.8606
X6.468Y-6.1952
X6.6024Y-4.8713
X6.6117Y-4.021
X6.7008Y-4.8713
X6.7102Y-4.021
X6.7992Y-4.8713
X6.8086Y-4.021
X6.9379Y-5.7425
X6.9379Y-5.8606
X6.9379Y-6.1952
X7.589Y-2.229
X7.589Y-2.829
X7.689Y-2.229
X7.689Y-2.829
X7.789Y-2.229
X7.789Y-2.829
X7.889Y-2.229
X7.889Y-2.829
X7.989Y-2.229
X7.989Y-2.829
X8.089Y-2.229
X8.089Y-2.829
X8.189Y-2.229
X8.189Y-2.829
X8.289Y-2.229
X8.289Y-2.829
X8.389Y-2.229
X8.389Y-2.829
X8.489Y-2.229
X8.489Y-2.829
X8.589Y-2.229
X8.589Y-2.829
X8.689Y-2.229
X8.689Y-2.829
X8.789Y-2.229
X8.789Y-2.829
X8.889Y-2.229
X8.889Y-2.829
X8.989Y-2.229
X8.989Y-2.829
X9.089Y-2.229
X9.089Y-2.829
X9.189Y-2.229
X9.189Y-2.829
X9.241Y-2.7089
X9.289Y-2.229
X9.289Y-2.829
X9.341Y-2.7089
X9.389Y-2.229
X9.389Y-2.829
X9.441Y-2.7089
X9.489Y-2.229
X9.489Y-2.829
X9.541Y-2.7089
X9.589Y-2.229
X9.589Y-2.829
X9.641Y-2.7089
X9.689Y-2.229
X9.689Y-2.829
X9.789Y-2.229
X9.789Y-2.829
X9.889Y-2.229
X9.889Y-2.829
T8
X3.9292Y-4.5963
X3.9296Y-3.7454
X4.2836Y-4.5963
X4.2839Y-3.7454
X4.794Y-4.5983
X4.7974Y-3.7454
X5.1484Y-4.5983
X5.1517Y-3.7454
X5.6588Y-4.5983
X5.6652Y-3.7454
X6.0132Y-4.5983
X6.0195Y-3.7454
X6.5236Y-4.5958
X6.533Y-3.7454
X6.878Y-4.5958
X6.8873Y-3.7454
T9
X6.78Y-2.1096
X6.78Y-2.6269
T10
X7.081Y-2.4762
X7.081Y-2.5943
X10.0149Y-6.2145
X10.1331Y-6.2145
T11
X10.6338Y-3.4655
X10.6338Y-4.3145
T7
G00X4.7541Y-2.9684
M15
G01X4.7541Y-2.9172
M16
G05
G00X5.195Y-2.9684
M15
G01X5.195Y-2.9172
M16
G05
G00X5.6219Y-2.9684
M15
G01X5.6219Y-2.9172
M16
G05
G00X6.0628Y-2.9684
M15
G01X6.0628Y-2.9172
M16
G05
T0
M30
